<?xml version="1.0" encoding="UTF-8"?><svg id="Ebene_1" xmlns="http://www.w3.org/2000/svg" xmlns:xlink="http://www.w3.org/1999/xlink" viewBox="0 0 1528.6391453711 1268.4897208086"><defs><style>.cls-1{fill:url(#Unbenannter_Verlauf_10-19);}.cls-2{fill:url(#Unbenannter_Verlauf_10-16);}.cls-3{fill:url(#Unbenannter_Verlauf_10-17);}.cls-4{fill:url(#Unbenannter_Verlauf_10-14);}.cls-5{fill:url(#Unbenannter_Verlauf_10-15);}.cls-6{fill:url(#Unbenannter_Verlauf_10-18);}.cls-7{fill:url(#Unbenannter_Verlauf_10-10);}.cls-8{fill:url(#Unbenannter_Verlauf_10-13);}.cls-9{fill:url(#Unbenannter_Verlauf_10-12);}.cls-10{fill:url(#Unbenannter_Verlauf_10-11);}.cls-11{fill:url(#Unbenannter_Verlauf_10-21);}.cls-12{fill:url(#Unbenannter_Verlauf_10-22);}.cls-13{fill:url(#Unbenannter_Verlauf_10-20);}.cls-14{filter:url(#outer-glow-10);}.cls-14,.cls-15,.cls-16{fill:#241734;}.cls-17{fill:url(#Unbenannter_Verlauf_10-9);}.cls-18{fill:url(#Unbenannter_Verlauf_10-6);}.cls-19{fill:url(#Unbenannter_Verlauf_10-5);}.cls-20{fill:url(#Unbenannter_Verlauf_10-3);}.cls-21{fill:url(#Unbenannter_Verlauf_10-2);}.cls-22{fill:url(#Unbenannter_Verlauf_10-4);}.cls-23{fill:url(#Unbenannter_Verlauf_10-8);}.cls-24{fill:url(#Unbenannter_Verlauf_10-7);}.cls-25{fill:url(#Unbenannter_Verlauf_3-10);}.cls-15{filter:url(#outer-glow-7);}.cls-26{fill:#9e1b25;filter:url(#outer-glow-9);}.cls-27{filter:url(#outer-glow-8);}.cls-27,.cls-28{fill:#fd1d53;}.cls-29{fill:#f2f2f2;}.cls-30{fill:#fff;}.cls-31{fill:#b20f45;}.cls-32{fill:#188c86;}.cls-33{fill:#1ba5a1;}.cls-34{fill:#2de2e6;}.cls-35{fill:#2e2157;}.cls-36{stroke:url(#Unbenannter_Verlauf_38);stroke-width:17.809316135px;}.cls-36,.cls-37,.cls-38{fill:none;stroke-miterlimit:10;}.cls-37{stroke:url(#Unbenannter_Verlauf_23);stroke-width:43.5338838855px;}.cls-39{fill:url(#Unbenannter_Verlauf_3-4);}.cls-40{fill:url(#Unbenannter_Verlauf_3-3);}.cls-41{fill:url(#Unbenannter_Verlauf_3-2);}.cls-42{fill:url(#Unbenannter_Verlauf_3-8);}.cls-43{fill:url(#Unbenannter_Verlauf_3-7);}.cls-44{fill:url(#Unbenannter_Verlauf_3-6);}.cls-45{fill:url(#Unbenannter_Verlauf_3-5);}.cls-46{fill:url(#Unbenannter_Verlauf_3-9);}.cls-47{fill:url(#Unbenannter_Verlauf_76);}.cls-48{fill:url(#Unbenannter_Verlauf_10);}.cls-49{fill:url(#Unbenannter_Verlauf_26);}.cls-50{fill:url(#Unbenannter_Verlauf_44);}.cls-38{filter:url(#outer-glow-6);stroke:#f9c80e;stroke-width:3.1247409939px;}.cls-51{fill:url(#Unbenannter_Verlauf_3);}</style><linearGradient id="Unbenannter_Verlauf_26" x1="786.5088500862" y1="1189.6567958781" x2="786.5088500862" y2="48.1996532116" gradientUnits="userSpaceOnUse"><stop offset="0" stop-color="#bc882f"/><stop offset="1" stop-color="#2e2157"/></linearGradient><linearGradient id="Unbenannter_Verlauf_10" x1="769.0165812111" y1="1275.3627287626" x2="835.4262321523" y2="809.4372928756" gradientUnits="userSpaceOnUse"><stop offset="0" stop-color="#1a1a1a"/><stop offset="1" stop-color="#2e2157"/></linearGradient><linearGradient id="Unbenannter_Verlauf_23" x1="140.7578384611" y1="608.9857088766" x2="1453.1191253907" y2="608.9857088766" gradientUnits="userSpaceOnUse"><stop offset="0" stop-color="#f9c80e"/><stop offset=".1678949796" stop-color="#f8983d"/><stop offset=".3733093346" stop-color="#f76471"/><stop offset=".5662874008" stop-color="#f73b99"/><stop offset=".7409203938" stop-color="#f71eb6"/><stop offset=".8912880231" stop-color="#f70cc8"/><stop offset="1" stop-color="#f706cf"/></linearGradient><linearGradient id="Unbenannter_Verlauf_10-2" x1="-2052.5944036435" y1="1224.7841986463" x2="-1987.9580475798" y2="771.3000747834" gradientTransform="translate(-1408.4704133827 214.7611302053) rotate(163.0748975272) scale(.8998226725 -1)" xlink:href="#Unbenannter_Verlauf_10"/><linearGradient id="Unbenannter_Verlauf_10-3" x1="-2337.1984478074" y1="1313.5674201977" x2="-2320.5858624061" y2="1197.0146905175" gradientTransform="translate(-2165.8150096648 584.4611684939) rotate(147.5582619267) scale(1 -1)" xlink:href="#Unbenannter_Verlauf_10"/><linearGradient id="Unbenannter_Verlauf_10-4" x1="1888.9321967631" y1="971.8351503855" x2="1904.4459517385" y2="862.9917376178" gradientTransform="translate(-1499.2927870995 257.4728647223) rotate(-23.633139238)" xlink:href="#Unbenannter_Verlauf_10"/><linearGradient id="Unbenannter_Verlauf_10-5" x1="-2166.7881871783" y1="910.3403663086" x2="-2166.7881871783" y2="857.3622785117" gradientTransform="translate(-1664.2648761029 317.1727553913) rotate(158.4688069736) scale(1 -1)" xlink:href="#Unbenannter_Verlauf_10"/><linearGradient id="Unbenannter_Verlauf_10-6" x1="1589.8363428684" y1="912.0013022747" x2="1589.8363428684" y2="859.0232144779" gradientTransform="translate(-1358.0676113631 196.3658375386) rotate(-21.531193029)" xlink:href="#Unbenannter_Verlauf_10"/><linearGradient id="Unbenannter_Verlauf_10-7" x1="1100.1291528766" y1="1268.1339349791" x2="1100.1291528766" y2="1182.5192738783" gradientTransform="translate(-1073.5940115786 -44.6730023191) rotate(-29.6430820205)" xlink:href="#Unbenannter_Verlauf_10"/><linearGradient id="Unbenannter_Verlauf_10-8" x1="-2387.1922959085" y1="593.9067642897" x2="-2387.1922959085" y2="508.2921031889" gradientTransform="translate(-1767.5125330479 171.3323557143) rotate(172.730449852) scale(1 -1)" xlink:href="#Unbenannter_Verlauf_10"/><linearGradient id="Unbenannter_Verlauf_10-9" x1="-3374.6624873786" y1="1606.3820317563" x2="-3310.0261313149" y2="1152.8979078934" gradientTransform="translate(3380.7148053213 -620.6323383522) rotate(-2.8643751185) scale(.8998226725 1)" xlink:href="#Unbenannter_Verlauf_10"/><linearGradient id="Unbenannter_Verlauf_10-10" x1="-3381.3823563368" y1="1999.5038497153" x2="-3364.7697709355" y2="1882.9511200352" gradientTransform="translate(4218.5004116572 -529.1761540631) rotate(12.652260482)" xlink:href="#Unbenannter_Verlauf_10"/><linearGradient id="Unbenannter_Verlauf_10-11" x1="3025.8406740083" y1="1489.7810303182" x2="3041.3544289837" y2="1380.9376175505" gradientTransform="translate(3480.6341822819 -611.1923203007) rotate(-176.1563383533) scale(1 -1)" xlink:href="#Unbenannter_Verlauf_10"/><linearGradient id="Unbenannter_Verlauf_10-12" x1="-3321.9287334498" y1="1386.2386101914" x2="-3321.9287334498" y2="1333.2605223946" gradientTransform="translate(3656.075809161 -610.8719236103) rotate(1.7417154351)" xlink:href="#Unbenannter_Verlauf_10"/><linearGradient id="Unbenannter_Verlauf_10-13" x1="2744.9768891185" y1="1387.8995462094" x2="2744.9768891185" y2="1334.9214584126" gradientTransform="translate(3327.0606389788 -620.8766287589) rotate(-178.2582845623) scale(1 -1)" xlink:href="#Unbenannter_Verlauf_10"/><linearGradient id="Unbenannter_Verlauf_10-14" x1="2176.5594117476" y1="1902.2685563001" x2="2176.5594117476" y2="1816.6538951993" gradientTransform="translate(2977.7798632176 -751.3675900476) rotate(-170.1463955708) scale(1 -1)" xlink:href="#Unbenannter_Verlauf_10"/><linearGradient id="Unbenannter_Verlauf_10-15" x1="-3623.9700627665" y1="770.5690850511" x2="-3623.9700627665" y2="684.9544239503" gradientTransform="translate(3703.8494927774 -783.0554768211) rotate(-12.5199274433)" xlink:href="#Unbenannter_Verlauf_10"/><filter id="outer-glow-6" filterUnits="userSpaceOnUse"><feOffset dx="0" dy="0"/><feGaussianBlur result="blur" stdDeviation="4.1499977361"/><feFlood flood-color="#edb426" flood-opacity=".87"/><feComposite in2="blur" operator="in"/><feComposite in="SourceGraphic"/></filter><linearGradient id="Unbenannter_Verlauf_10-16" x1="1138.1878445552" y1="1003.0433163445" x2="1155.4474444512" y2="881.9511785184" gradientTransform="translate(-275.5304438886 -1.3865865115) rotate(-4.6060905536) scale(.8998226725 1)" xlink:href="#Unbenannter_Verlauf_10"/><linearGradient id="Unbenannter_Verlauf_10-17" x1="433.1645852865" y1="661.9050059736" x2="443.9183907317" y2="586.4570640185" gradientTransform="translate(564.6478202933 64.5636994987) rotate(10.9105450469)" xlink:href="#Unbenannter_Verlauf_10"/><linearGradient id="Unbenannter_Verlauf_10-18" x1="-990.8158094875" y1="752.3442040544" x2="-980.7733086546" y2="681.8867251843" gradientTransform="translate(-175.370310286 5.0121219302) rotate(-177.8980537884) scale(1 -1)" xlink:href="#Unbenannter_Verlauf_10"/><linearGradient id="Unbenannter_Verlauf_10-19" x1="743.0937343683" y1="795.4103379798" x2="743.0937343683" y2="761.1160944733" xlink:href="#Unbenannter_Verlauf_10"/><linearGradient id="Unbenannter_Verlauf_10-20" x1="-1232.6590943722" y1="796.485510086" x2="-1232.6590943722" y2="762.1912665795" gradientTransform="translate(-329.1672464284) rotate(-180) scale(1 -1)" xlink:href="#Unbenannter_Verlauf_10"/><linearGradient id="Unbenannter_Verlauf_10-21" x1="-1685.3546132409" y1="730.0635189711" x2="-1685.3546132409" y2="674.6426807036" gradientTransform="translate(-682.252794046 -119.8146384513) rotate(-171.8881110059) scale(1 -1)" xlink:href="#Unbenannter_Verlauf_10"/><linearGradient id="Unbenannter_Verlauf_10-22" x1="453.9012367206" y1="1168.4472913765" x2="453.9012367206" y2="1113.026453109" gradientTransform="translate(42.5182672392 -173.5560364653) rotate(-14.2616428784)" xlink:href="#Unbenannter_Verlauf_10"/><filter id="outer-glow-7" filterUnits="userSpaceOnUse"><feOffset dx="0" dy="0"/><feGaussianBlur result="blur-2" stdDeviation="16.1388800849"/><feFlood flood-color="#000" flood-opacity=".75"/><feComposite in2="blur-2" operator="in"/><feComposite in="SourceGraphic"/></filter><filter id="outer-glow-8" filterUnits="userSpaceOnUse"><feOffset dx="0" dy="0"/><feGaussianBlur result="blur-3" stdDeviation="16.1388800849"/><feFlood flood-color="#2d0028" flood-opacity=".87"/><feComposite in2="blur-3" operator="in"/><feComposite in="SourceGraphic"/></filter><filter id="outer-glow-9" filterUnits="userSpaceOnUse"><feOffset dx="0" dy="0"/><feGaussianBlur result="blur-4" stdDeviation="16.1388800849"/><feFlood flood-color="#000" flood-opacity=".87"/><feComposite in2="blur-4" operator="in"/><feComposite in="SourceGraphic"/></filter><filter id="outer-glow-10" filterUnits="userSpaceOnUse"><feOffset dx="0" dy="0"/><feGaussianBlur result="blur-5" stdDeviation="16.1388800849"/><feFlood flood-color="#000" flood-opacity=".75"/><feComposite in2="blur-5" operator="in"/><feComposite in="SourceGraphic"/></filter><linearGradient id="Unbenannter_Verlauf_44" x1="889.88515513" y1="279.0904379858" x2="1088.1212392103" y2="279.0904379858" gradientUnits="userSpaceOnUse"><stop offset="0" stop-color="#f706cf"/><stop offset="1" stop-color="#fb76e5"/></linearGradient><linearGradient id="Unbenannter_Verlauf_38" x1="545.9146150695" y1="1049.9329896578" x2="480.8481195905" y2="932.8132977956" gradientUnits="userSpaceOnUse"><stop offset="0" stop-color="#2de2e6"/><stop offset="1" stop-color="#c6f7f8"/></linearGradient><linearGradient id="Unbenannter_Verlauf_76" x1="764.3213767031" y1="1261.2207136352" x2="764.3213767031" y2="1046.8183154995" gradientUnits="userSpaceOnUse"><stop offset="0" stop-color="#241734"/><stop offset=".4699554688" stop-color="#2d213d"/><stop offset="1" stop-color="#3e334c"/></linearGradient><linearGradient id="Unbenannter_Verlauf_3" x1="764.3195726856" y1="1039.5468691607" x2="764.3195726856" y2="1268.4897208086" gradientUnits="userSpaceOnUse"><stop offset=".2761036706" stop-color="#f9c80e"/><stop offset=".2900728873" stop-color="#f9b814"/><stop offset=".327064897" stop-color="#fa9323"/><stop offset=".3686756379" stop-color="#fa7330"/><stop offset=".4146932137" stop-color="#fb583b"/><stop offset=".4666549929" stop-color="#fc4243"/><stop offset=".5273559488" stop-color="#fc314a"/><stop offset=".602420243" stop-color="#fc254f"/><stop offset=".707702519" stop-color="#fc1e52"/><stop offset="1" stop-color="#fd1d53"/></linearGradient><linearGradient id="Unbenannter_Verlauf_3-2" x1="151.7872881157" y1="1087.7465223723" x2="151.7872881157" y2="1224.9812072066" xlink:href="#Unbenannter_Verlauf_3"/><linearGradient id="Unbenannter_Verlauf_3-3" x1="294.265047399" y1="1087.7465223723" x2="294.265047399" y2="1224.9812072066" xlink:href="#Unbenannter_Verlauf_3"/><linearGradient id="Unbenannter_Verlauf_3-4" x1="462.2809388732" y1="1087.7465223723" x2="462.2809388732" y2="1224.9812072066" xlink:href="#Unbenannter_Verlauf_3"/><linearGradient id="Unbenannter_Verlauf_3-5" x1="614.2832460431" y1="1087.7465223723" x2="614.2832460431" y2="1224.9812072066" xlink:href="#Unbenannter_Verlauf_3"/><linearGradient id="Unbenannter_Verlauf_3-6" x1="759.9066956372" y1="1087.7465223723" x2="759.9066956372" y2="1224.9812072066" xlink:href="#Unbenannter_Verlauf_3"/><linearGradient id="Unbenannter_Verlauf_3-7" x1="904.1319627173" y1="1087.7465223723" x2="904.1319627173" y2="1224.9812072066" xlink:href="#Unbenannter_Verlauf_3"/><linearGradient id="Unbenannter_Verlauf_3-8" x1="1055.4610863703" y1="1087.7465223723" x2="1055.4610863703" y2="1224.9812072066" xlink:href="#Unbenannter_Verlauf_3"/><linearGradient id="Unbenannter_Verlauf_3-9" x1="1224.1757163929" y1="1087.7465223723" x2="1224.1757163929" y2="1224.9812072066" xlink:href="#Unbenannter_Verlauf_3"/><linearGradient id="Unbenannter_Verlauf_3-10" x1="1376.8798045142" y1="1087.7465223723" x2="1376.8798045142" y2="1224.9812072066" xlink:href="#Unbenannter_Verlauf_3"/></defs><polygon class="cls-49" points="167.7097896331 1189.6567958781 1405.3079105394 1067.4093189789 389.9230692669 48.1996532116 167.7097896331 1189.6567958781"/><path class="cls-48" d="m220.9688793024,881.7525830156s297.3806262347-66.8686008971,427.983273454-35.6375330838c130.6026472193,31.2310678133,339.9293963339,105.7825455299,508.6057674382,45.6451500937,15.2230078559-5.4273875894,45.077148501-21.6487225426,57.8668520503-28.16065615l198.9572642549,188.3566348258-1246.6722468666,137.7006171768,53.2590896692-307.9042128625Z"/><polygon class="cls-37" points="167.7097896331 1189.6567958781 1405.3079105394 1067.4093189789 389.9230692669 48.1996532116 167.7097896331 1189.6567958781"/><path class="cls-21" d="m682.307312265,864.7256386681c-.0316781364-1.0879816219-44.9222901539-269.4783377131-60.5146956928-342.618135578-13.2179219347-62.0017312976-41.0345000492-111.9971532011-42.3412015148-115.020122649l-22.0620901656,10.2266881761c.3102341068.7186763573,33.2882348866,71.8194364841,40.7939840748,110.4694217809,13.8384477545,71.2594824087,59.6155918945,336.0061684836,59.6230567906,336.2433083852l24.5009465077.6988398849Z"/><path class="cls-20" d="m566.5247685397,391.9915958389s-33.8495238199-29.4694131253-86.9486563382-40.5859376887c-49.476483911-10.3581079883-99.1569727488,46.738289081-99.1569727488,46.738289081,47.8822724768-32.5754184802,167.7182932636,5.6569462703,167.7182932636,5.6569462703l18.3873358234-11.8092976626Z"/><path class="cls-22" d="m575.9050454092,389.3758415712s29.6521389827-101.861496414,74.9882463405-120.0373544142c0,0-63.3431059414,7.8919668503-79.3833917162,47.3928669854-17.2147491629,42.393140439-9.8963211816,90.2754688097-9.8963211816,90.2754688097l14.2914665574-17.6309813809Z"/><path class="cls-19" d="m563.8242753061,410.4363925303s41.0178232171-7.7851742207,108.2854605902-44.8223866107c67.267637373-37.03721239,133.6697118948-44.3400046953,133.6697118948-44.3400046953-123.3734271169-62.5975111289-242.9559138237,70.6617738645-242.9559138237,70.6617738645l.6529505501,20.2833942367"/><path class="cls-18" d="m565.1151154728,411.7126393059s-24.3835099649,18.0182355271-98.8187611557,36.888410925c-74.4352511908,18.8701753979-127.9356208373,58.8736342974-127.9356208373,58.8736342974,47.3967206346-129.9730810252,225.7536406541-114.2626626638,225.7536406541-114.2626626638l1.0007413389,18.5006174414"/><path class="cls-24" d="m568.6789948283,400.806051714s-147.3468788555,5.5974177494-151.8007294208,165.4274048771c0,0,38.8145226082-48.1372056881,77.2668034066-79.9237722349,59.1857255873-48.9258625481,74.8232540171-65.8402459637,74.8232540171-65.8402459637l-.2893280029-19.6633866785"/><path class="cls-23" d="m568.9683228312,420.4694383925s26.2041691456,3.3335418504,102.9109527178,6.9055851576c49.8355093528,2.3207151878,109.7807869248,17.4970597265,109.7807869248,17.4970597265-99.5544202861-125.1174606983-220.7277402874-41.0968661171-220.7277402874-41.0968661171l8.0360006448,16.6942212331Z"/><path class="cls-17" d="m464.3962187012,1139.3806555577c-.3385453101-1.0344537626-48.9666532721-268.7728660349-59.0576735359-342.8722887873-8.5543130441-62.8152200706.6927943012-119.2757836088.898853832-122.5626289768l24.2215684014,2.1532760397c-.0485938516.7812679087-7.0067741381,78.84822861-.9837190611,117.7568451603,11.1047852673,71.7363242269,57.6650974871,336.3463996949,57.7383607452,336.57206217l-22.8173903816,8.9527343941Z"/><path class="cls-7" d="m413.2897299248,655.364953864s21.8731557988-39.189305023,68.072743373-67.6268348125c43.0476552612-26.4974005858,109.1250101991,10.4069717008,109.1250101991,10.4069717008-56.0833878213-14.4403433889-155.8981030355,62.1064280593-155.8981030355,62.1064280593l-21.2996505366-4.8865649476Z"/><path class="cls-10" d="m403.5778212573,656.0795128687s-62.3877213732-85.8066781772-111.2001241059-87.5598991708c0,0,62.2741944734-14.0198756683,90.7408155298,17.7175370311,30.5509358051,34.0612135201,39.8759988047,81.5935178863,39.8759988047,81.5935178863l-19.4166902286-11.7511557467Z"/><path class="cls-9" d="m422.0755048547,671.8061626874s-41.2312205478,6.5617993915-117.06573884-5.5136291626c-75.8345182922-12.0754285541-140.7875537727,3.5344868241-140.7875537727,3.5344868241,94.8940240709-100.6706268667,252.5312693475-15.7676995582,252.5312693475-15.7676995582l6.2528606019,19.3065833455"/><path class="cls-8" d="m421.2929905282,673.4440715668s29.0438381975,8.6987259113,105.4719471895,1.253304817c76.4281089921-7.4454210943,140.3126812125,12.0821929037,140.3126812125,12.0821929037-88.6019626511-106.2503794463-251.1066516672-31.0823396174-251.1066516672-31.0823396174l5.3220232652,17.7468418967"/><path class="cls-4" d="m414.24699318,664.3881999727s140.5400991291-44.6196630502,198.8437774289,104.2633200836c0,0-52.8198307676-32.1531213793-99.763056532-49.043866368-72.2549825546-25.9982236972-92.6956251523-36.6193720305-92.6956251523-36.6193720305l-6.3850957447-18.6000816851"/><path class="cls-5" d="m420.6320889247,682.9882816578s-23.5280075462,12.0084904457-94.4953464522,41.3398209301c-46.1066585912,19.0562258853-97.3735647326,53.6316806391-97.3735647326,53.6316806391,51.314622919-151.4340484989,193.7782484042-113.4005210853,193.7782484042-113.4005210853l-1.9093372195,18.4290195161Z"/><polygon class="cls-38" points="257.8786240363 1205.3260094929 1317.6277806908 654.8747236655 121.9479520229 86.0350105525 257.8786240363 1205.3260094929"/><path class="cls-2" d="m827.2477710068,916.2768505703c-.2394016695-.6626615231-5.904426302-16.5478459029-9.4074806047-43.6438521885-3.4676239303-26.8260811613-1.8984810918-77.1886122986-1.8298228109-79.3193532696l15.7144410884.91667664c-.0160702968.5064596668-1.5871482521,50.9352030848,1.6803591457,76.2115378356,3.2070641279,24.8074043045,8.378046215,39.4488065359,8.4298896109,39.5933754254l-14.5873864294,6.241615557Z"/><path class="cls-3" d="m820.2079604336,781.1525710107s13.3815369219-25.786998868,42.7145393044-45.0958994034c27.3317802309-17.9915652361,70.8118853261,4.5865962742,70.8118853261,4.5865962742-36.5717333331-8.2398966311-99.6487741592,43.2519874894-99.6487741592,43.2519874894l-13.8776504713-2.7426843601Z"/><path class="cls-6" d="m813.9381253797,781.8059928251s-42.0549505617-54.2920019392-73.6725222399-54.4660087476c0,0,40.0174173902-10.296515602,59.0605989352,9.6784568749,20.4375157751,21.4375320709,27.4063025867,52.0088778336,27.4063025867,52.0088778336l-12.794379282-7.2213259608Z"/><path class="cls-1" d="m826.2160974869,791.6176631286s-26.548723959,5.0568998016-75.8534970267-1.2642249506c-49.3047730676-6.3211247523-91.0241964326,5.0568998018-91.0241964326,5.0568998018,59.4185726713-67.003922374,163.0850186084-15.1706994054,163.0850186084-15.1706994054l4.4256420731,12.368909554"/><path class="cls-13" d="m825.7420131304,792.692834812s18.9633742566,5.0568998027,68.2681473245-1.2642249474c49.3047730679-6.32112475,91.0241964324,5.0568998059,91.0241964324,5.0568998059-59.4185726682-67.0039223767-163.0850186077-15.1706994128-163.0850186077-15.1706994128l3.7926748508,11.3780245542"/><path class="cls-11" d="m821.0048697511,786.9720457115s90.0557390055-31.6353628667,130.7092124184,63.5492386838c0,0-34.8086120071-19.7648012949-65.5145998953-29.7700124982-47.26263658-15.4000145745-60.6973107298-21.8700459451-60.6973107298-21.8700459451l-4.4973017932-11.9091802405"/><path class="cls-12" d="m825.5021715443,798.881225952s-14.9870551751,8.2327619862-60.3279443133,28.6072813068c-29.4574508209,13.2370893534-61.9483960335,36.6171090129-61.9483960335,36.6171090129,30.2226377447-98.9919463422,123.1491491553-77.1860804204,123.1491491553-77.1860804204l-.8728088084,11.9616901007Z"/><path class="cls-15" d="m868.6767577102,354.6345494727c-2.4183509453,1.8674801539-4.9232636422,3.7055088243-7.4220299424,5.5225373065-8.1099141571,5.8969552967-15.9427282695,11.8937895375-22.7693260454,19.2902094943-4.3257826768,4.6873956743-7.8445947057,10.0767610554-7.5879826495,16.7128205381.3198687208,8.2648545703,6.0042611366,14.0573211256,13.6875129327,16.2182917151,11.8315572724,3.3277615359,24.0272885408,4.7158227584,36.1843487308,6.2575438948,1.6746369619.2123067811,3.3513227227.4305038589,5.0287767831.6510058353l-28.1927527074,46.6849550488c-1.0914975886,1.6889785539-2.1348484041,3.4138110877-3.1251865494,5.1750098011l-.0222806875.0371344792.001792699.0002560999s-.0002560998,0-.0002560998.0002560999l-.0015365992-.0005121997s-44.5444724478,73.0191910972-82.3663236613,107.4671828007c-44.5229600598,40.5508512848-111.0723004813,29.7772425198-131.1536024324,50.226303865.003585398-.0105000941.0066585963-.0210001882.0102439943-.0317563822.1098668384-.3185882215.2566120563-.6151518554.4299916591-.8912275008-5.3261087165-.8838006049-11.2343324069.8512759231-14.21021274,5.5261227045-5.8060398477,9.1209963907-6.2739342856,19.6323589026-.6927501119,29.0089429502,4.7944454143,8.0545965881,12.8882252805,12.8167734205,21.5246807426,15.9288988772,17.2652279286,6.2222021145,35.3061823227,10.7520963771,53.3158925343,14.2035541437,35.4846839227,6.8004755906,71.778899492,8.3030134489,107.8116371077,6.4339966959,29.4809349858-1.5289161436,59.2809703929-5.1709122034,88.2038637913-11.614384594,3.9334376966,5.3384015096,9.1297037859,10.0852123506,15.8459225237,14.0122475508,31.5840270078,18.4686411545,72.0122064613,21.2611539903,117.740372446,6.8826836446l-.0668420626,6.5804858139s11.8533257602,12.8183100196,31.4905505601,5.5210007073c19.6372247999-7.2970532125,33.3536770164-16.9279444176,45.3965166704-27.6498210116,14.9124385466-13.2769848627,16.4572328813-26.4517858826,16.4572328813-26.4517858826l.5127119128-7.4107615487c4.1567567716-3.0181368093,8.3345137313-6.1609942488,12.5294293815-9.4193527236l-268.560395062-294.8718382232Z"/><path class="cls-33" d="m918.032878634,559.8554722909s-66.6826017509,105.4460574948-4.855808402,141.5985327889c61.8267933489,36.1524752941,157.5307372837,12.2759342382,260.5734907003-82.9992736176,103.0427534166-95.2752078559,136.7176131241-132.9810653664,80.6259639361-170.3098978545-45.5640189838-30.3227246257-85.9835850859-48.1278250086-126.1738744384-48.7108134649-40.1902893524-.5829884563-181.79558312,117.5816895744-210.1697717961,160.4214521481Z"/><path class="cls-34" d="m1219.0412402331,420.0439234603c17.0491584367,8.9955467953,60.8506382876,29.5609489203,55.2494758304,46.0139913733-3.360698329,9.8718279823-85.8625840132,28.3094196757-116.8744004993,45.1898891362-82.6981641516,45.0145780731-133.9914377396,139.1312043049-176.3376648729,139.3277174208-42.3462271333.1965131159-78.2316140142-19.4949345942-78.6599278946-42.2551547646-.4283138804-22.7602201704,49.3284933592-136.0010261967,112.4743206705-175.7189665694,52.1000152316-32.7702618921,84.5591211592-34.4736630238,113.3096069628-33.1673799139,28.7504858037,1.3062831099,73.676569646,11.5548079592,90.838589803,20.6099033175Z"/><path class="cls-33" d="m1050.5184120489,487.0463705003c-.7508847794,0-1.5038183576-.2673682502-2.1061652202-.8092755467-1.290743277-1.1637177481-1.394207619-3.1531014338-.2304898709-4.4448691102,24.4780242883-27.159901986,65.398683766-40.2107506754,95.416660151-46.375586422,32.3187774962-6.639132681,59.3383367608-6.951574506,59.6077538098-6.9536233048h.0286831839c1.7240642342,0,3.1305646464,1.3901100213,3.1459306377,3.1182718533.0153659914,1.7384058262-1.3808904265,3.1592478303-3.1182718533,3.1756382211-1.0510338112.0092195949-105.5981660476,1.533525941-150.4053969482,51.2496788917-.6218104517.6894208138-1.478208372,1.0397654176-2.3387038899,1.0397654176Z"/><path class="cls-32" d="m1122.5499420729,443.7986021108c3.2482490923,11.3190612358,34.5098302355,3.0433555783,51.3991716999-.1378307192,16.8893414644-3.1811862975,26.5313680142-6.1798056592,18.083210737-13.3639405651-8.4481572772-7.1841349059-20.5480754709-9.6350534598-36.6579153631-4.2979293815-16.1098398922,5.3371240783-35.5921652341,8.155198638-32.8244670738,17.7997006659Z"/><path class="cls-35" d="m1037.7093055914,605.8124359897s40.845718966-35.4043404123,62.7439027225-24.1737384676c0,0-10.2726623706,35.7005716057-30.6653179871,40.0294060111-19.7474243229,4.1918684567-32.0785847355-15.8556675434-32.0785847355-15.8556675434Z"/><circle class="cls-31" cx="1140.1091063761" cy="530.600978057" r="17.3111168791"/><path class="cls-31" d="m1096.6773379923,560.3180760561l-1.0430947157-5.7348440875c-3.2609194733-17.9305753559-19.5473337503-30.4953465176-37.7186429714-29.0985779l-100.1086656226,7.69426409c-5.280522942.4059182726-9.4344626152,4.6766394803-9.6938917698,9.9663820172v.0002560999c-1.7983331927,36.6891215481,31.042631911,65.4893431152,67.1831875663,58.9167963969l31.0915469836-5.6541726327-5.4562074436,46.5384659308c-1.2894627777,10.9969278399,6.580229714,20.9566512608,17.5771575539,22.2461140385,10.2816409406,1.2054620247,19.7903725141-5.6155015544,21.9439162078-15.7414337822l16.1573399492-78.5166306178c.2491851604-1.1716568437.3590519988-2.2144954595.3544422015-3.1548941327.2496973601-2.4311559382.1720991036-4.936068635-.2870879392-7.4617254202Z"/><path class="cls-27" d="m1129.7471051664,499.6208734565l-82.2897498042-121.9439954913s-40.0949935402-38.0761583711-69.815125792-41.5606530192c-28.9935769588-3.3992133959-56.0833075841,9.9320646364-71.6372762713,32.3518143777l-.0005121997-.0122927931-.0788787558.1306109268c-1.7430156236,2.5225835869-3.3349323319,5.1616926086-4.7721647268,7.9027293732l-54.0380941298,89.4828264749c-1.0914975886,1.6889785539-2.1348484041,3.4138110877-3.1249304495,5.1750098011l-.0225367874.0371344792.0020487989.0002560999q-.0005121997,0-.0005121997.0002560999l-.0015365991-.0005121997s-44.5444724477,73.0191910972-82.3663236613,107.4671828007c-51.5165349423,46.9205669168-132.5357733582,25.1175056301-136.9207151019,62.4875966967-4.3306485741,36.9096235245,107.3119862876,43.0637030773,214.9681707825,40.229189865,117.975984314-3.10623516,192.6249948983-94.8053497934,192.493359572-117.5447121556-.0420003764-7.2453210414,9.3235713773-24.9715287118,9.3235713773-24.9715287118l-1.0991805843-56.0915027795,71.4989823488,47.798477225s16.2664384881-.6251397498,19.5214676647-8.8892260206c5.839332829-14.8240840961-1.6400634813-22.0486610491-1.6400634813-22.0486610491Z"/><path class="cls-16" d="m1125.7336192312,644.1003700535l.0058902967-.0855373521-.0140854921.0081951954c-.2832464414-2.6239991301-1.1409248609-4.9481053282-2.6521701143-6.8606590569-5.3491577036-6.7699997077-17.478815209-6.9116229284-31.7154062342-1.6124046968l9.0953864051-53.9113247008s-13.0528974882,30.3498817991-34.6208591066,34.9399595279c-15.0018173965,3.1927969115-28.1230935465-10.7661818692-28.1230935465-10.7661818692l-6.1548478523,86.5714833057.1646722078-.0368783793c-.953203666,3.5354585196-1.2172426181,6.7994511912-.737311487,9.6641841865l-.1311231266,12.9058961706s11.8533257602,12.8183100196,31.4905505601,5.5210007073c19.6372247999-7.2970532124,33.3536770165-16.9279444176,45.3965166705-27.6498210115,14.9124385466-13.2769848627,16.4572328812-26.4517858827,16.4572328812-26.4517858827l1.0492411123-15.1631603061c.5483097929-2.5323153815.7134942003-4.9038000531.4894068259-7.072965838Z"/><path class="cls-30" d="m1064.0820403254,511.8924460235c-6.1642698593-4.6470059163-16.0236272416-3.6393054326-20.5696313918,2.8929027452-19.7952150221,28.4435628785-39.5250146435,56.9339891514-59.3881439094,85.3300088794-8.4454063528,12.0733555762-17.0812358924,24.0136368163-28.8392934069,33.056372677-10.4234793367,8.0163020082-22.0770635822,13.3990583028-35.2572721453,17.9251862476-26.1489799065,8.9797057815-57.3799847836,13.5100735617-86.0577282362,16.5823922552-31.8220710771,3.409282003-63.7064096301,3.9627498113-95.5744637652.6913149156-18.0231362632-1.8503556143-36.0267987609-4.8081029465-53.5849695822-9.3156661598-7.9606669219-2.0436618732-16.2697639547-4.5551814766-24.1886265029-7.309487017-2.3719374268-.8252622924-4.810633879-1.7277144354-6.6504617587-2.6576793735-.9748730991-.0270146584-1.9987768323-.3220154452-2.9948327376-.944706908-2.8522532462-1.7825186062-6.6082262593-3.2246477877-8.9999936618-6.3241870663-3.0109541825-3.9016044691-2.5474732727-8.5628988716-1.0283876453-12.9730498017.1098255289-.3187238979.2564951437-.6152071826.4299240064-.8914058053-5.3260219324-.8837176345-11.2344873637.8515025698-14.2102705281,5.5262506698-5.8059020572,9.1209685138-6.2737761748,19.6324562356-.6926223598,29.0088565391,4.7944309902,8.0547134737,12.8881386074,12.8167997555,21.5246677113,15.9290885661,17.2650976964,6.2220971729,35.3061752825,10.7521127606,53.3159137822,14.2034604859,35.4845622081,6.8003991764,71.7787563496,8.3029634279,107.8114750424,6.4341141159,33.8913661418-1.7577545483,68.2055589215-6.3037478582,101.122389858-14.6936667973,32.921618127-8.3911626469,62.568649681-22.4424612777,84.4496604716-49.2014906761,12.8084032553-15.6635037012,27.9562048664-32.9874990495,39.5050920319-49.5821632872l32.7707169192-53.116656812c4.5295410014-6.5083529821,3.6047196885-15.6714568506-2.8931421918-20.5697883926Z"/><path class="cls-30" d="m1132.0486638865,491.6864055355c-8.2247529898,1.2036842257-12.6831897719,7.2933956229-13.0951511564,15.0658394273-.0241987834.1555944595-.0575637038.3632076075-.1143116445.6834758114-.1575263049.8904096181-.3517469869,1.7819474006-.5126757511,2.6717993991-.0154456066.025496536-.0267848411.0406688725-.0434379369.0695047344-.439935111.7522358724-.9203906668,1.847813126-1.2371544231,2.6575061093-.4746472132.6173855422-.9765428622,1.2121663304-1.4509995388,1.828889149-.0955786305.1241861062-.1739983164.2296526145-.2413570095.3222914586-.0162108068.0102584386-.0257883414.0148283339-.0431446402.0264893434-.8283109479.5459889393-1.5973243962,1.220486742-2.4234078484,1.778348745-.8431977987.5693699014-1.5982951879,1.2465820868-2.2725462644,1.9980055358-5.7346315272,2.4694380991-9.6246906556,8.5671844102-8.9755409058,15.0012978337.7995151565,7.9244753662,8.161074089,13.936959458,16.0858042615,13.1374185936,3.6404173491-.3672885222,6.8747406511-2.1471432461,9.2373694521-4.721804374,1.1015179661-.4250335079,2.1827865723-.9691307191,3.2202138669-1.6696796973,12.0702309522-8.1515006539,17.8485631349-21.4898156223,17.9521438001-35.7119634758.056276813-7.7082441222-8.8168167096-14.2011732551-16.0858042615-13.1374185936Z"/><path class="cls-26" d="m1044.6363105438,316.6777336348s-20.7712349647,1.2600112942-29.4883618816,8.6006014822c-12.1693529831-4.4848206878-27.1335237007-7.3065289071-41.3854807173-9.065166622-.778287464-8.5898452883-6.5984128038-19.2182454346-6.5984128038-19.2182454346,0,0-4.9207026436.3014295311-10.9731105532,1.4518300867-2.3282037958-1.4431226916-4.989593505-2.4280827399-7.8901804802-2.7681833494-10.5733386772-1.2397794055-20.149424513,6.326690856-21.3892039185,16.9000295332-.3429177079,2.9233798624.0081951954,5.7619906723.8891787019,8.377794607-6.3635692354,5.2587544542-13.5338530188,13.9054539107-23.6036993781,27.7000165834-10.2795921417,14.0821628117-60.7947766449,33.8781695227-53.5399799088,41.9804006841,9.9172108447,11.0750382962,78.169871412,23.2095616988,104.5322784447,21.6048399977,33.5367884139-2.0411158566,82.7668638369-36.2673250843,85.4894614118-59.4884112767.0921959484-.7875070588.1334280253-1.5578554273.1334280253-2.3143744035,5.1053506402-3.2073946033,10.2959825326-7.5439334742,10.493435522-12.0067295743.3918327805-8.8618233359-6.6693524641-21.7544023139-6.6693524641-21.7544023139Z"/><circle class="cls-29" cx="849.6689885543" cy="257.7545940216" r="11.5323319088"/><path class="cls-30" d="m1050.4083246054,331.2154189113c-6.4761127978,5.3487575662-18.3517182755,7.623382564-21.8408180237,14.7783253539-6.2862092865,12.8921118516-16.0726874866,24.9366457969-27.8745974592,34.0916927294-12.6840234621,9.83898155-25.7940918743,14.7807424226-41.76682779,15.941684059-15.67340949,1.1393080443-33.6652118448-1.5281232913-50.1853376684-3.5124580131-9.5522907113-1.1472835822-19.0973048636-2.3566304181-28.6418418646-3.5700469755-2.3999182389-.3050991596-4.8010012762-.6046620961-7.1998020623-.9214915271,2.1708965325-1.629872287,4.3693214822-3.2240274154,6.5646336258-4.8202235537,8.0178783843-5.8295212576,31.0678658589-27.6934266473,36.7994172976-33.7725863697,7.226368132-7.6646343591,20.0615045747-27.1519513655,22.6668735447-29.2963581942,6.1231368472-5.039720567,5.4834419936-13.1913062116,2.4184717182-20.6276380285-4.6346386705-11.2447129689-14.4828289798-7.4758928874-20.6273836709-2.4184418962-6.4288202329,5.2915171441-37.5314941414,43.5376817819-39.9929980777,46.4981745854-4.8941460708,5.8859492336-12.2355818573,11.3078221149-19.4733076756,16.5708971573-8.1101341062,5.897221364-15.9428870567,11.8940061235-22.7693409414,19.2904372071-4.3258304461,4.6872911424-7.8446271743,10.0765775537-7.5879288255,16.7128947207.3197648124,8.2647108327,6.0042102343,14.0571888988,13.6873427743,16.2181246678,11.8316161924,3.3276694882,24.0272833393,4.71589777,36.1843508372,6.257407144,21.8625374318,2.7722472664,43.976599772,6.3902213748,66.0452499036,6.7974874662,23.4647342909.4331259261,44.7216122205-4.0680162233,64.5700151794-16.9609984911,19.3253338483-12.5530882055,34.3551167284-30.818070046,44.403684677-51.4253774073,3.4762581204-7.1289869403,4.8691619402-34.2963833793-5.3798554985-25.8315046343Z"/><path class="cls-14" d="m1065.3383985473,316.106118755l-6.9807698896-42.8787989808-117.0632444253-4.7345180479c-.0028170984.0087073951-.0064024964.0169025905-.0092195948.0256099857l-.0486589727-.0279148844s-28.5402802128,31.4644283748-48.0924798603,41.9909007782l47.8914414729-10.9119026875c.0153659914.0476345733.0304758829.0955252465.0455857744.1431598198-3.5674710016,2.7597320541-41.8042039827,32.4698764115-51.1958979218,45.4438951439,0,0,37.0376734528-3.7518628983,53.9264345923-11.1884905326,11.46098078-5.046703773-23.6690048415,28.7387576015-27.3171472979,34.4876871812,0,0,42.994556116-12.0354127582,71.3571030282-32.142324695.3091125269.2074408838.6138713561.4202598646.9275936804.6210421521-6.1743114414,7.6783858988-35.2833894355,37.6566668061-31.2982195678,45.9783755445,0,0,80.3861595705-31.9123470238,92.9273695454-51.697341441l-.2412460649-.1388061222c3.0924057677-2.9261969609,5.8203814396-6.2508852985,8.0971091643-9.9046619518,2.4721319152-1.4866596672,4.8277383957-3.1951018102,7.0742463373-5.0659112623Z"/><path class="cls-50" d="m1078.7754458203,232.1509515837c-.2281849722-28.5200483241-21.6440232758-53.0795123668-50.706491096-56.486920958-31.4885017612-3.691679432-60.0077817857,18.8419066954-63.6997173176,50.3305365066-.5844198726,4.9847276077-.5073338158,9.8939057578.1541721137,14.6432775974-10.7564500746,5.9648217587-19.201598944,15.8026416479-23.2382448828,27.8805669823l-.0486589727-.0279148844s-28.5402802128,31.4644283748-48.0924798603,41.9909007782l47.8914414729-10.9119026875c.0153659914.0476345733.0304758829.0955252465.0455857744.1431598198-3.5674710016,2.7597320541-41.8042039827,32.4698764115-51.1958979218,45.4438951439,0,0,37.0376734528-3.7518628983,53.9264345923-11.1884905326,11.46098078-5.046703773-23.6690048415,28.7387576015-27.3171472979,34.4876871812,0,0,42.994556116-12.0354127582,71.3571030282-32.142324695.3091125269.2074408838.6138713561.4202598646.9275936804.6210421521-6.1743114414,7.6783858988-35.2833894355,37.6566668061-31.2982195678,45.9783755445,0,0,80.3861595705-31.9123470238,92.9273695454-51.697341441l-.2412460649-.1388061222c3.0924057677-2.9261969609,5.8203814396-6.2508852985,8.0971091643-9.9046619518,15.4968584192-9.3184493801,26.9555343005-26.5337378367,29.3874585382-47.2750091182,1.8044795892-15.3913452783-1.6833443571-30.039488773-8.8761649279-41.7460693153Z"/><path class="cls-28" d="m953.4479041434,251.7779330198s49.9662276378,6.3459170173,82.5147727816-8.7767243927c34.430655428-15.9971038106,32.4146817898-50.0406710117,32.4146817898-50.0406710117,0,0-10.5527799597-31.8573249978-37.3379632166-42.631188504-25.3551401311-10.1986540966-58.062404893,2.2482868225-75.1870184437,19.4213327887-31.3311451105,31.4197569228-90.9914049046,76.4242083625-108.6794896608,83.115213491l5.6006041778,10.9689728956s93.7668669824-46.1823433343,98.9054421405-34.1587695041c5.1385751581,12.0235738303,1.7689704312,22.101834237,1.7689704312,22.101834237Z"/><path class="cls-30" d="m1080.4346317569,191.8693709603c.565889445-7.6812644403-5.2070064728-14.7866625516-12.9148047289-15.6903574908-.9373077443-.109893933-1.8656843379-.1090238416-2.7802354955-.0303369258-.7978470191.541422632-1.517124301,1.250637354-2.0934419244,2.2294391684-.3271072987.5554864312-.7808685824.986019733-1.3050357746,1.3110873707-2.3990610394,5.5047109457-9.9771240616,16.8485649999-10.1661464837,17.9439426632-.0523792431.3037994038-.5535713788,2.346290168-.4762479894,2.2014170219-.6267641372,2.0424658513-1.4081864025,4.0448813338-2.2944538506,5.9848517099-.0977783268.2137715673-.9491956441,1.9774590124-.9373199574,2.0433148808-.4428423799.7618666645-.9275984739,1.5073446823-1.4109388955,2.2385488527-1.3207570146,1.9971987517-2.7729710919,3.9060122239-4.3199691343,5.7325451045-.2170046631.2563919303-1.399238395,1.5999269165-1.5226304369,1.7770454697-.8329009946.8448037102-1.7234375523,1.6423668968-2.6097157711,2.4256027412-1.8179786924,1.6063995769-3.7162025884,3.1208775699-5.6888705508,4.533542113-1.0944077079.7835878497-2.205967848,1.5507248487-3.3523230677,2.2561519449-.1083846273.0667115743-.1921035351.1187809867-.2744164559.1698548998-.1186817027.0577686801-.3212042137.1620486183-.6723060541.3503740549-2.4902777281,1.3343147777-5.0262973872,2.5441380063-7.6382240251,3.6228387592-9.3437280247,3.8586515858-19.3876250872,5.6837729343-30.0057891883,6.6447957661-4.7067830814.4259393587-10.2889175375.7061871855-13.9624670204.7339491739-5.2981855285.0400849825-11.7693307948.3263340199-15.793711931-1.3380764648-.1015605179-.0420763095-.1998828454-.0677860087-.3012030457-.1075134558-1.7118435719-1.0340880865-3.6435346843-1.7369530982-5.7206188198-1.9804792465-7.8820332099-.9241229836-15.3718547724,4.9936110072-16.295992667,12.8757713959-.7649333462,6.5242723582,3.1144949555,12.7305475646,8.9339609709,15.2292992838.7178338492.4401293994,1.4807803062.8517691117,2.3309584608,1.2033710092,13.108755113,5.4214972797,29.6534834129,3.6925239295,43.4814734868,2.5748503788,13.8925320341-1.1227412261,27.9249394704-4.0147221644,40.7386277858-9.6153676243,24.4272077302-10.6768692864,44.6955577214-32.8522243316,47.4776646419-60.0804510483.1832838035-1.794190324.0145487803-3.5615793582-.425822078-5.2400115066Z"/><circle class="cls-30" cx="849.5731324686" cy="258.5463194137" r="14.6857901735"/><path class="cls-36" d="m913.177070232,701.4540050798s-98.7055993935,189.7373561851-182.2049265336,235.4803744178c-108.4318721525,59.4016895077-266.4404236711,24.7346082017-436.0267046263,109.7727440763-107.4498223432,53.8801401897-219.1140873734,171.2615855333-219.1140873734,171.2615855333"/><path class="cls-47" d="m1360.6779567391,1046.8504237609l.0067323774-.0321082615H54.5371842488l-24.5928567904,115.647743337h.0870030311l-21.0505905243,98.7546547987h1409.1549506865c9.5247604045,0,18.834084732-2.3418315871,27.6628208878-6.9581709871,6.5086553265-3.4014042158,12.5967960026-7.7650205255,18.0987019692-12.9769163885,5.4708334555-5.1839306029,10.2861384277-11.1552524731,14.2063520779-17.8159421181,7.7370552655-13.1457436988,13.1229571907-43.0281776299,13.1229571907-43.0281776299l1.6965591064-7.5485486982c.374941634-1.6882731034.6732377406-3.4024399662.8969598206-5.1414648377l1.0792518857-5.2854341392h.1719345615l24.5907852897-115.647743337s-158.6306068882.0258937593-158.9840567021.0321082615Z"/><path class="cls-51" d="m1418.1350130181,1268.4897208086H0l48.6520800035-228.9408233793h1320.7902876382l-.0040565373.0294098954c23.8848915713-.0070989403,91.6310926051-.0192685521,150.2216889724-.0294098954l8.9791452943-.0020282686-27.7527998786,130.1884795592c-.2332508943,1.5992898271-.5232933106,3.1874241767-.8660707117,4.7349931533l-1.6692650954,7.4204208402c-.4928692809,2.6894842242-5.9022617589,31.5355209028-13.9828840432,45.2658854996-4.1863464847,7.1141522747-9.3908838295,13.643149045-15.4716332291,19.4054602674-5.9833925047,5.670024999-12.621915782,10.4283432417-19.730997385,14.1431172662-9.879696573,5.1649861062-20.3191952922,7.7844950621-31.03048201,7.7844950621Zm-1400.1726658921-14.5386296521h1400.1726658921c8.340240671,0,16.514163313-2.0627492127,24.2946018378-6.1304419815,5.9205161766-3.0931096847,11.459717848-7.0675020958,16.4675131341-11.811622458,5.0909543006-4.825251108,9.4456470828-10.2843361678,12.9403539593-16.2261491653,5.8069331325-9.8665128268,10.8005305381-32.6743937473,12.2345164706-40.6302775099l.0608480594-.3062685655,1.6976608564-7.5482017649c.320466446-1.4410848727.58414137-2.9511308794.7788551599-4.4713182294l.0872155518-.5293781165,2.2676043459-11.1007142977h.2210812824l21.499647644-101.1071637177c-33.4136976687.0050706716-148.5727065635.0253533581-149.9661271231.0304240297l-8.792544579.0324522983.0121696119-.0649045967H60.4241512229l-21.5037041813,101.1091919863h.0040565373l-1.7848764082,8.7844315044-19.1772800448,89.9699405843Z"/><path class="cls-41" d="m88.5286314605,1136.4411960174h92.965693374l10.2518838695-48.6946736451h42.172775815l-29.1249236174,137.2346848342h-42.172775815l10.4851347637-48.929952808h-50.792917559l-10.4851347637,48.929952808h-42.172775815l18.8730397479-88.5400111892Zm10.2518838695-48.6946736451h42.1727758149l-8.6211558784,40.5410336895h-42.172775815l8.6211558784-40.5410336895Z"/><path class="cls-40" d="m271.1985622262,1128.2875560619l21.669008076-40.5410336895h61.0448014285l13.9798416402,137.2346848342h-44.5022423545l-4.6599472134-48.929952808h-28.1929341747l-25.3969658467,48.929952808h-44.5022423545l46.3662212398-88.5400111892h49.8619422507l-.2332508942-8.1536399556h-45.4342317972Z"/><path class="cls-39" d="m403.3078121929,1224.9812072066c-3.4186468023,0-6.4478660246-.8924382041-9.0866435326-2.6793428809-2.6438481796-1.7848764082-4.8171380335-4.0768199778-6.5239260988-6.8738024402-1.711858737-2.7949541937-2.8760849396-6.0178730717-3.4957210108-9.6687566339-.6226784742-3.6488552936-.5456042656-7.3403042287.2332508943-11.0682619994l12.3491136491-58.2498472348h42.1727758149l-10.2518838695,48.4634510195h91.5672021428l-8.6201417441,40.0765601697h-108.3440262454Zm-4.8931981077-96.6936511447l2.0972297796-9.7863962153c.7747986226-3.7279577707,2.249349928-7.4153501685,4.4266963191-11.0682619994,2.1732898538-3.6468270249,4.7360072876-6.94884838,7.6891664357-9.9020075281,2.9491026108-2.9491026108,6.1344985188-5.3181203889,9.5531453211-7.1050250658,3.414590265-1.7848764082,6.8332370673-2.6793428809,10.2518838695-2.6793428809h108.3430121111l-8.6201417441,40.5410336895h-133.7409920921Z"/><path class="cls-45" d="m561.2774873917,1087.7465223723h42.172775815l-29.1249236174,137.2346848342h-42.1727758149l29.1249236174-137.2346848342Zm33.7848708308,77.8206113968l3.9601945307-18.1732870652,51.2604334818-59.6473243317h46.1309420769l-58.4790415917,68.7339678642,29.3571603773,68.50071697h-46.1349986142l-26.0946902608-59.4140734374Z"/><path class="cls-44" d="m816.8768597152,1087.7465223723c3.4135761307,0,6.4438094873.8944664727,9.0866435326,2.6793428809,2.638777508,1.7869046768,4.8516186004,4.0768199778,6.6405515459,6.8717741715,1.7828481396,2.7969824624,2.9876397151,6.021929609,3.6103181893,9.6707849025.6186219369,3.6508835622.5435759971,7.33827596-.2332508942,11.0662337307l-16.3093081798,76.1898834057c-.7788551599,3.7279577707-2.2534064653,7.4214349745-4.4256821848,11.0682619994-2.1783605254,3.6508835622-4.7400638249,6.9529049173-7.6891664357,9.9020075281-2.9531591481,2.9531591481-6.1395691905,5.3221769262-9.5531453211,7.1070533344-3.4196609366,1.7869046768-6.8372936045,2.6793428809-10.2528980038,2.6793428809h-85.043276044c-3.4196609366,0-6.4478660246-.8924382041-9.0866435326-2.6793428809-2.6428340453-1.7848764082-4.8171380334-4.1538941863-6.5249402331-7.1070533344-1.7098304683-2.9491026108-2.8760849396-6.2511239659-3.4947068765-9.9020075281-.6226784742-3.6468270249-.5456042657-7.3403042287.2332508943-11.0682619994l2.0972297796-9.7843679467h93.6654460567l12.1148486205-56.6191192437h-51.4916561075l-10.4861488981,48.4634510195h-42.1717616806l12.5813504091-58.2498472348c.7768268913-3.7279577707,2.2148693611-7.4153501685,4.310070872-11.0662337307,2.0972297796-3.6488552936,4.5798306019-6.8738024402,7.4559155414-9.6707849025,2.8740566709-2.7949541937,6.0178730717-5.0848694947,9.4375340083-6.8717741715,3.4156043993-1.7848764082,6.9103112758-2.6793428809,10.4841206294-2.6793428809h85.0453043126Z"/><path class="cls-43" d="m974.6132840198,1184.440173517l-8.6201417441,40.5410336895h-132.3425008609l8.6201417441-40.5410336895h132.3425008609Zm-130.7117728698-8.1556682242l18.8730397479-88.5379829205h42.1717616806l-18.8730397479,88.5379829205h-42.1717616806Z"/><path class="cls-42" d="m1032.3946011975,1128.2875560619l21.6679939416-40.5410336895h61.0468296972l13.9788275059,137.2346848342h-44.5022423545l-4.6609613477-48.929952808h-28.1909059061l-25.397979981,48.929952808h-44.5022423545l46.3662212398-88.5400111892h49.8609281164l-.2312226256-8.1536399556h-45.4352459315Z"/><path class="cls-46" d="m1261.1975023088,1087.7465223723h42.1717616806l-29.1239094831,137.2346848342h-109.7415033423c-3.4196609366,0-6.4478660246-.8924382041-9.0866435326-2.6793428809-2.6428340453-1.7848764082-4.8171380334-4.1538941863-6.5249402331-7.1070533344-1.7098304683-2.9491026108-2.8760849396-6.2511239659-3.4947068765-9.9020075281-.6226784742-3.6468270249-.5456042657-7.3403042287.2332508943-11.0682619994l2.0972297796-9.7843679467h92.965693374l20.503767739-96.6936511447Zm-92.965693374,0h42.1717616806l-18.8730397479,88.5379829205h-42.1717616806l18.8730397479-88.5379829205Z"/><path class="cls-25" d="m1303.3692639895,1184.440173517h135.1374550546l-2.095201511,10.2508697352c-.7808834286,3.7279577707-2.2534064653,7.4194067058-4.4277104535,11.0682619994-2.1763322568,3.6508835622-4.7400638249,6.8738024401-7.6891664357,9.6687566339-2.9531591481,2.7969824624-6.1375409218,5.088926032-9.5531453211,6.8738024402-3.4176326679,1.7869046768-6.8372936045,2.6793428809-10.2508697352,2.6793428809h-109.7415033422l8.6201417441-40.5410336895Zm116.497666201-47.9989774996c4.504784662,0,8.3077883726,1.0486148898,11.4171242064,3.1458446694,3.1052792965,2.0972297796,5.5919366561,4.7400638249,7.4559155415,7.92241733,1.8639788854,3.1864100423,3.0667421922,6.5249402331,3.6123464579,10.0196471096.5415477284,3.4947068765.5030106242,6.6405515459-.1176395814,9.4355057396l-2.0952015109,9.3198944268h-109.7435316109c-3.4176326679,0-6.4458377559-1.0486148898-9.0866435326-3.1458446694-2.6428340453-2.0972297796-4.7765726605-4.7360072876-6.4073006517-7.9203890613-1.6307279911-3.182353505-2.7584453581-6.5249402331-3.377067295-10.0196471096-.6226784742-3.4947068765-.6226784742-6.6405515459,0-9.4375340083l6.0564101759-27.7264323862c.7768268913-3.7279577707,2.214869361-7.4153501685,4.310070872-11.0662337307,2.0972297796-3.6488552936,4.5798306019-6.8738024402,7.4559155415-9.6707849025,2.8740566709-2.7949541937,6.0178730717-5.0848694947,9.4375340083-6.8717741715,3.4156043993-1.7848764082,6.9103112758-2.6793428809,10.4841206294-2.6793428809h109.7415033422l-8.6201417441,40.5410336895h-92.965693374l-1.6307279911,8.1536399556h64.0730065165Z"/></svg>