<?xml version="1.0" encoding="UTF-8"?><svg id="Ebene_1" xmlns="http://www.w3.org/2000/svg" xmlns:xlink="http://www.w3.org/1999/xlink" viewBox="0 0 1528.6391453711 228.9428516479"><defs><style>.cls-1{fill:url(#Unbenannter_Verlauf_3-10);}.cls-2{fill:url(#Unbenannter_Verlauf_3-4);}.cls-3{fill:url(#Unbenannter_Verlauf_3-3);}.cls-4{fill:url(#Unbenannter_Verlauf_3-2);}.cls-5{fill:url(#Unbenannter_Verlauf_3-8);}.cls-6{fill:url(#Unbenannter_Verlauf_3-7);}.cls-7{fill:url(#Unbenannter_Verlauf_3-6);}.cls-8{fill:url(#Unbenannter_Verlauf_3-5);}.cls-9{fill:url(#Unbenannter_Verlauf_3-9);}.cls-10{fill:url(#Unbenannter_Verlauf_76);}.cls-11{fill:url(#Unbenannter_Verlauf_3);}</style><linearGradient id="Unbenannter_Verlauf_76" x1="764.3213767031" y1="221.6738444744" x2="764.3213767031" y2="7.2714463387" gradientUnits="userSpaceOnUse"><stop offset="0" stop-color="#241734"/><stop offset=".4699554688" stop-color="#2d213d"/><stop offset="1" stop-color="#3e334c"/></linearGradient><linearGradient id="Unbenannter_Verlauf_3" x1="764.3195726856" y1="0" x2="764.3195726856" y2="228.9428516479" gradientUnits="userSpaceOnUse"><stop offset=".2761036706" stop-color="#f9c80e"/><stop offset=".2900728873" stop-color="#f9b814"/><stop offset=".327064897" stop-color="#fa9323"/><stop offset=".3686756379" stop-color="#fa7330"/><stop offset=".4146932137" stop-color="#fb583b"/><stop offset=".4666549929" stop-color="#fc4243"/><stop offset=".5273559488" stop-color="#fc314a"/><stop offset=".602420243" stop-color="#fc254f"/><stop offset=".707702519" stop-color="#fc1e52"/><stop offset="1" stop-color="#fd1d53"/></linearGradient><linearGradient id="Unbenannter_Verlauf_3-2" x1="151.7872881157" y1="48.1996532116" x2="151.7872881157" y2="185.4343380458" xlink:href="#Unbenannter_Verlauf_3"/><linearGradient id="Unbenannter_Verlauf_3-3" x1="294.265047399" y1="48.1996532116" x2="294.265047399" y2="185.4343380458" xlink:href="#Unbenannter_Verlauf_3"/><linearGradient id="Unbenannter_Verlauf_3-4" x1="462.2809388732" y1="48.1996532116" x2="462.2809388732" y2="185.4343380458" xlink:href="#Unbenannter_Verlauf_3"/><linearGradient id="Unbenannter_Verlauf_3-5" x1="614.2832460431" y1="48.1996532116" x2="614.2832460431" y2="185.4343380458" xlink:href="#Unbenannter_Verlauf_3"/><linearGradient id="Unbenannter_Verlauf_3-6" x1="759.9066956372" y1="48.1996532116" x2="759.9066956372" y2="185.4343380458" xlink:href="#Unbenannter_Verlauf_3"/><linearGradient id="Unbenannter_Verlauf_3-7" x1="904.1319627173" y1="48.1996532116" x2="904.1319627173" y2="185.4343380458" xlink:href="#Unbenannter_Verlauf_3"/><linearGradient id="Unbenannter_Verlauf_3-8" x1="1055.4610863703" y1="48.1996532116" x2="1055.4610863703" y2="185.4343380458" xlink:href="#Unbenannter_Verlauf_3"/><linearGradient id="Unbenannter_Verlauf_3-9" x1="1224.1757163929" y1="48.1996532116" x2="1224.1757163929" y2="185.4343380458" xlink:href="#Unbenannter_Verlauf_3"/><linearGradient id="Unbenannter_Verlauf_3-10" x1="1376.8798045142" y1="48.1996532116" x2="1376.8798045142" y2="185.4343380458" xlink:href="#Unbenannter_Verlauf_3"/></defs><path class="cls-10" d="m1360.6779567391,7.3035546002l.0067323774-.0321082615H54.5371842488l-24.5928567904,115.647743337h.0870030311l-21.0505905243,98.7546547987h1409.1549506865c9.5247604045,0,18.834084732-2.3418315871,27.6628208878-6.9581709871,6.5086553265-3.4014042158,12.5967960026-7.7650205255,18.0987019692-12.9769163885,5.4708334555-5.1839306029,10.2861384277-11.1552524731,14.2063520779-17.8159421181,7.7370552655-13.1457436988,13.1229571907-43.0281776299,13.1229571907-43.0281776299l1.6965591064-7.5485486982c.374941634-1.6882731034.6732377406-3.4024399662.8969598206-5.1414648377l1.0792518857-5.2854341392h.1719345615l24.5907852897-115.647743337s-158.6306068882.0258937593-158.9840567021.0321082615Z"/><path class="cls-11" d="m1418.1350130181,228.9428516479H0L48.6520800035.0020282686h1320.7902876382l-.0040565373.0294098954c23.8848915713-.0070989403,91.6310926051-.0192685521,150.2216889724-.0294098954l8.9791452943-.0020282686-27.7527998786,130.1884795592c-.2332508943,1.5992898271-.5232933106,3.1874241767-.8660707117,4.7349931533l-1.6692650954,7.4204208402c-.4928692809,2.6894842242-5.9022617589,31.5355209028-13.9828840432,45.2658854996-4.1863464847,7.1141522747-9.3908838295,13.643149045-15.4716332291,19.4054602674-5.9833925047,5.670024999-12.621915782,10.4283432417-19.730997385,14.1431172662-9.879696573,5.1649861062-20.3191952922,7.7844950621-31.03048201,7.7844950621ZM17.962347126,214.4042219958h1400.1726658921c8.340240671,0,16.514163313-2.0627492127,24.2946018378-6.1304419815,5.9205161766-3.0931096847,11.459717848-7.0675020958,16.4675131341-11.811622458,5.0909543006-4.825251108,9.4456470828-10.2843361678,12.9403539593-16.2261491653,5.8069331325-9.8665128268,10.8005305381-32.6743937473,12.2345164706-40.6302775099l.0608480594-.3062685655,1.6976608564-7.5482017649c.320466446-1.4410848727.58414137-2.9511308794.7788551599-4.4713182294l.0872155518-.5293781165,2.2676043459-11.1007142977h.2210812824l21.499647644-101.1071637177c-33.4136976687.0050706716-148.5727065635.0253533581-149.9661271231.0304240297l-8.792544579.0324522983.0121696119-.0649045967H60.4241512229l-21.5037041813,101.1091919863h.0040565373l-1.7848764082,8.7844315044-19.1772800448,89.9699405843Z"/><path class="cls-4" d="m88.5286314605,96.8943268567h92.965693374l10.2518838695-48.6946736451h42.172775815l-29.1249236174,137.2346848342h-42.172775815l10.4851347637-48.929952808h-50.792917559l-10.4851347637,48.929952808h-42.172775815l18.8730397479-88.5400111892Zm10.2518838695-48.6946736451h42.1727758149l-8.6211558784,40.5410336895h-42.172775815l8.6211558784-40.5410336895Z"/><path class="cls-3" d="m271.1985622262,88.7406869011l21.669008076-40.5410336895h61.0448014285l13.9798416402,137.2346848342h-44.5022423545l-4.6599472134-48.929952808h-28.1929341747l-25.3969658467,48.929952808h-44.5022423545l46.3662212398-88.5400111892h49.8619422507l-.2332508942-8.1536399556h-45.4342317972Z"/><path class="cls-2" d="m403.3078121929,185.4343380458c-3.4186468023,0-6.4478660246-.8924382041-9.0866435326-2.6793428809-2.6438481796-1.7848764082-4.8171380335-4.0768199778-6.5239260988-6.8738024402-1.711858737-2.7949541937-2.8760849396-6.0178730717-3.4957210108-9.6687566339-.6226784742-3.6488552936-.5456042656-7.3403042287.2332508943-11.0682619994l12.3491136491-58.2498472348h42.1727758149l-10.2518838695,48.4634510195h91.5672021428l-8.6201417441,40.0765601697h-108.3440262454Zm-4.8931981077-96.6936511447l2.0972297796-9.7863962153c.7747986226-3.7279577707,2.249349928-7.4153501685,4.4266963191-11.0682619994,2.1732898538-3.6468270249,4.7360072876-6.94884838,7.6891664357-9.9020075281,2.9491026108-2.9491026108,6.1344985188-5.3181203889,9.5531453211-7.1050250658,3.414590265-1.7848764082,6.8332370673-2.6793428809,10.2518838695-2.6793428809h108.3430121111l-8.6201417441,40.5410336895h-133.7409920921Z"/><path class="cls-8" d="m561.2774873917,48.1996532116h42.172775815l-29.1249236174,137.2346848342h-42.1727758149l29.1249236174-137.2346848342Zm33.7848708308,77.8206113968l3.9601945307-18.1732870652,51.2604334818-59.6473243317h46.1309420769l-58.4790415917,68.7339678642,29.3571603773,68.50071697h-46.1349986142l-26.0946902608-59.4140734374Z"/><path class="cls-7" d="m816.8768597152,48.1996532116c3.4135761307,0,6.4438094873.8944664727,9.0866435326,2.6793428809,2.638777508,1.7869046768,4.8516186004,4.0768199778,6.6405515459,6.8717741715,1.7828481396,2.7969824624,2.9876397151,6.021929609,3.6103181893,9.6707849025.6186219369,3.6508835622.5435759971,7.33827596-.2332508942,11.0662337307l-16.3093081798,76.1898834057c-.7788551599,3.7279577707-2.2534064653,7.4214349745-4.4256821848,11.0682619994-2.1783605254,3.6508835622-4.7400638249,6.9529049173-7.6891664357,9.9020075281-2.9531591481,2.9531591481-6.1395691905,5.3221769262-9.5531453211,7.1070533344-3.4196609366,1.7869046768-6.8372936045,2.6793428809-10.2528980038,2.6793428809h-85.043276044c-3.4196609366,0-6.4478660246-.8924382041-9.0866435326-2.6793428809-2.6428340453-1.7848764082-4.8171380334-4.1538941863-6.5249402331-7.1070533344-1.7098304683-2.9491026108-2.8760849396-6.2511239659-3.4947068765-9.9020075281-.6226784742-3.6468270249-.5456042657-7.3403042287.2332508943-11.0682619994l2.0972297796-9.7843679467h93.6654460567l12.1148486205-56.6191192437h-51.4916561075l-10.4861488981,48.4634510195h-42.1717616806l12.5813504091-58.2498472348c.7768268913-3.7279577707,2.2148693611-7.4153501685,4.310070872-11.0662337307,2.0972297796-3.6488552936,4.5798306019-6.8738024402,7.4559155414-9.6707849025,2.8740566709-2.7949541937,6.0178730717-5.0848694947,9.4375340083-6.8717741715,3.4156043993-1.7848764082,6.9103112758-2.6793428809,10.4841206294-2.6793428809h85.0453043126Z"/><path class="cls-6" d="m974.6132840198,144.8933043563l-8.6201417441,40.5410336895h-132.3425008609l8.6201417441-40.5410336895h132.3425008609Zm-130.7117728698-8.1556682242l18.8730397479-88.5379829205h42.1717616806l-18.8730397479,88.5379829205h-42.1717616806Z"/><path class="cls-5" d="m1032.3946011975,88.7406869011l21.6679939416-40.5410336895h61.0468296972l13.9788275059,137.2346848342h-44.5022423545l-4.6609613477-48.929952808h-28.1909059061l-25.397979981,48.929952808h-44.5022423545l46.3662212398-88.5400111892h49.8609281164l-.2312226256-8.1536399556h-45.4352459315Z"/><path class="cls-9" d="m1261.1975023088,48.1996532116h42.1717616806l-29.1239094831,137.2346848342h-109.7415033423c-3.4196609366,0-6.4478660246-.8924382041-9.0866435326-2.6793428809-2.6428340453-1.7848764082-4.8171380334-4.1538941863-6.5249402331-7.1070533344-1.7098304683-2.9491026108-2.8760849396-6.2511239659-3.4947068765-9.9020075281-.6226784742-3.6468270249-.5456042657-7.3403042287.2332508943-11.0682619994l2.0972297796-9.7843679467h92.965693374l20.503767739-96.6936511447Zm-92.965693374,0h42.1717616806l-18.8730397479,88.5379829205h-42.1717616806l18.8730397479-88.5379829205Z"/><path class="cls-1" d="m1303.3692639895,144.8933043563h135.1374550546l-2.095201511,10.2508697352c-.7808834286,3.7279577707-2.2534064653,7.4194067058-4.4277104535,11.0682619994-2.1763322568,3.6508835622-4.7400638249,6.8738024401-7.6891664357,9.6687566339-2.9531591481,2.7969824624-6.1375409218,5.088926032-9.5531453211,6.8738024402-3.4176326679,1.7869046768-6.8372936045,2.6793428809-10.2508697352,2.6793428809h-109.7415033422l8.6201417441-40.5410336895Zm116.497666201-47.9989774996c4.504784662,0,8.3077883726,1.0486148898,11.4171242064,3.1458446694,3.1052792965,2.0972297796,5.5919366561,4.7400638249,7.4559155415,7.92241733,1.8639788854,3.1864100423,3.0667421922,6.5249402331,3.6123464579,10.0196471096.5415477284,3.4947068765.5030106242,6.6405515459-.1176395814,9.4355057396l-2.0952015109,9.3198944268h-109.7435316109c-3.4176326679,0-6.4458377559-1.0486148898-9.0866435326-3.1458446694-2.6428340453-2.0972297796-4.7765726605-4.7360072876-6.4073006517-7.9203890613-1.6307279911-3.182353505-2.7584453581-6.5249402331-3.377067295-10.0196471096-.6226784742-3.4947068765-.6226784742-6.6405515459,0-9.4375340083l6.0564101759-27.7264323862c.7768268913-3.7279577707,2.214869361-7.4153501685,4.310070872-11.0662337307,2.0972297796-3.6488552936,4.5798306019-6.8738024402,7.4559155415-9.6707849025,2.8740566709-2.7949541937,6.0178730717-5.0848694947,9.4375340083-6.8717741715,3.4156043993-1.7848764082,6.9103112758-2.6793428809,10.4841206294-2.6793428809h109.7415033422l-8.6201417441,40.5410336895h-92.965693374l-1.6307279911,8.1536399556h64.0730065165Z"/></svg>