<?xml version="1.0" encoding="UTF-8"?>
<svg width="143px" height="17px" viewBox="0 0 143 17" version="1.1" xmlns="http://www.w3.org/2000/svg" xmlns:xlink="http://www.w3.org/1999/xlink">
    <!-- Generator: Sketch 55.2 (78181) - https://sketchapp.com -->
    <title>Group 11</title>
    <desc>Created with Sketch.</desc>
    <g id="Symbole-&amp;-Assets" stroke="none" stroke-width="1" fill="none" fill-rule="evenodd">
        <g id="Menue_Warum" transform="translate(-196.000000, -44.000000)">
            <g id="Menue" transform="translate(196.000000, 31.000000)">
                <g id="Group-11" transform="translate(0.000000, 13.000000)">
                    <path d="M25.8779618,16.445 L24.3829618,12.972 L17.6439618,12.972 L16.1489618,16.445 L12.3309618,16.445 L19.2769618,0.368 L22.7499618,0.368 L29.6959618,16.445 L25.8779618,16.445 Z M21.0249618,5.152 L19.0009618,9.821 L23.0259618,9.821 L21.0249618,5.152 Z M38.9419618,13.271 C40.705304,13.271 42.1466229,12.5733403 43.2659618,11.178 L45.5659618,13.547 C43.741286,15.6016769 41.5908075,16.629 39.1144618,16.629 C36.6381161,16.629 34.5988032,15.8470078 32.9964618,14.283 C31.3941205,12.7189922 30.5929618,10.7448453 30.5929618,8.3605 C30.5929618,5.97615474 31.4094537,3.98667464 33.0424618,2.392 C34.67547,0.79732536 36.6726167,-4.26325641e-14 39.0339618,-4.26325641e-14 C41.6713084,-4.26325641e-14 43.8792863,1.00432329 45.6579618,3.013 L43.4269618,5.543 C42.2922895,4.13232628 40.8816369,3.427 39.1949618,3.427 C37.8456218,3.427 36.6918,3.86782892 35.7334618,4.7495 C34.7751237,5.63117107 34.2959618,6.81949252 34.2959618,8.3145 C34.2959618,9.80950747 34.7482906,11.0093288 35.6529618,11.914 C36.557633,12.8186712 37.6539554,13.271 38.9419618,13.271 Z M55.2029618,3.473 L55.2029618,16.445 L51.6149618,16.445 L51.6149618,3.473 L47.0609618,3.473 L47.0609618,0.368 L59.7569618,0.368 L59.7569618,3.473 L55.2029618,3.473 Z M73.8329618,16.445 L72.3379618,12.972 L65.5989618,12.972 L64.1039618,16.445 L60.2859618,16.445 L67.2319618,0.368 L70.7049618,0.368 L77.6509618,16.445 L73.8329618,16.445 Z M68.9799618,5.152 L66.9559618,9.821 L70.9809618,9.821 L68.9799618,5.152 Z M85.1949618,0.368 C87.6636408,0.368 89.4614562,0.847161875 90.5884618,1.8055 C91.7154675,2.76383812 92.2789618,4.2358234 92.2789618,6.2215 C92.2789618,8.20717659 91.7001343,9.6599954 90.5424618,10.58 C89.3847894,11.5000046 87.6176404,11.96 85.2409618,11.96 L83.1019618,11.96 L83.1019618,16.445 L79.5139618,16.445 L79.5139618,0.368 L85.1949618,0.368 Z M85.5169618,8.855 C86.7129678,8.855 87.5256264,8.61350241 87.9549618,8.1305 C88.3842973,7.64749758 88.5989618,6.9421713 88.5989618,6.0145 C88.5989618,5.08682869 88.3191313,4.42750195 87.7594618,4.0365 C87.1997924,3.64549804 86.3296344,3.45 85.1489618,3.45 L83.1019618,3.45 L83.1019618,8.855 L85.5169618,8.855 Z M107.389962,8.326 C107.389962,6.88465946 106.929966,5.65800506 106.009962,4.646 C105.089957,3.63399494 103.959135,3.128 102.617462,3.128 C101.275788,3.128 100.144966,3.63399494 99.2249618,4.646 C98.3049572,5.65800506 97.8449618,6.88082616 97.8449618,8.3145 C97.8449618,9.74817383 98.3049572,10.9671616 99.2249618,11.9715 C100.144966,12.9758384 101.275788,13.478 102.617462,13.478 C103.959135,13.478 105.089957,12.9758384 106.009962,11.9715 C106.929966,10.9671616 107.389962,9.75200713 107.389962,8.326 Z M108.608962,14.237 C106.98362,15.8163412 104.98264,16.606 102.605962,16.606 C100.229283,16.606 98.2283033,15.8125079 96.6029618,14.2255 C94.9776204,12.6384921 94.1649618,10.6643451 94.1649618,8.303 C94.1649618,5.94165486 94.9776204,3.96750793 96.6029618,2.3805 C98.2283033,0.793492065 100.229283,-4.26325641e-14 102.605962,-4.26325641e-14 C104.98264,-4.26325641e-14 106.98362,0.793492065 108.608962,2.3805 C110.234303,3.96750793 111.046962,5.94165486 111.046962,8.303 C111.046962,10.6643451 110.234303,12.6423254 108.608962,14.237 Z M127.123962,5.704 C127.123962,8.28001288 126.104305,9.94366291 124.064962,10.695 L128.135962,16.445 L123.719962,16.445 L120.154962,11.316 L117.670962,11.316 L117.670962,16.445 L114.082962,16.445 L114.082962,0.368 L120.177962,0.368 C122.677308,0.368 124.45979,0.78966245 125.525462,1.633 C126.591134,2.47633755 127.123962,3.83332398 127.123962,5.704 Z M120.292962,8.211 C121.519635,8.211 122.355293,8.01166866 122.799962,7.613 C123.244631,7.21433134 123.466962,6.58183766 123.466962,5.7155 C123.466962,4.84916233 123.236964,4.25500161 122.776962,3.933 C122.31696,3.61099839 121.511968,3.45 120.361962,3.45 L117.670962,3.45 L117.670962,8.211 L120.292962,8.211 Z M137.611962,3.473 L137.611962,16.445 L134.023962,16.445 L134.023962,3.473 L129.469962,3.473 L129.469962,0.368 L142.165962,0.368 L142.165962,3.473 L137.611962,3.473 Z" id="//ACTAPORT" fill="#000000" fill-rule="nonzero"></path>
                    <path d="M7.31079607,0.445 L10.5740534,0.445 L3.24580916,16.445 L1.77635684e-15,16.445 L7.31079607,0.445 Z" id="Combined-Shape" fill="#067EEB" opacity="0.352841332"></path>
                    <path d="M13.4327961,0.445 L16.6960534,0.445 L9.36780916,16.445 L6.122,16.445 L13.4327961,0.445 Z" id="Combined-Shape" fill="#067EEB"></path>
                </g>
            </g>
        </g>
    </g>
</svg>
