<svg id="ec2f7b75-638f-483f-8fd6-0bad6776e69c" data-name="Ebene 1" xmlns="http://www.w3.org/2000/svg" viewBox="0 0 190.4 19.5"><defs><style>.a711b26d-926b-4477-9f44-eba53308030c{fill:#fff;}</style></defs><path class="a711b26d-926b-4477-9f44-eba53308030c" d="M90.4,2.6h2.5V14.2a20.2,20.2,0,0,1-3.3.3c-3.1,0-4.7-1.4-4.7-4a4,4,0,0,1,4.3-4.2h1.1V2.6Zm0,5.9h-.8c-1.3,0-2,.8-2,2.2a1.9,1.9,0,0,0,2,2.1h.9V8.5Z"/><path class="a711b26d-926b-4477-9f44-eba53308030c" d="M96.9,6.5v5.8c0,2-.1,3-.6,3.8A4,4,0,0,1,94.2,18l-2.3-1.1a3.9,3.9,0,0,0,2-1.7c.4-.7.5-1.6.5-3.7v-5ZM94.4,2.6h2.5V5.2H94.4Zm4,4.5a8,8,0,0,1,3.3-.8c1.3,0,2.1.3,2.5,1a4.1,4.1,0,0,1,.3,1.9v5.1a21.9,21.9,0,0,1-3.6.3c-2.1,0-3.1-.7-3.1-2.4s1.3-2.6,4.3-2.8V8.9c0-.5-.2-.6-.9-.6a7.1,7.1,0,0,0-3,.8v-2Zm3.9,4c-1.7.2-2.2.4-2.2,1.1s.3.7,1,.7h1.2Zm3.4-4.2a14.9,14.9,0,0,1,4-.6,3.8,3.8,0,0,1,2.8.9,3,3,0,0,1,.7,2.4v4.9h-2.5V9.7c0-1-.3-1.3-1.2-1.3a3,3,0,0,0-1.2.2v6h-2.5V6.9Zm8.4,9a5.4,5.4,0,0,0,2.7.7c1.6,0,2.4-.7,2.4-2.3a4.1,4.1,0,0,1-1.6.3,3.5,3.5,0,0,1-3.6-3.8c0-2.9,2.1-4.5,5.7-4.5a12.9,12.9,0,0,1,3.3.4l-.9,1.8h-.6v4.5c0,2.2-.2,3.2-.7,4s-2.1,1.8-4.1,1.8a6.2,6.2,0,0,1-2.7-.5V15.9Zm5-7.6h-.3a2.6,2.6,0,0,0-1.5.4,1.9,1.9,0,0,0-.9,1.8c0,1.3.6,2,1.7,2l.9-.2v-4Zm7.8-2a3.8,3.8,0,0,1,4,4.1,3.9,3.9,0,0,1-4.1,4.3,3.8,3.8,0,0,1-4.1-4.1C122.7,7.9,124.3,6.3,126.9,6.3Zm-.1,6.4c1,0,1.5-.8,1.5-2.2s-.6-2.2-1.5-2.2-1.6.8-1.6,2.2S125.8,12.7,126.8,12.7Z"/><path class="a711b26d-926b-4477-9f44-eba53308030c" d="M136.5,6.8V7c.4,1.5,1.1,3.9,1.7,5.6v0A41.2,41.2,0,0,0,140.5,7V6.8H142v.3a43.4,43.4,0,0,1-2.9,7.2v.3h-1.5v-.3a56.3,56.3,0,0,1-2.7-7.5Zm7.3,4V11a2.3,2.3,0,0,0,2.6,2.5,4.3,4.3,0,0,0,2.6-.9V14a5,5,0,0,1-2.7.8c-2.4,0-3.8-1.4-3.8-3.9s1.5-4.2,3.7-4.2a3,3,0,0,1,2.7,1.4,4.1,4.1,0,0,1,.5,2.4v.4h-5.6Zm4.1-1.1q-.2-1.8-1.8-1.8A2.1,2.1,0,0,0,144,9.7Zm2.6-2.4a8.1,8.1,0,0,1,3.1-.6l1.3.2V8.2a2.8,2.8,0,0,0-1.3-.3,2.9,2.9,0,0,0-1.6.4v6.4h-1.5Zm5.9,3.5V11a2.3,2.3,0,0,0,2.6,2.5,4.3,4.3,0,0,0,2.6-.9V14a5,5,0,0,1-2.7.8c-2.4,0-3.8-1.4-3.8-3.9s1.5-4.2,3.7-4.2a3,3,0,0,1,2.7,1.4,4.1,4.1,0,0,1,.5,2.4v.4h-5.6Zm4.1-1.1q-.1-1.8-1.8-1.8a2.1,2.1,0,0,0-2.1,1.8Zm2.6-6.2h1.6V5.2h-1.6Zm0,3.3h1.5v7.8h-1.5Zm3.4.4a9.8,9.8,0,0,1,3.3-.5,3.4,3.4,0,0,1,2.5.8,2.9,2.9,0,0,1,.6,2.1v5.1h-1.5v-5c0-1.3-.5-1.8-1.8-1.8a4.5,4.5,0,0,0-1.6.3v6.5h-1.5Z"/><path class="a711b26d-926b-4477-9f44-eba53308030c" d="M23.4,2.4h1.5V14.2l-2.8.3c-2.7,0-4.1-1.4-4.1-3.8a3.9,3.9,0,0,1,4.2-4.2,2.5,2.5,0,0,1,1.2.2Zm0,5.6-1.2-.2a2.6,2.6,0,0,0-2.7,2.9c0,1.8.9,2.8,2.6,2.8h1.3Zm4.3,2.7v.2a2.3,2.3,0,0,0,2.6,2.5,4.3,4.3,0,0,0,2.6-.9v1.3a5,5,0,0,1-2.7.8c-2.4,0-3.8-1.4-3.8-3.9s1.5-4.2,3.7-4.2a3,3,0,0,1,2.7,1.4,4.1,4.1,0,0,1,.5,2.4v.4Zm4-1.1q-.1-1.8-1.8-1.8a2.1,2.1,0,0,0-2.1,1.8Zm4.1-2.9v4.8c0,1.4.5,1.9,1.9,1.9h1.5V6.7h1.5v7.6l-3.2.3a3.4,3.4,0,0,1-2.5-.7,2.9,2.9,0,0,1-.7-2.3V6.7Zm5.8.2h1.3V4.8h1.3V6.9H46V8H44.2v4.1c0,1.1.2,1.4,1.1,1.4h.6v1.1h-1a1.8,1.8,0,0,1-1.7-.7c-.3-.4-.3-.6-.3-1.7V8H41.7V6.9Zm4.9,5.9a3.1,3.1,0,0,0,2,.7c.9,0,1.4-.4,1.4-1a1,1,0,0,0-.6-.9l-1-.5c-1.4-.7-1.8-1.2-1.8-2.2s1.1-2.3,2.8-2.3a4.3,4.3,0,0,1,1.9.4V8.4a3,3,0,0,0-1.8-.6c-.8,0-1.4.4-1.4,1s.2.7,1.4,1.3a5.7,5.7,0,0,1,1.5.9,2,2,0,0,1,.6,1.5c0,1.4-1.1,2.3-2.9,2.3a3.7,3.7,0,0,1-2-.5V12.8ZM58.2,8.4a3,3,0,0,0-1.8-.6c-1.6,0-2.6,1.1-2.6,2.9a2.5,2.5,0,0,0,2.6,2.8,3,3,0,0,0,1.9-.7v1.3a4,4,0,0,1-2.2.5,3.6,3.6,0,0,1-3.9-3.9,3.9,3.9,0,0,1,4-4.2,3.2,3.2,0,0,1,1.9.5V8.4Zm.8-6h1.5V6.9a4.8,4.8,0,0,1,2-.4,3,3,0,0,1,2.3.8,2.9,2.9,0,0,1,.6,2.1v5.1H63.9V9.6c0-1.3-.5-1.8-1.7-1.8a3.8,3.8,0,0,0-1.7.4v6.3H59Zm9.1,8.3v.2a2.3,2.3,0,0,0,2.6,2.5,4.3,4.3,0,0,0,2.6-.9v1.3a5,5,0,0,1-2.7.8c-2.4,0-3.8-1.4-3.8-3.9s1.5-4.2,3.7-4.2a3,3,0,0,1,2.7,1.4,4.1,4.1,0,0,1,.5,2.4v.4Zm4.1-1.1Q72,7.8,70.4,7.8a2.1,2.1,0,0,0-2.1,1.8Zm2.6-2.4a8.1,8.1,0,0,1,3.1-.6l1.4.2V8A2.8,2.8,0,0,0,78,7.7a2.9,2.9,0,0,0-1.6.4v6.4H74.9V7.2Z"/><path class="a711b26d-926b-4477-9f44-eba53308030c" d="M.9,9.4c1.2-.1,1.7-.6,1.7-1.7A10.9,10.9,0,0,0,2.5,6a10.3,10.3,0,0,1-.1-1.7A3,3,0,0,1,5.6,1H6V2H5.7c-1.3,0-2,.8-2,2.3A10.3,10.3,0,0,0,3.8,6c0,.6.1,1.2.1,1.7A2.2,2.2,0,0,1,2.3,10a2.1,2.1,0,0,1,1.6,2.3A10.9,10.9,0,0,1,3.8,14c0,.6-.1,1.2-.1,1.7s.7,2.3,2,2.3h.2v.9H5.5a3.1,3.1,0,0,1-3.2-3.3,10.3,10.3,0,0,1,.1-1.7,10.3,10.3,0,0,0,.1-1.7c0-1.1-.5-1.6-1.7-1.7V9.4Zm5.8,0c1.2-.1,1.7-.6,1.7-1.7A10.9,10.9,0,0,0,8.3,6a10.3,10.3,0,0,1-.1-1.7A3,3,0,0,1,11.4,1h.4V2h-.2c-1.3,0-2,.8-2,2.3A10.3,10.3,0,0,0,9.7,6c0,.6.1,1.2.1,1.7A2.2,2.2,0,0,1,8.2,10a2.1,2.1,0,0,1,1.6,2.3A10.9,10.9,0,0,1,9.7,14c0,.6-.1,1.2-.1,1.7s.7,2.3,2,2.3h.2v.9h-.4a3.1,3.1,0,0,1-3.2-3.3,10.3,10.3,0,0,1,.1-1.7,10.3,10.3,0,0,0,.1-1.7c0-1.1-.5-1.6-1.7-1.7Z"/><path class="a711b26d-926b-4477-9f44-eba53308030c" d="M178.6,17.8h.2c1.3,0,2-.8,2-2.3a10.3,10.3,0,0,0-.1-1.7c0-.6-.1-1.2-.1-1.7a2.2,2.2,0,0,1,1.6-2.3,2,2,0,0,1-1.6-2.2,10.9,10.9,0,0,1,.1-1.7c0-.6.1-1.2.1-1.7s-.7-2.3-2.1-2.3h-.2V1.1h.4a3.1,3.1,0,0,1,3.2,3.3,10.3,10.3,0,0,1-.1,1.7c0,.6-.1,1.2-.1,1.7s.5,1.6,1.7,1.7v.9c-1.2.1-1.7.6-1.7,1.7a11.6,11.6,0,0,0,.1,1.7,10.3,10.3,0,0,1,.1,1.7,3,3,0,0,1-3.2,3.3h-.4v-1Zm5.8,0h.2c1.3,0,2-.8,2-2.3a10.3,10.3,0,0,0-.1-1.7c0-.6-.1-1.2-.1-1.7A2.2,2.2,0,0,1,188,9.8a2,2,0,0,1-1.6-2.2,10.9,10.9,0,0,1,.1-1.7c0-.6.1-1.2.1-1.7s-.7-2.3-2.1-2.3h-.2V1.1h.4a3.1,3.1,0,0,1,3.2,3.3,10.3,10.3,0,0,1-.1,1.7c0,.6-.1,1.2-.1,1.7s.5,1.6,1.7,1.7v.9c-1.2.1-1.7.6-1.7,1.7a11.6,11.6,0,0,0,.1,1.7,10.3,10.3,0,0,1,.1,1.7,3,3,0,0,1-3.2,3.3h-.4v-1Z"/></svg>