<?xml version="1.0" encoding="UTF-8"?>
<svg width="295px" height="221px" viewBox="0 0 295 221" version="1.1" xmlns="http://www.w3.org/2000/svg" xmlns:xlink="http://www.w3.org/1999/xlink">
    <title>logo</title>
    <g id="Page-1" stroke="none" stroke-width="1" fill="none" fill-rule="evenodd">
        <g id="logo" transform="translate(0.910000, 0.743000)" fill="#FFFFFF">
            <path d="M89.67,219.532 C88.18,219.052 86.78,218.241 85.47,217.095 C84.76,216.456 84.4,215.751 84.4,214.979 C84.4,214.367 84.62,213.828 85.07,213.362 C85.53,212.896 86.07,212.663 86.71,212.663 C87.22,212.663 87.67,212.823 88.07,213.142 C89.13,214.02 90.17,214.66 91.18,215.059 C92.2,215.458 93.39,215.658 94.78,215.658 C96.27,215.658 97.55,215.326 98.63,214.66 C99.71,213.995 100.25,213.168 100.25,212.183 C100.25,210.986 99.72,210.047 98.65,209.368 C97.59,208.689 95.9,208.177 93.58,207.83 C87.75,206.979 84.84,204.263 84.84,199.684 C84.84,198.006 85.27,196.548 86.15,195.311 C87.03,194.073 88.23,193.128 89.75,192.475 C91.26,191.824 92.95,191.496 94.82,191.496 C96.5,191.496 98.07,191.75 99.55,192.255 C101.03,192.762 102.26,193.427 103.25,194.252 C104.02,194.866 104.4,195.571 104.4,196.369 C104.4,196.982 104.18,197.521 103.72,197.987 C103.27,198.453 102.74,198.685 102.13,198.685 C101.73,198.685 101.37,198.566 101.05,198.326 C100.36,197.767 99.39,197.254 98.15,196.788 C96.92,196.323 95.8,196.089 94.82,196.089 C93.14,196.089 91.84,196.403 90.92,197.028 C90.01,197.654 89.55,198.472 89.55,199.484 C89.55,200.629 90.02,201.495 90.97,202.08 C91.91,202.665 93.39,203.145 95.42,203.517 C97.71,203.916 99.54,204.43 100.91,205.055 C102.28,205.681 103.31,206.533 104,207.611 C104.7,208.689 105.04,210.121 105.04,211.904 C105.04,213.581 104.57,215.052 103.62,216.317 C102.68,217.581 101.42,218.553 99.85,219.232 C98.28,219.911 96.59,220.25 94.78,220.25 C92.86,220.25 91.16,220.011 89.67,219.532 M124.83,204.675 C125.32,204.25 125.72,203.697 126.03,203.018 C126.33,202.339 126.49,201.627 126.49,200.881 C126.488623,200.144892 126.331873,199.417365 126.03,198.746 C125.72,198.066 125.32,197.521 124.83,197.108 C124.34,196.696 123.84,196.489 123.33,196.489 L116.38,196.489 L116.38,205.315 L123.33,205.315 C123.84,205.315 124.34,205.102 124.83,204.675 L124.83,204.675 Z M127.21,193.115 C128.43,193.927 129.42,195.018 130.16,196.389 C130.91,197.76 131.28,199.258 131.28,200.881 C131.28,202.479 130.91,203.97 130.16,205.355 C129.42,206.739 128.43,207.837 127.21,208.649 C125.98,209.461 124.69,209.868 123.33,209.868 L116.38,209.868 L116.38,217.414 C116.38,218.134 116.17,218.72 115.74,219.172 C115.32,219.625 114.76,219.851 114.07,219.851 C113.4,219.851 112.85,219.619 112.43,219.152 C112,218.687 111.79,218.108 111.79,217.414 L111.79,194.332 C111.79,193.64 112.02,193.061 112.49,192.595 C112.95,192.129 113.53,191.896 114.23,191.896 L123.33,191.896 C124.69,191.896 125.98,192.302 127.21,193.115 Z M142.1,208.989 L150.09,208.989 L146.05,199.644 L142.1,208.989 Z M158.55,217.695 C158.55,218.387 158.33,218.953 157.88,219.392 C157.42,219.831 156.9,220.05 156.32,220.05 C155.84,220.05 155.41,219.904 155.02,219.612 C154.63,219.319 154.34,218.919 154.12,218.413 L152.05,213.581 L140.14,213.581 L138.07,218.454 C137.88,218.959 137.59,219.352 137.21,219.631 C136.82,219.911 136.4,220.05 135.95,220.05 C135.26,220.05 134.73,219.864 134.37,219.492 C134.01,219.119 133.84,218.613 133.84,217.974 C133.84,217.735 133.88,217.482 133.96,217.215 L143.9,193.333 C144.11,192.801 144.43,192.389 144.86,192.096 C145.28,191.803 145.76,191.683 146.3,191.737 C146.77,191.737 147.22,191.876 147.63,192.156 C148.05,192.435 148.34,192.829 148.53,193.333 L158.36,216.736 C158.49,217.082 158.55,217.402 158.55,217.695 L158.55,217.695 Z M184.71,195.29 C184.71,195.85 184.51,196.396 184.11,196.928 C183.69,197.487 183.14,197.767 182.48,197.767 C182.02,197.767 181.57,197.647 181.12,197.408 C179.81,196.795 178.4,196.489 176.89,196.489 C175.02,196.489 173.4,196.882 172.01,197.666 C170.644368,198.434431 169.534979,199.58764 168.82,200.982 C168.07,202.406 167.7,204.037 167.7,205.873 C167.7,209.015 168.55,211.399 170.24,213.022 C171.93,214.646 174.14,215.458 176.89,215.458 C178.51,215.458 179.92,215.153 181.12,214.539 C181.6,214.327 182.02,214.22 182.4,214.22 C183.09,214.22 183.67,214.513 184.15,215.099 C184.55,215.605 184.75,216.151 184.75,216.736 C184.75,217.163 184.65,217.548 184.43,217.894 C184.22,218.241 183.91,218.507 183.51,218.693 C181.456942,219.726645 179.188557,220.260161 176.89,220.250142 C174.28,220.250142 171.88,219.698 169.7,218.593 C167.51,217.489 165.77,215.858 164.47,213.701 C163.16,211.544 162.51,208.936 162.51,205.873 C162.51,203.158 163.13,200.722 164.37,198.566 C165.6,196.409 167.31,194.725 169.5,193.514 C171.68,192.302 174.14,191.697 176.89,191.697 C179.26,191.697 181.45,192.215 183.47,193.254 C184.3,193.68 184.71,194.359 184.71,195.29 M208.65,215.957 C209.12,216.423 209.35,216.962 209.35,217.575 C209.35,218.241 209.12,218.787 208.65,219.212 C208.19,219.638 207.61,219.851 206.92,219.851 L193.54,219.851 C192.85,219.851 192.27,219.619 191.8,219.152 C191.34,218.687 191.1,218.108 191.1,217.414 L191.1,194.332 C191.1,193.64 191.34,193.061 191.8,192.595 C192.27,192.129 192.85,191.896 193.54,191.896 L206.92,191.896 C207.61,191.896 208.19,192.116 208.65,192.555 C209.12,192.995 209.35,193.56 209.35,194.252 C209.35,194.918 209.13,195.457 208.67,195.87 C208.22,196.283 207.64,196.489 206.92,196.489 L196.09,196.489 L196.09,203.278 L205.12,203.278 C205.81,203.278 206.39,203.497 206.86,203.937 C207.32,204.376 207.56,204.942 207.56,205.634 C207.56,206.3 207.33,206.839 206.88,207.251 C206.42,207.664 205.84,207.871 205.12,207.871 L196.09,207.871 L196.09,215.258 L206.92,215.258 C207.61,215.258 208.19,215.492 208.65,215.957 M169.96,41.067 C169.960555,43.3825986 168.085595,45.261138 165.77,45.265 C163.451185,45.265 161.571104,43.3858149 161.57,41.067 L161.57,28.473 C161.619811,26.1918524 163.483309,24.3686024 165.765,24.3686024 C168.046691,24.3686024 169.910189,26.1918524 169.96,28.473 L169.96,41.067 Z M169.96,78.847 C169.960555,81.1625986 168.085595,83.041138 165.77,83.045 C163.451185,83.045 161.571104,81.1658149 161.57,78.847 L161.57,57.858 L153.17,57.858 C150.851509,57.858 148.972,55.9784914 148.972,53.66 C148.972,51.3415086 150.851509,49.462 153.17,49.462 L165.77,49.462 C168.08,49.462 169.96,51.342 169.96,53.661 L169.96,78.847 Z M140.58,57.858 C138.261509,57.858 136.382,55.9784914 136.382,53.66 C136.382,51.3415086 138.261509,49.462 140.58,49.462 C142.898491,49.462 144.778,51.3415086 144.778,53.66 C144.778,55.9784914 142.898491,57.858 140.58,57.858 L140.58,57.858 Z M132.18,53.661 C132.130189,55.9421476 130.266691,57.7653976 127.985,57.7653976 C125.703309,57.7653976 123.839811,55.9421476 123.79,53.661 L123.79,28.473 C123.756797,26.9524353 124.549018,25.5329484 125.86061,24.7629194 C127.172203,23.9928903 128.797797,23.9928903 130.10939,24.7629194 C131.420982,25.5329484 132.213203,26.9524353 132.18,28.473 L132.18,53.661 Z M132.18,78.847 C132.178896,81.1658149 130.298815,83.045 127.98,83.045 C125.67,83.045 123.79,81.165 123.79,78.847 L123.79,66.253 C123.756797,64.7324353 124.549018,63.3129484 125.86061,62.5429194 C127.172203,61.7728903 128.797797,61.7728903 130.10939,62.5429194 C131.420982,63.3129484 132.213203,64.7324353 132.18,66.253 L132.18,78.847 Z M146.88,0 C117.24,0 93.22,24.025 93.22,53.661 C93.22,83.295 117.24,107.32 146.88,107.32 C176.51,107.32 200.54,83.295 200.54,53.661 C200.54,24.025 176.51,0 146.88,0 Z M37.33,164.58 L45.31,164.58 L41.28,155.236 L37.33,164.58 Z M53.78,173.287 C53.78,173.979 53.55,174.544 53.1,174.984 C52.65,175.423 52.13,175.642 51.54,175.642 C51.06,175.642 50.63,175.496 50.25,175.204 C49.86,174.911 49.56,174.511 49.35,174.005 L47.27,169.173 L35.37,169.173 L33.29,174.045 C33.11,174.551 32.82,174.944 32.43,175.223 C32.05,175.502 31.63,175.642 31.18,175.642 C30.48,175.642 29.96,175.455 29.6,175.083 C29.24,174.71 29.06,174.205 29.06,173.566 C29.06,173.327 29.1,173.074 29.18,172.807 L39.12,148.925 C39.34,148.393 39.66,147.981 40.08,147.688 C40.51,147.395 40.99,147.275 41.52,147.329 C42,147.329 42.45,147.468 42.86,147.747 C43.27,148.027 43.57,148.42 43.76,148.925 L53.58,172.328 C53.71,172.674 53.78,172.994 53.78,173.287 L53.78,173.287 Z M79.94,150.882 C79.94,151.442 79.74,151.988 79.34,152.52 C78.91,153.079 78.37,153.359 77.7,153.359 C77.25,153.359 76.8,153.239 76.34,152.999 C75.04,152.387 73.63,152.08 72.11,152.08 C70.25,152.08 68.62,152.474 67.24,153.258 C65.85,154.044 64.79,155.15 64.04,156.574 C63.3,157.997 62.93,159.628 62.93,161.465 C62.93,164.607 63.77,166.991 65.46,168.614 C67.15,170.238 69.37,171.05 72.11,171.05 C73.73,171.05 75.15,170.745 76.34,170.131 C76.82,169.918 77.25,169.812 77.62,169.812 C78.31,169.812 78.9,170.105 79.38,170.691 C79.78,171.197 79.98,171.743 79.98,172.328 C79.98,172.754 79.87,173.14 79.66,173.486 C79.45,173.832 79.14,174.099 78.74,174.285 C76.6829934,175.317609 74.4116249,175.851021 72.11,175.842113 C69.5,175.842113 67.11,175.289 64.92,174.185 C62.74,173.08 61,171.45 59.69,169.292 C58.39,167.136 57.73,164.528 57.73,161.465 C57.73,158.749 58.35,156.314 59.59,154.158 C60.7988179,152.031163 62.5748936,150.282092 64.72,149.106 C66.91,147.894 69.37,147.288 72.11,147.288 C74.48,147.288 76.68,147.807 78.7,148.846 C79.53,149.272 79.94,149.951 79.94,150.882 M108.13,172.068 C108.24,172.374 108.29,172.661 108.29,172.927 C108.30379,173.619454 108.002082,174.280636 107.47,174.724 C106.93,175.204 106.3,175.443 105.58,175.443 C105.23,175.443 104.9,175.363 104.58,175.204 C104.261509,175.046512 103.98674,174.812959 103.78,174.524 L95.11,163.103 L91.32,166.737 L91.32,173.006 C91.32,173.726 91.09,174.312 90.62,174.764 C90.16,175.217 89.55,175.443 88.8,175.443 C88.09,175.443 87.49,175.21 87.03,174.744 C86.56,174.279 86.33,173.7 86.33,173.006 L86.33,149.924 C86.33,149.232 86.57,148.653 87.05,148.187 C87.53,147.721 88.14,147.488 88.88,147.488 C89.6,147.488 90.19,147.714 90.64,148.167 C91.09,148.62 91.32,149.205 91.32,149.924 L91.32,160.787 L104.1,148.206 C104.71,147.595 105.36,147.288 106.06,147.288 C106.67,147.288 107.19,147.541 107.61,148.047 C108.04,148.553 108.25,149.085 108.25,149.645 C108.25,150.204 108.01,150.723 107.53,151.202 L98.83,159.508 L107.73,171.289 C107.89,171.503 108.03,171.762 108.13,172.068 M132.19,171.549 C132.66,172.015 132.89,172.554 132.89,173.166 C132.89,173.832 132.66,174.378 132.19,174.804 C131.73,175.23 131.15,175.443 130.46,175.443 L117.08,175.443 C116.38,175.443 115.81,175.21 115.34,174.744 C114.87,174.279 114.64,173.7 114.64,173.006 L114.64,149.924 C114.64,149.232 114.87,148.653 115.34,148.187 C115.81,147.721 116.38,147.488 117.08,147.488 L130.46,147.488 C131.15,147.488 131.73,147.707 132.19,148.147 C132.66,148.586 132.89,149.152 132.89,149.844 C132.89,150.51 132.67,151.049 132.21,151.461 C131.76,151.874 131.17,152.08 130.46,152.08 L119.63,152.08 L119.63,158.87 L128.66,158.87 C129.35,158.87 129.93,159.089 130.4,159.529 C130.86,159.968 131.09,160.534 131.09,161.226 C131.09,161.892 130.87,162.431 130.42,162.843 C129.96,163.256 129.38,163.462 128.66,163.462 L119.63,163.462 L119.63,170.85 L130.46,170.85 C131.15,170.85 131.73,171.083 132.19,171.549 M154.78,160.467 C155.23,160.015 155.6,159.409 155.9,158.65 C156.19,157.891 156.34,157.073 156.34,156.194 C156.34,155.449 156.19,154.763 155.9,154.137 C155.6,153.512 155.23,153.013 154.78,152.64 C154.32,152.267 153.86,152.08 153.38,152.08 L144.63,152.08 L144.63,161.146 L153.38,161.146 C153.86,161.146 154.32,160.92 154.78,160.467 Z M162.38,172.368 C162.59,172.714 162.68,173.074 162.68,173.446 C162.68,173.925 162.52,174.365 162.21,174.764 C161.81,175.244 161.19,175.483 160.37,175.483 C159.73,175.483 159.14,175.336 158.61,175.043 C156.69,173.953 155.74,171.729 155.74,168.374 C155.74,167.415 155.42,166.657 154.8,166.098 C154.17,165.538 153.27,165.259 152.1,165.259 L144.63,165.259 L144.63,173.006 C144.63,173.726 144.44,174.312 144.05,174.764 C143.67,175.217 143.16,175.443 142.52,175.443 C141.74,175.443 141.07,175.21 140.5,174.744 C139.93,174.279 139.64,173.7 139.64,173.006 L139.64,149.924 C139.64,149.232 139.87,148.653 140.34,148.187 C140.81,147.721 141.38,147.488 142.08,147.488 L153.58,147.488 C154.96,147.488 156.27,147.861 157.49,148.606 C158.72,149.352 159.7,150.377 160.43,151.681 C161.16,152.986 161.53,154.451 161.53,156.074 C161.53,157.406 161.17,158.704 160.45,159.968 C159.73,161.233 158.8,162.238 157.65,162.983 C159.33,164.155 160.25,165.725 160.41,167.696 C160.49,168.121 160.53,168.534 160.53,168.933 C160.63,169.759 160.74,170.351 160.85,170.71 C160.95,171.07 161.19,171.343 161.57,171.529 C161.91,171.743 162.19,172.022 162.38,172.368 L162.38,172.368 Z M173.47,174.744 C172.96,175.21 172.38,175.443 171.71,175.443 C170.99,175.443 170.4,175.21 169.93,174.744 C169.47,174.279 169.23,173.7 169.23,173.006 L169.23,149.924 C169.23,149.232 169.47,148.653 169.95,148.187 C170.43,147.721 171.04,147.488 171.79,147.488 C172.45,147.488 173.03,147.721 173.51,148.187 C173.99,148.653 174.23,149.232 174.23,149.924 L174.23,173.006 C174.23,173.7 173.97,174.279 173.47,174.744 M205.14,148.127 C205.53,148.553 205.73,149.085 205.73,149.724 L205.73,173.006 C205.73,173.7 205.5,174.279 205.04,174.744 C204.57,175.21 203.99,175.443 203.3,175.443 C202.92,175.443 202.56,175.383 202.2,175.263 C201.84,175.143 201.58,174.977 201.42,174.764 L186.76,156.154 L186.76,173.206 C186.76,173.845 186.56,174.378 186.15,174.804 C185.73,175.23 185.19,175.443 184.53,175.443 C183.89,175.443 183.37,175.23 182.97,174.804 C182.57,174.378 182.37,173.845 182.37,173.206 L182.37,149.924 C182.37,149.232 182.6,148.653 183.07,148.187 C183.54,147.721 184.12,147.488 184.81,147.488 C185.21,147.488 185.6,147.568 185.99,147.728 C186.37,147.887 186.66,148.101 186.84,148.367 L201.38,166.897 L201.38,149.724 C201.38,149.085 201.59,148.553 202,148.127 C202.41,147.702 202.94,147.488 203.58,147.488 C204.22,147.488 204.74,147.702 205.14,148.127 M236.64,148.127 C237.04,148.553 237.24,149.085 237.24,149.724 L237.24,173.006 C237.24,173.7 237.01,174.279 236.54,174.744 C236.08,175.21 235.5,175.443 234.81,175.443 C234.43,175.443 234.07,175.383 233.71,175.263 C233.35,175.143 233.09,174.977 232.93,174.764 L218.27,156.154 L218.27,173.206 C218.27,173.845 218.07,174.378 217.65,174.804 C217.24,175.23 216.7,175.443 216.04,175.443 C215.4,175.443 214.88,175.23 214.48,174.804 C214.08,174.378 213.88,173.845 213.88,173.206 L213.88,149.924 C213.88,149.232 214.11,148.653 214.58,148.187 C215.04,147.721 215.62,147.488 216.32,147.488 C216.72,147.488 217.11,147.568 217.49,147.728 C217.88,147.887 218.17,148.101 218.35,148.367 L232.89,166.897 L232.89,149.724 C232.89,149.085 233.09,148.553 233.51,148.127 C233.92,147.702 234.45,147.488 235.09,147.488 C235.72,147.488 236.24,147.702 236.64,148.127 M262.94,171.549 C263.41,172.015 263.64,172.554 263.64,173.166 C263.64,173.832 263.41,174.378 262.94,174.804 C262.47,175.23 261.9,175.443 261.2,175.443 L247.83,175.443 C247.13,175.443 246.55,175.21 246.09,174.744 C245.62,174.279 245.39,173.7 245.39,173.006 L245.39,149.924 C245.39,149.232 245.62,148.653 246.09,148.187 C246.55,147.721 247.13,147.488 247.83,147.488 L261.2,147.488 C261.9,147.488 262.47,147.707 262.94,148.147 C263.41,148.586 263.64,149.152 263.64,149.844 C263.64,150.51 263.41,151.049 262.96,151.461 C262.51,151.874 261.92,152.08 261.2,152.08 L250.38,152.08 L250.38,158.87 L259.41,158.87 C260.1,158.87 260.68,159.089 261.14,159.529 C261.61,159.968 261.84,160.534 261.84,161.226 C261.84,161.892 261.62,162.431 261.16,162.843 C260.71,163.256 260.13,163.462 259.41,163.462 L250.38,163.462 L250.38,170.85 L261.2,170.85 C261.9,170.85 262.47,171.083 262.94,171.549 M293.15,148.127 C293.55,148.553 293.75,149.085 293.75,149.724 L293.75,173.006 C293.75,173.7 293.52,174.279 293.05,174.744 C292.59,175.21 292.01,175.443 291.31,175.443 C290.94,175.443 290.58,175.383 290.22,175.263 C289.86,175.143 289.6,174.977 289.44,174.764 L274.78,156.154 L274.78,173.206 C274.78,173.845 274.57,174.378 274.16,174.804 C273.75,175.23 273.21,175.443 272.54,175.443 C271.91,175.443 271.39,175.23 270.99,174.804 C270.59,174.378 270.39,173.845 270.39,173.206 L270.39,149.924 C270.39,149.232 270.62,148.653 271.09,148.187 C271.55,147.721 272.13,147.488 272.82,147.488 C273.22,147.488 273.62,147.568 274,147.728 C274.39,147.887 274.67,148.101 274.86,148.367 L289.4,166.897 L289.4,149.724 C289.4,149.085 289.6,148.553 290.02,148.127 C290.43,147.702 290.95,147.488 291.59,147.488 C292.23,147.488 292.75,147.702 293.15,148.127 M6.03,161.375 C6.01374529,160.646388 6.393159,159.966058 7.02158545,159.596979 C7.6500119,159.2279 8.4289881,159.2279 9.05741455,159.596979 C9.685841,159.966058 10.0652547,160.646388 10.049,161.375 C10.0246306,162.467352 9.13212377,163.34017 8.0395,163.34017 C6.94687623,163.34017 6.05436944,162.467352 6.03,161.375 M2.01,147.308 C0.899907653,147.308 0,148.207908 0,149.318 L0,161.375 C0,162.485092 0.899907653,163.385 2.01,163.385 C3.12009235,163.385 4.02,162.485092 4.02,161.375 L4.02,149.318 C4.02,148.207 3.12,147.308 2.01,147.308 M2.01,165.394 C0.9,165.394 0,166.294 0,167.404 L0,173.433 C0,174.543092 0.899907653,175.443 2.01,175.443 C3.12009235,175.443 4.02,174.543092 4.02,173.433 L4.02,167.404 C4.02,166.294 3.12,165.394 2.01,165.394 M20.1,159.366 L14.07,159.366 C13.3413883,159.349745 12.6610582,159.729159 12.2919791,160.357585 C11.9229,160.986012 11.9229,161.764988 12.2919791,162.393415 C12.6610582,163.021841 13.3413883,163.401255 14.07,163.385 L18.09,163.385 L18.09,173.433 C18.09,174.543092 18.9899077,175.443 20.1,175.443 C21.2100923,175.443 22.11,174.543092 22.11,173.433 L22.11,161.375 C22.11,160.265 21.21,159.366 20.1,159.366 M20.1,147.308 C18.9899077,147.308 18.09,148.207908 18.09,149.318 L18.09,155.346 C18.09,156.456092 18.9899077,157.356 20.1,157.356 C21.2100923,157.356 22.11,156.456092 22.11,155.346 L22.11,149.318 C22.11,148.207 21.21,147.308 20.1,147.308" id="Shape"></path>
        </g>
    </g>
</svg>