<?xml version="1.0" encoding="UTF-8"?><svg id="Ebene_1" xmlns="http://www.w3.org/2000/svg" xmlns:xlink="http://www.w3.org/1999/xlink" viewBox="0 0 1335.4894016925 1210.4124427951"><defs><style>.cls-1{fill:url(#Unbenannter_Verlauf_10-19);}.cls-2{fill:url(#Unbenannter_Verlauf_10-16);}.cls-3{fill:url(#Unbenannter_Verlauf_10-17);}.cls-4{fill:url(#Unbenannter_Verlauf_10-14);}.cls-5{fill:url(#Unbenannter_Verlauf_10-15);}.cls-6{fill:url(#Unbenannter_Verlauf_10-18);}.cls-7{fill:url(#Unbenannter_Verlauf_10-10);}.cls-8{fill:url(#Unbenannter_Verlauf_10-13);}.cls-9{fill:url(#Unbenannter_Verlauf_10-12);}.cls-10{fill:url(#Unbenannter_Verlauf_10-11);}.cls-11{fill:url(#Unbenannter_Verlauf_10-21);}.cls-12{fill:url(#Unbenannter_Verlauf_10-22);}.cls-13{fill:url(#Unbenannter_Verlauf_10-20);}.cls-14{fill:#9e1b25;filter:url(#outer-glow-14);}.cls-15{filter:url(#outer-glow-13);}.cls-15,.cls-16{fill:#fd1d53;}.cls-17{filter:url(#outer-glow-15);}.cls-17,.cls-18,.cls-19{fill:#241734;}.cls-18{filter:url(#outer-glow-12);}.cls-20{fill:url(#Unbenannter_Verlauf_10-9);}.cls-21{fill:url(#Unbenannter_Verlauf_10-6);}.cls-22{fill:url(#Unbenannter_Verlauf_10-5);}.cls-23{fill:url(#Unbenannter_Verlauf_10-3);}.cls-24{fill:url(#Unbenannter_Verlauf_10-2);}.cls-25{fill:url(#Unbenannter_Verlauf_10-4);}.cls-26{fill:url(#Unbenannter_Verlauf_10-8);}.cls-27{fill:url(#Unbenannter_Verlauf_10-7);}.cls-28{filter:url(#outer-glow-11);stroke:#f9c80e;stroke-width:3.1247409939px;}.cls-28,.cls-29,.cls-30{fill:none;stroke-miterlimit:10;}.cls-31{fill:#f2f2f2;}.cls-32{fill:#fff;}.cls-33{fill:#b20f45;}.cls-34{fill:#188c86;}.cls-35{fill:#1ba5a1;}.cls-36{fill:#2de2e6;}.cls-37{fill:#2e2157;}.cls-29{stroke:url(#Unbenannter_Verlauf_38);stroke-width:17.809316135px;}.cls-30{stroke:url(#Unbenannter_Verlauf_23);stroke-width:43.5338838855px;}.cls-38{fill:url(#Unbenannter_Verlauf_10);}.cls-39{fill:url(#Unbenannter_Verlauf_26);}.cls-40{fill:url(#Unbenannter_Verlauf_44);}</style><linearGradient id="Unbenannter_Verlauf_26" x1="668.8791263881" y1="1185.877308399" x2="668.8791263881" y2="44.4201657325" gradientUnits="userSpaceOnUse"><stop offset="0" stop-color="#bc882f"/><stop offset="1" stop-color="#2e2157"/></linearGradient><linearGradient id="Unbenannter_Verlauf_10" x1="651.3868575129" y1="1271.5832412835" x2="717.7965084542" y2="805.6578053965" gradientUnits="userSpaceOnUse"><stop offset="0" stop-color="#1a1a1a"/><stop offset="1" stop-color="#2e2157"/></linearGradient><linearGradient id="Unbenannter_Verlauf_23" x1="23.128114763" y1="605.2062213975" x2="1335.4894016925" y2="605.2062213975" gradientUnits="userSpaceOnUse"><stop offset="0" stop-color="#f9c80e"/><stop offset=".1678949796" stop-color="#f8983d"/><stop offset=".3733093346" stop-color="#f76471"/><stop offset=".5662874008" stop-color="#f73b99"/><stop offset=".7409203938" stop-color="#f71eb6"/><stop offset=".8912880231" stop-color="#f70cc8"/><stop offset="1" stop-color="#f706cf"/></linearGradient><linearGradient id="Unbenannter_Verlauf_10-2" x1="-6378.5791803703" y1="1814.8131499957" x2="-6313.9428243066" y2="1361.3290261328" gradientTransform="translate(-5421.8848915806 779.7337231888) rotate(163.0748975272) scale(.8998226725 -1)" xlink:href="#Unbenannter_Verlauf_10"/><linearGradient id="Unbenannter_Verlauf_10-3" x1="-6215.9590948339" y1="2403.9831944949" x2="-6199.3465094326" y2="2287.4304648147" gradientTransform="translate(-6141.8203015265 1741.1680845357) rotate(147.5582619267) scale(1 -1)" xlink:href="#Unbenannter_Verlauf_10"/><linearGradient id="Unbenannter_Verlauf_10-4" x1="1600.2325530337" y1="1785.7397943331" x2="1615.7463080091" y2="1676.8963815655" gradientTransform="translate(-1678.7130751211 -607.6835320652) rotate(-23.633139238)" xlink:href="#Unbenannter_Verlauf_10"/><linearGradient id="Unbenannter_Verlauf_10-5" x1="-6221.5376576633" y1="1655.1568315845" x2="-6221.5376576633" y2="1602.1787437877" gradientTransform="translate(-5827.048519993 1108.6759832407) rotate(158.4688069736) scale(1 -1)" xlink:href="#Unbenannter_Verlauf_10"/><linearGradient id="Unbenannter_Verlauf_10-6" x1="1329.8701050038" y1="1656.8177676359" x2="1329.8701050038" y2="1603.839679839" gradientTransform="translate(-1507.2254737255 -595.6648715538) rotate(-21.531193029)" xlink:href="#Unbenannter_Verlauf_10"/><linearGradient id="Unbenannter_Verlauf_10-7" x1="715.5464965433" y1="2273.1948432846" x2="715.5464965433" y2="2187.5801821837" gradientTransform="translate(-1354.0726193515 -1112.1871794233) rotate(-29.6430820205)" xlink:href="#Unbenannter_Verlauf_10"/><linearGradient id="Unbenannter_Verlauf_10-8" x1="-6567.8826011408" y1="848.229269478" x2="-6567.8826011408" y2="762.6146083772" gradientTransform="translate(-6064.4087876811 444.2885332929) rotate(172.730449852) scale(1 -1)" xlink:href="#Unbenannter_Verlauf_10"/><linearGradient id="Unbenannter_Verlauf_10-9" x1="-3268.0412384707" y1="1704.5317468838" x2="-3203.404882407" y2="1251.0476230209" gradientTransform="translate(3162.3599866434 -717.6445940599) rotate(-2.8643751185) scale(.8998226725 1)" xlink:href="#Unbenannter_Verlauf_10"/><linearGradient id="Unbenannter_Verlauf_10-10" x1="-3548.5420154982" y1="1548.9559761325" x2="-3531.9294300969" y2="1432.4032464523" gradientTransform="translate(4165.2862851331 -56.7347170946) rotate(12.652260482)" xlink:href="#Unbenannter_Verlauf_10"/><linearGradient id="Unbenannter_Verlauf_10-11" x1="-1166.6572996503" y1="1349.2699071858" x2="-1151.1435446749" y2="1240.4264944181" gradientTransform="translate(-829.4822827169 -755.8176769908) rotate(-176.1563383533) scale(1 -1)" xlink:href="#Unbenannter_Verlauf_10"/><linearGradient id="Unbenannter_Verlauf_10-12" x1="-3440.5008196189" y1="1320.4636516233" x2="-3440.5008196189" y2="1267.4855638265" gradientTransform="translate(3654.9642275972 -545.30296232) rotate(1.7417154351)" xlink:href="#Unbenannter_Verlauf_10"/><linearGradient id="Unbenannter_Verlauf_10-13" x1="-1451.1667330255" y1="1322.1245875498" x2="-1451.1667330255" y2="1269.146499753" gradientTransform="translate(-986.7732351602 -686.4490824224) rotate(-178.2582845623) scale(1 -1)" xlink:href="#Unbenannter_Verlauf_10"/><linearGradient id="Unbenannter_Verlauf_10-14" x1="-1990.4369597744" y1="1549.4276476978" x2="-1990.4369597744" y2="1463.812986597" gradientTransform="translate(-1305.7577734129 -1120.6148983102) rotate(-170.1463955708) scale(1 -1)" xlink:href="#Unbenannter_Verlauf_10"/><linearGradient id="Unbenannter_Verlauf_10-15" x1="-3790.1031538016" y1="1208.9601403669" x2="-3790.1031538016" y2="1123.3454792661" gradientTransform="translate(3653.368283586 -1250.8155655297) rotate(-12.5199274433)" xlink:href="#Unbenannter_Verlauf_10"/><filter id="outer-glow-11" filterUnits="userSpaceOnUse"><feOffset dx="0" dy="0"/><feGaussianBlur result="blur" stdDeviation="4.1499977361"/><feFlood flood-color="#edb426" flood-opacity=".87"/><feComposite in2="blur" operator="in"/><feComposite in="SourceGraphic"/></filter><linearGradient id="Unbenannter_Verlauf_10-16" x1="1240.3201795337" y1="1163.0639550496" x2="1257.5797794296" y2="1041.9718172234" gradientTransform="translate(-497.6148052273 -157.2898021329) rotate(-4.6060905536) scale(.8998226725 1)" xlink:href="#Unbenannter_Verlauf_10"/><linearGradient id="Unbenannter_Verlauf_10-17" x1="278.6645193766" y1="272.0536000086" x2="289.4183248217" y2="196.6056580535" gradientTransform="translate(524.9358238127 472.8318025772) rotate(10.9105450469)" xlink:href="#Unbenannter_Verlauf_10"/><linearGradient id="Unbenannter_Verlauf_10-18" x1="-5186.529359965" y1="673.7522746206" x2="-5176.4868591321" y2="603.2947957505" gradientTransform="translate(-4488.773059858 -74.1172453256) rotate(-177.8980537884) scale(1 -1)" xlink:href="#Unbenannter_Verlauf_10"/><linearGradient id="Unbenannter_Verlauf_10-19" x1="625.4640106702" y1="791.6308505007" x2="625.4640106702" y2="757.3366069942" xlink:href="#Unbenannter_Verlauf_10"/><linearGradient id="Unbenannter_Verlauf_10-20" x1="-5429.7450789901" y1="792.7060225153" x2="-5429.7450789901" y2="758.4117790089" gradientTransform="translate(-4643.8829547444) rotate(-180) scale(1 -1)" xlink:href="#Unbenannter_Verlauf_10"/><linearGradient id="Unbenannter_Verlauf_10-21" x1="-5862.0318922463" y1="438.4648058949" x2="-5862.0318922463" y2="383.0439676275" gradientTransform="translate(-4975.9161515386 -424.2700176233) rotate(-171.8881110059) scale(1 -1)" xlink:href="#Unbenannter_Verlauf_10"/><linearGradient id="Unbenannter_Verlauf_10-22" x1="273.4088660574" y1="1667.1553225045" x2="273.4088660574" y2="1611.734484237" gradientTransform="translate(-23.0385478487 -705.1381464919) rotate(-14.2616428784)" xlink:href="#Unbenannter_Verlauf_10"/><filter id="outer-glow-12" filterUnits="userSpaceOnUse"><feOffset dx="0" dy="0"/><feGaussianBlur result="blur-2" stdDeviation="16.1388800849"/><feFlood flood-color="#000" flood-opacity=".75"/><feComposite in2="blur-2" operator="in"/><feComposite in="SourceGraphic"/></filter><filter id="outer-glow-13" filterUnits="userSpaceOnUse"><feOffset dx="0" dy="0"/><feGaussianBlur result="blur-3" stdDeviation="16.1388800849"/><feFlood flood-color="#2d0028" flood-opacity=".87"/><feComposite in2="blur-3" operator="in"/><feComposite in="SourceGraphic"/></filter><filter id="outer-glow-14" filterUnits="userSpaceOnUse"><feOffset dx="0" dy="0"/><feGaussianBlur result="blur-4" stdDeviation="16.1388800849"/><feFlood flood-color="#000" flood-opacity=".87"/><feComposite in2="blur-4" operator="in"/><feComposite in="SourceGraphic"/></filter><filter id="outer-glow-15" filterUnits="userSpaceOnUse"><feOffset dx="0" dy="0"/><feGaussianBlur result="blur-5" stdDeviation="16.1388800849"/><feFlood flood-color="#000" flood-opacity=".75"/><feComposite in2="blur-5" operator="in"/><feComposite in="SourceGraphic"/></filter><linearGradient id="Unbenannter_Verlauf_44" x1="772.2554314319" y1="275.3109505067" x2="970.4915155122" y2="275.3109505067" gradientUnits="userSpaceOnUse"><stop offset="0" stop-color="#f706cf"/><stop offset="1" stop-color="#fb76e5"/></linearGradient><linearGradient id="Unbenannter_Verlauf_38" x1="502.5109166981" y1="1004.9168214417" x2="437.5824762904" y2="888.0456287079" gradientUnits="userSpaceOnUse"><stop offset="0" stop-color="#2de2e6"/><stop offset="1" stop-color="#c6f7f8"/></linearGradient></defs><polygon class="cls-39" points="50.080065935 1185.877308399 1287.6781868412 1063.6298314998 272.2933455688 44.4201657325 50.080065935 1185.877308399"/><path class="cls-38" d="m103.3391556042,877.9730955365s297.3806262347-66.8686008971,427.983273454-35.6375330838c130.6026472193,31.2310678133,339.9293963339,105.7825455299,508.6057674382,45.6451500937,15.2230078559-5.4273875894,45.077148501-21.6487225426,57.8668520503-28.16065615l198.9572642549,188.3566348258L50.080065935,1185.877308399l53.2590896692-307.9042128625Z"/><polygon class="cls-30" points="50.080065935 1185.877308399 1287.6781868412 1063.6298314998 272.2933455688 44.4201657325 50.080065935 1185.877308399"/><path class="cls-24" d="m564.6775885668,860.946151189c-.0316781364-1.0879816219-44.9222901539-269.4783377131-60.5146956928-342.618135578-13.2179219347-62.0017312976-41.0345000492-111.9971532011-42.3412015148-115.020122649l-22.0620901656,10.2266881761c.3102341068.7186763573,33.2882348866,71.8194364841,40.7939840748,110.4694217809,13.8384477545,71.2594824087,59.6155918945,336.0061684836,59.6230567906,336.2433083852l24.5009465077.6988398849Z"/><path class="cls-23" d="m448.8950448416,388.2121083598s-33.8495238199-29.4694131253-86.9486563382-40.5859376887c-49.476483911-10.3581079883-99.1569727488,46.738289081-99.1569727488,46.738289081,47.8822724768-32.5754184802,167.7182932636,5.6569462703,167.7182932636,5.6569462703l18.3873358234-11.8092976626Z"/><path class="cls-25" d="m458.275321711,385.5963540921s29.6521389827-101.861496414,74.9882463405-120.0373544142c0,0-63.3431059414,7.8919668503-79.3833917162,47.3928669854-17.2147491629,42.393140439-9.8963211816,90.2754688097-9.8963211816,90.2754688097l14.2914665574-17.6309813809Z"/><path class="cls-22" d="m446.194551608,406.6569050512s41.0178232171-7.7851742207,108.2854605902-44.8223866107c67.267637373-37.03721239,133.6697118948-44.3400046953,133.6697118948-44.3400046953-123.3734271169-62.5975111289-242.9559138237,70.6617738645-242.9559138237,70.6617738645l.6529505501,20.2833942367"/><path class="cls-21" d="m447.4853917747,407.9331518268s-24.3835099649,18.0182355271-98.8187611557,36.888410925c-74.4352511908,18.8701753979-127.9356208373,58.8736342974-127.9356208373,58.8736342974,47.3967206346-129.9730810252,225.7536406541-114.2626626638,225.7536406541-114.2626626638l1.0007413389,18.5006174414"/><path class="cls-27" d="m451.0492711302,397.0265642349s-147.3468788555,5.5974177494-151.8007294208,165.4274048771c0,0,38.8145226082-48.1372056881,77.2668034066-79.9237722349,59.1857255873-48.9258625481,74.8232540171-65.8402459637,74.8232540171-65.8402459637l-.2893280029-19.6633866785"/><path class="cls-26" d="m451.3385991331,416.6899509134s26.2041691456,3.3335418504,102.9109527178,6.9055851576c49.8355093528,2.3207151878,109.7807869248,17.4970597265,109.7807869248,17.4970597265-99.5544202861-125.1174606983-220.7277402874-41.0968661171-220.7277402874-41.0968661171l8.0360006448,16.6942212331Z"/><path class="cls-20" d="m346.7664950031,1135.6011680786c-.3385453101-1.0344537626-48.9666532721-268.7728660349-59.0576735359-342.8722887873-8.5543130441-62.8152200706.6927943012-119.2757836088.898853832-122.5626289768l24.2215684014,2.1532760397c-.0485938516.7812679087-7.0067741381,78.84822861-.9837190611,117.7568451603,11.1047852673,71.7363242269,57.6650974871,336.3463996949,57.7383607452,336.57206217l-22.8173903816,8.9527343941Z"/><path class="cls-7" d="m295.6600062267,651.5854663849s21.8731557988-39.189305023,68.072743373-67.6268348125c43.0476552612-26.4974005858,109.1250101991,10.4069717008,109.1250101991,10.4069717008-56.0833878213-14.4403433889-155.8981030355,62.1064280593-155.8981030355,62.1064280593l-21.2996505366-4.8865649476Z"/><path class="cls-10" d="m285.9480975592,652.3000253896s-62.3877213732-85.8066781772-111.2001241059-87.5598991708c0,0,62.2741944734-14.0198756683,90.7408155298,17.7175370311,30.5509358051,34.0612135201,39.8759988047,81.5935178863,39.8759988047,81.5935178863l-19.4166902286-11.7511557467Z"/><path class="cls-9" d="m304.4457811565,668.0266752083s-41.2312205478,6.5617993915-117.06573884-5.5136291626c-75.8345182922-12.0754285541-140.7875537727,3.5344868241-140.7875537727,3.5344868241,94.8940240709-100.6706268667,252.5312693475-15.7676995582,252.5312693475-15.7676995582l6.2528606019,19.3065833455"/><path class="cls-8" d="m303.6632668301,669.6645840877s29.0438381975,8.6987259113,105.4719471895,1.253304817c76.4281089921-7.4454210943,140.3126812125,12.0821929037,140.3126812125,12.0821929037-88.6019626511-106.2503794463-251.1066516672-31.0823396174-251.1066516672-31.0823396174l5.3220232652,17.7468418967"/><path class="cls-4" d="m296.6172694819,660.6087124936s140.5400991291-44.6196630502,198.8437774289,104.2633200836c0,0-52.8198307676-32.1531213793-99.763056532-49.043866368-72.2549825546-25.9982236972-92.6956251523-36.6193720305-92.6956251523-36.6193720305l-6.3850957447-18.6000816851"/><path class="cls-5" d="m303.0023652266,679.2087941787s-23.5280075462,12.0084904457-94.4953464522,41.3398209301c-46.1066585912,19.0562258853-97.3735647326,53.6316806391-97.3735647326,53.6316806391,51.314622919-151.4340484989,193.7782484042-113.4005210853,193.7782484042-113.4005210853l-1.9093372195,18.4290195161Z"/><polygon class="cls-28" points="140.2489003382 1201.5465220138 1199.9980569927 651.0952361864 4.3182283248 82.2555230734 140.2489003382 1201.5465220138"/><path class="cls-2" d="m709.6180473087,912.4973630912c-.2394016695-.6626615231-5.904426302-16.5478459029-9.4074806047-43.6438521885-3.4676239303-26.8260811613-1.8984810918-77.1886122986-1.8298228109-79.3193532696l15.7144410884.91667664c-.0160702968.5064596668-1.5871482521,50.9352030848,1.6803591457,76.2115378356,3.2070641279,24.8074043045,8.378046215,39.4488065359,8.4298896109,39.5933754254l-14.5873864294,6.241615557Z"/><path class="cls-3" d="m702.5782367354,777.3730835316s13.3815369219-25.786998868,42.7145393044-45.0958994034c27.3317802309-17.9915652361,70.8118853261,4.5865962742,70.8118853261,4.5865962742-36.5717333331-8.2398966311-99.6487741592,43.2519874894-99.6487741592,43.2519874894l-13.8776504713-2.7426843601Z"/><path class="cls-6" d="m696.3084016816,778.026505346s-42.0549505617-54.2920019392-73.6725222399-54.4660087476c0,0,40.0174173902-10.296515602,59.0605989352,9.6784568749,20.4375157751,21.4375320709,27.4063025867,52.0088778336,27.4063025867,52.0088778336l-12.794379282-7.2213259608Z"/><path class="cls-1" d="m708.5863737887,787.8381756495s-26.548723959,5.0568998016-75.8534970267-1.2642249506c-49.3047730676-6.3211247523-91.0241964326,5.0568998018-91.0241964326,5.0568998018,59.4185726713-67.003922374,163.0850186084-15.1706994054,163.0850186084-15.1706994054l4.4256420731,12.368909554"/><path class="cls-13" d="m708.1122894323,788.9133473329s18.9633742566,5.0568998027,68.2681473245-1.2642249474c49.3047730679-6.32112475,91.0241964324,5.0568998059,91.0241964324,5.0568998059-59.4185726682-67.0039223767-163.0850186077-15.1706994128-163.0850186077-15.1706994128l3.7926748508,11.3780245542"/><path class="cls-11" d="m703.3751460529,783.1925582324s90.0557390055-31.6353628667,130.7092124184,63.5492386838c0,0-34.8086120071-19.7648012949-65.5145998953-29.7700124982-47.26263658-15.4000145745-60.6973107298-21.8700459451-60.6973107298-21.8700459451l-4.4973017932-11.9091802405"/><path class="cls-12" d="m707.8724478461,795.1017384729s-14.9870551751,8.2327619862-60.3279443133,28.6072813068c-29.4574508209,13.2370893534-61.9483960335,36.6171090129-61.9483960335,36.6171090129,30.2226377447-98.9919463422,123.1491491553-77.1860804204,123.1491491553-77.1860804204l-.8728088084,11.9616901007Z"/><path class="cls-18" d="m751.047034012,350.8550619936c-2.4183509453,1.8674801539-4.9232636422,3.7055088243-7.4220299424,5.5225373065-8.1099141571,5.8969552967-15.9427282695,11.8937895375-22.7693260454,19.2902094943-4.3257826768,4.6873956743-7.8445947057,10.0767610554-7.5879826495,16.7128205381.3198687208,8.2648545703,6.0042611366,14.0573211256,13.6875129327,16.2182917151,11.8315572724,3.3277615359,24.0272885408,4.7158227584,36.1843487308,6.2575438948,1.6746369619.2123067811,3.3513227227.4305038589,5.0287767831.6510058353l-28.1927527074,46.6849550488c-1.0914975886,1.6889785539-2.1348484041,3.4138110877-3.1251865494,5.1750098011l-.0222806875.0371344792.001792699.0002560999s-.0002560998,0-.0002560998.0002560999l-.0015365992-.0005121997s-44.5444724478,73.0191910972-82.3663236613,107.4671828007c-44.5229600598,40.5508512848-111.0723004813,29.7772425198-131.1536024324,50.226303865.003585398-.0105000941.0066585963-.0210001882.0102439943-.0317563822.1098668384-.3185882215.2566120563-.6151518554.4299916591-.8912275008-5.3261087165-.8838006049-11.2343324069.8512759231-14.21021274,5.5261227045-5.8060398477,9.1209963907-6.2739342856,19.6323589026-.6927501119,29.0089429502,4.7944454143,8.0545965881,12.8882252805,12.8167734205,21.5246807426,15.9288988772,17.2652279286,6.2222021145,35.3061823227,10.7520963771,53.3158925343,14.2035541437,35.4846839227,6.8004755906,71.778899492,8.3030134489,107.8116371077,6.4339966959,29.4809349858-1.5289161436,59.2809703929-5.1709122034,88.2038637913-11.614384594,3.9334376966,5.3384015096,9.1297037859,10.0852123506,15.8459225237,14.0122475508,31.5840270078,18.4686411545,72.0122064613,21.2611539903,117.740372446,6.8826836446l-.0668420626,6.5804858139s11.8533257602,12.8183100196,31.4905505601,5.5210007073c19.6372247999-7.2970532125,33.3536770164-16.9279444176,45.3965166704-27.6498210116,14.9124385466-13.2769848627,16.4572328813-26.4517858826,16.4572328813-26.4517858826l.5127119128-7.4107615487c4.1567567716-3.0181368093,8.3345137313-6.1609942488,12.5294293815-9.4193527236l-268.560395062-294.8718382232Z"/><path class="cls-35" d="m800.4031549359,556.0759848118s-66.6826017509,105.4460574948-4.855808402,141.5985327889c61.8267933489,36.1524752941,157.5307372837,12.2759342382,260.5734907003-82.9992736176,103.0427534166-95.2752078559,136.7176131241-132.9810653664,80.6259639361-170.3098978545-45.5640189838-30.3227246257-85.9835850859-48.1278250086-126.1738744384-48.7108134649-40.1902893524-.5829884563-181.79558312,117.5816895744-210.1697717961,160.4214521481Z"/><path class="cls-36" d="m1101.411516535,416.2644359812c17.0491584367,8.9955467953,60.8506382876,29.5609489203,55.2494758304,46.0139913733-3.360698329,9.8718279823-85.8625840132,28.3094196757-116.8744004993,45.1898891362-82.6981641516,45.0145780731-133.9914377396,139.1312043049-176.3376648729,139.3277174208-42.3462271333.1965131159-78.2316140142-19.4949345942-78.6599278946-42.2551547646-.4283138804-22.7602201704,49.3284933592-136.0010261967,112.4743206705-175.7189665694,52.1000152316-32.7702618921,84.5591211592-34.4736630238,113.3096069628-33.1673799139,28.7504858037,1.3062831099,73.676569646,11.5548079592,90.838589803,20.6099033175Z"/><path class="cls-35" d="m932.8886883508,483.2668830212c-.7508847794,0-1.5038183576-.2673682502-2.1061652202-.8092755467-1.290743277-1.1637177481-1.394207619-3.1531014338-.2304898709-4.4448691102,24.4780242883-27.159901986,65.398683766-40.2107506754,95.416660151-46.375586422,32.3187774962-6.639132681,59.3383367608-6.951574506,59.6077538098-6.9536233048h.0286831839c1.7240642342,0,3.1305646464,1.3901100213,3.1459306377,3.1182718533.0153659914,1.7384058262-1.3808904265,3.1592478303-3.1182718533,3.1756382211-1.0510338112.0092195949-105.5981660476,1.533525941-150.4053969482,51.2496788917-.6218104517.6894208138-1.478208372,1.0397654176-2.3387038899,1.0397654176Z"/><path class="cls-34" d="m1004.9202183747,440.0191146317c3.2482490923,11.3190612358,34.5098302355,3.0433555783,51.3991716999-.1378307192,16.8893414644-3.1811862975,26.5313680142-6.1798056592,18.083210737-13.3639405651-8.4481572772-7.1841349059-20.5480754709-9.6350534598-36.6579153631-4.2979293815-16.1098398922,5.3371240783-35.5921652341,8.155198638-32.8244670738,17.7997006659Z"/><path class="cls-37" d="m920.0795818933,602.0329485106s40.845718966-35.4043404123,62.7439027225-24.1737384676c0,0-10.2726623706,35.7005716057-30.6653179871,40.0294060111-19.7474243229,4.1918684567-32.0785847355-15.8556675434-32.0785847355-15.8556675434Z"/><circle class="cls-33" cx="1022.4793826779" cy="526.8214905779" r="17.3111168791"/><path class="cls-33" d="m979.0476142942,556.538588577l-1.0430947157-5.7348440875c-3.2609194733-17.9305753559-19.5473337503-30.4953465176-37.7186429714-29.0985779l-100.1086656226,7.69426409c-5.280522942.4059182726-9.4344626152,4.6766394803-9.6938917698,9.9663820172v.0002560999c-1.7983331927,36.6891215481,31.042631911,65.4893431152,67.1831875663,58.9167963969l31.0915469836-5.6541726327-5.4562074436,46.5384659308c-1.2894627777,10.9969278399,6.580229714,20.9566512608,17.5771575539,22.2461140385,10.2816409406,1.2054620247,19.7903725141-5.6155015544,21.9439162078-15.7414337822l16.1573399492-78.5166306178c.2491851604-1.1716568437.3590519988-2.2144954595.3544422015-3.1548941327.2496973601-2.4311559382.1720991036-4.936068635-.2870879392-7.4617254202Z"/><path class="cls-15" d="m1012.1173814682,495.8413859774l-82.2897498042-121.9439954913s-40.0949935402-38.0761583711-69.815125792-41.5606530192c-28.9935769588-3.3992133959-56.0833075841,9.9320646364-71.6372762713,32.3518143777l-.0005121997-.0122927931-.0788787558.1306109268c-1.7430156236,2.5225835869-3.3349323319,5.1616926086-4.7721647268,7.9027293732l-54.0380941298,89.4828264749c-1.0914975886,1.6889785539-2.1348484041,3.4138110877-3.1249304495,5.1750098011l-.0225367874.0371344792.0020487989.0002560999q-.0005121997,0-.0005121997.0002560999l-.0015365991-.0005121997s-44.5444724477,73.0191910972-82.3663236613,107.4671828007c-51.5165349423,46.9205669168-132.5357733582,25.1175056301-136.9207151019,62.4875966967-4.3306485741,36.9096235245,107.3119862876,43.0637030773,214.9681707825,40.229189865,117.975984314-3.10623516,192.6249948983-94.8053497934,192.493359572-117.5447121556-.0420003764-7.2453210414,9.3235713773-24.9715287118,9.3235713773-24.9715287118l-1.0991805843-56.0915027795,71.4989823488,47.798477225s16.2664384881-.6251397498,19.5214676647-8.8892260206c5.839332829-14.8240840961-1.6400634813-22.0486610491-1.6400634813-22.0486610491Z"/><path class="cls-19" d="m1008.1038955331,640.3208825744l.0058902967-.0855373521-.0140854921.0081951954c-.2832464414-2.6239991301-1.1409248609-4.9481053282-2.6521701143-6.8606590569-5.3491577036-6.7699997077-17.478815209-6.9116229284-31.7154062342-1.6124046968l9.0953864051-53.9113247008s-13.0528974882,30.3498817991-34.6208591066,34.9399595279c-15.0018173965,3.1927969115-28.1230935465-10.7661818692-28.1230935465-10.7661818692l-6.1548478523,86.5714833057.1646722078-.0368783793c-.953203666,3.5354585196-1.2172426181,6.7994511912-.737311487,9.6641841865l-.1311231266,12.9058961706s11.8533257602,12.8183100196,31.4905505601,5.5210007073c19.6372247999-7.2970532124,33.3536770165-16.9279444176,45.3965166705-27.6498210115,14.9124385466-13.2769848627,16.4572328812-26.4517858827,16.4572328812-26.4517858827l1.0492411123-15.1631603061c.5483097929-2.5323153815.7134942003-4.9038000531.4894068259-7.072965838Z"/><path class="cls-32" d="m946.4523166272,508.1129585444c-6.1642698593-4.6470059163-16.0236272416-3.6393054326-20.5696313918,2.8929027452-19.7952150221,28.4435628785-39.5250146435,56.9339891514-59.3881439094,85.3300088794-8.4454063528,12.0733555762-17.0812358924,24.0136368163-28.8392934069,33.056372677-10.4234793367,8.0163020082-22.0770635822,13.3990583028-35.2572721453,17.9251862476-26.1489799065,8.9797057815-57.3799847836,13.5100735617-86.0577282362,16.5823922552-31.8220710771,3.409282003-63.7064096301,3.9627498113-95.5744637652.6913149156-18.0231362632-1.8503556143-36.0267987609-4.8081029465-53.5849695822-9.3156661598-7.9606669219-2.0436618732-16.2697639547-4.5551814766-24.1886265029-7.309487017-2.3719374268-.8252622924-4.810633879-1.7277144354-6.6504617587-2.6576793735-.9748730991-.0270146584-1.9987768323-.3220154452-2.9948327376-.944706908-2.8522532462-1.7825186062-6.6082262593-3.2246477877-8.9999936618-6.3241870663-3.0109541825-3.9016044691-2.5474732727-8.5628988716-1.0283876453-12.9730498017.1098255289-.3187238979.2564951437-.6152071826.4299240064-.8914058053-5.3260219324-.8837176345-11.2344873637.8515025698-14.2102705281,5.5262506698-5.8059020572,9.1209685138-6.2737761748,19.6324562356-.6926223598,29.0088565391,4.7944309902,8.0547134737,12.8881386074,12.8167997555,21.5246677113,15.9290885661,17.2650976964,6.2220971729,35.3061752825,10.7521127606,53.3159137822,14.2034604859,35.4845622081,6.8003991764,71.7787563496,8.3029634279,107.8114750424,6.4341141159,33.8913661418-1.7577545483,68.2055589215-6.3037478582,101.122389858-14.6936667973,32.921618127-8.3911626469,62.568649681-22.4424612777,84.4496604716-49.2014906761,12.8084032553-15.6635037012,27.9562048664-32.9874990495,39.5050920319-49.5821632872l32.7707169192-53.116656812c4.5295410014-6.5083529821,3.6047196885-15.6714568506-2.8931421918-20.5697883926Z"/><path class="cls-32" d="m1014.4189401884,487.9069180564c-8.2247529898,1.2036842257-12.6831897719,7.2933956229-13.0951511564,15.0658394273-.0241987834.1555944595-.0575637038.3632076075-.1143116445.6834758114-.1575263049.8904096181-.3517469869,1.7819474006-.5126757511,2.6717993991-.0154456066.025496536-.0267848411.0406688725-.0434379369.0695047344-.439935111.7522358724-.9203906668,1.847813126-1.2371544231,2.6575061093-.4746472132.6173855422-.9765428622,1.2121663304-1.4509995388,1.828889149-.0955786305.1241861062-.1739983164.2296526145-.2413570095.3222914586-.0162108068.0102584386-.0257883414.0148283339-.0431446402.0264893434-.8283109479.5459889393-1.5973243962,1.220486742-2.4234078484,1.778348745-.8431977987.5693699014-1.5982951879,1.2465820868-2.2725462644,1.9980055358-5.7346315272,2.4694380991-9.6246906556,8.5671844102-8.9755409058,15.0012978337.7995151565,7.9244753662,8.161074089,13.936959458,16.0858042615,13.1374185936,3.6404173491-.3672885222,6.8747406511-2.1471432461,9.2373694521-4.721804374,1.1015179661-.4250335079,2.1827865723-.9691307191,3.2202138669-1.6696796973,12.0702309522-8.1515006539,17.8485631349-21.4898156223,17.9521438001-35.7119634758.056276813-7.7082441222-8.8168167096-14.2011732551-16.0858042615-13.1374185936Z"/><path class="cls-14" d="m927.0065868457,312.8982461557s-20.7712349647,1.2600112942-29.4883618816,8.6006014822c-12.1693529831-4.4848206878-27.1335237007-7.3065289071-41.3854807173-9.065166622-.778287464-8.5898452883-6.5984128038-19.2182454346-6.5984128038-19.2182454346,0,0-4.9207026436.3014295311-10.9731105532,1.4518300867-2.3282037958-1.4431226916-4.989593505-2.4280827399-7.8901804802-2.7681833494-10.5733386772-1.2397794055-20.149424513,6.326690856-21.3892039185,16.9000295332-.3429177079,2.9233798624.0081951954,5.7619906723.8891787019,8.377794607-6.3635692354,5.2587544542-13.5338530188,13.9054539107-23.6036993781,27.7000165834-10.2795921417,14.0821628117-60.7947766449,33.8781695227-53.5399799088,41.9804006841,9.9172108447,11.0750382962,78.169871412,23.2095616988,104.5322784447,21.6048399977,33.5367884139-2.0411158566,82.7668638369-36.2673250843,85.4894614118-59.4884112767.0921959484-.7875070588.1334280253-1.5578554273.1334280253-2.3143744035,5.1053506402-3.2073946033,10.2959825326-7.5439334742,10.493435522-12.0067295743.3918327805-8.8618233359-6.6693524641-21.7544023139-6.6693524641-21.7544023139Z"/><circle class="cls-31" cx="732.0392648561" cy="253.9751065425" r="11.5323319088"/><path class="cls-32" d="m932.7786009073,327.4359314322c-6.4761127978,5.3487575662-18.3517182755,7.623382564-21.8408180237,14.7783253539-6.2862092865,12.8921118516-16.0726874866,24.9366457969-27.8745974592,34.0916927294-12.6840234621,9.83898155-25.7940918743,14.7807424226-41.76682779,15.941684059-15.67340949,1.1393080443-33.6652118448-1.5281232913-50.1853376684-3.5124580131-9.5522907113-1.1472835822-19.0973048636-2.3566304181-28.6418418646-3.5700469755-2.3999182389-.3050991596-4.8010012762-.6046620961-7.1998020623-.9214915271,2.1708965325-1.629872287,4.3693214822-3.2240274154,6.5646336258-4.8202235537,8.0178783843-5.8295212576,31.0678658589-27.6934266473,36.7994172976-33.7725863697,7.226368132-7.6646343591,20.0615045747-27.1519513655,22.6668735447-29.2963581942,6.1231368472-5.039720567,5.4834419936-13.1913062116,2.4184717182-20.6276380285-4.6346386705-11.2447129689-14.4828289798-7.4758928874-20.6273836709-2.4184418962-6.4288202329,5.2915171441-37.5314941414,43.5376817819-39.9929980777,46.4981745854-4.8941460708,5.8859492336-12.2355818573,11.3078221149-19.4733076756,16.5708971573-8.1101341062,5.897221364-15.9428870567,11.8940061235-22.7693409414,19.2904372071-4.3258304461,4.6872911424-7.8446271743,10.0765775537-7.5879288255,16.7128947207.3197648124,8.2647108327,6.0042102343,14.0571888988,13.6873427743,16.2181246678,11.8316161924,3.3276694882,24.0272833393,4.71589777,36.1843508372,6.257407144,21.8625374318,2.7722472664,43.976599772,6.3902213748,66.0452499036,6.7974874662,23.4647342909.4331259261,44.7216122205-4.0680162233,64.5700151794-16.9609984911,19.3253338483-12.5530882055,34.3551167284-30.818070046,44.403684677-51.4253774073,3.4762581204-7.1289869403,4.8691619402-34.2963833793-5.3798554985-25.8315046343Z"/><path class="cls-17" d="m947.7086748492,312.3266312759l-6.9807698896-42.8787989808-117.0632444253-4.7345180479c-.0028170984.0087073951-.0064024964.0169025905-.0092195948.0256099857l-.0486589727-.0279148844s-28.5402802128,31.4644283748-48.0924798603,41.9909007782l47.8914414729-10.9119026875c.0153659914.0476345733.0304758829.0955252465.0455857744.1431598198-3.5674710016,2.7597320541-41.8042039827,32.4698764115-51.1958979218,45.4438951439,0,0,37.0376734528-3.7518628983,53.9264345923-11.1884905326,11.46098078-5.046703773-23.6690048415,28.7387576015-27.3171472979,34.4876871812,0,0,42.994556116-12.0354127582,71.3571030282-32.142324695.3091125269.2074408838.6138713561.4202598646.9275936804.6210421521-6.1743114414,7.6783858988-35.2833894355,37.6566668061-31.2982195678,45.9783755445,0,0,80.3861595705-31.9123470238,92.9273695454-51.697341441l-.2412460649-.1388061222c3.0924057677-2.9261969609,5.8203814396-6.2508852985,8.0971091643-9.9046619518,2.4721319152-1.4866596672,4.8277383957-3.1951018102,7.0742463373-5.0659112623Z"/><path class="cls-40" d="m961.1457221222,228.3714641046c-.2281849722-28.5200483241-21.6440232758-53.0795123668-50.706491096-56.486920958-31.4885017612-3.691679432-60.0077817857,18.8419066954-63.6997173176,50.3305365066-.5844198726,4.9847276077-.5073338158,9.8939057578.1541721137,14.6432775974-10.7564500746,5.9648217587-19.201598944,15.8026416479-23.2382448828,27.8805669823l-.0486589727-.0279148844s-28.5402802128,31.4644283748-48.0924798603,41.9909007782l47.8914414729-10.9119026875c.0153659914.0476345733.0304758829.0955252465.0455857744.1431598198-3.5674710016,2.7597320541-41.8042039827,32.4698764115-51.1958979218,45.4438951439,0,0,37.0376734528-3.7518628983,53.9264345923-11.1884905326,11.46098078-5.046703773-23.6690048415,28.7387576015-27.3171472979,34.4876871812,0,0,42.994556116-12.0354127582,71.3571030282-32.142324695.3091125269.2074408838.6138713561.4202598646.9275936804.6210421521-6.1743114414,7.6783858988-35.2833894355,37.6566668061-31.2982195678,45.9783755445,0,0,80.3861595705-31.9123470238,92.9273695454-51.697341441l-.2412460649-.1388061222c3.0924057677-2.9261969609,5.8203814396-6.2508852985,8.0971091643-9.9046619518,15.4968584192-9.3184493801,26.9555343005-26.5337378367,29.3874585382-47.2750091182,1.8044795892-15.3913452783-1.6833443571-30.039488773-8.8761649279-41.7460693153Z"/><path class="cls-16" d="m835.8181804453,247.9984455407s49.9662276378,6.3459170173,82.5147727816-8.7767243927c34.430655428-15.9971038106,32.4146817898-50.0406710117,32.4146817898-50.0406710117,0,0-10.5527799597-31.8573249978-37.3379632166-42.631188504-25.3551401311-10.1986540966-58.062404893,2.2482868225-75.1870184437,19.4213327887-31.3311451105,31.4197569228-90.9914049046,76.4242083625-108.6794896608,83.115213491l5.6006041778,10.9689728956s93.7668669824-46.1823433343,98.9054421405-34.1587695041c5.1385751581,12.0235738303,1.7689704312,22.101834237,1.7689704312,22.101834237Z"/><path class="cls-32" d="m962.8049080587,188.0898834812c.565889445-7.6812644403-5.2070064728-14.7866625516-12.9148047289-15.6903574908-.9373077443-.109893933-1.8656843379-.1090238416-2.7802354955-.0303369258-.7978470191.541422632-1.517124301,1.250637354-2.0934419244,2.2294391684-.3271072987.5554864312-.7808685824.986019733-1.3050357746,1.3110873707-2.3990610394,5.5047109457-9.9771240616,16.8485649999-10.1661464837,17.9439426632-.0523792431.3037994038-.5535713788,2.346290168-.4762479894,2.2014170219-.6267641372,2.0424658513-1.4081864025,4.0448813338-2.2944538506,5.9848517099-.0977783268.2137715673-.9491956441,1.9774590124-.9373199574,2.0433148808-.4428423799.7618666645-.9275984739,1.5073446823-1.4109388955,2.2385488527-1.3207570146,1.9971987517-2.7729710919,3.9060122239-4.3199691343,5.7325451045-.2170046631.2563919303-1.399238395,1.5999269165-1.5226304369,1.7770454697-.8329009946.8448037102-1.7234375523,1.6423668968-2.6097157711,2.4256027412-1.8179786924,1.6063995769-3.7162025884,3.1208775699-5.6888705508,4.533542113-1.0944077079.7835878497-2.205967848,1.5507248487-3.3523230677,2.2561519449-.1083846273.0667115743-.1921035351.1187809867-.2744164559.1698548998-.1186817027.0577686801-.3212042137.1620486183-.6723060541.3503740549-2.4902777281,1.3343147777-5.0262973872,2.5441380063-7.6382240251,3.6228387592-9.3437280247,3.8586515858-19.3876250872,5.6837729343-30.0057891883,6.6447957661-4.7067830814.4259393587-10.2889175375.7061871855-13.9624670204.7339491739-5.2981855285.0400849825-11.7693307948.3263340199-15.793711931-1.3380764648-.1015605179-.0420763095-.1998828454-.0677860087-.3012030457-.1075134558-1.7118435719-1.0340880865-3.6435346843-1.7369530982-5.7206188198-1.9804792465-7.8820332099-.9241229836-15.3718547724,4.9936110072-16.295992667,12.8757713959-.7649333462,6.5242723582,3.1144949555,12.7305475646,8.9339609709,15.2292992838.7178338492.4401293994,1.4807803062.8517691117,2.3309584608,1.2033710092,13.108755113,5.4214972797,29.6534834129,3.6925239295,43.4814734868,2.5748503788,13.8925320341-1.1227412261,27.9249394704-4.0147221644,40.7386277858-9.6153676243,24.4272077302-10.6768692864,44.6955577214-32.8522243316,47.4776646419-60.0804510483.1832838035-1.794190324.0145487803-3.5615793582-.425822078-5.2400115066Z"/><circle class="cls-32" cx="731.9434087705" cy="254.7668319346" r="14.6857901735"/><path class="cls-29" d="m795.5473465339,697.6745176007s-98.7055993935,189.7373561851-182.2049265336,235.4803744178c-108.4318721525,59.4016895077-268.3902618101,20.9526208993-436.0267046263,109.7727440763-27.6687323664,14.6599401398-70.8895170879,55.3882378896-87.4884196864,52.2447586987"/></svg>