<?xml version="1.0" encoding="utf-8"?>
<!-- Generator: Adobe Illustrator 26.4.1, SVG Export Plug-In . SVG Version: 6.00 Build 0)  -->
<svg version="1.1" id="Layer_1" xmlns="http://www.w3.org/2000/svg" xmlns:xlink="http://www.w3.org/1999/xlink" x="0px" y="0px"
	 viewBox="0 0 170 170" style="enable-background:new 0 0 170 170;" xml:space="preserve">
<style type="text/css">
	.st0{fill:#3E00FF;}
</style>
<g>
	<g>
		<g>
			<path class="st0" d="M168.86,32.72c-1.02-1.47-2.92-2.02-4.57-1.32c-1.26,0.54-2.82,1.17-4.49,1.8
				c2.99-3.92,4.68-7.76,5.02-11.44c0.13-1.45-0.59-2.85-1.85-3.59c-1.26-0.73-2.84-0.67-4.03,0.16c-2.82,1.96-11.05,6.84-17.4,7.51
				c-3.37-3-12.96-10.35-25.89-10.35c-9.01,0-17.75,3.56-25.96,10.59c-0.05,0.05-0.11,0.09-0.16,0.14
				c-0.58,0.56-13.07,12.79-10.45,30.05c-4.1-0.43-10.61-1.49-18.33-4.16c-16.08-5.55-30.32-15.32-42.3-29.04
				c-0.79-0.91-1.98-1.38-3.18-1.27c-1.2,0.11-2.28,0.8-2.89,1.84c-0.17,0.29-4.21,7.31-4.92,16.82c-0.45,6.1,0.43,14.04,5.59,21.83
				c-0.92-0.55-2.06-0.69-3.12-0.34c-1.41,0.47-2.41,1.72-2.55,3.2c-0.03,0.28-0.63,7.03,2.65,14.9
				c1.98,4.75,5.67,10.56,12.52,15.38c-1.01-0.03-2.01,0.35-2.75,1.07c-0.95,0.93-1.33,2.3-1.01,3.59
				c0.06,0.24,1.51,5.85,6.39,11.81c3.42,4.17,9.11,9.18,18.03,12.11c-6.69,3.71-17.65,8.31-30.88,8.32c-2.53,0-5.09-0.17-7.59-0.51
				c-1.65-0.22-3.25,0.67-3.93,2.19c-0.68,1.52-0.27,3.31,0.99,4.39c0.7,0.6,17.65,14.67,55.4,16.04c0.79,0.03,1.6,0.04,2.41,0.04
				c21.08,0,43.95-9.41,61.18-25.17c14.51-13.27,31.77-37.14,32.21-75.76l15.49-16.11C169.72,36.17,169.88,34.19,168.86,32.72z
				 M146.55,49.45c-0.67,0.7-1.05,1.63-1.05,2.6c0,36.77-16.2,59.31-29.78,71.74c-15.88,14.53-36.86,23.21-56.12,23.21
				c-0.72,0-1.43-0.01-2.14-0.04c-17.29-0.63-29.89-4.1-38.21-7.47c20.98-2.22,35.16-13.74,35.82-14.28
				c1.15-0.95,1.63-2.5,1.22-3.94c-0.42-1.44-1.64-2.49-3.13-2.68c-14.54-1.87-21.57-9.66-24.74-15.04
				c5.22-0.16,9.66-1.62,9.86-1.69c1.55-0.52,2.58-1.97,2.57-3.6c-0.02-1.63-1.08-3.06-2.64-3.55
				c-17.02-5.29-21.72-16.45-22.96-23.24c3.32,0.98,7.04,1.64,9.69,2.03c1.7,0.25,3.36-0.69,4.02-2.28
				c0.66-1.59,0.15-3.43-1.24-4.45C11.75,54.97,14.09,39.93,16.72,32.31c29.7,30.83,63.04,31.76,66.9,31.76c0.22,0,0.34,0,0.34,0
				c1.18-0.03,2.28-0.62,2.97-1.58c0.68-0.96,0.88-2.19,0.52-3.32c-4.8-15,6.17-26.42,7.22-27.46c6.78-5.77,13.85-8.7,20.99-8.7
				c12.62,0,21.69,9.19,21.78,9.28c0.71,0.74,1.69,1.15,2.71,1.15c4.02,0,8.38-1.33,12.22-2.97c-2.67,3.04-5.74,5.54-7.41,6.71
				c-1.28,0.9-1.87,2.49-1.49,4.01c0.39,1.52,1.68,2.63,3.23,2.8c0.34,0.04,0.69,0.05,1.07,0.05c1.29,0,2.88-0.24,4.59-0.63
				L146.55,49.45z"/>
			<path class="st0" d="M114.94,33.48c-6.69,0-12.13,5.44-12.13,12.13s5.44,12.13,12.13,12.13c6.69,0,12.13-5.44,12.13-12.13
				C127.07,38.92,121.63,33.48,114.94,33.48z M114.94,50.23c-2.55,0-4.62-2.07-4.62-4.62c0-2.55,2.07-4.62,4.62-4.62
				c2.55,0,4.62,2.07,4.62,4.62C119.56,48.16,117.49,50.23,114.94,50.23z"/>
		</g>
	</g>
</g>
</svg>
