<?xml version="1.0" encoding="utf-8"?>
<!-- Generator: Adobe Illustrator 25.4.1, SVG Export Plug-In . SVG Version: 6.00 Build 0)  -->
<svg version="1.1" id="Ebene_1" xmlns="http://www.w3.org/2000/svg" xmlns:xlink="http://www.w3.org/1999/xlink" x="0px" y="0px"
	 viewBox="0 0 535 392" style="enable-background:new 0 0 535 392;" xml:space="preserve">
<style type="text/css">
	.st0{fill-rule:evenodd;clip-rule:evenodd;fill:#023788;}
	.st1{fill-rule:evenodd;clip-rule:evenodd;fill:#791E94;}
	.st2{fill-rule:evenodd;clip-rule:evenodd;fill:#FD1D53;}
	.st3{fill-rule:evenodd;clip-rule:evenodd;fill:#FF6C11;}
	.st4{fill-rule:evenodd;clip-rule:evenodd;fill:#2DE2E6;}
	.st5{fill-rule:evenodd;clip-rule:evenodd;fill:#F9C80E;}
	.st6{fill-rule:evenodd;clip-rule:evenodd;fill:#F706CF;}
</style>
<desc>Created with Sketch.</desc>
<g id="Desktop">
	<g id="Snowflakes1" transform="translate(-172.000000, 0.000000)">
		<path id="Fill-42" class="st0" d="M479.6,78.4c-0.4-0.5-1.2-0.6-1.8-0.2l-2.8,2.4l-0.9-0.3L478,77c0.5-0.4,0.6-1.2,0.2-1.8
			c-0.4-0.5-1.2-0.6-1.8-0.2l-5,4.2l-1-0.4l3.3-2.7c0.5-0.4,0.6-1.2,0.2-1.8c-0.4-0.5-1.2-0.6-1.8-0.2l-4.4,3.6l-0.9-0.3l1.5-1.3
			c0.5-0.4,0.6-1.2,0.2-1.8c-0.4-0.5-1.2-0.6-1.8-0.2l-2.6,2.2l-4-1.4c0,0,0,0,0,0l0.1-0.2c0.1-0.4,0-1-0.2-1.3l-0.4-0.4l3.2-2.6
			l3.4,1.2c0.6,0.2,1.4-0.1,1.6-0.7c0.2-0.6-0.1-1.4-0.7-1.6l-2-0.7l0.7-0.6l5.5,2c0.7,0.2,1.4-0.1,1.6-0.7c0.2-0.6-0.1-1.4-0.7-1.6
			l-4.2-1.5l0.8-0.7l6.3,2.3c0.6,0.2,1.4-0.1,1.6-0.7c0.2-0.6-0.1-1.4-0.7-1.6l-4.9-1.8l0.7-0.6l3.6,1.3c0.7,0.2,1.4-0.1,1.6-0.7
			c0.2-0.6-0.1-1.4-0.7-1.6l-2.2-0.8l1.2-1c0.5-0.4,0.6-1.2,0.2-1.8c-0.4-0.5-1.2-0.6-1.8-0.2l-1.2,1l-0.4-2.2
			c-0.1-0.7-0.8-1.1-1.5-1c-0.7,0.1-1.1,0.8-1,1.4l0.6,3.6l-0.7,0.6l-0.9-5c-0.1-0.7-0.8-1.1-1.5-1c-0.7,0.1-1.1,0.8-1,1.4l1.1,6.4
			l-0.8,0.7l-0.7-4.2c-0.1-0.7-0.8-1.1-1.5-1c-0.7,0.1-1.1,0.8-1,1.4l1,5.6l-0.7,0.6l-0.3-2c-0.1-0.7-0.8-1.1-1.5-1
			c-0.7,0.1-1.1,0.8-1,1.4l0.6,3.4l-3.2,2.7c-0.3-0.3-0.8-0.5-1.2-0.4l-0.3,0l-0.7-4.1l2.8-2.3c0.5-0.4,0.6-1.2,0.2-1.8
			c-0.4-0.5-1.2-0.6-1.8-0.2l-1.6,1.4l-0.2-0.9l4.5-3.7c0.5-0.4,0.6-1.2,0.2-1.8c-0.4-0.5-1.2-0.6-1.8-0.2l-3.4,2.8l-0.2-1.1
			l5.1-4.3c0.5-0.4,0.6-1.2,0.2-1.8c-0.4-0.5-1.2-0.6-1.8-0.2l-4,3.3l-0.2-0.9l2.9-2.4c0.5-0.4,0.6-1.2,0.2-1.8
			c-0.4-0.5-1.2-0.6-1.8-0.2l-1.8,1.5L453,51c-0.1-0.7-0.8-1.1-1.5-1c-0.7,0.1-1.1,0.8-1,1.4l0.3,1.5l-2.1-0.8
			c-0.6-0.2-1.4,0.1-1.6,0.7c-0.2,0.6,0.1,1.4,0.7,1.6l3.5,1.3l0.2,0.9l-4.8-1.7c-0.7-0.2-1.4,0.1-1.6,0.7c-0.2,0.6,0.1,1.4,0.7,1.6
			l6.1,2.2l0.2,1.1l-4-1.5c-0.7-0.2-1.4,0.1-1.6,0.7c-0.2,0.6,0.1,1.4,0.7,1.6l5.4,2l0.2,0.9l-1.9-0.7c-0.6-0.2-1.4,0.1-1.6,0.7
			c-0.2,0.6,0.1,1.4,0.7,1.6l3.2,1.2l0.7,4.1l-0.2,0c-0.4,0.1-0.9,0.5-1,0.9l0,0c0,0,0,0,0,0l-3.9-1.4l-0.6-3.5
			c-0.1-0.7-0.8-1.1-1.5-1c-0.7,0.1-1.1,0.8-1,1.4l0.4,2.1l-0.9-0.3l-1-5.7c-0.1-0.7-0.8-1.1-1.5-1c-0.7,0.1-1.1,0.8-1,1.4l0.8,4.3
			l-1-0.4l-1.1-6.5c-0.1-0.7-0.8-1.1-1.5-1c-0.7,0.1-1.1,0.8-1,1.4l0.9,5.1l-0.9-0.3l-0.7-3.8c-0.1-0.7-0.8-1.1-1.5-1
			c-0.7,0.1-1.1,0.8-1,1.4l0.4,2.3l-1.5-0.5c-0.7-0.2-1.4,0.1-1.6,0.7c-0.2,0.6,0.1,1.4,0.7,1.6l1.4,0.5l-1.7,1.4
			c-0.5,0.4-0.6,1.2-0.2,1.8c0.4,0.5,1.2,0.6,1.8,0.2l2.8-2.3l0.9,0.3l-3.9,3.2c-0.5,0.4-0.6,1.2-0.2,1.8c0.4,0.5,1.2,0.6,1.8,0.2
			l5-4.2l1,0.4l-3.3,2.7c-0.5,0.4-0.6,1.2-0.2,1.8c0.4,0.5,1.2,0.6,1.8,0.2l4.4-3.6l0.9,0.3l-1.5,1.3c-0.5,0.4-0.6,1.2-0.2,1.8
			c0.4,0.5,1.2,0.6,1.8,0.2l2.6-2.2l4,1.4c0,0,0,0,0,0l-0.2,0.4c-0.1,0.4,0,1,0.2,1.3l0.2,0.3l-3.2,2.6l-3.4-1.2
			c-0.7-0.2-1.4,0.1-1.6,0.7c-0.2,0.6,0.1,1.4,0.7,1.6l2,0.7l-0.7,0.6l-5.5-2c-0.7-0.2-1.4,0.1-1.6,0.7c-0.2,0.6,0.1,1.4,0.7,1.6
			l4.2,1.5l-0.8,0.7l-6.3-2.3c-0.6-0.2-1.4,0.1-1.6,0.7c-0.2,0.6,0.1,1.4,0.7,1.6l4.9,1.8l-0.7,0.6l-3.6-1.3
			c-0.7-0.2-1.4,0.1-1.6,0.7c-0.2,0.6,0.1,1.4,0.7,1.6l2.2,0.8l-1.2,1c-0.5,0.4-0.6,1.2-0.2,1.8c0.4,0.5,1.2,0.6,1.8,0.2l1.2-1
			l0.4,2.2c0.1,0.7,0.8,1.1,1.5,1c0.7-0.1,1.1-0.8,1-1.4l-0.6-3.6l0.7-0.6l0.9,5c0.1,0.7,0.8,1.1,1.5,1c0.7-0.1,1.1-0.8,1-1.4
			l-1.1-6.4l0.8-0.7l0.7,4.2c0.1,0.7,0.8,1.1,1.4,1c0.7-0.1,1.1-0.8,1-1.4l-1-5.6l0.7-0.6l0.3,2c0.1,0.7,0.8,1.1,1.5,1
			c0.7-0.1,1.1-0.8,1-1.4l-0.6-3.4l3.2-2.7l0.1,0.1c0.3,0.3,0.9,0.5,1.3,0.5l0.3,0c0,0,0,0,0,0.1l0.7,4.1l-2.8,2.3
			c-0.5,0.4-0.6,1.2-0.2,1.8c0.4,0.5,1.2,0.6,1.8,0.2l1.6-1.4l0.2,0.9l-4.5,3.7c-0.5,0.4-0.6,1.2-0.2,1.8c0.4,0.5,1.2,0.6,1.8,0.2
			l3.4-2.8l0.2,1.1l-5.1,4.3c-0.5,0.4-0.6,1.2-0.2,1.8c0.4,0.5,1.2,0.6,1.8,0.2l4-3.3l0.2,0.9l-2.9,2.4c-0.5,0.4-0.6,1.2-0.2,1.8
			c0.4,0.5,1.2,0.6,1.8,0.2l1.8-1.5l0.3,1.6c0.1,0.7,0.8,1.1,1.5,1c0.7-0.1,1.1-0.8,1-1.4l-0.3-1.5l2.1,0.8c0.7,0.2,1.4-0.1,1.6-0.7
			c0.2-0.6-0.1-1.4-0.7-1.6l-3.5-1.3l-0.2-0.9l4.8,1.7c0.7,0.2,1.4-0.1,1.6-0.7c0.2-0.6-0.1-1.4-0.7-1.6l-6.1-2.2l-0.2-1.1l4,1.5
			c0.6,0.2,1.4-0.1,1.6-0.7c0.2-0.6-0.1-1.4-0.7-1.6l-5.4-2l-0.2-0.9l1.9,0.7c0.7,0.2,1.4-0.1,1.6-0.7c0.2-0.6-0.1-1.4-0.7-1.6
			l-3.2-1.2l-0.7-4.2c0,0,0,0,0-0.1l0.2,0c0.4-0.1,0.9-0.5,1-0.9l0.1-0.2c0,0,0,0,0,0l3.9,1.4l0.6,3.5c0.1,0.7,0.8,1.1,1.5,1
			c0.7-0.1,1.1-0.8,1-1.4l-0.4-2.1l0.9,0.3l1,5.7c0.1,0.7,0.8,1.1,1.5,1c0.7-0.1,1.1-0.8,1-1.4l-0.8-4.3l1,0.4l1.1,6.5
			c0.1,0.7,0.8,1.1,1.5,1c0.7-0.1,1.1-0.8,1-1.4l-0.9-5.1l0.9,0.3l0.7,3.8c0.1,0.7,0.8,1.1,1.5,1c0.7-0.1,1.1-0.8,1-1.4l-0.4-2.3
			l1.5,0.5c0.7,0.2,1.4-0.1,1.6-0.7c0.2-0.6-0.1-1.4-0.7-1.6l-1.4-0.5l1.7-1.4C480,79.7,480.1,78.9,479.6,78.4z M457.9,74.7
			l-0.3,0.6c-0.1,0.3-0.5,0.5-0.9,0.6l-0.8,0.1c-0.4,0-0.9-0.1-1.1-0.3l-0.5-0.5c-0.2-0.2-0.3-0.6-0.2-0.9l0.3-0.6
			c0.1-0.3,0.5-0.5,0.9-0.6l0.8-0.1c0.4,0,0.9,0.1,1.1,0.3l0.5,0.5C458,74,458.1,74.4,457.9,74.7z"/>
		<path id="Fill-42_00000119835779428353623500000010758037044870997183_" class="st0" d="M219.5,142.4c-0.4-0.5-1.2-0.6-1.8-0.2
			l-2.8,2.4l-0.9-0.3l3.9-3.2c0.5-0.4,0.6-1.2,0.2-1.8c-0.4-0.5-1.2-0.6-1.8-0.2l-5,4.2l-1-0.4l3.3-2.7c0.5-0.4,0.6-1.2,0.2-1.8
			c-0.4-0.5-1.2-0.6-1.8-0.2l-4.4,3.6l-0.9-0.3l1.5-1.3c0.5-0.4,0.6-1.2,0.2-1.8c-0.4-0.5-1.2-0.6-1.8-0.2l-2.6,2.2l-4-1.4
			c0,0,0,0,0,0l0.1-0.2c0.1-0.4,0-1-0.2-1.3l-0.4-0.4l3.2-2.6l3.4,1.2c0.6,0.2,1.4-0.1,1.6-0.7c0.2-0.6-0.1-1.4-0.7-1.6l-2-0.7
			l0.7-0.6l5.5,2c0.7,0.2,1.4-0.1,1.6-0.7c0.2-0.6-0.1-1.4-0.7-1.6l-4.2-1.5l0.8-0.7l6.3,2.3c0.6,0.2,1.4-0.1,1.6-0.7
			c0.2-0.6-0.1-1.4-0.7-1.6l-4.9-1.8l0.7-0.6l3.6,1.3c0.7,0.2,1.4-0.1,1.6-0.7c0.2-0.6-0.1-1.4-0.7-1.6l-2.2-0.8l1.2-1
			c0.5-0.4,0.6-1.2,0.2-1.8c-0.4-0.5-1.2-0.6-1.8-0.2l-1.2,1l-0.4-2.2c-0.1-0.7-0.8-1.1-1.5-1c-0.7,0.1-1.1,0.8-1,1.4l0.6,3.6
			l-0.7,0.6l-0.9-5c-0.1-0.7-0.8-1.1-1.5-1c-0.7,0.1-1.1,0.8-1,1.4l1.1,6.4l-0.8,0.7l-0.7-4.2c-0.1-0.7-0.8-1.1-1.5-1
			c-0.7,0.1-1.1,0.8-1,1.4l1,5.6l-0.7,0.6l-0.3-2c-0.1-0.7-0.8-1.1-1.5-1c-0.7,0.1-1.1,0.8-1,1.4l0.6,3.4l-3.2,2.7
			c-0.3-0.3-0.8-0.5-1.2-0.4l-0.3,0l-0.7-4.1l2.8-2.3c0.5-0.4,0.6-1.2,0.2-1.8c-0.4-0.5-1.2-0.6-1.8-0.2l-1.6,1.4l-0.2-0.9l4.5-3.7
			c0.5-0.4,0.6-1.2,0.2-1.8c-0.4-0.5-1.2-0.6-1.8-0.2l-3.4,2.8l-0.2-1.1l5.1-4.3c0.5-0.4,0.6-1.2,0.2-1.8c-0.4-0.5-1.2-0.6-1.8-0.2
			l-4,3.3l-0.2-0.9l2.9-2.4c0.5-0.4,0.6-1.2,0.2-1.8c-0.4-0.5-1.2-0.6-1.8-0.2l-1.8,1.5l-0.3-1.6c-0.1-0.7-0.8-1.1-1.5-1
			c-0.7,0.1-1.1,0.8-1,1.4l0.3,1.5l-2.1-0.8c-0.6-0.2-1.4,0.1-1.6,0.7c-0.2,0.6,0.1,1.4,0.7,1.6l3.5,1.3l0.2,0.9l-4.8-1.7
			c-0.7-0.2-1.4,0.1-1.6,0.7c-0.2,0.6,0.1,1.4,0.7,1.6l6.1,2.2l0.2,1.1l-4-1.5c-0.7-0.2-1.4,0.1-1.6,0.7c-0.2,0.6,0.1,1.4,0.7,1.6
			l5.4,2l0.2,0.9l-1.9-0.7c-0.6-0.2-1.4,0.1-1.6,0.7c-0.2,0.6,0.1,1.4,0.7,1.6l3.2,1.2l0.7,4.1l-0.2,0c-0.4,0.1-0.9,0.5-1,0.9l0,0
			c0,0,0,0,0,0l-3.9-1.4l-0.6-3.5c-0.1-0.7-0.8-1.1-1.5-1c-0.7,0.1-1.1,0.8-1,1.4l0.4,2.1l-0.9-0.3l-1-5.7c-0.1-0.7-0.8-1.1-1.5-1
			c-0.7,0.1-1.1,0.8-1,1.4l0.8,4.3l-1-0.4l-1.1-6.5c-0.1-0.7-0.8-1.1-1.5-1c-0.7,0.1-1.1,0.8-1,1.4l0.9,5.1l-0.9-0.3l-0.7-3.8
			c-0.1-0.7-0.8-1.1-1.5-1c-0.7,0.1-1.1,0.8-1,1.4l0.4,2.3l-1.5-0.5c-0.7-0.2-1.4,0.1-1.6,0.7c-0.2,0.6,0.1,1.4,0.7,1.6l1.4,0.5
			l-1.7,1.4c-0.5,0.4-0.6,1.2-0.2,1.8c0.4,0.5,1.2,0.6,1.8,0.2l2.8-2.3l0.9,0.3l-3.9,3.2c-0.5,0.4-0.6,1.2-0.2,1.8
			c0.4,0.5,1.2,0.6,1.8,0.2l5-4.2l1,0.4l-3.3,2.7c-0.5,0.4-0.6,1.2-0.2,1.8c0.4,0.5,1.2,0.6,1.8,0.2l4.4-3.6l0.9,0.3l-1.5,1.3
			c-0.5,0.4-0.6,1.2-0.2,1.8c0.4,0.5,1.2,0.6,1.8,0.2l2.6-2.2l4,1.4c0,0,0,0,0,0l-0.2,0.4c-0.1,0.4,0,1,0.2,1.3l0.2,0.3l-3.2,2.6
			l-3.4-1.2c-0.7-0.2-1.4,0.1-1.6,0.7c-0.2,0.6,0.1,1.4,0.7,1.6l2,0.7l-0.7,0.6l-5.5-2c-0.7-0.2-1.4,0.1-1.6,0.7
			c-0.2,0.6,0.1,1.4,0.7,1.6l4.2,1.5l-0.8,0.7l-6.3-2.3c-0.6-0.2-1.4,0.1-1.6,0.7c-0.2,0.6,0.1,1.4,0.7,1.6l4.9,1.8l-0.7,0.6
			l-3.6-1.3c-0.7-0.2-1.4,0.1-1.6,0.7c-0.2,0.6,0.1,1.4,0.7,1.6l2.2,0.8l-1.2,1c-0.5,0.4-0.6,1.2-0.2,1.8c0.4,0.5,1.2,0.6,1.8,0.2
			l1.2-1l0.4,2.2c0.1,0.7,0.8,1.1,1.5,1c0.7-0.1,1.1-0.8,1-1.4l-0.6-3.6l0.7-0.6l0.9,5c0.1,0.7,0.8,1.1,1.5,1c0.7-0.1,1.1-0.8,1-1.4
			l-1.1-6.4l0.8-0.7l0.7,4.2c0.1,0.7,0.8,1.1,1.4,1c0.7-0.1,1.1-0.8,1-1.4l-1-5.6l0.7-0.6l0.3,2c0.1,0.7,0.8,1.1,1.5,1
			c0.7-0.1,1.1-0.8,1-1.4l-0.6-3.4l3.2-2.7l0.1,0.1c0.3,0.3,0.9,0.5,1.3,0.5l0.3,0c0,0,0,0,0,0.1l0.7,4.1l-2.8,2.3
			c-0.5,0.4-0.6,1.2-0.2,1.8c0.4,0.5,1.2,0.6,1.8,0.2l1.6-1.4l0.2,0.9l-4.5,3.7c-0.5,0.4-0.6,1.2-0.2,1.8c0.4,0.5,1.2,0.6,1.8,0.2
			l3.4-2.8l0.2,1.1l-5.1,4.3c-0.5,0.4-0.6,1.2-0.2,1.8c0.4,0.5,1.2,0.6,1.8,0.2l4-3.3l0.2,0.9l-2.9,2.4c-0.5,0.4-0.6,1.2-0.2,1.8
			c0.4,0.5,1.2,0.6,1.8,0.2l1.8-1.5l0.3,1.6c0.1,0.7,0.8,1.1,1.5,1c0.7-0.1,1.1-0.8,1-1.4l-0.3-1.5l2.1,0.8c0.7,0.2,1.4-0.1,1.6-0.7
			c0.2-0.6-0.1-1.4-0.7-1.6l-3.5-1.3l-0.2-0.9l4.8,1.7c0.7,0.2,1.4-0.1,1.6-0.7c0.2-0.6-0.1-1.4-0.7-1.6l-6.1-2.2l-0.2-1.1l4,1.5
			c0.6,0.2,1.4-0.1,1.6-0.7c0.2-0.6-0.1-1.4-0.7-1.6l-5.4-2l-0.2-0.9l1.9,0.7c0.7,0.2,1.4-0.1,1.6-0.7c0.2-0.6-0.1-1.4-0.7-1.6
			l-3.2-1.2l-0.7-4.2c0,0,0,0,0-0.1l0.2,0c0.4-0.1,0.9-0.5,1-0.9l0.1-0.2c0,0,0,0,0,0l3.9,1.4l0.6,3.5c0.1,0.7,0.8,1.1,1.5,1
			c0.7-0.1,1.1-0.8,1-1.4l-0.4-2.1l0.9,0.3l1,5.7c0.1,0.7,0.8,1.1,1.5,1c0.7-0.1,1.1-0.8,1-1.4l-0.8-4.3l1,0.4l1.1,6.5
			c0.1,0.7,0.8,1.1,1.5,1c0.7-0.1,1.1-0.8,1-1.4l-0.9-5.1l0.9,0.3l0.7,3.8c0.1,0.7,0.8,1.1,1.5,1c0.7-0.1,1.1-0.8,1-1.4l-0.4-2.3
			l1.5,0.5c0.7,0.2,1.4-0.1,1.6-0.7c0.2-0.6-0.1-1.4-0.7-1.6l-1.4-0.5l1.7-1.4C219.9,143.7,220,142.9,219.5,142.4z M197.9,138.7
			l-0.3,0.6c-0.1,0.3-0.5,0.5-0.9,0.6l-0.8,0.1c-0.4,0-0.9-0.1-1.1-0.3l-0.5-0.5c-0.2-0.2-0.3-0.6-0.2-0.9l0.3-0.6
			c0.1-0.3,0.5-0.5,0.9-0.6l0.8-0.1c0.4,0,0.9,0.1,1.1,0.3l0.5,0.5C197.9,138,198,138.4,197.9,138.7z"/>
		<path id="Fill-42_00000102503097885687211020000010884596521802849722_" class="st0" d="M542.6,336.7c-0.4-0.5-1.2-0.6-1.8-0.2
			l-2.8,2.4l-0.9-0.3l3.9-3.2c0.5-0.4,0.6-1.2,0.2-1.8c-0.4-0.5-1.2-0.6-1.8-0.2l-5,4.2l-1-0.4l3.3-2.7c0.5-0.4,0.6-1.2,0.2-1.8
			c-0.4-0.5-1.2-0.6-1.8-0.2l-4.4,3.6l-0.9-0.3l1.5-1.3c0.5-0.4,0.6-1.2,0.2-1.8c-0.4-0.5-1.2-0.6-1.8-0.2l-2.6,2.2l-4-1.4
			c0,0,0,0,0,0l0.1-0.2c0.1-0.4,0-1-0.2-1.3l-0.4-0.4l3.2-2.6l3.4,1.2c0.6,0.2,1.4-0.1,1.6-0.7c0.2-0.6-0.1-1.4-0.7-1.6l-2-0.7
			l0.7-0.6l5.5,2c0.7,0.2,1.4-0.1,1.6-0.7c0.2-0.6-0.1-1.4-0.7-1.6l-4.2-1.5l0.8-0.7l6.3,2.3c0.6,0.2,1.4-0.1,1.6-0.7
			c0.2-0.6-0.1-1.4-0.7-1.6L534,322l0.7-0.6l3.6,1.3c0.7,0.2,1.4-0.1,1.6-0.7c0.2-0.6-0.1-1.4-0.7-1.6l-2.2-0.8l1.2-1
			c0.5-0.4,0.6-1.2,0.2-1.8c-0.4-0.5-1.2-0.6-1.8-0.2l-1.2,1l-0.4-2.2c-0.1-0.7-0.8-1.1-1.5-1c-0.7,0.1-1.1,0.8-1,1.4l0.6,3.6
			l-0.7,0.6l-0.9-5c-0.1-0.7-0.8-1.1-1.5-1c-0.7,0.1-1.1,0.8-1,1.4l1.1,6.4l-0.8,0.7l-0.7-4.2c-0.1-0.7-0.8-1.1-1.5-1
			c-0.7,0.1-1.1,0.8-1,1.4l1,5.6l-0.7,0.6l-0.3-2c-0.1-0.7-0.8-1.1-1.5-1c-0.7,0.1-1.1,0.8-1,1.4l0.6,3.4l-3.2,2.7
			c-0.3-0.3-0.8-0.5-1.2-0.4l-0.3,0l-0.7-4.1l2.8-2.3c0.5-0.4,0.6-1.2,0.2-1.8c-0.4-0.5-1.2-0.6-1.8-0.2l-1.6,1.4l-0.2-0.9l4.5-3.7
			c0.5-0.4,0.6-1.2,0.2-1.8c-0.4-0.5-1.2-0.6-1.8-0.2l-3.4,2.8l-0.2-1.1l5.1-4.3c0.5-0.4,0.6-1.2,0.2-1.8c-0.4-0.5-1.2-0.6-1.8-0.2
			l-4,3.3l-0.2-0.9l2.9-2.4c0.5-0.4,0.6-1.2,0.2-1.8c-0.4-0.5-1.2-0.6-1.8-0.2l-1.8,1.5l-0.3-1.6c-0.1-0.7-0.8-1.1-1.5-1
			c-0.7,0.1-1.1,0.8-1,1.4l0.3,1.5l-2.1-0.8c-0.6-0.2-1.4,0.1-1.6,0.7c-0.2,0.6,0.1,1.4,0.7,1.6l3.5,1.3l0.2,0.9l-4.8-1.7
			c-0.7-0.2-1.4,0.1-1.6,0.7c-0.2,0.6,0.1,1.4,0.7,1.6l6.1,2.2l0.2,1.1l-4-1.5c-0.7-0.2-1.4,0.1-1.6,0.7c-0.2,0.6,0.1,1.4,0.7,1.6
			l5.4,2l0.2,0.9l-1.9-0.7c-0.6-0.2-1.4,0.1-1.6,0.7c-0.2,0.6,0.1,1.4,0.7,1.6l3.2,1.2l0.7,4.1l-0.2,0c-0.4,0.1-0.9,0.5-1,0.9l0,0
			c0,0,0,0,0,0l-3.9-1.4l-0.6-3.5c-0.1-0.7-0.8-1.1-1.5-1c-0.7,0.1-1.1,0.8-1,1.4l0.4,2.1l-0.9-0.3l-1-5.7c-0.1-0.7-0.8-1.1-1.5-1
			c-0.7,0.1-1.1,0.8-1,1.4l0.8,4.3l-1-0.4l-1.1-6.5c-0.1-0.7-0.8-1.1-1.5-1c-0.7,0.1-1.1,0.8-1,1.4l0.9,5.1l-0.9-0.3l-0.7-3.8
			c-0.1-0.7-0.8-1.1-1.5-1c-0.7,0.1-1.1,0.8-1,1.4l0.4,2.3l-1.5-0.5c-0.7-0.2-1.4,0.1-1.6,0.7c-0.2,0.6,0.1,1.4,0.7,1.6l1.4,0.5
			l-1.7,1.4c-0.5,0.4-0.6,1.2-0.2,1.8c0.4,0.5,1.2,0.6,1.8,0.2l2.8-2.3l0.9,0.3l-3.9,3.2c-0.5,0.4-0.6,1.2-0.2,1.8
			c0.4,0.5,1.2,0.6,1.8,0.2l5-4.2l1,0.4l-3.3,2.7c-0.5,0.4-0.6,1.2-0.2,1.8c0.4,0.5,1.2,0.6,1.8,0.2l4.4-3.6l0.9,0.3l-1.5,1.3
			c-0.5,0.4-0.6,1.2-0.2,1.8c0.4,0.5,1.2,0.6,1.8,0.2l2.6-2.2l4,1.4c0,0,0,0,0,0l-0.2,0.4c-0.1,0.4,0,1,0.2,1.3l0.2,0.3l-3.2,2.6
			l-3.4-1.2c-0.7-0.2-1.4,0.1-1.6,0.7c-0.2,0.6,0.1,1.4,0.7,1.6l2,0.7l-0.7,0.6l-5.5-2c-0.7-0.2-1.4,0.1-1.6,0.7
			c-0.2,0.6,0.1,1.4,0.7,1.6l4.2,1.5l-0.8,0.7l-6.3-2.3c-0.6-0.2-1.4,0.1-1.6,0.7c-0.2,0.6,0.1,1.4,0.7,1.6l4.9,1.8l-0.7,0.6
			l-3.6-1.3c-0.7-0.2-1.4,0.1-1.6,0.7c-0.2,0.6,0.1,1.4,0.7,1.6l2.2,0.8l-1.2,1c-0.5,0.4-0.6,1.2-0.2,1.8c0.4,0.5,1.2,0.6,1.8,0.2
			l1.2-1l0.4,2.2c0.1,0.7,0.8,1.1,1.5,1c0.7-0.1,1.1-0.8,1-1.4l-0.6-3.6l0.7-0.6l0.9,5c0.1,0.7,0.8,1.1,1.5,1c0.7-0.1,1.1-0.8,1-1.4
			l-1.1-6.4l0.8-0.7l0.7,4.2c0.1,0.7,0.8,1.1,1.4,1c0.7-0.1,1.1-0.8,1-1.4l-1-5.6l0.7-0.6l0.3,2c0.1,0.7,0.8,1.1,1.5,1
			c0.7-0.1,1.1-0.8,1-1.4l-0.6-3.4l3.2-2.7l0.1,0.1c0.3,0.3,0.9,0.5,1.3,0.5l0.3,0c0,0,0,0,0,0.1l0.7,4.1l-2.8,2.3
			c-0.5,0.4-0.6,1.2-0.2,1.8c0.4,0.5,1.2,0.6,1.8,0.2l1.6-1.4l0.2,0.9l-4.5,3.7c-0.5,0.4-0.6,1.2-0.2,1.8c0.4,0.5,1.2,0.6,1.8,0.2
			l3.4-2.8l0.2,1.1l-5.1,4.3c-0.5,0.4-0.6,1.2-0.2,1.8c0.4,0.5,1.2,0.6,1.8,0.2l4-3.3l0.2,0.9l-2.9,2.4c-0.5,0.4-0.6,1.2-0.2,1.8
			c0.4,0.5,1.2,0.6,1.8,0.2l1.8-1.5l0.3,1.6c0.1,0.7,0.8,1.1,1.5,1c0.7-0.1,1.1-0.8,1-1.4l-0.3-1.5l2.1,0.8c0.7,0.2,1.4-0.1,1.6-0.7
			c0.2-0.6-0.1-1.4-0.7-1.6l-3.5-1.3l-0.2-0.9l4.8,1.7c0.7,0.2,1.4-0.1,1.6-0.7c0.2-0.6-0.1-1.4-0.7-1.6l-6.1-2.2l-0.2-1.1l4,1.5
			c0.6,0.2,1.4-0.1,1.6-0.7c0.2-0.6-0.1-1.4-0.7-1.6l-5.4-2l-0.2-0.9l1.9,0.7c0.7,0.2,1.4-0.1,1.6-0.7c0.2-0.6-0.1-1.4-0.7-1.6
			l-3.2-1.2l-0.7-4.2c0,0,0,0,0-0.1l0.2,0c0.4-0.1,0.9-0.5,1-0.9l0.1-0.2c0,0,0,0,0,0l3.9,1.4l0.6,3.5c0.1,0.7,0.8,1.1,1.5,1
			c0.7-0.1,1.1-0.8,1-1.4l-0.4-2.1l0.9,0.3l1,5.7c0.1,0.7,0.8,1.1,1.5,1c0.7-0.1,1.1-0.8,1-1.4l-0.8-4.3l1,0.4l1.1,6.5
			c0.1,0.7,0.8,1.1,1.5,1c0.7-0.1,1.1-0.8,1-1.4l-0.9-5.1l0.9,0.3l0.7,3.8c0.1,0.7,0.8,1.1,1.5,1c0.7-0.1,1.1-0.8,1-1.4l-0.4-2.3
			l1.5,0.5c0.7,0.2,1.4-0.1,1.6-0.7c0.2-0.6-0.1-1.4-0.7-1.6l-1.4-0.5l1.7-1.4C543,338,543.1,337.2,542.6,336.7z M520.9,333
			l-0.3,0.6c-0.1,0.3-0.5,0.5-0.9,0.6l-0.8,0.1c-0.4,0-0.9-0.1-1.1-0.3l-0.5-0.5c-0.2-0.2-0.3-0.6-0.2-0.9l0.3-0.6
			c0.1-0.3,0.5-0.5,0.9-0.6l0.8-0.1c0.4,0,0.9,0.1,1.1,0.3l0.5,0.5C521,332.4,521.1,332.8,520.9,333z"/>
		<path id="Fill-44" class="st1" d="M411.4,123.1C411.4,123.1,411.4,123.1,411.4,123.1c0.1,0,0.2-0.1,0.2-0.1l4.2,1.2
			c0,0,0,0.1,0.1,0.1c0,0,0.1,0.1,0.1,0.1l1,4.2c0,0-0.1,0.1-0.1,0.1c0,0.1,0,0.1,0,0.2l-3.2,3c0,0,0,0-0.1,0c0,0,0,0,0,0
			c0,0,0,0,0,0c-0.1,0-0.1,0-0.2,0.1l-4.2-1.2c0,0,0-0.1-0.1-0.1c0,0-0.1-0.1-0.1-0.1l-1-4.2c0,0,0.1-0.1,0.1-0.1c0-0.1,0-0.1,0-0.2
			L411.4,123.1C411.3,123.1,411.3,123.1,411.4,123.1z M407.5,106c-0.1,0-0.1,0-0.2,0c-0.5,0.1-0.7,0.6-0.6,1.1l0.2,0.8l-1.2-0.5
			c-0.1,0-0.2-0.1-0.3-0.1c-0.3,0-0.6,0.2-0.7,0.5c-0.2,0.4,0,0.9,0.4,1l2.3,1l0.4,1.6l-2.8-1.2c-0.1,0-0.2-0.1-0.3-0.1
			c-0.3,0-0.6,0.2-0.7,0.5c-0.2,0.4,0,0.9,0.4,1l3.9,1.7l0.4,1.5l-4.3-1.9c-0.1,0-0.2-0.1-0.3-0.1c-0.3,0-0.6,0.2-0.7,0.5
			c-0.2,0.4,0,0.9,0.4,1l5.4,2.3l0.6,2.4l-2-0.9c-0.1,0-0.2-0.1-0.3-0.1c-0.3,0-0.6,0.2-0.7,0.5c-0.2,0.4,0,0.9,0.4,1l3.1,1.4l0.5,2
			l-2.8,2.7l-1.9-0.6l-1.2-3.2c-0.1-0.3-0.4-0.5-0.7-0.5c-0.1,0-0.2,0-0.3,0.1c-0.4,0.2-0.6,0.6-0.5,1l0.8,2.1l-2.3-0.7l-2.1-5.5
			c-0.1-0.3-0.4-0.5-0.7-0.5c-0.1,0-0.2,0-0.3,0.1c-0.4,0.2-0.6,0.6-0.5,1l1.7,4.4l-1.5-0.4l-1.5-4c-0.1-0.3-0.4-0.5-0.7-0.5
			c-0.1,0-0.2,0-0.3,0.1c-0.4,0.2-0.6,0.6-0.5,1l1.1,2.9l-1.5-0.5l-0.9-2.4c-0.1-0.3-0.4-0.5-0.7-0.5c-0.1,0-0.2,0-0.3,0.1
			c-0.4,0.2-0.6,0.6-0.5,1l0.5,1.3l-0.8-0.2c-0.1,0-0.2,0-0.2,0c-0.4,0-0.7,0.2-0.8,0.6c-0.1,0.5,0.1,1,0.6,1.1l0.8,0.2l-1.1,0.8
			c-0.3,0.3-0.4,0.8-0.2,1.1c0.2,0.2,0.4,0.3,0.6,0.3c0.2,0,0.3,0,0.5-0.2l2-1.5l1.5,0.5l-2.5,1.9c-0.3,0.3-0.4,0.8-0.2,1.1
			c0.2,0.2,0.4,0.3,0.6,0.3c0.2,0,0.3-0.1,0.5-0.2l3.4-2.6l1.5,0.4l-3.7,2.8c-0.3,0.3-0.4,0.7-0.2,1.1c0.2,0.2,0.4,0.3,0.6,0.3
			c0.2,0,0.3-0.1,0.5-0.2l4.7-3.5l2.3,0.7l-1.8,1.3c-0.3,0.3-0.4,0.8-0.2,1.1c0.2,0.2,0.4,0.3,0.6,0.3c0.2,0,0.3-0.1,0.5-0.2l2.7-2
			l2,0.6l0.9,3.8l-1.4,1.4l-3.4-0.6c0,0-0.1,0-0.1,0c-0.4,0-0.7,0.3-0.8,0.7c-0.1,0.4,0.2,0.8,0.6,0.9l2.2,0.4l-1.7,1.7l-5.8-1
			c0,0-0.1,0-0.1,0c-0.4,0-0.7,0.3-0.8,0.7c-0.1,0.4,0.2,0.8,0.6,0.9l4.6,0.8l-1.1,1.1l-4.2-0.7c0,0-0.1,0-0.1,0
			c-0.4,0-0.7,0.3-0.8,0.7c-0.1,0.4,0.2,0.8,0.6,0.9l3.1,0.5l-1.2,1.1l-2.5-0.4c0,0-0.1,0-0.1,0c-0.4,0-0.7,0.3-0.8,0.7
			c-0.1,0.4,0.2,0.8,0.6,0.9l1.3,0.2l-0.6,0.6c-0.3,0.3-0.4,0.9,0,1.2c0.2,0.2,0.4,0.3,0.6,0.3c0.2,0,0.4-0.1,0.6-0.2l0.6-0.6
			l0.1,1.3c0,0.4,0.4,0.7,0.8,0.7c0,0,0.1,0,0.1,0c0.4-0.1,0.7-0.4,0.7-0.9l-0.3-2.5l1.2-1.1l0.3,3.1c0,0.4,0.4,0.7,0.8,0.7
			c0,0,0.1,0,0.1,0c0.4,0,0.7-0.4,0.7-0.9l-0.5-4.3l1.1-1.1l0.5,4.7c0,0.4,0.4,0.7,0.8,0.7c0,0,0.1,0,0.1,0c0.4-0.1,0.7-0.4,0.7-0.9
			l-0.7-5.9l1.7-1.7l0.3,2.2c0,0.4,0.4,0.7,0.8,0.7c0,0,0.1,0,0.1,0c0.4,0,0.7-0.4,0.7-0.9l-0.4-3.4l1.5-1.4l3.7,1.1l0.5,2l-2.2,2.7
			c-0.3,0.3-0.2,0.8,0.1,1.1c0.1,0.1,0.3,0.2,0.5,0.2c0.2,0,0.4-0.1,0.6-0.3l1.4-1.7l0.6,2.4l-3.7,4.6c-0.3,0.3-0.2,0.8,0.1,1.1
			c0.1,0.1,0.3,0.2,0.5,0.2c0.2,0,0.4-0.1,0.6-0.3l3-3.7l0.4,1.5l-2.7,3.3c-0.3,0.3-0.2,0.8,0.1,1.1c0.1,0.1,0.3,0.2,0.5,0.2
			c0.2,0,0.4-0.1,0.6-0.3l2-2.4l0.4,1.6l-1.6,2c-0.3,0.3-0.2,0.8,0.1,1.1c0.1,0.1,0.3,0.2,0.5,0.2c0.2,0,0.4-0.1,0.6-0.3l0.9-1
			l0.2,0.8c0.1,0.4,0.5,0.7,0.8,0.7c0.1,0,0.1,0,0.2,0c0.5-0.1,0.8-0.6,0.6-1.1l-0.2-0.8l1.2,0.5c0.1,0,0.2,0.1,0.3,0.1
			c0.3,0,0.6-0.2,0.7-0.5c0.2-0.4,0-0.9-0.4-1l-2.3-1l-0.4-1.6l2.8,1.2c0.1,0,0.2,0.1,0.3,0.1c0.3,0,0.6-0.2,0.7-0.5
			c0.2-0.4,0-0.9-0.4-1l-3.9-1.7l-0.4-1.5l4.3,1.9c0.1,0,0.2,0.1,0.3,0.1c0.3,0,0.6-0.2,0.7-0.5c0.2-0.4,0-0.9-0.4-1l-5.3-2.3
			l-0.6-2.4l2,0.9c0.1,0,0.2,0.1,0.3,0.1c0.3,0,0.6-0.2,0.7-0.5c0.2-0.4,0-0.9-0.4-1l-3.1-1.4l-0.5-2l2.8-2.7l1.9,0.6l1.2,3.2
			c0.1,0.3,0.4,0.5,0.7,0.5c0.1,0,0.2,0,0.3-0.1c0.4-0.2,0.6-0.6,0.5-1l-0.8-2.1l2.3,0.7l2.1,5.5c0.1,0.3,0.4,0.5,0.7,0.5
			c0.1,0,0.2,0,0.3-0.1c0.4-0.2,0.6-0.6,0.5-1l-1.6-4.4l1.5,0.4l1.5,4c0.1,0.3,0.4,0.5,0.7,0.5c0.1,0,0.2,0,0.3,0
			c0.4-0.2,0.6-0.6,0.5-1l-1.1-2.9l1.5,0.5l0.9,2.4c0.1,0.3,0.4,0.5,0.7,0.5c0.1,0,0.2,0,0.3-0.1c0.4-0.2,0.6-0.6,0.5-1l-0.5-1.3
			l0.8,0.2c0.1,0,0.2,0,0.2,0c0.4,0,0.7-0.2,0.8-0.6c0.1-0.5-0.1-0.9-0.6-1.1l-0.8-0.2l1.1-0.8c0.3-0.3,0.4-0.8,0.2-1.1
			c-0.2-0.2-0.4-0.3-0.6-0.3c-0.2,0-0.3,0-0.5,0.2l-2,1.5l-1.5-0.5l2.5-1.9c0.3-0.3,0.4-0.7,0.2-1.1c-0.2-0.2-0.4-0.3-0.6-0.3
			c-0.2,0-0.3,0-0.5,0.2l-3.4,2.6l-1.5-0.4l3.7-2.8c0.3-0.3,0.4-0.8,0.2-1.1c-0.2-0.2-0.4-0.3-0.6-0.3c-0.2,0-0.3,0.1-0.5,0.2
			l-4.7,3.5l-2.3-0.7l1.8-1.3c0.3-0.3,0.4-0.8,0.2-1.1c-0.2-0.2-0.4-0.3-0.6-0.3c-0.2,0-0.3,0.1-0.5,0.2l-2.7,2l-2-0.6l-0.9-3.8
			l1.5-1.4l3.4,0.6c0,0,0.1,0,0.1,0c0.4,0,0.7-0.3,0.8-0.7c0.1-0.4-0.2-0.8-0.6-0.9l-2.2-0.4l1.7-1.7l5.8,1c0,0,0.1,0,0.1,0
			c0.4,0,0.7-0.3,0.8-0.7c0.1-0.4-0.2-0.8-0.6-0.9l-4.6-0.8l1.1-1.1l4.2,0.7c0,0,0.1,0,0.1,0c0.4,0,0.7-0.3,0.8-0.7
			c0.1-0.4-0.2-0.8-0.6-0.9l-3.1-0.5l1.2-1.1l2.5,0.4c0,0,0.1,0,0.1,0c0.4,0,0.7-0.3,0.8-0.7c0.1-0.4-0.2-0.8-0.6-0.9l-1.3-0.2
			l0.6-0.6c0.3-0.3,0.4-0.9,0-1.2c-0.2-0.2-0.4-0.3-0.6-0.3c-0.2,0-0.4,0.1-0.6,0.2l-0.6,0.6l-0.1-1.3c0-0.4-0.4-0.7-0.8-0.7
			c0,0-0.1,0-0.1,0c-0.4,0.1-0.7,0.4-0.7,0.9l0.3,2.5l-1.2,1.1l-0.4-3.1c0-0.4-0.4-0.7-0.8-0.7c0,0-0.1,0-0.1,0
			c-0.4,0.1-0.7,0.4-0.7,0.9l0.5,4.3l-1.1,1.1l-0.5-4.7c0-0.4-0.4-0.7-0.8-0.7c0,0-0.1,0-0.1,0c-0.4,0-0.7,0.4-0.7,0.9l0.7,5.9
			l-1.7,1.7l-0.3-2.2c0-0.4-0.4-0.7-0.8-0.7c0,0-0.1,0-0.1,0c-0.4,0.1-0.7,0.4-0.7,0.9l0.4,3.4l-1.5,1.4l-3.7-1.1l-0.5-2l2.2-2.7
			c0.3-0.3,0.2-0.8-0.1-1.1c-0.1-0.1-0.3-0.2-0.5-0.2c-0.2,0-0.4,0.1-0.6,0.3l-1.4,1.7l-0.6-2.4l3.7-4.6c0.3-0.3,0.2-0.8-0.1-1.1
			c-0.1-0.1-0.3-0.2-0.5-0.2c-0.2,0-0.4,0.1-0.6,0.3l-3,3.7l-0.4-1.5l2.7-3.3c0.3-0.3,0.2-0.8-0.1-1.1c-0.1-0.1-0.3-0.2-0.5-0.2
			c-0.2,0-0.4,0.1-0.6,0.3l-2,2.4l-0.4-1.6l1.6-2c0.3-0.3,0.2-0.8-0.1-1.1c-0.1-0.1-0.3-0.2-0.5-0.2c-0.2,0-0.4,0.1-0.6,0.3
			l-0.9,1.1l-0.2-0.8C408.2,106.3,407.8,106,407.5,106z"/>
		<path id="Path" class="st2" d="M511.6,111.7l-3.1,0.8l0-0.1c0.6-1.2,0.1-2.7-1.1-3.3c-1.2-0.6-2.7-0.1-3.3,1.1l-0.4,0.7l-1.5-4.1
			c-0.3-0.7-1.1-1.1-1.8-0.8c-0.7,0.3-1.1,1.1-0.8,1.8l2.4,6.5l-1.7,3.3l-3.3-9c-0.3-0.7-1.1-1.1-1.8-0.8c-0.7,0.3-1.1,1.1-0.8,1.8
			l4.2,11.3l-3.5,6.9l-0.5-9.4c0-0.8-0.7-1.4-1.5-1.4c-0.8,0-1.4,0.7-1.4,1.5l0.4,8.9l-3.5-5.4l3-11.3c0.2-0.8-0.2-1.5-1-1.7
			c-0.7-0.2-1.5,0.2-1.7,1l-2.3,8.8l-2-3.1l1.7-6.3c0.2-0.8-0.2-1.5-1-1.7c-0.7-0.2-1.5,0.2-1.7,1l-1,3.8l-0.9-1.4
			c-0.7-1.1-2.2-1.5-3.4-0.7c-1.1,0.7-1.5,2.3-0.7,3.4l0.8,1.2l-3.6-0.6c-0.8-0.1-1.5,0.4-1.6,1.2c-0.1,0.8,0.4,1.5,1.2,1.6l6.1,1
			l2,3.1l-8.7-1.5c-0.8-0.1-1.5,0.4-1.6,1.2c-0.1,0.8,0.4,1.5,1.2,1.6l11.2,1.9l3.7,5.8l-8.1-4.2c-0.7-0.4-1.6-0.1-2,0.6
			c-0.4,0.7-0.1,1.6,0.6,2l8.2,4.2l-7.7,0.4l-8-8c-0.5-0.5-1.4-0.5-2,0c-0.5,0.6-0.5,1.4,0,2l6.2,6.2l-3.7,0.2l-4.3-4.3
			c-0.5-0.5-1.4-0.5-2,0c-0.5,0.6-0.5,1.4,0,2l2.5,2.5l-0.7,0c-1.4,0.1-2.4,1.2-2.3,2.6c0.1,1.4,1.2,2.4,2.6,2.3l1-0.1l-2.5,3.1
			c-0.5,0.6-0.4,1.5,0.2,2c0.6,0.5,1.5,0.4,2-0.2l4.2-5.1l3.7-0.2l-5.8,7.1c-0.5,0.6-0.4,1.5,0.2,2c0.6,0.5,1.5,0.4,2-0.2l7.5-9.1
			l6.9-0.3l-7.4,4.8c-0.7,0.4-0.9,1.3-0.4,2c0.4,0.7,1.3,0.9,2,0.4l7.9-5.1l-3.3,6.5l-10.8,2.9c-0.7,0.2-1.2,1-1,1.7
			c0.2,0.7,1,1.2,1.7,1l8.3-2.3l-1.7,3.3l-5.8,1.6c-0.7,0.2-1.2,1-1,1.7c0.2,0.7,1,1.2,1.7,1l3.3-0.9l-0.6,1.2
			c-0.6,1.2-0.1,2.7,1.1,3.3c1.2,0.6,2.7,0.1,3.3-1.1l0.8-1.6l1.4,3.9c0.3,0.7,1.1,1.1,1.8,0.8c0.7-0.3,1.1-1.1,0.8-1.8l-2.3-6.2
			l1.7-3.3l3.3,8.7c0.3,0.7,1.1,1.1,1.8,0.8c0.7-0.3,1.1-1.1,0.8-1.8l-4.2-11.1l2.8-5.5l0.4,8.7c0,0.8,0.7,1.4,1.5,1.4
			c0.8,0,1.4-0.7,1.4-1.5l-0.5-9.2l3.1,4.9l-2.9,11.1c-0.2,0.8,0.2,1.5,1,1.7c0.7,0.2,1.5-0.2,1.7-1l2.3-8.6l2,3.1l-1.6,6.1
			c-0.2,0.8,0.2,1.5,1,1.7c0.7,0.2,1.5-0.2,1.7-1l1-3.6l1.5,2.4c0.7,1.1,2.2,1.5,3.4,0.7c1.1-0.7,1.5-2.3,0.7-3.4l-1.6-2.4l3.8,0.6
			c0.8,0.1,1.5-0.4,1.6-1.2c0.1-0.8-0.4-1.5-1.2-1.6l-6.3-1.1l-2-3.1l8.9,1.5c0.8,0.1,1.5-0.4,1.6-1.2c0.1-0.8-0.4-1.5-1.2-1.6
			l-11.4-1.9l-3-4.6l7.9,4.1c0.7,0.4,1.6,0.1,2-0.6c0.4-0.7,0.1-1.6-0.6-2l-7.8-4l6.3-0.3l8.4,8.4c0.5,0.5,1.4,0.5,2,0
			c0.5-0.5,0.5-1.4,0-2l-6.6-6.6l3.7-0.2l4.7,4.7c0.5,0.5,1.4,0.5,2,0c0.5-0.6,0.5-1.4,0-2l-2.9-2.9l1.9-0.1
			c1.4-0.1,2.4-1.2,2.3-2.6c-0.1-1.4-1.2-2.4-2.6-2.3l-1.5,0.1l2.2-2.7c0.5-0.6,0.4-1.5-0.2-2c-0.6-0.5-1.5-0.4-2,0.2l-3.8,4.7
			l-3.7,0.2l5.5-6.7c0.5-0.6,0.4-1.5-0.2-2c-0.6-0.5-1.5-0.4-2,0.2l-7.1,8.7l-7.1,0.4l7.8-5c0.7-0.4,0.9-1.3,0.4-2
			c-0.4-0.7-1.3-0.9-2-0.4l-7.3,4.7l3.6-7l10.6-2.9c0.7-0.2,1.2-1,1-1.7c-0.2-0.7-1-1.2-1.7-1l-8.1,2.2l1.7-3.3l5.6-1.5
			c0.7-0.2,1.2-1,1-1.7C513.1,112,512.3,111.5,511.6,111.7z"/>
		<path id="Path_00000077317072118868585750000011208480203913025693_" class="st2" d="M243.2,180.7l-3.1,0.8l0-0.1
			c0.6-1.2,0.1-2.7-1.1-3.3c-1.2-0.6-2.7-0.1-3.3,1.1l-0.4,0.7l-1.5-4.1c-0.3-0.7-1.1-1.1-1.8-0.8c-0.7,0.3-1.1,1.1-0.8,1.8l2.4,6.5
			l-1.7,3.3l-3.3-9c-0.3-0.7-1.1-1.1-1.8-0.8c-0.7,0.3-1.1,1.1-0.8,1.8l4.2,11.3l-3.5,6.9l-0.5-9.4c0-0.8-0.7-1.4-1.5-1.4
			c-0.8,0-1.4,0.7-1.4,1.5l0.4,8.9l-3.5-5.4l3-11.3c0.2-0.8-0.2-1.5-1-1.7c-0.7-0.2-1.5,0.2-1.7,1l-2.3,8.8l-2-3.1l1.7-6.3
			c0.2-0.8-0.2-1.5-1-1.7c-0.7-0.2-1.5,0.2-1.7,1l-1,3.8l-0.9-1.4c-0.7-1.1-2.2-1.5-3.4-0.7c-1.1,0.7-1.5,2.3-0.7,3.4l0.8,1.2
			l-3.6-0.6c-0.8-0.1-1.5,0.4-1.6,1.2c-0.1,0.8,0.4,1.5,1.2,1.6l6.1,1l2,3.1l-8.7-1.5c-0.8-0.1-1.5,0.4-1.6,1.2
			c-0.1,0.8,0.4,1.5,1.2,1.6l11.2,1.9l3.7,5.8l-8.1-4.2c-0.7-0.4-1.6-0.1-2,0.6c-0.4,0.7-0.1,1.6,0.6,2l8.2,4.2l-7.7,0.4l-8-8
			c-0.5-0.5-1.4-0.5-2,0c-0.5,0.6-0.5,1.4,0,2l6.2,6.2l-3.7,0.2l-4.3-4.3c-0.5-0.5-1.4-0.5-2,0c-0.5,0.6-0.5,1.4,0,2l2.5,2.5l-0.7,0
			c-1.4,0.1-2.4,1.2-2.3,2.6c0.1,1.4,1.2,2.4,2.6,2.3l1-0.1l-2.5,3.1c-0.5,0.6-0.4,1.5,0.2,2c0.6,0.5,1.5,0.4,2-0.2l4.2-5.1l3.7-0.2
			l-5.8,7.1c-0.5,0.6-0.4,1.5,0.2,2c0.6,0.5,1.5,0.4,2-0.2l7.5-9.1l6.9-0.3l-7.4,4.8c-0.7,0.4-0.9,1.3-0.4,2c0.4,0.7,1.3,0.9,2,0.4
			l7.9-5.1l-3.3,6.5l-10.8,2.9c-0.7,0.2-1.2,1-1,1.7c0.2,0.7,1,1.2,1.7,1l8.3-2.3l-1.7,3.3l-5.8,1.6c-0.7,0.2-1.2,1-1,1.7
			s1,1.2,1.7,1l3.3-0.9l-0.6,1.2c-0.6,1.2-0.1,2.7,1.1,3.3c1.2,0.6,2.7,0.1,3.3-1.1l0.8-1.6l1.4,3.9c0.3,0.7,1.1,1.1,1.8,0.8
			c0.7-0.3,1.1-1.1,0.8-1.8l-2.3-6.2l1.7-3.3l3.3,8.7c0.3,0.7,1.1,1.1,1.8,0.8c0.7-0.3,1.1-1.1,0.8-1.8l-4.2-11.1l2.8-5.5l0.4,8.7
			c0,0.8,0.7,1.4,1.5,1.4c0.8,0,1.4-0.7,1.4-1.5l-0.5-9.2l3.1,4.9l-2.9,11.1c-0.2,0.8,0.2,1.5,1,1.7c0.7,0.2,1.5-0.2,1.7-1l2.3-8.6
			l2,3.1l-1.6,6.1c-0.2,0.8,0.2,1.5,1,1.7c0.7,0.2,1.5-0.2,1.7-1l1-3.6l1.5,2.4c0.7,1.1,2.2,1.5,3.4,0.7c1.1-0.7,1.5-2.3,0.7-3.4
			l-1.6-2.4l3.8,0.6c0.8,0.1,1.5-0.4,1.6-1.2c0.1-0.8-0.4-1.5-1.2-1.6l-6.3-1.1l-2-3.1l8.9,1.5c0.8,0.1,1.5-0.4,1.6-1.2
			s-0.4-1.5-1.2-1.6l-11.4-1.9l-3-4.6l7.9,4.1c0.7,0.4,1.6,0.1,2-0.6c0.4-0.7,0.1-1.6-0.6-2l-7.8-4l6.3-0.3l8.4,8.4
			c0.5,0.5,1.4,0.5,2,0c0.5-0.5,0.5-1.4,0-2l-6.6-6.6l3.7-0.2l4.7,4.7c0.5,0.5,1.4,0.5,2,0c0.5-0.6,0.5-1.4,0-2l-2.9-2.9l1.9-0.1
			c1.4-0.1,2.4-1.2,2.3-2.6c-0.1-1.4-1.2-2.4-2.6-2.3l-1.5,0.1l2.2-2.7c0.5-0.6,0.4-1.5-0.2-2c-0.6-0.5-1.5-0.4-2,0.2l-3.8,4.7
			l-3.7,0.2l5.5-6.7c0.5-0.6,0.4-1.5-0.2-2c-0.6-0.5-1.5-0.4-2,0.2l-7.1,8.7l-7.1,0.4l7.8-5c0.7-0.4,0.9-1.3,0.4-2
			c-0.4-0.7-1.3-0.9-2-0.4l-7.3,4.7l3.6-7l10.6-2.9c0.7-0.2,1.2-1,1-1.7c-0.2-0.8-1-1.2-1.7-1l-8.1,2.2l1.7-3.3l5.6-1.5
			c0.7-0.2,1.2-1,1-1.7C244.7,181,243.9,180.5,243.2,180.7z"/>
		<path id="Path_00000071520181575570806040000012764869275275294106_" class="st2" d="M511.6,111.7l-3.1,0.8l0-0.1
			c0.6-1.2,0.1-2.7-1.1-3.3c-1.2-0.6-2.7-0.1-3.3,1.1l-0.4,0.7l-1.5-4.1c-0.3-0.7-1.1-1.1-1.8-0.8c-0.7,0.3-1.1,1.1-0.8,1.8l2.4,6.5
			l-1.7,3.3l-3.3-9c-0.3-0.7-1.1-1.1-1.8-0.8c-0.7,0.3-1.1,1.1-0.8,1.8l4.2,11.3l-3.5,6.9l-0.5-9.4c0-0.8-0.7-1.4-1.5-1.4
			c-0.8,0-1.4,0.7-1.4,1.5l0.4,8.9l-3.5-5.4l3-11.3c0.2-0.8-0.2-1.5-1-1.7c-0.7-0.2-1.5,0.2-1.7,1l-2.3,8.8l-2-3.1l1.7-6.3
			c0.2-0.8-0.2-1.5-1-1.7c-0.7-0.2-1.5,0.2-1.7,1l-1,3.8l-0.9-1.4c-0.7-1.1-2.2-1.5-3.4-0.7c-1.1,0.7-1.5,2.3-0.7,3.4l0.8,1.2
			l-3.6-0.6c-0.8-0.1-1.5,0.4-1.6,1.2c-0.1,0.8,0.4,1.5,1.2,1.6l6.1,1l2,3.1l-8.7-1.5c-0.8-0.1-1.5,0.4-1.6,1.2
			c-0.1,0.8,0.4,1.5,1.2,1.6l11.2,1.9l3.7,5.8l-8.1-4.2c-0.7-0.4-1.6-0.1-2,0.6c-0.4,0.7-0.1,1.6,0.6,2l8.2,4.2l-7.7,0.4l-8-8
			c-0.5-0.5-1.4-0.5-2,0c-0.5,0.6-0.5,1.4,0,2l6.2,6.2l-3.7,0.2l-4.3-4.3c-0.5-0.5-1.4-0.5-2,0c-0.5,0.6-0.5,1.4,0,2l2.5,2.5l-0.7,0
			c-1.4,0.1-2.4,1.2-2.3,2.6c0.1,1.4,1.2,2.4,2.6,2.3l1-0.1l-2.5,3.1c-0.5,0.6-0.4,1.5,0.2,2c0.6,0.5,1.5,0.4,2-0.2l4.2-5.1l3.7-0.2
			l-5.8,7.1c-0.5,0.6-0.4,1.5,0.2,2c0.6,0.5,1.5,0.4,2-0.2l7.5-9.1l6.9-0.3l-7.4,4.8c-0.7,0.4-0.9,1.3-0.4,2c0.4,0.7,1.3,0.9,2,0.4
			l7.9-5.1l-3.3,6.5l-10.8,2.9c-0.7,0.2-1.2,1-1,1.7c0.2,0.7,1,1.2,1.7,1l8.3-2.3l-1.7,3.3l-5.8,1.6c-0.7,0.2-1.2,1-1,1.7
			c0.2,0.7,1,1.2,1.7,1l3.3-0.9l-0.6,1.2c-0.6,1.2-0.1,2.7,1.1,3.3c1.2,0.6,2.7,0.1,3.3-1.1l0.8-1.6l1.4,3.9
			c0.3,0.7,1.1,1.1,1.8,0.8c0.7-0.3,1.1-1.1,0.8-1.8l-2.3-6.2l1.7-3.3l3.3,8.7c0.3,0.7,1.1,1.1,1.8,0.8c0.7-0.3,1.1-1.1,0.8-1.8
			l-4.2-11.1l2.8-5.5l0.4,8.7c0,0.8,0.7,1.4,1.5,1.4c0.8,0,1.4-0.7,1.4-1.5l-0.5-9.2l3.1,4.9l-2.9,11.1c-0.2,0.8,0.2,1.5,1,1.7
			c0.7,0.2,1.5-0.2,1.7-1l2.3-8.6l2,3.1l-1.6,6.1c-0.2,0.8,0.2,1.5,1,1.7c0.7,0.2,1.5-0.2,1.7-1l1-3.6l1.5,2.4
			c0.7,1.1,2.2,1.5,3.4,0.7c1.1-0.7,1.5-2.3,0.7-3.4l-1.6-2.4l3.8,0.6c0.8,0.1,1.5-0.4,1.6-1.2c0.1-0.8-0.4-1.5-1.2-1.6l-6.3-1.1
			l-2-3.1l8.9,1.5c0.8,0.1,1.5-0.4,1.6-1.2c0.1-0.8-0.4-1.5-1.2-1.6l-11.4-1.9l-3-4.6l7.9,4.1c0.7,0.4,1.6,0.1,2-0.6
			c0.4-0.7,0.1-1.6-0.6-2l-7.8-4l6.3-0.3l8.4,8.4c0.5,0.5,1.4,0.5,2,0c0.5-0.5,0.5-1.4,0-2l-6.6-6.6l3.7-0.2l4.7,4.7
			c0.5,0.5,1.4,0.5,2,0c0.5-0.6,0.5-1.4,0-2l-2.9-2.9l1.9-0.1c1.4-0.1,2.4-1.2,2.3-2.6c-0.1-1.4-1.2-2.4-2.6-2.3l-1.5,0.1l2.2-2.7
			c0.5-0.6,0.4-1.5-0.2-2c-0.6-0.5-1.5-0.4-2,0.2l-3.8,4.7l-3.7,0.2l5.5-6.7c0.5-0.6,0.4-1.5-0.2-2c-0.6-0.5-1.5-0.4-2,0.2l-7.1,8.7
			l-7.1,0.4l7.8-5c0.7-0.4,0.9-1.3,0.4-2c-0.4-0.7-1.3-0.9-2-0.4l-7.3,4.7l3.6-7l10.6-2.9c0.7-0.2,1.2-1,1-1.7c-0.2-0.7-1-1.2-1.7-1
			l-8.1,2.2l1.7-3.3l5.6-1.5c0.7-0.2,1.2-1,1-1.7C513.1,112,512.3,111.5,511.6,111.7z"/>
		<path id="Path_00000122720466970424788960000018101104134265841326_" class="st2" d="M695.1,118.7l-3.1,0.8l0-0.1
			c0.6-1.2,0.1-2.7-1.1-3.3c-1.2-0.6-2.7-0.1-3.3,1.1l-0.4,0.7l-1.5-4.1c-0.3-0.7-1.1-1.1-1.8-0.8c-0.7,0.3-1.1,1.1-0.8,1.8l2.4,6.5
			l-1.7,3.3l-3.3-9c-0.3-0.7-1.1-1.1-1.8-0.8c-0.7,0.3-1.1,1.1-0.8,1.8l4.2,11.3l-3.5,6.9l-0.5-9.4c0-0.8-0.7-1.4-1.5-1.4
			c-0.8,0-1.4,0.7-1.4,1.5l0.4,8.9l-3.5-5.4l3-11.3c0.2-0.8-0.2-1.5-1-1.7c-0.7-0.2-1.5,0.2-1.7,1l-2.3,8.8l-2-3.1l1.7-6.3
			c0.2-0.8-0.2-1.5-1-1.7c-0.7-0.2-1.5,0.2-1.7,1l-1,3.8l-0.9-1.4c-0.7-1.1-2.2-1.5-3.4-0.7c-1.1,0.7-1.5,2.3-0.7,3.4l0.8,1.2
			l-3.6-0.6c-0.8-0.1-1.5,0.4-1.6,1.2c-0.1,0.8,0.4,1.5,1.2,1.6l6.1,1l2,3.1l-8.7-1.5c-0.8-0.1-1.5,0.4-1.6,1.2
			c-0.1,0.8,0.4,1.5,1.2,1.6l11.2,1.9l3.7,5.8l-8.1-4.2c-0.7-0.4-1.6-0.1-2,0.6c-0.4,0.7-0.1,1.6,0.6,2l8.2,4.2l-7.7,0.4l-8-8
			c-0.5-0.5-1.4-0.5-2,0c-0.5,0.6-0.5,1.4,0,2l6.2,6.2l-3.7,0.2l-4.3-4.3c-0.5-0.5-1.4-0.5-2,0c-0.5,0.6-0.5,1.4,0,2l2.5,2.5l-0.7,0
			c-1.4,0.1-2.4,1.2-2.3,2.6c0.1,1.4,1.2,2.4,2.6,2.3l1-0.1l-2.5,3.1c-0.5,0.6-0.4,1.5,0.2,2c0.6,0.5,1.5,0.4,2-0.2l4.2-5.1l3.7-0.2
			l-5.8,7.1c-0.5,0.6-0.4,1.5,0.2,2c0.6,0.5,1.5,0.4,2-0.2l7.5-9.1l6.9-0.3l-7.4,4.8c-0.7,0.4-0.9,1.3-0.4,2c0.4,0.7,1.3,0.9,2,0.4
			l7.9-5.1l-3.3,6.5l-10.8,2.9c-0.7,0.2-1.2,1-1,1.7c0.2,0.7,1,1.2,1.7,1l8.3-2.3l-1.7,3.3l-5.8,1.6c-0.7,0.2-1.2,1-1,1.7
			s1,1.2,1.7,1l3.3-0.9l-0.6,1.2c-0.6,1.2-0.1,2.7,1.1,3.3c1.2,0.6,2.7,0.1,3.3-1.1l0.8-1.6l1.4,3.9c0.3,0.7,1.1,1.1,1.8,0.8
			c0.7-0.3,1.1-1.1,0.8-1.8l-2.3-6.2l1.7-3.3l3.3,8.7c0.3,0.7,1.1,1.1,1.8,0.8c0.7-0.3,1.1-1.1,0.8-1.8l-4.2-11.1l2.8-5.5l0.4,8.7
			c0,0.8,0.7,1.4,1.5,1.4c0.8,0,1.4-0.7,1.4-1.5l-0.5-9.2l3.1,4.9l-2.9,11.1c-0.2,0.8,0.2,1.5,1,1.7c0.7,0.2,1.5-0.2,1.7-1l2.3-8.6
			l2,3.1l-1.6,6.1c-0.2,0.8,0.2,1.5,1,1.7c0.7,0.2,1.5-0.2,1.7-1l1-3.6l1.5,2.4c0.7,1.1,2.2,1.5,3.4,0.7c1.1-0.7,1.5-2.3,0.7-3.4
			l-1.6-2.4l3.8,0.6c0.8,0.1,1.5-0.4,1.6-1.2c0.1-0.8-0.4-1.5-1.2-1.6l-6.3-1.1l-2-3.1l8.9,1.5c0.8,0.1,1.5-0.4,1.6-1.2
			c0.1-0.8-0.4-1.5-1.2-1.6l-11.4-1.9l-3-4.6l7.9,4.1c0.7,0.4,1.6,0.1,2-0.6c0.4-0.7,0.1-1.6-0.6-2l-7.8-4l6.3-0.3l8.4,8.4
			c0.5,0.5,1.4,0.5,2,0c0.5-0.5,0.5-1.4,0-2l-6.6-6.6l3.7-0.2l4.7,4.7c0.5,0.5,1.4,0.5,2,0c0.5-0.6,0.5-1.4,0-2l-2.9-2.9l1.9-0.1
			c1.4-0.1,2.4-1.2,2.3-2.6c-0.1-1.4-1.2-2.4-2.6-2.3l-1.5,0.1l2.2-2.7c0.5-0.6,0.4-1.5-0.2-2c-0.6-0.5-1.5-0.4-2,0.2l-3.8,4.7
			l-3.7,0.2l5.5-6.7c0.5-0.6,0.4-1.5-0.2-2c-0.6-0.5-1.5-0.4-2,0.2l-7.1,8.7l-7.1,0.4l7.8-5c0.7-0.4,0.9-1.3,0.4-2
			c-0.4-0.7-1.3-0.9-2-0.4l-7.3,4.7l3.6-7l10.6-2.9c0.7-0.2,1.2-1,1-1.7c-0.2-0.7-1-1.2-1.7-1l-8.1,2.2l1.7-3.3l5.6-1.5
			c0.7-0.2,1.2-1,1-1.7C696.6,119,695.8,118.5,695.1,118.7z"/>
		<path id="Fill-46" class="st3" d="M342,117.2l7.8,1.7c1.2,0.3,2.4-0.5,2.7-1.7c0.3-1.2-0.5-2.4-1.7-2.7l-5.1-1.1l2.6-2.7
			c1.1-1.2,1.1-3-0.1-4.1c-1.1-1.1-2.9-1.1-4,0.1l-2.2,2.3l-1.1-3.6c-0.4-1.2-1.6-1.8-2.8-1.5c-1.2,0.4-1.8,1.6-1.5,2.8l1.9,6
			l-6.1,6.4l-2.3-8l4.9-5.2c0.9-0.9,0.8-2.3-0.1-3.2c-0.9-0.9-2.3-0.8-3.2,0.1l-3.2,3.3l-1-3.5c-0.4-1.5-2-2.4-3.5-2
			c-1.5,0.4-2.4,2-1.9,3.6l1,3.5l-4.3-1.1c-1.2-0.3-2.4,0.4-2.7,1.7c-0.3,1.2,0.4,2.4,1.6,2.7l6.8,1.7l2.3,8l-8.6-2.1l-1.8-6.2
			c-0.3-1.2-1.6-1.9-2.8-1.5s-1.9,1.6-1.5,2.8l1.1,3.7l-2.9-0.7c-1.5-0.4-3.1,0.6-3.5,2.1c-0.4,1.5,0.6,3.1,2.1,3.5l3.5,0.9
			l-3.6,3.8c-0.9,0.9-0.8,2.3,0.1,3.2c0.9,0.9,2.3,0.8,3.2-0.1l5.4-5.7l8,2l-6.7,7l-6.2-1.5c-1.2-0.3-2.4,0.4-2.7,1.7
			c-0.3,1.2,0.4,2.4,1.6,2.7l3.7,0.9l-1.5,1.6c-1.1,1.2-1.1,3,0.1,4.1c1.1,1.1,2.9,1.1,4-0.1l2-2.2l1.5,5.1c0.3,1.2,1.6,1.9,2.8,1.5
			c1.2-0.3,1.9-1.6,1.5-2.8l-2.2-7.6l6.2-6.5l2.7,9.2l-4.8,5.4c-0.8,0.9-0.8,2.3,0.1,3.2c0.9,0.8,2.3,0.8,3.2-0.1l3-3.3l0.6,2.2
			c0.4,1.5,2,2.4,3.5,2c1.5-0.4,2.4-2,1.9-3.6l-0.7-2.4l4.4,1c1.2,0.3,2.4-0.5,2.7-1.7c0.3-1.2-0.5-2.4-1.7-2.7l-6.8-1.5l-2.7-9.2
			l8.5,2.1l2.4,7.6c0.4,1.2,1.6,1.8,2.8,1.5c1.2-0.4,1.8-1.6,1.5-2.8l-1.6-5l2.9,0.7c1.5,0.4,3.1-0.6,3.5-2.1
			c0.4-1.5-0.6-3.1-2.1-3.5l-2.4-0.6l2.6-2.8c0.8-0.9,0.8-2.3-0.1-3.2c-0.9-0.8-2.3-0.8-3.2,0.1l-4.2,4.7l-9.2-2.3L342,117.2"/>
		<path id="Fill-46_00000072253432863014281360000000086215484668179125_" class="st3" d="M636.2,197.7l7.8,1.7
			c1.2,0.3,2.4-0.5,2.7-1.7c0.3-1.2-0.5-2.4-1.7-2.7l-5.1-1.1l2.6-2.7c1.1-1.2,1.1-3-0.1-4.1c-1.1-1.1-2.9-1.1-4,0.1l-2.2,2.3
			l-1.1-3.6c-0.4-1.2-1.6-1.8-2.8-1.5c-1.2,0.4-1.8,1.6-1.5,2.8l1.9,6l-6.1,6.4l-2.3-8l4.9-5.2c0.9-0.9,0.8-2.3-0.1-3.2
			c-0.9-0.9-2.3-0.8-3.2,0.1l-3.2,3.3l-1-3.5c-0.4-1.5-2-2.4-3.5-2c-1.5,0.4-2.4,2-1.9,3.6l1,3.5l-4.3-1.1c-1.2-0.3-2.4,0.4-2.7,1.7
			s0.4,2.4,1.6,2.7l6.8,1.7l2.3,8l-8.6-2.1l-1.8-6.2c-0.3-1.2-1.6-1.9-2.8-1.5s-1.9,1.6-1.5,2.8l1.1,3.7l-2.9-0.7
			c-1.5-0.4-3.1,0.6-3.5,2.1c-0.4,1.5,0.6,3.1,2.1,3.5l3.5,0.9l-3.6,3.8c-0.9,0.9-0.8,2.3,0.1,3.2c0.9,0.9,2.3,0.8,3.2-0.1l5.4-5.7
			l8,2l-6.7,7l-6.2-1.5c-1.2-0.3-2.4,0.4-2.7,1.7c-0.3,1.2,0.4,2.4,1.6,2.7l3.7,0.9l-1.5,1.6c-1.1,1.2-1.1,3,0.1,4.1
			c1.1,1.1,2.9,1.1,4-0.1l2-2.2l1.5,5.1c0.3,1.2,1.6,1.9,2.8,1.5c1.2-0.3,1.9-1.6,1.5-2.8l-2.2-7.6l6.2-6.5l2.7,9.2l-4.8,5.4
			c-0.8,0.9-0.8,2.3,0.1,3.2c0.9,0.8,2.3,0.8,3.2-0.1l3-3.3l0.6,2.2c0.4,1.5,2,2.4,3.5,2c1.5-0.4,2.4-2,1.9-3.6l-0.7-2.4l4.4,1
			c1.2,0.3,2.4-0.5,2.7-1.7c0.3-1.2-0.5-2.4-1.7-2.7l-6.8-1.5l-2.7-9.2l8.5,2.1l2.4,7.6c0.4,1.2,1.6,1.8,2.8,1.5
			c1.2-0.4,1.8-1.6,1.5-2.8l-1.6-5l2.9,0.7c1.5,0.4,3.1-0.6,3.5-2.1c0.4-1.5-0.6-3.1-2.1-3.5l-2.4-0.6l2.6-2.8
			c0.8-0.9,0.8-2.3-0.1-3.2c-0.9-0.8-2.3-0.8-3.2,0.1l-4.2,4.7l-9.2-2.3L636.2,197.7"/>
		<path id="Fill-47" class="st4" d="M562,63c-0.2-1.6-1.6-2.8-3.3-2.6l-3.2,0.3l1.5-3.6c0.5-1.2-0.1-2.5-1.3-3
			c-1.2-0.5-2.5,0.1-3,1.3l-2.4,5.9l-9,1l3.4-7.8l7.3-0.8c1.3-0.1,2.2-1.3,2-2.5c-0.1-1.3-1.3-2.2-2.5-2l-4.7,0.5l1.5-3.5
			c0.7-1.5,0-3.2-1.5-3.9c-1.5-0.7-3.2,0-3.9,1.5l-1.5,3.4l-2.7-3.7c-0.8-1-2.2-1.3-3.2-0.5c-1,0.8-1.3,2.2-0.5,3.2l4.3,5.9
			l-3.4,7.8l-5.4-7.4l2.7-6c0.5-1.2,0-2.5-1.2-3c-1.2-0.5-2.5,0-3,1.2l-1.6,3.6l-1.8-2.5c-1-1.3-2.8-1.6-4.1-0.6
			c-1.3,1-1.6,2.8-0.6,4.1l2.2,3l-5.3,0.6c-1.3,0.1-2.2,1.3-2,2.5c0.1,1.3,1.3,2.2,2.5,2l8-0.9l5,6.8l-9.9,1.1l-3.9-5.3
			c-0.8-1-2.2-1.3-3.2-0.5c-1,0.8-1.3,2.2-0.5,3.2l2.3,3.1l-2.3,0.2c-1.6,0.2-2.8,1.6-2.6,3.3c0.2,1.6,1.6,2.8,3.3,2.6l3-0.3l-2.2,5
			c-0.5,1.2,0,2.5,1.2,3c1.2,0.5,2.5,0,3-1.2l3.3-7.4l9.1-1l-4,9l-7.4,1c-1.3,0.2-2.1,1.3-2,2.6c0.2,1.3,1.3,2.2,2.6,2l4.6-0.6
			l-1,2.2c-0.7,1.5,0,3.2,1.5,3.9c1.5,0.7,3.2,0,3.9-1.5l1-2.3l2.9,3.7c0.8,1,2.2,1.2,3.2,0.4c1-0.8,1.2-2.2,0.4-3.2l-4.4-5.7l3.9-9
			l5.4,7.3l-3.1,7.6c-0.5,1.2,0.1,2.5,1.3,3c1.2,0.5,2.5-0.1,3-1.3l2.1-5l1.8,2.5c1,1.3,2.8,1.6,4.1,0.6c1.3-1,1.6-2.8,0.6-4.1
			l-1.5-2l3.9-0.5c1.3-0.2,2.1-1.3,2-2.6c-0.2-1.3-1.3-2.2-2.6-2l-6.4,0.9l-5.8-7.9l8.3-0.9l5,6.5c0.8,1,2.2,1.2,3.2,0.4
			c1-0.8,1.2-2.2,0.4-3.2l-3.3-4.3l3.8-0.4C561,66,562.2,64.6,562,63z M552.1,65.4c1.1,1,6.9,6.3,5.3,7.5c-1.6,1.2-4.9-6.3-5.4-7.5
			c-2.7,0.2-5.6,0.3-7.9,0.3c-3.3,1.2-4,3.3-2.4,6.7c1.6,1.8,3.5,4.1,5.1,6.2c2.2-0.7,8.3-2.6,8.5-0.8c0.2,1.7-5.7,1.4-8.2,1.2
			c2.7,3.5,4.7,6.6,3.9,7.3c-0.9,0.7-3.3-2.5-5.9-6.3c-0.4,1.9-2,9-3.7,8.3c-1.8-0.8,2.6-7,3.6-8.4c-1.6-2.5-3.3-5.2-4.6-7.4
			c-2.6-2.2-4.7-1.7-6.9,1.5c-0.8,2.3-1.7,5-2.7,7.5c1.3,1.2,6.8,6.3,5.3,7.4c-1.5,1.1-4.6-5.4-5.3-7.2c-1.6,4.2-3.4,7.8-4.3,7.3
			c-1-0.4,0.3-3.9,2.2-7.9c-2.4,0.8-8.1,2.4-8.3,0.7c-0.2-1.8,6.2-1.3,8.5-1.1c1.3-2.8,2.9-5.8,4.2-8.1c0.5-3.3-0.9-4.9-4.6-5.2
			c-2.2,0.5-4.9,1-7.5,1.4c0,0.2-1.8,9.6-3.7,8.7c-2-0.9,3.6-8.5,3.7-8.7c-4.7,0.7-8.9,1.1-9-0.1c-0.1-1.1,3.5-1.7,7.8-2
			c-2-1.9-5.7-5.7-4.4-6.7c1.4-1,4,4.3,5,6.6c3-0.2,6.2-0.3,8.7-0.3c3.1-1.2,3.8-3.2,2.4-6.5c-1.5-1.7-3.2-3.7-4.8-5.8
			c-1,0.4-8.9,3.1-9.2,1c-0.2-2,7.9-1.2,9.1-1.1c-3.1-3.9-5.6-7.6-4.7-8.3c0.9-0.7,3.4,2.5,5.9,6.4c0.6-2.6,2-8.1,3.5-7.4
			c1.6,0.7-1.8,5.9-3.2,7.9c1.5,2.3,3.1,4.9,4.3,6.9c2.6,2.2,4.7,1.9,6.8-0.9c0.7-2.1,1.6-4.7,2.5-7.2c-1.5-1.4-6.6-6.2-5.1-7.3
			c1.4-1.1,4.3,4.9,5.2,7c1.7-4.5,3.6-8.4,4.6-8c1,0.5-0.6,4.5-2.7,8.9c2.1-0.7,8.4-2.6,8.6-0.8c0.2,1.9-6.8,1.3-8.8,1.1
			c-1.2,2.4-2.5,4.9-3.6,6.9c-0.6,3.5,0.7,5.2,4.2,5.6c2.3-0.5,5-1,7.7-1.4c0.5-2.4,1.9-8.5,3.5-7.8c1.5,0.7-1.6,5.6-3,7.7
			c4.4-0.7,8.3-0.9,8.4,0.2C561.1,64.5,556.9,65.1,552.1,65.4z"/>
		<path id="Fill-48" class="st5" d="M379,171l3.9-2.5l0.1-1.5l-1.4,0.1L379,171z M376,173l-3.9,2.5L372,177l1.4-0.1L376,173z
			 M375.7,164l-0.7,1.4l2,4.6l-0.2-5.1L375.7,164z M379.3,179l0.7-1.4l-2-4.6l0.2,5.1L379.3,179z M376,171l-4.5-2l-1.5,0.6l0.9,1.1
			L376,171z M379,172l4.5,2l1.5-0.6l-0.9-1.1L379,172z M389.1,187.6l4.1,1.2l-0.9-4.1l-2.8-0.9l-0.8-0.8l3.7,0.7l1.2-1.1l-1.2-1
			l-4.1,0.9l-4.4-4.7l3.7,0.7l1.2-1.1l-1.2-1l-4.1,0.9l-4.7-5l6.5-1.5l3,3.2l1.6-0.2l-0.4-1.6l-3.8-1.6l6.5-1.5l3,3.2l1.6-0.2
			l-0.4-1.6l-3.8-1.6l1.5-0.3l2.8,0.9l3.1-2.9l-4.1-1.3l-2.2,2l-1.2,0.3l2.5-2.8l-0.3-1.6l-1.5,0.5l-1.3,4l-6.3,1.4l2.5-2.8
			l-0.3-1.6l-1.5,0.5l-1.3,4l-6.6,1.5l2-6.4l4.2-1l0.6-1.5l-1.5-0.5l-3.2,2.4l1.9-6.2l4.2-1l0.6-1.5l-1.5-0.5l-3.2,2.4l0.4-1.4
			l2.2-2l-1-4.1l-3.1,2.9l0.7,2.9l-0.4,1.4l-1.3-3.8l-1.5-0.5l-0.3,1.6l2.9,3.2l-1.9,6.3l-1.3-3.8l-1.5-0.5l-0.3,1.6l2.9,3.2l-2,6.3
			l-4.6-5l1.2-4l-0.9-1.3l-1.2,1.1l0.5,3.8l-4.4-4.7l1.2-4l-0.9-1.3l-1.2,1.1l0.5,3.8l-0.8-0.9l-0.7-2.9l-4.1-1.2l0.9,4.1l2.8,0.9
			l1,1.1l-4.1-0.8l-1.2,1.1l1.2,1l4.3-1l4.5,4.9l-4.1-0.8l-1.2,1.1l1.2,1l4.3-1l4.5,4.9l-6.7,1.5l-2.9-3.1l-1.6,0.2l0.4,1.6l3.5,1.5
			l-6.3,1.4l-2.9-3.1l-1.6,0.2l0.4,1.6l3.5,1.5l-1.1,0.3l-2.8-0.9l-3.1,2.9l4.1,1.3l2.2-2l1.4-0.3l-2.7,3.1l0.3,1.6l1.5-0.5l1.3-4.2
			l6.5-1.5l-2.7,3.1l0.3,1.6l1.5-0.5l1.3-4.2l6.6-1.5l-2,6.6l-4.2,1l-0.6,1.5l1.5,0.5l3.2-2.4l-1.9,6.3l-4.2,1l-0.6,1.5l1.5,0.5
			l3.2-2.4l-0.4,1.2l-2.2,2l1,4.1l3.1-2.9l-0.7-2.9l0.4-1.1l1.3,3.7l1.5,0.5l0.3-1.6l-2.9-3.2l1.9-6.2l1.3,3.7l1.5,0.5l0.3-1.6
			l-2.9-3.2l2-6.6l4.6,4.9l-1.3,4.3l0.9,1.3l1.2-1.1l-0.5-4.1l4.5,4.9l-1.3,4.3l0.9,1.3l1.2-1.1l-0.5-4.1l1,1.1L389.1,187.6z"/>
		<path id="Fill-48_00000101820018359914448750000017243437492367151534_" class="st5" d="M317,285l3.9-2.5l0.1-1.5l-1.4,0.1
			L317,285z M314,287l-3.9,2.5L310,291l1.4-0.1L314,287z M313.7,278l-0.7,1.4l2,4.6l-0.2-5.1L313.7,278z M317.3,293l0.7-1.4l-2-4.6
			l0.2,5.1L317.3,293z M314,285l-4.5-2l-1.5,0.6l0.9,1.1L314,285z M317,286l4.5,2l1.5-0.6l-0.9-1.1L317,286z M327.1,301.6l4.1,1.2
			l-0.9-4.1l-2.8-0.9l-0.8-0.8l3.7,0.7l1.2-1.1l-1.2-1l-4.1,0.9l-4.4-4.7l3.7,0.7l1.2-1.1l-1.2-1l-4.1,0.9l-4.7-5l6.5-1.5l3,3.2
			l1.6-0.2l-0.4-1.6l-3.8-1.6l6.5-1.5l3,3.2l1.6-0.2l-0.4-1.6l-3.8-1.6l1.5-0.3l2.8,0.9l3.1-2.9l-4.1-1.3l-2.2,2l-1.2,0.3l2.5-2.8
			l-0.3-1.6l-1.5,0.5l-1.3,4l-6.3,1.4l2.5-2.8l-0.3-1.6l-1.5,0.5l-1.3,4l-6.6,1.5l2-6.4l4.2-1l0.6-1.5l-1.5-0.5l-3.2,2.4l1.9-6.2
			l4.2-1l0.6-1.5l-1.5-0.5l-3.2,2.4l0.4-1.4l2.2-2l-1-4.1l-3.1,2.9l0.7,2.9l-0.4,1.4l-1.3-3.8l-1.5-0.5l-0.3,1.6l2.9,3.2l-1.9,6.3
			l-1.3-3.8l-1.5-0.5l-0.3,1.6l2.9,3.2l-2,6.3l-4.6-5l1.2-4l-0.9-1.3l-1.2,1.1l0.5,3.8l-4.4-4.7l1.2-4l-0.9-1.3l-1.2,1.1l0.5,3.8
			l-0.8-0.9l-0.7-2.9l-4.1-1.2l0.9,4.1l2.8,0.9l1,1.1l-4.1-0.8l-1.2,1.1l1.2,1l4.3-1l4.5,4.9l-4.1-0.8l-1.2,1.1l1.2,1l4.3-1l4.5,4.9
			l-6.7,1.5l-2.9-3.1l-1.6,0.2l0.4,1.6l3.5,1.5l-6.3,1.4l-2.9-3.1l-1.6,0.2l0.4,1.6l3.5,1.5l-1.1,0.3l-2.8-0.9l-3.1,2.9l4.1,1.3
			l2.2-2l1.4-0.3l-2.7,3.1l0.3,1.6l1.5-0.5l1.3-4.2l6.5-1.5l-2.7,3.1l0.3,1.6l1.5-0.5l1.3-4.2l6.6-1.5l-2,6.6l-4.2,1l-0.6,1.5
			l1.5,0.5l3.2-2.4l-1.9,6.3l-4.2,1l-0.6,1.5l1.5,0.5l3.2-2.4l-0.4,1.2l-2.2,2l1,4.1l3.1-2.9l-0.7-2.9l0.4-1.1l1.3,3.7l1.5,0.5
			l0.3-1.6l-2.9-3.2l1.9-6.2l1.3,3.7l1.5,0.5l0.3-1.6l-2.9-3.2l2-6.6l4.6,4.9l-1.3,4.3l0.9,1.3l1.2-1.1l-0.5-4.1l4.5,4.9l-1.3,4.3
			l0.9,1.3l1.2-1.1l-0.5-4.1l1,1.1L327.1,301.6z"/>
		<path id="Fill-49" class="st5" d="M508.9,27.6l-2.3-4.5c-0.2-0.3-0.5-0.6-0.9-0.6L490.2,22l10.7-0.2c0.2,0,0.5-0.2,0.7-0.4
			l1.7-3.3c0.1-0.2,0-0.5-0.2-0.6l-3.1-2c-0.2-0.1-0.6-0.1-0.8,0l-10,5.4l14-8.3c0.3-0.2,0.5-0.6,0.5-0.9l-0.2-5
			c0-0.3-0.3-0.6-0.6-0.6l-5-0.3c-0.3,0-0.8,0.2-0.9,0.5l-8.3,13.3l5.2-9.5c0.1-0.2,0.1-0.6,0-0.8l-2-3.1c-0.1-0.2-0.4-0.3-0.6-0.2
			l-3.3,1.7c-0.2,0.1-0.4,0.4-0.4,0.7L487,19.4l-0.3-16.1c0-0.3-0.3-0.7-0.6-0.9l-4.5-2.3c-0.3-0.2-0.7-0.1-0.9,0.2l-2.8,4.2
			c-0.2,0.3-0.2,0.8,0,1l7.6,14.1l-5.7-9.5c-0.1-0.2-0.4-0.4-0.7-0.4l-3.7,0.2c-0.2,0-0.5,0.2-0.5,0.5l-0.2,3.7
			c0,0.2,0.1,0.6,0.4,0.7l8.9,5.5l-13.4-7.4c-0.3-0.2-0.8-0.1-1.1,0l-4.3,2.7c-0.3,0.2-0.4,0.6-0.2,0.9l2.3,4.5
			c0.2,0.3,0.6,0.6,0.9,0.6l16.6,0.5l-11.7,0.2c-0.2,0-0.5,0.2-0.7,0.4l-1.7,3.3c-0.1,0.2,0,0.5,0.2,0.6l3.1,2
			c0.2,0.1,0.6,0.1,0.8,0l9.1-4.9l-13.1,7.8c-0.3,0.2-0.5,0.6-0.5,0.9l0.2,5c0,0.3,0.3,0.6,0.6,0.6l5,0.3c0.3,0,0.8-0.2,0.9-0.5
			l8.7-13.9l-5.6,10.1c-0.1,0.2-0.1,0.6,0,0.8l2,3.1c0.1,0.2,0.4,0.3,0.6,0.2l3.3-1.7c0.2-0.1,0.4-0.4,0.4-0.7l0.3-10.7l0.3,15.5
			c0,0.3,0.3,0.7,0.6,0.9l4.5,2.3c0.3,0.2,0.7,0.1,0.9-0.2l2.8-4.2c0.2-0.3,0.2-0.7,0-1l-7.5-14l5.7,9.4c0.1,0.2,0.4,0.4,0.7,0.4
			l3.7-0.2c0.2,0,0.5-0.2,0.5-0.5l0.2-3.7c0-0.2-0.1-0.6-0.4-0.7l-9.5-5.9l14.1,7.8c0.3,0.2,0.8,0.2,1.1,0l4.3-2.7
			C509,28.3,509.1,27.9,508.9,27.6z M500.6,26.8l-10.1-4.1l-2.9-0.8l9.1,10l-9.3-9.7l0.5,2.3l4.1,11.1l-0.5,3.5l-2.1-2.8l-1.6-11
			l-0.8-3l-3.9,13l3.6-13.1l-1.7,1.6l-7.3,9.2l-3.2,1.3l1.3-3.3l8.5-6.9l2.2-2.2l-13,3.1l12.9-3.4l-2.2-0.7l-11.4-1.9l-2.7-2.2
			l3.4-0.5l10.1,4.1l2.9,0.8l-9.1-10l9.3,9.7l-0.5-2.3l-4.1-11.1l0.5-3.5l2.1,2.8l1.6,11l0.8,3l3.9-13l-3.5,13.1l1.7-1.6l7.3-9.2
			l3.2-1.3l-1.3,3.3l-8.5,6.9l-2.2,2.2l13-3.1l-12.9,3.4l2.2,0.7l11.4,1.9l2.7,2.2L500.6,26.8z"/>
		<path id="Path_00000095311018701159950920000006258723662653771932_" class="st6" d="M390.8,77.6l-3.3-3.3
			c-0.1-0.1-0.4-0.2-0.6-0.1l-2.2,0.6l-1.9-1.9l4-1.1c0.2,0,0.4-0.2,0.4-0.4l0.4-1.6c0-0.2,0-0.4-0.2-0.6l-1.2-1.2
			c-0.1-0.1-0.4-0.2-0.6-0.1l-6.2,1.7l-1.4-1.4l1.5-5.5l2-0.5l4.6,4.6c0.1,0.1,0.4,0.2,0.6,0.1l1.6-0.4c0.2,0,0.4-0.2,0.4-0.4
			l0.4-1.6c0-0.2,0-0.4-0.2-0.6l-2.9-2.9l2.6-0.7l1.6,1.6c0.1,0.1,0.4,0.2,0.6,0.1l4.5-1.2c0.2,0,0.4-0.2,0.4-0.4l1.2-4.5
			c0-0.2,0-0.4-0.2-0.6l-3.3-3.3c-0.1-0.1-0.4-0.2-0.6-0.1l-4.5,1.2c-0.2,0-0.4,0.2-0.4,0.4l-0.6,2.2l-2.6,0.7l1.1-4
			c0-0.2,0-0.4-0.1-0.6l-1.2-1.2c-0.1-0.1-0.4-0.2-0.6-0.1l-1.6,0.4c-0.2,0-0.4,0.2-0.4,0.4l-1.7,6.2l-1.9,0.5l-4-4.1l0.5-2l6.2-1.7
			c0.2,0,0.4-0.2,0.4-0.4l0.4-1.6c0-0.2,0-0.4-0.1-0.6l-1.2-1.2c-0.1-0.1-0.4-0.2-0.6-0.1l-4,1.1l0.7-2.6l2.2-0.6
			c0.2,0,0.4-0.2,0.4-0.4l1.2-4.5c0-0.2,0-0.4-0.1-0.6l-3.3-3.3c-0.1-0.1-0.4-0.2-0.6-0.1l-4.5,1.2c-0.2,0-0.4,0.2-0.4,0.4l-1.2,4.5
			c0,0.2,0,0.4,0.2,0.6l1.6,1.6l-0.7,2.6l-2.9-2.9c-0.1-0.1-0.4-0.2-0.6-0.1l-1.6,0.4c-0.2,0-0.4,0.2-0.4,0.4l-0.4,1.6
			c0,0.2,0,0.4,0.1,0.6l4.6,4.6l-0.5,1.9l-5.5,1.4l-1.4-1.4l1.7-6.2c0-0.2,0-0.4-0.1-0.6l-1.2-1.2c-0.1-0.1-0.4-0.2-0.6-0.1
			l-1.6,0.4c-0.2,0-0.4,0.2-0.4,0.4l-1.1,4l-1.9-1.9l0.6-2.2c0-0.2,0-0.4-0.1-0.6l-3.3-3.3c-0.1-0.1-0.4-0.2-0.6-0.1l-4.5,1.2
			c-0.2,0-0.4,0.2-0.4,0.4l-1.2,4.5c0,0.2,0,0.4,0.1,0.6l3.3,3.3c0.1,0.1,0.4,0.2,0.6,0.1l2.2-0.6l1.9,1.9l-4,1.1
			c-0.2,0-0.4,0.2-0.4,0.4l-0.4,1.6c0,0.2,0,0.4,0.2,0.6l1.2,1.2c0.1,0.1,0.4,0.2,0.6,0.1l6.2-1.7l1.4,1.4l-1.5,5.5l-2,0.5l-4.6-4.6
			c-0.1-0.1-0.4-0.2-0.6-0.1l-1.6,0.4c-0.2,0-0.4,0.2-0.4,0.4l-0.4,1.6c0,0.2,0,0.4,0.2,0.6l2.9,2.9l-2.6,0.7l-1.6-1.6
			c-0.1-0.1-0.4-0.2-0.6-0.1l-4.5,1.2c-0.2,0-0.4,0.2-0.4,0.4l-1.2,4.5c0,0.2,0,0.4,0.2,0.6l3.3,3.3c0.1,0.1,0.4,0.2,0.6,0.1
			l4.5-1.2c0.2,0,0.4-0.2,0.4-0.4l0.6-2.2l2.6-0.7l-1.1,4c0,0.2,0,0.4,0.1,0.6l1.2,1.2c0.1,0.1,0.4,0.2,0.6,0.1l1.6-0.4
			c0.2,0,0.4-0.2,0.4-0.4l1.7-6.2l1.9-0.5l4,4.1l-0.5,2l-6.2,1.7c-0.2,0-0.4,0.2-0.4,0.4l-0.4,1.6c0,0.2,0,0.4,0.2,0.6l1.2,1.2
			c0.1,0.1,0.4,0.2,0.6,0.1l4-1.1l-0.7,2.6l-2.2,0.6c-0.2,0-0.4,0.2-0.4,0.4l-1.2,4.5c0,0.2,0,0.4,0.2,0.6l3.3,3.3
			c0.1,0.1,0.4,0.2,0.6,0.1l4.5-1.2c0.2,0,0.4-0.2,0.4-0.4l1.2-4.5c0-0.2,0-0.4-0.2-0.6l-1.6-1.6l0.7-2.6l2.9,2.9
			c0.1,0.1,0.4,0.2,0.6,0.1l1.6-0.4c0.2,0,0.4-0.2,0.4-0.4l0.4-1.6c0-0.2,0-0.4-0.2-0.6l-4.6-4.6l0.5-1.9l5.5-1.4l1.4,1.4l-1.7,6.2
			c0,0.2,0,0.4,0.1,0.6l1.2,1.2c0.1,0.1,0.4,0.2,0.6,0.1l1.6-0.4c0.2,0,0.4-0.2,0.4-0.4l1.1-4l1.9,1.9l-0.6,2.2c0,0.2,0,0.4,0.2,0.6
			l3.3,3.3c0.1,0.1,0.4,0.2,0.6,0.1l4.5-1.2c0.2,0,0.4-0.2,0.4-0.4l1.2-4.5C391,78,390.9,77.7,390.8,77.6z"/>
		<path id="Fill-42_00000132053422186391233230000018250460457492690349_" class="st0" d="M371.6,370.4c-0.4-0.5-1.2-0.6-1.8-0.2
			l-2.8,2.4l-0.9-0.3l3.9-3.2c0.5-0.4,0.6-1.2,0.2-1.8c-0.4-0.5-1.2-0.6-1.8-0.2l-5,4.2l-1-0.4l3.3-2.7c0.5-0.4,0.6-1.2,0.2-1.8
			c-0.4-0.5-1.2-0.6-1.8-0.2l-4.4,3.6l-0.9-0.3l1.5-1.3c0.5-0.4,0.6-1.2,0.2-1.8c-0.4-0.5-1.2-0.6-1.8-0.2l-2.6,2.2l-4-1.4
			c0,0,0,0,0,0l0.1-0.2c0.1-0.4,0-1-0.2-1.3l-0.4-0.4l3.2-2.6l3.4,1.2c0.6,0.2,1.4-0.1,1.6-0.7c0.2-0.6-0.1-1.4-0.7-1.6l-2-0.7
			l0.7-0.6l5.5,2c0.7,0.2,1.4-0.1,1.6-0.7c0.2-0.6-0.1-1.4-0.7-1.6l-4.2-1.5l0.8-0.7l6.3,2.3c0.6,0.2,1.4-0.1,1.6-0.7
			c0.2-0.6-0.1-1.4-0.7-1.6l-4.9-1.8l0.7-0.6l3.6,1.3c0.7,0.2,1.4-0.1,1.6-0.7c0.2-0.6-0.1-1.4-0.7-1.6l-2.2-0.8l1.2-1
			c0.5-0.4,0.6-1.2,0.2-1.8c-0.4-0.5-1.2-0.6-1.8-0.2l-1.2,1l-0.4-2.2c-0.1-0.7-0.8-1.1-1.5-1c-0.7,0.1-1.1,0.8-1,1.4l0.6,3.6
			l-0.7,0.6l-0.9-5c-0.1-0.7-0.8-1.1-1.5-1c-0.7,0.1-1.1,0.8-1,1.4l1.1,6.4l-0.8,0.7l-0.7-4.2c-0.1-0.7-0.8-1.1-1.5-1
			c-0.7,0.1-1.1,0.8-1,1.4l1,5.6l-0.7,0.6l-0.3-2c-0.1-0.7-0.8-1.1-1.5-1c-0.7,0.1-1.1,0.8-1,1.4l0.6,3.4l-3.2,2.7
			c-0.3-0.3-0.8-0.5-1.2-0.4l-0.3,0l-0.7-4.1l2.8-2.3c0.5-0.4,0.6-1.2,0.2-1.8c-0.4-0.5-1.2-0.6-1.8-0.2l-1.6,1.4l-0.2-0.9l4.5-3.7
			c0.5-0.4,0.6-1.2,0.2-1.8c-0.4-0.5-1.2-0.6-1.8-0.2l-3.4,2.8l-0.2-1.1l5.1-4.3c0.5-0.4,0.6-1.2,0.2-1.8c-0.4-0.5-1.2-0.6-1.8-0.2
			l-4,3.3l-0.2-0.9l2.9-2.4c0.5-0.4,0.6-1.2,0.2-1.8c-0.4-0.5-1.2-0.6-1.8-0.2l-1.8,1.5L345,343c-0.1-0.7-0.8-1.1-1.5-1
			c-0.7,0.1-1.1,0.8-1,1.4l0.3,1.5l-2.1-0.8c-0.6-0.2-1.4,0.1-1.6,0.7c-0.2,0.6,0.1,1.4,0.7,1.6l3.5,1.3l0.2,0.9l-4.8-1.7
			c-0.7-0.2-1.4,0.1-1.6,0.7c-0.2,0.6,0.1,1.4,0.7,1.6l6.1,2.2l0.2,1.1l-4-1.5c-0.7-0.2-1.4,0.1-1.6,0.7c-0.2,0.6,0.1,1.4,0.7,1.6
			l5.4,2l0.2,0.9l-1.9-0.7c-0.6-0.2-1.4,0.1-1.6,0.7c-0.2,0.6,0.1,1.4,0.7,1.6l3.2,1.2l0.7,4.1l-0.2,0c-0.4,0.1-0.9,0.5-1,0.9l0,0
			c0,0,0,0,0,0l-3.9-1.4l-0.6-3.5c-0.1-0.7-0.8-1.1-1.5-1c-0.7,0.1-1.1,0.8-1,1.4l0.4,2.1l-0.9-0.3l-1-5.7c-0.1-0.7-0.8-1.1-1.5-1
			c-0.7,0.1-1.1,0.8-1,1.4l0.8,4.3l-1-0.4l-1.1-6.5c-0.1-0.7-0.8-1.1-1.5-1c-0.7,0.1-1.1,0.8-1,1.4l0.9,5.1l-0.9-0.3l-0.7-3.8
			c-0.1-0.7-0.8-1.1-1.5-1c-0.7,0.1-1.1,0.8-1,1.4l0.4,2.3l-1.5-0.5c-0.7-0.2-1.4,0.1-1.6,0.7c-0.2,0.6,0.1,1.4,0.7,1.6l1.4,0.5
			l-1.7,1.4c-0.5,0.4-0.6,1.2-0.2,1.8c0.4,0.5,1.2,0.6,1.8,0.2l2.8-2.3l0.9,0.3l-3.9,3.2c-0.5,0.4-0.6,1.2-0.2,1.8
			c0.4,0.5,1.2,0.6,1.8,0.2l5-4.2l1,0.4l-3.3,2.7c-0.5,0.4-0.6,1.2-0.2,1.8c0.4,0.5,1.2,0.6,1.8,0.2l4.4-3.6l0.9,0.3l-1.5,1.3
			c-0.5,0.4-0.6,1.2-0.2,1.8c0.4,0.5,1.2,0.6,1.8,0.2l2.6-2.2l4,1.4c0,0,0,0,0,0l-0.2,0.4c-0.1,0.4,0,1,0.2,1.3l0.2,0.3l-3.2,2.6
			l-3.4-1.2c-0.7-0.2-1.4,0.1-1.6,0.7c-0.2,0.6,0.1,1.4,0.7,1.6l2,0.7l-0.7,0.6l-5.5-2c-0.7-0.2-1.4,0.1-1.6,0.7
			c-0.2,0.6,0.1,1.4,0.7,1.6l4.2,1.5l-0.8,0.7l-6.3-2.3c-0.6-0.2-1.4,0.1-1.6,0.7c-0.2,0.6,0.1,1.4,0.7,1.6l4.9,1.8l-0.7,0.6
			l-3.6-1.3c-0.7-0.2-1.4,0.1-1.6,0.7c-0.2,0.6,0.1,1.4,0.7,1.6l2.2,0.8l-1.2,1c-0.5,0.4-0.6,1.2-0.2,1.8c0.4,0.5,1.2,0.6,1.8,0.2
			l1.2-1l0.4,2.2c0.1,0.7,0.8,1.1,1.5,1c0.7-0.1,1.1-0.8,1-1.4l-0.6-3.6l0.7-0.6l0.9,5c0.1,0.7,0.8,1.1,1.5,1c0.7-0.1,1.1-0.8,1-1.4
			l-1.1-6.4l0.8-0.7l0.7,4.2c0.1,0.7,0.8,1.1,1.4,1c0.7-0.1,1.1-0.8,1-1.4l-1-5.6l0.7-0.6l0.3,2c0.1,0.7,0.8,1.1,1.5,1
			c0.7-0.1,1.1-0.8,1-1.4l-0.6-3.4l3.2-2.7l0.1,0.1c0.3,0.3,0.9,0.5,1.3,0.5l0.3,0c0,0,0,0,0,0.1l0.7,4.1l-2.8,2.3
			c-0.5,0.4-0.6,1.2-0.2,1.8c0.4,0.5,1.2,0.6,1.8,0.2l1.6-1.4l0.2,0.9l-4.5,3.7c-0.5,0.4-0.6,1.2-0.2,1.8c0.4,0.5,1.2,0.6,1.8,0.2
			l3.4-2.8l0.2,1.1l-5.1,4.3c-0.5,0.4-0.6,1.2-0.2,1.8c0.4,0.5,1.2,0.6,1.8,0.2l4-3.3l0.2,0.9l-2.9,2.4c-0.5,0.4-0.6,1.2-0.2,1.8
			c0.4,0.5,1.2,0.6,1.8,0.2l1.8-1.5l0.3,1.6c0.1,0.7,0.8,1.1,1.5,1c0.7-0.1,1.1-0.8,1-1.4l-0.3-1.5l2.1,0.8c0.7,0.2,1.4-0.1,1.6-0.7
			c0.2-0.6-0.1-1.4-0.7-1.6l-3.5-1.3l-0.2-0.9l4.8,1.7c0.7,0.2,1.4-0.1,1.6-0.7c0.2-0.6-0.1-1.4-0.7-1.6l-6.1-2.2l-0.2-1.1l4,1.5
			c0.6,0.2,1.4-0.1,1.6-0.7c0.2-0.6-0.1-1.4-0.7-1.6l-5.4-2l-0.2-0.9l1.9,0.7c0.7,0.2,1.4-0.1,1.6-0.7c0.2-0.6-0.1-1.4-0.7-1.6
			l-3.2-1.2l-0.7-4.2c0,0,0,0,0-0.1l0.2,0c0.4-0.1,0.9-0.5,1-0.9l0.1-0.2c0,0,0,0,0,0l3.9,1.4l0.6,3.5c0.1,0.7,0.8,1.1,1.5,1
			c0.7-0.1,1.1-0.8,1-1.4l-0.4-2.1l0.9,0.3l1,5.7c0.1,0.7,0.8,1.1,1.5,1c0.7-0.1,1.1-0.8,1-1.4l-0.8-4.3l1,0.4l1.1,6.5
			c0.1,0.7,0.8,1.1,1.5,1c0.7-0.1,1.1-0.8,1-1.4l-0.9-5.1l0.9,0.3l0.7,3.8c0.1,0.7,0.8,1.1,1.5,1c0.7-0.1,1.1-0.8,1-1.4l-0.4-2.3
			l1.5,0.5c0.7,0.2,1.4-0.1,1.6-0.7c0.2-0.6-0.1-1.4-0.7-1.6l-1.4-0.5l1.7-1.4C372,371.7,372.1,370.9,371.6,370.4z M349.9,366.7
			l-0.3,0.6c-0.1,0.3-0.5,0.5-0.9,0.6l-0.8,0.1c-0.4,0-0.9-0.1-1.1-0.3l-0.5-0.5c-0.2-0.2-0.3-0.6-0.2-0.9l0.3-0.6
			c0.1-0.3,0.5-0.5,0.9-0.6l0.8-0.1c0.4,0,0.9,0.1,1.1,0.3l0.5,0.5C350,366,350.1,366.4,349.9,366.7z"/>
		<path id="Fill-49_00000110444241425351053210000011758245354147783576_" class="st5" d="M400.9,319.6l-2.3-4.5
			c-0.2-0.3-0.5-0.6-0.9-0.6l-15.6-0.5l10.7-0.2c0.2,0,0.5-0.2,0.7-0.4l1.7-3.3c0.1-0.2,0-0.5-0.2-0.6l-3.1-2
			c-0.2-0.1-0.6-0.1-0.8,0l-10,5.4l14-8.3c0.3-0.2,0.5-0.6,0.5-0.9l-0.2-5c0-0.3-0.3-0.6-0.6-0.6l-5-0.3c-0.3,0-0.8,0.2-0.9,0.5
			l-8.3,13.3l5.2-9.5c0.1-0.2,0.1-0.6,0-0.8l-2-3.1c-0.1-0.2-0.4-0.3-0.6-0.2l-3.3,1.7c-0.2,0.1-0.4,0.4-0.4,0.7l-0.3,11.2
			l-0.3-16.1c0-0.3-0.3-0.7-0.6-0.9l-4.5-2.3c-0.3-0.2-0.7-0.1-0.9,0.2l-2.8,4.2c-0.2,0.3-0.2,0.8,0,1l7.6,14.1l-5.7-9.5
			c-0.1-0.2-0.4-0.4-0.7-0.4l-3.7,0.2c-0.2,0-0.5,0.2-0.5,0.5l-0.2,3.7c0,0.2,0.1,0.6,0.4,0.7l8.9,5.5l-13.4-7.4
			c-0.3-0.2-0.8-0.1-1.1,0l-4.3,2.7c-0.3,0.2-0.4,0.6-0.2,0.9l2.3,4.5c0.2,0.3,0.6,0.6,0.9,0.6l16.6,0.5l-11.7,0.2
			c-0.2,0-0.5,0.2-0.7,0.4l-1.7,3.3c-0.1,0.2,0,0.5,0.2,0.6l3.1,2c0.2,0.1,0.6,0.1,0.8,0l9.1-4.9l-13.1,7.8
			c-0.3,0.2-0.5,0.6-0.5,0.9l0.2,5c0,0.3,0.3,0.6,0.6,0.6l5,0.3c0.3,0,0.8-0.2,0.9-0.5l8.7-13.9l-5.6,10.1c-0.1,0.2-0.1,0.6,0,0.8
			l2,3.1c0.1,0.2,0.4,0.3,0.6,0.2l3.3-1.7c0.2-0.1,0.4-0.4,0.4-0.7l0.3-10.7l0.3,15.5c0,0.3,0.3,0.7,0.6,0.9l4.5,2.3
			c0.3,0.2,0.7,0.1,0.9-0.2l2.8-4.2c0.2-0.3,0.2-0.7,0-1l-7.5-14l5.7,9.4c0.1,0.2,0.4,0.4,0.7,0.4l3.7-0.2c0.2,0,0.5-0.2,0.5-0.5
			l0.2-3.7c0-0.2-0.1-0.6-0.4-0.7l-9.5-5.9l14.1,7.8c0.3,0.2,0.8,0.2,1.1,0l4.3-2.7C401,320.3,401.1,319.9,400.9,319.6z
			 M392.6,318.8l-10.1-4.1l-2.9-0.8l9.1,10l-9.3-9.7l0.5,2.3l4.1,11.1l-0.5,3.5l-2.1-2.8l-1.6-11l-0.8-3l-3.9,13l3.6-13.1l-1.7,1.6
			l-7.3,9.2l-3.2,1.3l1.3-3.3l8.5-6.9l2.2-2.2l-13,3.1l12.9-3.4l-2.2-0.7l-11.4-1.9l-2.7-2.2l3.4-0.5l10.1,4.1l2.9,0.8l-9.1-10
			l9.3,9.7l-0.5-2.3l-4.1-11.1l0.5-3.5l2.1,2.8l1.6,11l0.8,3l3.9-13l-3.5,13.1l1.7-1.6l7.3-9.2l3.2-1.3l-1.3,3.3l-8.5,6.9l-2.2,2.2
			l13-3.1l-12.9,3.4l2.2,0.7l11.4,1.9l2.7,2.2L392.6,318.8z"/>
		<path id="Path_00000066476271261633630030000013089807871047332494_" class="st6" d="M282.8,369.3l-3.3-3.3
			c-0.1-0.1-0.4-0.2-0.6-0.1l-2.2,0.6l-1.9-1.9l4-1.1c0.2,0,0.4-0.2,0.4-0.4l0.4-1.6c0-0.2,0-0.4-0.2-0.6l-1.2-1.2
			c-0.1-0.1-0.4-0.2-0.6-0.1l-6.2,1.7l-1.4-1.4l1.5-5.5l2-0.5l4.6,4.6c0.1,0.1,0.4,0.2,0.6,0.1l1.6-0.4c0.2,0,0.4-0.2,0.4-0.4
			l0.4-1.6c0-0.2,0-0.4-0.2-0.6l-2.9-2.9l2.6-0.7l1.6,1.6c0.1,0.1,0.4,0.2,0.6,0.1l4.5-1.2c0.2,0,0.4-0.2,0.4-0.4l1.2-4.5
			c0-0.2,0-0.4-0.2-0.6l-3.3-3.3c-0.1-0.1-0.4-0.2-0.6-0.1l-4.5,1.2c-0.2,0-0.4,0.2-0.4,0.4l-0.6,2.2l-2.6,0.7l1.1-4
			c0-0.2,0-0.4-0.1-0.6l-1.2-1.2c-0.1-0.1-0.4-0.2-0.6-0.1l-1.6,0.4c-0.2,0-0.4,0.2-0.4,0.4l-1.7,6.2l-1.9,0.5l-4-4.1l0.5-2l6.2-1.7
			c0.2,0,0.4-0.2,0.4-0.4l0.4-1.6c0-0.2,0-0.4-0.1-0.6l-1.2-1.2c-0.1-0.1-0.4-0.2-0.6-0.1l-4,1.1l0.7-2.6l2.2-0.6
			c0.2,0,0.4-0.2,0.4-0.4l1.2-4.5c0-0.2,0-0.4-0.1-0.6l-3.3-3.3c-0.1-0.1-0.4-0.2-0.6-0.1l-4.5,1.2c-0.2,0-0.4,0.2-0.4,0.4l-1.2,4.5
			c0,0.2,0,0.4,0.2,0.6l1.6,1.6l-0.7,2.6l-2.9-2.9c-0.1-0.1-0.4-0.2-0.6-0.1l-1.6,0.4c-0.2,0-0.4,0.2-0.4,0.4l-0.4,1.6
			c0,0.2,0,0.4,0.1,0.6l4.6,4.6l-0.5,1.9l-5.5,1.4l-1.4-1.4l1.7-6.2c0-0.2,0-0.4-0.1-0.6l-1.2-1.2c-0.1-0.1-0.4-0.2-0.6-0.1
			l-1.6,0.4c-0.2,0-0.4,0.2-0.4,0.4l-1.1,4l-1.9-1.9l0.6-2.2c0-0.2,0-0.4-0.1-0.6l-3.3-3.3c-0.1-0.1-0.4-0.2-0.6-0.1l-4.5,1.2
			c-0.2,0-0.4,0.2-0.4,0.4l-1.2,4.5c0,0.2,0,0.4,0.1,0.6l3.3,3.3c0.1,0.1,0.4,0.2,0.6,0.1l2.2-0.6l1.9,1.9l-4,1.1
			c-0.2,0-0.4,0.2-0.4,0.4l-0.4,1.6c0,0.2,0,0.4,0.2,0.6l1.2,1.2c0.1,0.1,0.4,0.2,0.6,0.1l6.2-1.7l1.4,1.4l-1.5,5.5l-2,0.5l-4.6-4.6
			c-0.1-0.1-0.4-0.2-0.6-0.1l-1.6,0.4c-0.2,0-0.4,0.2-0.4,0.4l-0.4,1.6c0,0.2,0,0.4,0.2,0.6l2.9,2.9l-2.6,0.7l-1.6-1.6
			c-0.1-0.1-0.4-0.2-0.6-0.1l-4.5,1.2c-0.2,0-0.4,0.2-0.4,0.4l-1.2,4.5c0,0.2,0,0.4,0.2,0.6l3.3,3.3c0.1,0.1,0.4,0.2,0.6,0.1
			l4.5-1.2c0.2,0,0.4-0.2,0.4-0.4l0.6-2.2l2.6-0.7l-1.1,4c0,0.2,0,0.4,0.1,0.6l1.2,1.2c0.1,0.1,0.4,0.2,0.6,0.1l1.6-0.4
			c0.2,0,0.4-0.2,0.4-0.4l1.7-6.2l1.9-0.5l4,4.1l-0.5,2l-6.2,1.7c-0.2,0-0.4,0.2-0.4,0.4l-0.4,1.6c0,0.2,0,0.4,0.2,0.6l1.2,1.2
			c0.1,0.1,0.4,0.2,0.6,0.1l4-1.1l-0.7,2.6l-2.2,0.6c-0.2,0-0.4,0.2-0.4,0.4l-1.2,4.5c0,0.2,0,0.4,0.2,0.6l3.3,3.3
			c0.1,0.1,0.4,0.2,0.6,0.1l4.5-1.2c0.2,0,0.4-0.2,0.4-0.4l1.2-4.5c0-0.2,0-0.4-0.2-0.6l-1.6-1.6l0.7-2.6l2.9,2.9
			c0.1,0.1,0.4,0.2,0.6,0.1l1.6-0.4c0.2,0,0.4-0.2,0.4-0.4l0.4-1.6c0-0.2,0-0.4-0.2-0.6l-4.6-4.6l0.5-1.9l5.5-1.4l1.4,1.4l-1.7,6.2
			c0,0.2,0,0.4,0.1,0.6l1.2,1.2c0.1,0.1,0.4,0.2,0.6,0.1l1.6-0.4c0.2,0,0.4-0.2,0.4-0.4l1.1-4l1.9,1.9l-0.6,2.2c0,0.2,0,0.4,0.2,0.6
			l3.3,3.3c0.1,0.1,0.4,0.2,0.6,0.1l4.5-1.2c0.2,0,0.4-0.2,0.4-0.4l1.2-4.5C283,369.6,282.9,369.4,282.8,369.3z"/>
		<path id="Fill-42_00000109739752130176847710000001233767105440749192_" class="st0" d="M557.6,207.4c-0.4-0.5-1.2-0.6-1.8-0.2
			l-2.8,2.4l-0.9-0.3l3.9-3.2c0.5-0.4,0.6-1.2,0.2-1.8c-0.4-0.5-1.2-0.6-1.8-0.2l-5,4.2l-1-0.4l3.3-2.7c0.5-0.4,0.6-1.2,0.2-1.8
			c-0.4-0.5-1.2-0.6-1.8-0.2l-4.4,3.6l-0.9-0.3l1.5-1.3c0.5-0.4,0.6-1.2,0.2-1.8c-0.4-0.5-1.2-0.6-1.8-0.2l-2.6,2.2l-4-1.4
			c0,0,0,0,0,0l0.1-0.2c0.1-0.4,0-1-0.2-1.3l-0.4-0.4l3.2-2.6l3.4,1.2c0.6,0.2,1.4-0.1,1.6-0.7c0.2-0.6-0.1-1.4-0.7-1.6l-2-0.7
			l0.7-0.6l5.5,2c0.7,0.2,1.4-0.1,1.6-0.7c0.2-0.6-0.1-1.4-0.7-1.6l-4.2-1.5l0.8-0.7l6.3,2.3c0.6,0.2,1.4-0.1,1.6-0.7
			c0.2-0.6-0.1-1.4-0.7-1.6l-4.9-1.8l0.7-0.6l3.6,1.3c0.7,0.2,1.4-0.1,1.6-0.7c0.2-0.6-0.1-1.4-0.7-1.6l-2.2-0.8l1.2-1
			c0.5-0.4,0.6-1.2,0.2-1.8c-0.4-0.5-1.2-0.6-1.8-0.2l-1.2,1l-0.4-2.2c-0.1-0.7-0.8-1.1-1.5-1c-0.7,0.1-1.1,0.8-1,1.4l0.6,3.6
			l-0.7,0.6l-0.9-5c-0.1-0.7-0.8-1.1-1.5-1c-0.7,0.1-1.1,0.8-1,1.4l1.1,6.4l-0.8,0.7l-0.7-4.2c-0.1-0.7-0.8-1.1-1.5-1
			c-0.7,0.1-1.1,0.8-1,1.4l1,5.6l-0.7,0.6l-0.3-2c-0.1-0.7-0.8-1.1-1.5-1c-0.7,0.1-1.1,0.8-1,1.4l0.6,3.4l-3.2,2.7
			c-0.3-0.3-0.8-0.5-1.2-0.4l-0.3,0l-0.7-4.1l2.8-2.3c0.5-0.4,0.6-1.2,0.2-1.8c-0.4-0.5-1.2-0.6-1.8-0.2l-1.6,1.4l-0.2-0.9l4.5-3.7
			c0.5-0.4,0.6-1.2,0.2-1.8c-0.4-0.5-1.2-0.6-1.8-0.2l-3.4,2.8l-0.2-1.1l5.1-4.3c0.5-0.4,0.6-1.2,0.2-1.8c-0.4-0.5-1.2-0.6-1.8-0.2
			l-4,3.3l-0.2-0.9l2.9-2.4c0.5-0.4,0.6-1.2,0.2-1.8c-0.4-0.5-1.2-0.6-1.8-0.2l-1.8,1.5L531,180c-0.1-0.7-0.8-1.1-1.5-1
			c-0.7,0.1-1.1,0.8-1,1.4l0.3,1.5l-2.1-0.8c-0.6-0.2-1.4,0.1-1.6,0.7c-0.2,0.6,0.1,1.4,0.7,1.6l3.5,1.3l0.2,0.9l-4.8-1.7
			c-0.7-0.2-1.4,0.1-1.6,0.7c-0.2,0.6,0.1,1.4,0.7,1.6l6.1,2.2l0.2,1.1l-4-1.5c-0.7-0.2-1.4,0.1-1.6,0.7c-0.2,0.6,0.1,1.4,0.7,1.6
			l5.4,2l0.2,0.9l-1.9-0.7c-0.6-0.2-1.4,0.1-1.6,0.7c-0.2,0.6,0.1,1.4,0.7,1.6l3.2,1.2l0.7,4.1l-0.2,0c-0.4,0.1-0.9,0.5-1,0.9l0,0
			c0,0,0,0,0,0l-3.9-1.4l-0.6-3.5c-0.1-0.7-0.8-1.1-1.5-1c-0.7,0.1-1.1,0.8-1,1.4l0.4,2.1l-0.9-0.3l-1-5.7c-0.1-0.7-0.8-1.1-1.5-1
			c-0.7,0.1-1.1,0.8-1,1.4l0.8,4.3l-1-0.4l-1.1-6.5c-0.1-0.7-0.8-1.1-1.5-1c-0.7,0.1-1.1,0.8-1,1.4l0.9,5.1l-0.9-0.3l-0.7-3.8
			c-0.1-0.7-0.8-1.1-1.5-1c-0.7,0.1-1.1,0.8-1,1.4l0.4,2.3l-1.5-0.5c-0.7-0.2-1.4,0.1-1.6,0.7c-0.2,0.6,0.1,1.4,0.7,1.6l1.4,0.5
			l-1.7,1.4c-0.5,0.4-0.6,1.2-0.2,1.8c0.4,0.5,1.2,0.6,1.8,0.2l2.8-2.3l0.9,0.3l-3.9,3.2c-0.5,0.4-0.6,1.2-0.2,1.8
			c0.4,0.5,1.2,0.6,1.8,0.2l5-4.2l1,0.4l-3.3,2.7c-0.5,0.4-0.6,1.2-0.2,1.8c0.4,0.5,1.2,0.6,1.8,0.2l4.4-3.6l0.9,0.3l-1.5,1.3
			c-0.5,0.4-0.6,1.2-0.2,1.8c0.4,0.5,1.2,0.6,1.8,0.2l2.6-2.2l4,1.4c0,0,0,0,0,0l-0.2,0.4c-0.1,0.4,0,1,0.2,1.3l0.2,0.3l-3.2,2.6
			l-3.4-1.2c-0.7-0.2-1.4,0.1-1.6,0.7c-0.2,0.6,0.1,1.4,0.7,1.6l2,0.7l-0.7,0.6l-5.5-2c-0.7-0.2-1.4,0.1-1.6,0.7
			c-0.2,0.6,0.1,1.4,0.7,1.6l4.2,1.5l-0.8,0.7l-6.3-2.3c-0.6-0.2-1.4,0.1-1.6,0.7c-0.2,0.6,0.1,1.4,0.7,1.6l4.9,1.8l-0.7,0.6
			l-3.6-1.3c-0.7-0.2-1.4,0.1-1.6,0.7c-0.2,0.6,0.1,1.4,0.7,1.6l2.2,0.8l-1.2,1c-0.5,0.4-0.6,1.2-0.2,1.8c0.4,0.5,1.2,0.6,1.8,0.2
			l1.2-1l0.4,2.2c0.1,0.7,0.8,1.1,1.5,1c0.7-0.1,1.1-0.8,1-1.4l-0.6-3.6l0.7-0.6l0.9,5c0.1,0.7,0.8,1.1,1.5,1c0.7-0.1,1.1-0.8,1-1.4
			l-1.1-6.4l0.8-0.7l0.7,4.2c0.1,0.7,0.8,1.1,1.4,1c0.7-0.1,1.1-0.8,1-1.4l-1-5.6l0.7-0.6l0.3,2c0.1,0.7,0.8,1.1,1.5,1
			c0.7-0.1,1.1-0.8,1-1.4l-0.6-3.4l3.2-2.7l0.1,0.1c0.3,0.3,0.9,0.5,1.3,0.5l0.3,0c0,0,0,0,0,0.1l0.7,4.1l-2.8,2.3
			c-0.5,0.4-0.6,1.2-0.2,1.8c0.4,0.5,1.2,0.6,1.8,0.2l1.6-1.4l0.2,0.9l-4.5,3.7c-0.5,0.4-0.6,1.2-0.2,1.8c0.4,0.5,1.2,0.6,1.8,0.2
			l3.4-2.8l0.2,1.1l-5.1,4.3c-0.5,0.4-0.6,1.2-0.2,1.8c0.4,0.5,1.2,0.6,1.8,0.2l4-3.3l0.2,0.9l-2.9,2.4c-0.5,0.4-0.6,1.2-0.2,1.8
			c0.4,0.5,1.2,0.6,1.8,0.2l1.8-1.5l0.3,1.6c0.1,0.7,0.8,1.1,1.5,1c0.7-0.1,1.1-0.8,1-1.4l-0.3-1.5l2.1,0.8c0.7,0.2,1.4-0.1,1.6-0.7
			c0.2-0.6-0.1-1.4-0.7-1.6l-3.5-1.3l-0.2-0.9l4.8,1.7c0.7,0.2,1.4-0.1,1.6-0.7c0.2-0.6-0.1-1.4-0.7-1.6l-6.1-2.2l-0.2-1.1l4,1.5
			c0.6,0.2,1.4-0.1,1.6-0.7c0.2-0.6-0.1-1.4-0.7-1.6l-5.4-2l-0.2-0.9l1.9,0.7c0.7,0.2,1.4-0.1,1.6-0.7c0.2-0.6-0.1-1.4-0.7-1.6
			l-3.2-1.2l-0.7-4.2c0,0,0,0,0-0.1l0.2,0c0.4-0.1,0.9-0.5,1-0.9l0.1-0.2c0,0,0,0,0,0l3.9,1.4l0.6,3.5c0.1,0.7,0.8,1.1,1.5,1
			c0.7-0.1,1.1-0.8,1-1.4l-0.4-2.1l0.9,0.3l1,5.7c0.1,0.7,0.8,1.1,1.5,1c0.7-0.1,1.1-0.8,1-1.4l-0.8-4.3l1,0.4l1.1,6.5
			c0.1,0.7,0.8,1.1,1.5,1c0.7-0.1,1.1-0.8,1-1.4l-0.9-5.1l0.9,0.3l0.7,3.8c0.1,0.7,0.8,1.1,1.5,1c0.7-0.1,1.1-0.8,1-1.4l-0.4-2.3
			l1.5,0.5c0.7,0.2,1.4-0.1,1.6-0.7c0.2-0.6-0.1-1.4-0.7-1.6l-1.4-0.5l1.7-1.4C558,208.7,558.1,207.9,557.6,207.4z M535.9,203.7
			l-0.3,0.6c-0.1,0.3-0.5,0.5-0.9,0.6l-0.8,0.1c-0.4,0-0.9-0.1-1.1-0.3l-0.5-0.5c-0.2-0.2-0.3-0.6-0.2-0.9l0.3-0.6
			c0.1-0.3,0.5-0.5,0.9-0.6l0.8-0.1c0.4,0,0.9,0.1,1.1,0.3l0.5,0.5C536,203,536.1,203.4,535.9,203.7z"/>
		<path id="Fill-44_00000008107903955933321410000010945749304063721098_" class="st1" d="M489.4,252.1
			C489.4,252.1,489.4,252.1,489.4,252.1c0.1,0,0.2-0.1,0.2-0.1l4.2,1.2c0,0,0,0.1,0.1,0.1c0,0,0.1,0.1,0.1,0.1l1,4.2
			c0,0-0.1,0.1-0.1,0.1c0,0.1,0,0.1,0,0.2l-3.2,3c0,0,0,0-0.1,0c0,0,0,0,0,0c0,0,0,0,0,0c-0.1,0-0.1,0-0.2,0.1l-4.2-1.2
			c0,0,0-0.1-0.1-0.1c0,0-0.1-0.1-0.1-0.1l-1-4.2c0,0,0.1-0.1,0.1-0.1c0-0.1,0-0.1,0-0.2L489.4,252.1
			C489.3,252.1,489.3,252.1,489.4,252.1z M485.5,235c-0.1,0-0.1,0-0.2,0c-0.5,0.1-0.7,0.6-0.6,1.1l0.2,0.8l-1.2-0.5
			c-0.1,0-0.2-0.1-0.3-0.1c-0.3,0-0.6,0.2-0.7,0.5c-0.2,0.4,0,0.9,0.4,1l2.3,1l0.4,1.6l-2.8-1.2c-0.1,0-0.2-0.1-0.3-0.1
			c-0.3,0-0.6,0.2-0.7,0.5c-0.2,0.4,0,0.9,0.4,1l3.9,1.7l0.4,1.5l-4.3-1.9c-0.1,0-0.2-0.1-0.3-0.1c-0.3,0-0.6,0.2-0.7,0.5
			c-0.2,0.4,0,0.9,0.4,1l5.4,2.3l0.6,2.4l-2-0.9c-0.1,0-0.2-0.1-0.3-0.1c-0.3,0-0.6,0.2-0.7,0.5c-0.2,0.4,0,0.9,0.4,1l3.1,1.4l0.5,2
			l-2.8,2.7l-1.9-0.6l-1.2-3.2c-0.1-0.3-0.4-0.5-0.7-0.5c-0.1,0-0.2,0-0.3,0.1c-0.4,0.2-0.6,0.6-0.5,1l0.8,2.1l-2.3-0.7l-2.1-5.5
			c-0.1-0.3-0.4-0.5-0.7-0.5c-0.1,0-0.2,0-0.3,0.1c-0.4,0.2-0.6,0.6-0.5,1l1.7,4.4l-1.5-0.4l-1.5-4c-0.1-0.3-0.4-0.5-0.7-0.5
			c-0.1,0-0.2,0-0.3,0.1c-0.4,0.2-0.6,0.6-0.5,1l1.1,2.9l-1.5-0.5l-0.9-2.4c-0.1-0.3-0.4-0.5-0.7-0.5c-0.1,0-0.2,0-0.3,0.1
			c-0.4,0.2-0.6,0.6-0.5,1l0.5,1.3l-0.8-0.2c-0.1,0-0.2,0-0.2,0c-0.4,0-0.7,0.2-0.8,0.6c-0.1,0.5,0.1,1,0.6,1.1l0.8,0.2l-1.1,0.8
			c-0.3,0.3-0.4,0.8-0.2,1.1c0.2,0.2,0.4,0.3,0.6,0.3c0.2,0,0.3,0,0.5-0.2l2-1.5l1.5,0.5l-2.5,1.9c-0.3,0.3-0.4,0.8-0.2,1.1
			c0.2,0.2,0.4,0.3,0.6,0.3c0.2,0,0.3-0.1,0.5-0.2l3.4-2.6l1.5,0.4l-3.7,2.8c-0.3,0.3-0.4,0.7-0.2,1.1c0.2,0.2,0.4,0.3,0.6,0.3
			c0.2,0,0.3-0.1,0.5-0.2l4.7-3.5l2.3,0.7l-1.8,1.3c-0.3,0.3-0.4,0.8-0.2,1.1c0.2,0.2,0.4,0.3,0.6,0.3c0.2,0,0.3,0,0.5-0.2l2.7-2
			l2,0.6l0.9,3.8l-1.4,1.4l-3.4-0.6c0,0-0.1,0-0.1,0c-0.4,0-0.7,0.3-0.8,0.7c-0.1,0.4,0.2,0.8,0.6,0.9l2.2,0.4l-1.7,1.7l-5.8-1
			c0,0-0.1,0-0.1,0c-0.4,0-0.7,0.3-0.8,0.7c-0.1,0.4,0.2,0.8,0.6,0.9l4.6,0.8l-1.1,1.1l-4.2-0.7c0,0-0.1,0-0.1,0
			c-0.4,0-0.7,0.3-0.8,0.7c-0.1,0.4,0.2,0.8,0.6,0.9l3.1,0.5l-1.2,1.1l-2.5-0.4c0,0-0.1,0-0.1,0c-0.4,0-0.7,0.3-0.8,0.7
			c-0.1,0.4,0.2,0.8,0.6,0.9l1.3,0.2l-0.6,0.6c-0.3,0.3-0.4,0.9,0,1.2c0.2,0.2,0.4,0.3,0.6,0.3c0.2,0,0.4-0.1,0.6-0.2l0.6-0.6
			l0.1,1.3c0,0.4,0.4,0.7,0.8,0.7c0,0,0.1,0,0.1,0c0.4-0.1,0.7-0.4,0.7-0.9l-0.3-2.5l1.2-1.1l0.3,3.1c0,0.4,0.4,0.7,0.8,0.7
			c0,0,0.1,0,0.1,0c0.4,0,0.7-0.4,0.7-0.9l-0.5-4.3l1.1-1.1l0.5,4.7c0,0.4,0.4,0.7,0.8,0.7c0,0,0.1,0,0.1,0c0.4-0.1,0.7-0.4,0.7-0.9
			l-0.7-5.9l1.7-1.7l0.3,2.2c0,0.4,0.4,0.7,0.8,0.7c0,0,0.1,0,0.1,0c0.4,0,0.7-0.4,0.7-0.9l-0.4-3.4l1.5-1.4l3.7,1.1l0.5,2l-2.2,2.7
			c-0.3,0.3-0.2,0.8,0.1,1.1c0.1,0.1,0.3,0.2,0.5,0.2c0.2,0,0.4-0.1,0.6-0.3l1.4-1.7l0.6,2.4l-3.7,4.6c-0.3,0.3-0.2,0.8,0.1,1.1
			c0.1,0.1,0.3,0.2,0.5,0.2c0.2,0,0.4-0.1,0.6-0.3l3-3.7l0.4,1.5l-2.7,3.3c-0.3,0.3-0.2,0.8,0.1,1.1c0.1,0.1,0.3,0.2,0.5,0.2
			c0.2,0,0.4-0.1,0.6-0.3l2-2.4l0.4,1.6l-1.6,2c-0.3,0.3-0.2,0.8,0.1,1.1c0.1,0.1,0.3,0.2,0.5,0.2c0.2,0,0.4-0.1,0.6-0.3l0.9-1
			l0.2,0.8c0.1,0.4,0.5,0.7,0.8,0.7c0.1,0,0.1,0,0.2,0c0.5-0.1,0.8-0.6,0.6-1.1l-0.2-0.8l1.2,0.5c0.1,0,0.2,0.1,0.3,0.1
			c0.3,0,0.6-0.2,0.7-0.5c0.2-0.4,0-0.9-0.4-1l-2.3-1l-0.4-1.6l2.8,1.2c0.1,0,0.2,0.1,0.3,0.1c0.3,0,0.6-0.2,0.7-0.5
			c0.2-0.4,0-0.9-0.4-1l-3.9-1.7l-0.4-1.5l4.3,1.9c0.1,0,0.2,0.1,0.3,0.1c0.3,0,0.6-0.2,0.7-0.5c0.2-0.4,0-0.9-0.4-1l-5.3-2.3
			l-0.6-2.4l2,0.9c0.1,0,0.2,0.1,0.3,0.1c0.3,0,0.6-0.2,0.7-0.5c0.2-0.4,0-0.9-0.4-1l-3.1-1.4l-0.5-2l2.8-2.7l1.9,0.6l1.2,3.2
			c0.1,0.3,0.4,0.5,0.7,0.5c0.1,0,0.2,0,0.3-0.1c0.4-0.2,0.6-0.6,0.5-1l-0.8-2.1l2.3,0.7l2.1,5.5c0.1,0.3,0.4,0.5,0.7,0.5
			c0.1,0,0.2,0,0.3-0.1c0.4-0.2,0.6-0.6,0.5-1l-1.6-4.4l1.5,0.4l1.5,4c0.1,0.3,0.4,0.5,0.7,0.5c0.1,0,0.2,0,0.3,0
			c0.4-0.2,0.6-0.6,0.5-1l-1.1-2.9l1.5,0.5l0.9,2.4c0.1,0.3,0.4,0.5,0.7,0.5c0.1,0,0.2,0,0.3-0.1c0.4-0.2,0.6-0.6,0.5-1l-0.5-1.3
			l0.8,0.2c0.1,0,0.2,0,0.2,0c0.4,0,0.7-0.2,0.8-0.6c0.1-0.5-0.1-0.9-0.6-1.1l-0.8-0.2l1.1-0.8c0.3-0.3,0.4-0.8,0.2-1.1
			c-0.2-0.2-0.4-0.3-0.6-0.3c-0.2,0-0.3,0-0.5,0.2l-2,1.5l-1.5-0.5l2.5-1.9c0.3-0.3,0.4-0.7,0.2-1.1c-0.2-0.2-0.4-0.3-0.6-0.3
			c-0.2,0-0.3,0-0.5,0.2l-3.4,2.6l-1.5-0.4l3.7-2.8c0.3-0.3,0.4-0.8,0.2-1.1c-0.2-0.2-0.4-0.3-0.6-0.3c-0.2,0-0.3,0.1-0.5,0.2
			l-4.7,3.5l-2.3-0.7l1.8-1.3c0.3-0.3,0.4-0.8,0.2-1.1c-0.2-0.2-0.4-0.3-0.6-0.3c-0.2,0-0.3,0.1-0.5,0.2l-2.7,2l-2-0.6l-0.9-3.8
			l1.5-1.4l3.4,0.6c0,0,0.1,0,0.1,0c0.4,0,0.7-0.3,0.8-0.7c0.1-0.4-0.2-0.8-0.6-0.9l-2.2-0.4l1.7-1.7l5.8,1c0,0,0.1,0,0.1,0
			c0.4,0,0.7-0.3,0.8-0.7c0.1-0.4-0.2-0.8-0.6-0.9l-4.6-0.8l1.1-1.1l4.2,0.7c0,0,0.1,0,0.1,0c0.4,0,0.7-0.3,0.8-0.7
			c0.1-0.4-0.2-0.8-0.6-0.9l-3.1-0.5l1.2-1.1l2.5,0.4c0,0,0.1,0,0.1,0c0.4,0,0.7-0.3,0.8-0.7c0.1-0.4-0.2-0.8-0.6-0.9l-1.3-0.2
			l0.6-0.6c0.3-0.3,0.4-0.9,0-1.2c-0.2-0.2-0.4-0.3-0.6-0.3c-0.2,0-0.4,0.1-0.6,0.2l-0.6,0.6l-0.1-1.3c0-0.4-0.4-0.7-0.8-0.7
			c0,0-0.1,0-0.1,0c-0.4,0.1-0.7,0.4-0.7,0.9l0.3,2.5l-1.2,1.1l-0.4-3.1c0-0.4-0.4-0.7-0.8-0.7c0,0-0.1,0-0.1,0
			c-0.4,0.1-0.7,0.4-0.7,0.9l0.5,4.3l-1.1,1.1l-0.5-4.7c0-0.4-0.4-0.7-0.8-0.7c0,0-0.1,0-0.1,0c-0.4,0-0.7,0.4-0.7,0.9l0.7,5.9
			l-1.7,1.7l-0.3-2.2c0-0.4-0.4-0.7-0.8-0.7c0,0-0.1,0-0.1,0c-0.4,0.1-0.7,0.4-0.7,0.9l0.4,3.4l-1.5,1.4l-3.7-1.1l-0.5-2l2.2-2.7
			c0.3-0.3,0.2-0.8-0.1-1.1c-0.1-0.1-0.3-0.2-0.5-0.2c-0.2,0-0.4,0.1-0.6,0.3l-1.4,1.7l-0.6-2.4l3.7-4.6c0.3-0.3,0.2-0.8-0.1-1.1
			c-0.1-0.1-0.3-0.2-0.5-0.2c-0.2,0-0.4,0.1-0.6,0.3l-3,3.7l-0.4-1.5l2.7-3.3c0.3-0.3,0.2-0.8-0.1-1.1c-0.1-0.1-0.3-0.2-0.5-0.2
			c-0.2,0-0.4,0.1-0.6,0.3l-2,2.4l-0.4-1.6l1.6-2c0.3-0.3,0.2-0.8-0.1-1.1c-0.1-0.1-0.3-0.2-0.5-0.2c-0.2,0-0.4,0.1-0.6,0.3
			l-0.9,1.1l-0.2-0.8C486.2,235.3,485.8,235,485.5,235z"/>
		<path id="Fill-45" class="st6" d="M589.6,240.7l-3.1,0.8l0-0.1c0.6-1.2,0.1-2.7-1.1-3.3c-1.2-0.6-2.7-0.1-3.3,1.1l-0.4,0.7
			l-1.5-4.1c-0.3-0.7-1.1-1.1-1.8-0.8c-0.7,0.3-1.1,1.1-0.8,1.8l2.4,6.5l-1.7,3.3l-3.3-9c-0.3-0.7-1.1-1.1-1.8-0.8
			c-0.7,0.3-1.1,1.1-0.8,1.8l4.2,11.3l-3.5,6.9l-0.5-9.4c0-0.8-0.7-1.4-1.5-1.4c-0.8,0-1.4,0.7-1.4,1.5l0.4,8.9l-3.5-5.4l3-11.3
			c0.2-0.8-0.2-1.5-1-1.7c-0.7-0.2-1.5,0.2-1.7,1l-2.3,8.8l-2-3.1l1.7-6.3c0.2-0.8-0.2-1.5-1-1.7c-0.7-0.2-1.5,0.2-1.7,1l-1,3.8
			l-0.9-1.4c-0.7-1.1-2.2-1.5-3.4-0.7c-1.1,0.7-1.5,2.3-0.7,3.4l0.8,1.2l-3.6-0.6c-0.8-0.1-1.5,0.4-1.6,1.2
			c-0.1,0.8,0.4,1.5,1.2,1.6l6.1,1l2,3.1l-8.7-1.5c-0.8-0.1-1.5,0.4-1.6,1.2c-0.1,0.8,0.4,1.5,1.2,1.6l11.2,1.9l3.7,5.8l-8.1-4.2
			c-0.7-0.4-1.6-0.1-2,0.6c-0.4,0.7-0.1,1.6,0.6,2l8.2,4.2l-7.7,0.4l-8-8c-0.5-0.5-1.4-0.5-2,0c-0.5,0.6-0.5,1.4,0,2l6.2,6.2
			l-3.7,0.2l-4.3-4.3c-0.5-0.5-1.4-0.5-2,0c-0.5,0.6-0.5,1.4,0,2l2.5,2.5l-0.7,0c-1.4,0.1-2.4,1.2-2.3,2.6c0.1,1.4,1.2,2.4,2.6,2.3
			l1-0.1l-2.5,3.1c-0.5,0.6-0.4,1.5,0.2,2c0.6,0.5,1.5,0.4,2-0.2l4.2-5.1l3.7-0.2l-5.8,7.1c-0.5,0.6-0.4,1.5,0.2,2
			c0.6,0.5,1.5,0.4,2-0.2l7.5-9.1l6.9-0.3l-7.4,4.8c-0.7,0.4-0.9,1.3-0.4,2c0.4,0.7,1.3,0.9,2,0.4l7.9-5.1l-3.3,6.5l-10.8,2.9
			c-0.7,0.2-1.2,1-1,1.7c0.2,0.7,1,1.2,1.7,1l8.3-2.3l-1.7,3.3l-5.8,1.6c-0.7,0.2-1.2,1-1,1.7s1,1.2,1.7,1l3.3-0.9l-0.6,1.2
			c-0.6,1.2-0.1,2.7,1.1,3.3c1.2,0.6,2.7,0.1,3.3-1.1l0.8-1.6l1.4,3.9c0.3,0.7,1.1,1.1,1.8,0.8c0.7-0.3,1.1-1.1,0.8-1.8l-2.3-6.2
			l1.7-3.3l3.3,8.7c0.3,0.7,1.1,1.1,1.8,0.8c0.7-0.3,1.1-1.1,0.8-1.8l-4.2-11.1l2.8-5.5l0.4,8.7c0,0.8,0.7,1.4,1.5,1.4
			c0.8,0,1.4-0.7,1.4-1.5l-0.5-9.2l3.1,4.9l-2.9,11.1c-0.2,0.8,0.2,1.5,1,1.7c0.7,0.2,1.5-0.2,1.7-1l2.3-8.6l2,3.1l-1.6,6.1
			c-0.2,0.8,0.2,1.5,1,1.7c0.7,0.2,1.5-0.2,1.7-1l1-3.6l1.5,2.4c0.7,1.1,2.2,1.5,3.4,0.7c1.1-0.7,1.5-2.3,0.7-3.4l-1.6-2.4l3.8,0.6
			c0.8,0.1,1.5-0.4,1.6-1.2c0.1-0.8-0.4-1.5-1.2-1.6l-6.3-1.1l-2-3.1l8.9,1.5c0.8,0.1,1.5-0.4,1.6-1.2c0.1-0.8-0.4-1.5-1.2-1.6
			l-11.4-1.9l-3-4.6l7.9,4.1c0.7,0.4,1.6,0.1,2-0.6c0.4-0.7,0.1-1.6-0.6-2l-7.8-4l6.3-0.3l8.4,8.4c0.5,0.5,1.4,0.5,2,0
			c0.5-0.5,0.5-1.4,0-2l-6.6-6.6l3.7-0.2l4.7,4.7c0.5,0.5,1.4,0.5,2,0c0.5-0.6,0.5-1.4,0-2l-2.9-2.9l1.9-0.1
			c1.4-0.1,2.4-1.2,2.3-2.6c-0.1-1.4-1.2-2.4-2.6-2.3l-1.5,0.1l2.2-2.7c0.5-0.6,0.4-1.5-0.2-2c-0.6-0.5-1.5-0.4-2,0.2l-3.8,4.7
			l-3.7,0.2l5.5-6.7c0.5-0.6,0.4-1.5-0.2-2c-0.6-0.5-1.5-0.4-2,0.2l-7.1,8.7l-7.1,0.4l7.8-5c0.7-0.4,0.9-1.3,0.4-2
			c-0.4-0.7-1.3-0.9-2-0.4l-7.3,4.7l3.6-7l10.6-2.9c0.7-0.2,1.2-1,1-1.7c-0.2-0.8-1-1.2-1.7-1l-8.1,2.2l1.7-3.3l5.6-1.5
			c0.7-0.2,1.2-1,1-1.7C591.1,241,590.3,240.5,589.6,240.7z"/>
		<path id="Fill-45_00000139256080849997477010000010687062592311604408_" class="st6" d="M322.4,180.7l-3.1,0.8l0-0.1
			c0.6-1.2,0.1-2.7-1.1-3.3c-1.2-0.6-2.7-0.1-3.3,1.1l-0.4,0.7l-1.5-4.1c-0.3-0.7-1.1-1.1-1.8-0.8c-0.7,0.3-1.1,1.1-0.8,1.8l2.4,6.5
			l-1.7,3.3l-3.3-9c-0.3-0.7-1.1-1.1-1.8-0.8c-0.7,0.3-1.1,1.1-0.8,1.8l4.2,11.3l-3.5,6.9l-0.5-9.4c0-0.8-0.7-1.4-1.5-1.4
			c-0.8,0-1.4,0.7-1.4,1.5l0.4,8.9l-3.5-5.4l3-11.3c0.2-0.8-0.2-1.5-1-1.7c-0.7-0.2-1.5,0.2-1.7,1l-2.3,8.8l-2-3.1l1.7-6.3
			c0.2-0.8-0.2-1.5-1-1.7c-0.7-0.2-1.5,0.2-1.7,1l-1,3.8l-0.9-1.4c-0.7-1.1-2.2-1.5-3.4-0.7c-1.1,0.7-1.5,2.3-0.7,3.4l0.8,1.2
			l-3.6-0.6c-0.8-0.1-1.5,0.4-1.6,1.2c-0.1,0.8,0.4,1.5,1.2,1.6l6.1,1l2,3.1l-8.7-1.5c-0.8-0.1-1.5,0.4-1.6,1.2
			c-0.1,0.8,0.4,1.5,1.2,1.6l11.2,1.9l3.7,5.8l-8.1-4.2c-0.7-0.4-1.6-0.1-2,0.6c-0.4,0.7-0.1,1.6,0.6,2l8.2,4.2l-7.7,0.4l-8-8
			c-0.5-0.5-1.4-0.5-2,0c-0.5,0.6-0.5,1.4,0,2l6.2,6.2l-3.7,0.2l-4.3-4.3c-0.5-0.5-1.4-0.5-2,0c-0.5,0.6-0.5,1.4,0,2l2.5,2.5l-0.7,0
			c-1.4,0.1-2.4,1.2-2.3,2.6c0.1,1.4,1.2,2.4,2.6,2.3l1-0.1l-2.5,3.1c-0.5,0.6-0.4,1.5,0.2,2c0.6,0.5,1.5,0.4,2-0.2l4.2-5.1l3.7-0.2
			l-5.8,7.1c-0.5,0.6-0.4,1.5,0.2,2c0.6,0.5,1.5,0.4,2-0.2l7.5-9.1l6.9-0.3l-7.4,4.8c-0.7,0.4-0.9,1.3-0.4,2c0.4,0.7,1.3,0.9,2,0.4
			l7.9-5.1l-3.3,6.5l-10.8,2.9c-0.7,0.2-1.2,1-1,1.7c0.2,0.7,1,1.2,1.7,1l8.3-2.3l-1.7,3.3l-5.8,1.6c-0.7,0.2-1.2,1-1,1.7
			c0.2,0.7,1,1.2,1.7,1l3.3-0.9l-0.6,1.2c-0.6,1.2-0.1,2.7,1.1,3.3c1.2,0.6,2.7,0.1,3.3-1.1l0.8-1.6l1.4,3.9
			c0.3,0.7,1.1,1.1,1.8,0.8c0.7-0.3,1.1-1.1,0.8-1.8l-2.3-6.2l1.7-3.3l3.3,8.7c0.3,0.7,1.1,1.1,1.8,0.8c0.7-0.3,1.1-1.1,0.8-1.8
			l-4.2-11.1l2.8-5.5l0.4,8.7c0,0.8,0.7,1.4,1.5,1.4c0.8,0,1.4-0.7,1.4-1.5l-0.5-9.2l3.1,4.9l-2.9,11.1c-0.2,0.8,0.2,1.5,1,1.7
			c0.7,0.2,1.5-0.2,1.7-1l2.3-8.6l2,3.1l-1.6,6.1c-0.2,0.8,0.2,1.5,1,1.7c0.7,0.2,1.5-0.2,1.7-1l1-3.6l1.5,2.4
			c0.7,1.1,2.2,1.5,3.4,0.7c1.1-0.7,1.5-2.3,0.7-3.4l-1.6-2.4l3.8,0.6c0.8,0.1,1.5-0.4,1.6-1.2c0.1-0.8-0.4-1.5-1.2-1.6l-6.3-1.1
			l-2-3.1l8.9,1.5c0.8,0.1,1.5-0.4,1.6-1.2s-0.4-1.5-1.2-1.6l-11.4-1.9l-3-4.6l7.9,4.1c0.7,0.4,1.6,0.1,2-0.6c0.4-0.7,0.1-1.6-0.6-2
			l-7.8-4l6.3-0.3l8.4,8.4c0.5,0.5,1.4,0.5,2,0c0.5-0.5,0.5-1.4,0-2l-6.6-6.6l3.7-0.2l4.7,4.7c0.5,0.5,1.4,0.5,2,0
			c0.5-0.6,0.5-1.4,0-2l-2.9-2.9l1.9-0.1c1.4-0.1,2.4-1.2,2.3-2.6c-0.1-1.4-1.2-2.4-2.6-2.3l-1.5,0.1l2.2-2.7c0.5-0.6,0.4-1.5-0.2-2
			c-0.6-0.5-1.5-0.4-2,0.2l-3.8,4.7l-3.7,0.2l5.5-6.7c0.5-0.6,0.4-1.5-0.2-2c-0.6-0.5-1.5-0.4-2,0.2l-7.1,8.7l-7.1,0.4l7.8-5
			c0.7-0.4,0.9-1.3,0.4-2c-0.4-0.7-1.3-0.9-2-0.4l-7.3,4.7l3.6-7l10.6-2.9c0.7-0.2,1.2-1,1-1.7c-0.2-0.8-1-1.2-1.7-1l-8.1,2.2
			l1.7-3.3l5.6-1.5c0.7-0.2,1.2-1,1-1.7C323.9,181,323.1,180.5,322.4,180.7z"/>
		<path id="Fill-46_00000144331071513990109870000001096821613963097488_" class="st3" d="M612.2,81.3l7.8,1.7
			c1.2,0.3,2.4-0.5,2.7-1.7c0.3-1.2-0.5-2.4-1.7-2.7l-5.1-1.1l2.6-2.7c1.1-1.2,1.1-3-0.1-4.1c-1.1-1.1-2.9-1.1-4,0.1l-2.2,2.3
			l-1.1-3.6c-0.4-1.2-1.6-1.8-2.8-1.5c-1.2,0.4-1.8,1.6-1.5,2.8l1.9,6l-6.1,6.4l-2.3-8l4.9-5.2c0.9-0.9,0.8-2.3-0.1-3.2
			c-0.9-0.9-2.3-0.8-3.2,0.1l-3.2,3.3l-1-3.5c-0.4-1.5-2-2.4-3.5-2c-1.5,0.4-2.4,2-1.9,3.6l1,3.5l-4.3-1.1c-1.2-0.3-2.4,0.4-2.7,1.7
			c-0.3,1.2,0.4,2.4,1.6,2.7l6.8,1.7l2.3,8l-8.6-2.1l-1.8-6.2c-0.3-1.2-1.6-1.9-2.8-1.5s-1.9,1.6-1.5,2.8l1.1,3.7l-2.9-0.7
			c-1.5-0.4-3.1,0.6-3.5,2.1c-0.4,1.5,0.6,3.1,2.1,3.5l3.5,0.9l-3.6,3.8c-0.9,0.9-0.8,2.3,0.1,3.2c0.9,0.9,2.3,0.8,3.2-0.1l5.4-5.7
			l8,2l-6.7,7l-6.2-1.5c-1.2-0.3-2.4,0.4-2.7,1.7c-0.3,1.2,0.4,2.4,1.6,2.7l3.7,0.9l-1.5,1.6c-1.1,1.2-1.1,3,0.1,4.1
			c1.1,1.1,2.9,1.1,4-0.1l2-2.2l1.5,5.1c0.3,1.2,1.6,1.9,2.8,1.5c1.2-0.3,1.9-1.6,1.5-2.8l-2.2-7.6l6.2-6.5l2.7,9.2l-4.8,5.4
			c-0.8,0.9-0.8,2.3,0.1,3.2c0.9,0.8,2.3,0.8,3.2-0.1l3-3.3l0.6,2.2c0.4,1.5,2,2.4,3.5,2c1.5-0.4,2.4-2,1.9-3.6l-0.7-2.4l4.4,1
			c1.2,0.3,2.4-0.5,2.7-1.7c0.3-1.2-0.5-2.4-1.7-2.7L608,102l-2.7-9.2l8.5,2.1l2.4,7.6c0.4,1.2,1.6,1.8,2.8,1.5
			c1.2-0.4,1.8-1.6,1.5-2.8l-1.6-5l2.9,0.7c1.5,0.4,3.1-0.6,3.5-2.1c0.4-1.5-0.6-3.1-2.1-3.5l-2.4-0.6l2.6-2.8
			c0.8-0.9,0.8-2.3-0.1-3.2c-0.9-0.8-2.3-0.8-3.2,0.1l-4.2,4.7l-9.2-2.3L612.2,81.3"/>
		<path id="Fill-46_00000124145490591528297560000007134932962243880635_" class="st3" d="M260.9,284.7l7.8,1.7
			c1.2,0.3,2.4-0.5,2.7-1.7c0.3-1.2-0.5-2.4-1.7-2.7l-5.1-1.1l2.6-2.7c1.1-1.2,1.1-3-0.1-4.1c-1.1-1.1-2.9-1.1-4,0.1l-2.2,2.3
			l-1.1-3.6c-0.4-1.2-1.6-1.8-2.8-1.5c-1.2,0.4-1.8,1.6-1.5,2.8l1.9,6l-6.1,6.4l-2.3-8l4.9-5.2c0.9-0.9,0.8-2.3-0.1-3.2
			c-0.9-0.9-2.3-0.8-3.2,0.1l-3.2,3.3l-1-3.5c-0.4-1.5-2-2.4-3.5-2c-1.5,0.4-2.4,2-1.9,3.6l1,3.5l-4.3-1.1c-1.2-0.3-2.4,0.4-2.7,1.7
			c-0.3,1.2,0.4,2.4,1.6,2.7l6.8,1.7l2.3,8l-8.6-2.1l-1.8-6.2c-0.3-1.2-1.6-1.9-2.8-1.5c-1.2,0.3-1.9,1.6-1.5,2.8l1.1,3.7l-2.9-0.7
			c-1.5-0.4-3.1,0.6-3.5,2.1c-0.4,1.5,0.6,3.1,2.1,3.5l3.5,0.9l-3.6,3.8c-0.9,0.9-0.8,2.3,0.1,3.2c0.9,0.9,2.3,0.8,3.2-0.1l5.4-5.7
			l8,2l-6.7,7l-6.2-1.5c-1.2-0.3-2.4,0.4-2.7,1.7c-0.3,1.2,0.4,2.4,1.6,2.7l3.7,0.9l-1.5,1.6c-1.1,1.2-1.1,3,0.1,4.1
			c1.1,1.1,2.9,1.1,4-0.1l2-2.2l1.5,5.1c0.3,1.2,1.6,1.9,2.8,1.5c1.2-0.3,1.9-1.6,1.5-2.8l-2.2-7.6l6.2-6.5l2.7,9.2l-4.8,5.4
			c-0.8,0.9-0.8,2.3,0.1,3.2c0.9,0.8,2.3,0.8,3.2-0.1l3-3.3l0.6,2.2c0.4,1.5,2,2.4,3.5,2c1.5-0.4,2.4-2,1.9-3.6l-0.7-2.4l4.4,1
			c1.2,0.3,2.4-0.5,2.7-1.7c0.3-1.2-0.5-2.4-1.7-2.7l-6.8-1.5l-2.7-9.2l8.5,2.1l2.4,7.6c0.4,1.2,1.6,1.8,2.8,1.5
			c1.2-0.4,1.8-1.6,1.5-2.8l-1.6-5l2.9,0.7c1.5,0.4,3.1-0.6,3.5-2.1c0.4-1.5-0.6-3.1-2.1-3.5l-2.4-0.6l2.6-2.8
			c0.8-0.9,0.8-2.3-0.1-3.2c-0.9-0.8-2.3-0.8-3.2,0.1l-4.2,4.7l-9.2-2.3L260.9,284.7"/>
		<path id="Fill-47_00000010281717184818770130000008357852360741193096_" class="st4" d="M420,240c-0.2-1.6-1.6-2.8-3.3-2.6
			l-3.2,0.3l1.5-3.6c0.5-1.2-0.1-2.5-1.3-3c-1.2-0.5-2.5,0.1-3,1.3l-2.4,5.9l-9,1l3.4-7.8l7.3-0.8c1.3-0.1,2.2-1.3,2-2.5
			c-0.1-1.3-1.3-2.2-2.5-2l-4.7,0.5l1.5-3.5c0.7-1.5,0-3.2-1.5-3.9c-1.5-0.7-3.2,0-3.9,1.5l-1.5,3.4l-2.7-3.7
			c-0.8-1-2.2-1.3-3.2-0.5c-1,0.8-1.3,2.2-0.5,3.2l4.3,5.9l-3.4,7.8l-5.4-7.4l2.7-6c0.5-1.2,0-2.5-1.2-3c-1.2-0.5-2.5,0-3,1.2
			l-1.6,3.6l-1.8-2.5c-1-1.3-2.8-1.6-4.1-0.6c-1.3,1-1.6,2.8-0.6,4.1l2.2,3l-5.3,0.6c-1.3,0.1-2.2,1.3-2,2.5c0.1,1.3,1.3,2.2,2.5,2
			l8-0.9l5,6.8l-9.9,1.1l-3.9-5.3c-0.8-1-2.2-1.3-3.2-0.5c-1,0.8-1.3,2.2-0.5,3.2l2.3,3.1l-2.3,0.2c-1.6,0.2-2.8,1.6-2.6,3.3
			c0.2,1.6,1.6,2.8,3.3,2.6l3-0.3l-2.2,5c-0.5,1.2,0,2.5,1.2,3c1.2,0.5,2.5,0,3-1.2l3.3-7.4l9.1-1l-4,9l-7.4,1
			c-1.3,0.2-2.1,1.3-2,2.6c0.2,1.3,1.3,2.2,2.6,2l4.6-0.6l-1,2.2c-0.7,1.5,0,3.2,1.5,3.9c1.5,0.7,3.2,0,3.9-1.5l1-2.3l2.9,3.7
			c0.8,1,2.2,1.2,3.2,0.4c1-0.8,1.2-2.2,0.4-3.2l-4.4-5.7l3.9-9l5.4,7.3l-3.1,7.6c-0.5,1.2,0.1,2.5,1.3,3c1.2,0.5,2.5-0.1,3-1.3
			l2.1-5l1.8,2.5c1,1.3,2.8,1.6,4.1,0.6c1.3-1,1.6-2.8,0.6-4.1l-1.5-2l3.9-0.5c1.3-0.2,2.1-1.3,2-2.6c-0.2-1.3-1.3-2.2-2.6-2
			l-6.4,0.9l-5.8-7.9l8.3-0.9l5,6.5c0.8,1,2.2,1.2,3.2,0.4c1-0.8,1.2-2.2,0.4-3.2l-3.3-4.3l3.8-0.4C419,243,420.2,241.6,420,240z
			 M410.1,242.4c1.1,1,6.9,6.3,5.3,7.5c-1.6,1.2-4.9-6.3-5.4-7.5c-2.7,0.2-5.6,0.3-7.9,0.3c-3.3,1.2-4,3.3-2.4,6.7
			c1.6,1.8,3.5,4.1,5.1,6.2c2.2-0.7,8.3-2.6,8.5-0.8c0.2,1.7-5.7,1.4-8.2,1.2c2.7,3.5,4.7,6.6,3.9,7.3c-0.9,0.7-3.3-2.5-5.9-6.3
			c-0.4,1.9-2,9-3.7,8.3c-1.8-0.8,2.6-7,3.6-8.4c-1.6-2.5-3.3-5.2-4.6-7.4c-2.6-2.2-4.7-1.7-6.9,1.5c-0.8,2.3-1.7,5-2.7,7.5
			c1.3,1.2,6.8,6.3,5.3,7.4c-1.5,1.1-4.6-5.4-5.3-7.2c-1.6,4.2-3.4,7.8-4.3,7.3c-1-0.4,0.3-3.9,2.2-7.9c-2.4,0.8-8.1,2.4-8.3,0.7
			c-0.2-1.8,6.2-1.3,8.5-1.1c1.3-2.8,2.9-5.8,4.2-8.1c0.5-3.3-0.9-4.9-4.6-5.2c-2.2,0.5-4.9,1-7.5,1.4c0,0.2-1.8,9.6-3.7,8.7
			c-2-0.9,3.6-8.5,3.7-8.7c-4.7,0.7-8.9,1.1-9-0.1c-0.1-1.1,3.5-1.7,7.8-2c-2-1.9-5.7-5.7-4.4-6.7c1.4-1,4,4.3,5,6.6
			c3-0.2,6.2-0.3,8.7-0.3c3.1-1.2,3.8-3.2,2.4-6.5c-1.5-1.7-3.2-3.7-4.8-5.8c-1,0.4-8.9,3.1-9.2,1c-0.2-2,7.9-1.2,9.1-1.1
			c-3.1-3.9-5.6-7.6-4.7-8.3c0.9-0.7,3.4,2.5,5.9,6.4c0.6-2.6,2-8.1,3.5-7.4c1.6,0.7-1.8,5.9-3.2,7.9c1.5,2.3,3.1,4.9,4.3,6.9
			c2.6,2.2,4.7,1.9,6.8-0.9c0.7-2.1,1.6-4.7,2.5-7.2c-1.5-1.4-6.6-6.2-5.1-7.3c1.4-1.1,4.3,4.9,5.2,7c1.7-4.5,3.6-8.4,4.6-8
			c1,0.5-0.6,4.5-2.7,8.9c2.1-0.7,8.4-2.6,8.6-0.8c0.2,1.9-6.8,1.3-8.8,1.1c-1.2,2.4-2.5,4.9-3.6,6.9c-0.6,3.5,0.7,5.2,4.2,5.6
			c2.3-0.5,5-1,7.7-1.4c0.5-2.4,1.9-8.5,3.5-7.8c1.5,0.7-1.6,5.6-3,7.7c4.4-0.7,8.3-0.9,8.4,0.2
			C419.1,241.5,414.9,242.1,410.1,242.4z"/>
		<path id="Fill-48_00000133530447315398659130000002577723562821494201_" class="st5" d="M457,300l3.9-2.5l0.1-1.5l-1.4,0.1
			L457,300z M454,302l-3.9,2.5L450,306l1.4-0.1L454,302z M453.7,293l-0.7,1.4l2,4.6l-0.2-5.1L453.7,293z M457.3,308l0.7-1.4l-2-4.6
			l0.2,5.1L457.3,308z M454,300l-4.5-2l-1.5,0.6l0.9,1.1L454,300z M457,301l4.5,2l1.5-0.6l-0.9-1.1L457,301z M467.1,316.6l4.1,1.2
			l-0.9-4.1l-2.8-0.9l-0.8-0.8l3.7,0.7l1.2-1.1l-1.2-1l-4.1,0.9l-4.4-4.7l3.7,0.7l1.2-1.1l-1.2-1l-4.1,0.9l-4.7-5l6.5-1.5l3,3.2
			l1.6-0.2l-0.4-1.6l-3.8-1.6l6.5-1.5l3,3.2l1.6-0.2l-0.4-1.6l-3.8-1.6l1.5-0.3l2.8,0.9l3.1-2.9l-4.1-1.3l-2.2,2l-1.2,0.3l2.5-2.8
			l-0.3-1.6l-1.5,0.5l-1.3,4l-6.3,1.4l2.5-2.8l-0.3-1.6l-1.5,0.5l-1.3,4l-6.6,1.5l2-6.4l4.2-1l0.6-1.5l-1.5-0.5l-3.2,2.4l1.9-6.2
			l4.2-1l0.6-1.5l-1.5-0.5l-3.2,2.4l0.4-1.4l2.2-2l-1-4.1l-3.1,2.9l0.7,2.9l-0.4,1.4l-1.3-3.8l-1.5-0.5l-0.3,1.6l2.9,3.2l-1.9,6.3
			l-1.3-3.8l-1.5-0.5l-0.3,1.6l2.9,3.2l-2,6.3l-4.6-5l1.2-4l-0.9-1.3l-1.2,1.1l0.5,3.8l-4.4-4.7l1.2-4l-0.9-1.3l-1.2,1.1l0.5,3.8
			l-0.8-0.9l-0.7-2.9l-4.1-1.2l0.9,4.1l2.8,0.9l1,1.1l-4.1-0.8l-1.2,1.1l1.2,1l4.3-1l4.5,4.9l-4.1-0.8l-1.2,1.1l1.2,1l4.3-1l4.5,4.9
			l-6.7,1.5l-2.9-3.1l-1.6,0.2l0.4,1.6l3.5,1.5l-6.3,1.4l-2.9-3.1l-1.6,0.2l0.4,1.6l3.5,1.5l-1.1,0.3l-2.8-0.9l-3.1,2.9l4.1,1.3
			l2.2-2l1.4-0.3l-2.7,3.1l0.3,1.6l1.5-0.5l1.3-4.2l6.5-1.5l-2.7,3.1l0.3,1.6l1.5-0.5l1.3-4.2l6.6-1.5l-2,6.6l-4.2,1l-0.6,1.5
			l1.5,0.5l3.2-2.4l-1.9,6.3l-4.2,1l-0.6,1.5l1.5,0.5l3.2-2.4l-0.4,1.2l-2.2,2l1,4.1l3.1-2.9l-0.7-2.9l0.4-1.1l1.3,3.7l1.5,0.5
			l0.3-1.6l-2.9-3.2l1.9-6.2l1.3,3.7l1.5,0.5l0.3-1.6l-2.9-3.2l2-6.6l4.6,4.9l-1.3,4.3l0.9,1.3l1.2-1.1l-0.5-4.1l4.5,4.9l-1.3,4.3
			l0.9,1.3l1.2-1.1l-0.5-4.1l1,1.1L467.1,316.6z"/>
		<path id="Fill-49_00000163039246673297267660000013041105647261705909_" class="st5" d="M586.9,156.6l-2.3-4.5
			c-0.2-0.3-0.5-0.6-0.9-0.6l-15.6-0.5l10.7-0.2c0.2,0,0.5-0.2,0.7-0.4l1.7-3.3c0.1-0.2,0-0.5-0.2-0.6l-3.1-2
			c-0.2-0.1-0.6-0.1-0.8,0l-10,5.4l14-8.3c0.3-0.2,0.5-0.6,0.5-0.9l-0.2-5c0-0.3-0.3-0.6-0.6-0.6l-5-0.3c-0.3,0-0.8,0.2-0.9,0.5
			l-8.3,13.3l5.2-9.5c0.1-0.2,0.1-0.6,0-0.8l-2-3.1c-0.1-0.2-0.4-0.3-0.6-0.2l-3.3,1.7c-0.2,0.1-0.4,0.4-0.4,0.7l-0.3,11.2
			l-0.3-16.1c0-0.3-0.3-0.7-0.6-0.9l-4.5-2.3c-0.3-0.2-0.7-0.1-0.9,0.2l-2.8,4.2c-0.2,0.3-0.2,0.8,0,1l7.6,14.1l-5.7-9.5
			c-0.1-0.2-0.4-0.4-0.7-0.4l-3.7,0.2c-0.2,0-0.5,0.2-0.5,0.5l-0.2,3.7c0,0.2,0.1,0.6,0.4,0.7l8.9,5.5l-13.4-7.4
			c-0.3-0.2-0.8-0.1-1.1,0l-4.3,2.7c-0.3,0.2-0.4,0.6-0.2,0.9l2.3,4.5c0.2,0.3,0.6,0.6,0.9,0.6l16.6,0.5l-11.7,0.2
			c-0.2,0-0.5,0.2-0.7,0.4l-1.7,3.3c-0.1,0.2,0,0.5,0.2,0.6l3.1,2c0.2,0.1,0.6,0.1,0.8,0l9.1-4.9l-13.1,7.8
			c-0.3,0.2-0.5,0.6-0.5,0.9l0.2,5c0,0.3,0.3,0.6,0.6,0.6l5,0.3c0.3,0,0.8-0.2,0.9-0.5l8.7-13.9l-5.6,10.1c-0.1,0.2-0.1,0.6,0,0.8
			l2,3.1c0.1,0.2,0.4,0.3,0.6,0.2l3.3-1.7c0.2-0.1,0.4-0.4,0.4-0.7l0.3-10.7l0.3,15.5c0,0.3,0.3,0.7,0.6,0.9l4.5,2.3
			c0.3,0.2,0.7,0.1,0.9-0.2l2.8-4.2c0.2-0.3,0.2-0.7,0-1l-7.5-14l5.7,9.4c0.1,0.2,0.4,0.4,0.7,0.4l3.7-0.2c0.2,0,0.5-0.2,0.5-0.5
			l0.2-3.7c0-0.2-0.1-0.6-0.4-0.7l-9.5-5.9l14.1,7.8c0.3,0.2,0.8,0.2,1.1,0l4.3-2.7C587,157.3,587.1,156.9,586.9,156.6z
			 M578.6,155.8l-10.1-4.1l-2.9-0.8l9.1,10l-9.3-9.7l0.5,2.3l4.1,11.1l-0.5,3.5l-2.1-2.8l-1.6-11l-0.8-3l-3.9,13l3.5-13.1l-1.7,1.6
			l-7.3,9.2l-3.2,1.3l1.3-3.3l8.5-6.9l2.2-2.2l-13,3.1l12.9-3.4l-2.2-0.7l-11.4-1.9l-2.7-2.2l3.4-0.5l10.1,4.1l2.9,0.8l-9.1-10
			l9.3,9.7l-0.5-2.3l-4.1-11.1l0.5-3.5l2.1,2.8l1.6,11l0.8,3l3.9-13l-3.5,13.1l1.7-1.6l7.3-9.2l3.2-1.3l-1.3,3.3l-8.5,6.9l-2.2,2.2
			l13-3.1l-12.9,3.4l2.2,0.7l11.4,1.9l2.7,2.2L578.6,155.8z"/>
		<path id="Fill-49_00000055674744987947462550000007952865079577953970_" class="st5" d="M586.9,156.6l-2.3-4.5
			c-0.2-0.3-0.5-0.6-0.9-0.6l-15.6-0.5l10.7-0.2c0.2,0,0.5-0.2,0.7-0.4l1.7-3.3c0.1-0.2,0-0.5-0.2-0.6l-3.1-2
			c-0.2-0.1-0.6-0.1-0.8,0l-10,5.4l14-8.3c0.3-0.2,0.5-0.6,0.5-0.9l-0.2-5c0-0.3-0.3-0.6-0.6-0.6l-5-0.3c-0.3,0-0.8,0.2-0.9,0.5
			l-8.3,13.3l5.2-9.5c0.1-0.2,0.1-0.6,0-0.8l-2-3.1c-0.1-0.2-0.4-0.3-0.6-0.2l-3.3,1.7c-0.2,0.1-0.4,0.4-0.4,0.7l-0.3,11.2
			l-0.3-16.1c0-0.3-0.3-0.7-0.6-0.9l-4.5-2.3c-0.3-0.2-0.7-0.1-0.9,0.2l-2.8,4.2c-0.2,0.3-0.2,0.8,0,1l7.6,14.1l-5.7-9.5
			c-0.1-0.2-0.4-0.4-0.7-0.4l-3.7,0.2c-0.2,0-0.5,0.2-0.5,0.5l-0.2,3.7c0,0.2,0.1,0.6,0.4,0.7l8.9,5.5l-13.4-7.4
			c-0.3-0.2-0.8-0.1-1.1,0l-4.3,2.7c-0.3,0.2-0.4,0.6-0.2,0.9l2.3,4.5c0.2,0.3,0.6,0.6,0.9,0.6l16.6,0.5l-11.7,0.2
			c-0.2,0-0.5,0.2-0.7,0.4l-1.7,3.3c-0.1,0.2,0,0.5,0.2,0.6l3.1,2c0.2,0.1,0.6,0.1,0.8,0l9.1-4.9l-13.1,7.8
			c-0.3,0.2-0.5,0.6-0.5,0.9l0.2,5c0,0.3,0.3,0.6,0.6,0.6l5,0.3c0.3,0,0.8-0.2,0.9-0.5l8.7-13.9l-5.6,10.1c-0.1,0.2-0.1,0.6,0,0.8
			l2,3.1c0.1,0.2,0.4,0.3,0.6,0.2l3.3-1.7c0.2-0.1,0.4-0.4,0.4-0.7l0.3-10.7l0.3,15.5c0,0.3,0.3,0.7,0.6,0.9l4.5,2.3
			c0.3,0.2,0.7,0.1,0.9-0.2l2.8-4.2c0.2-0.3,0.2-0.7,0-1l-7.5-14l5.7,9.4c0.1,0.2,0.4,0.4,0.7,0.4l3.7-0.2c0.2,0,0.5-0.2,0.5-0.5
			l0.2-3.7c0-0.2-0.1-0.6-0.4-0.7l-9.5-5.9l14.1,7.8c0.3,0.2,0.8,0.2,1.1,0l4.3-2.7C587,157.3,587.1,156.9,586.9,156.6z
			 M578.6,155.8l-10.1-4.1l-2.9-0.8l9.1,10l-9.3-9.7l0.5,2.3l4.1,11.1l-0.5,3.5l-2.1-2.8l-1.6-11l-0.8-3l-3.9,13l3.5-13.1l-1.7,1.6
			l-7.3,9.2l-3.2,1.3l1.3-3.3l8.5-6.9l2.2-2.2l-13,3.1l12.9-3.4l-2.2-0.7l-11.4-1.9l-2.7-2.2l3.4-0.5l10.1,4.1l2.9,0.8l-9.1-10
			l9.3,9.7l-0.5-2.3l-4.1-11.1l0.5-3.5l2.1,2.8l1.6,11l0.8,3l3.9-13l-3.5,13.1l1.7-1.6l7.3-9.2l3.2-1.3l-1.3,3.3l-8.5,6.9l-2.2,2.2
			l13-3.1l-12.9,3.4l2.2,0.7l11.4,1.9l2.7,2.2L578.6,155.8z"/>
		<path id="Fill-49_00000114771033258512585120000007226767983018364551_" class="st5" d="M283.6,122.9l-2.3-4.5
			c-0.2-0.3-0.5-0.6-0.9-0.6l-15.6-0.5l10.7-0.2c0.2,0,0.5-0.2,0.7-0.4l1.7-3.3c0.1-0.2,0-0.5-0.2-0.6l-3.1-2
			c-0.2-0.1-0.6-0.1-0.8,0l-10,5.4l14-8.3c0.3-0.2,0.5-0.6,0.5-0.9l-0.2-5c0-0.3-0.3-0.6-0.6-0.6l-5-0.3c-0.3,0-0.8,0.2-0.9,0.5
			l-8.3,13.3l5.2-9.5c0.1-0.2,0.1-0.6,0-0.8l-2-3.1c-0.1-0.2-0.4-0.3-0.6-0.2l-3.3,1.7c-0.2,0.1-0.4,0.4-0.4,0.7l-0.3,11.2
			l-0.3-16.1c0-0.3-0.3-0.7-0.6-0.9l-4.5-2.3c-0.3-0.2-0.7-0.1-0.9,0.2l-2.8,4.2c-0.2,0.3-0.2,0.8,0,1l7.6,14.1l-5.7-9.5
			c-0.1-0.2-0.4-0.4-0.7-0.4l-3.7,0.2c-0.2,0-0.5,0.2-0.5,0.5l-0.2,3.7c0,0.2,0.1,0.6,0.4,0.7l8.9,5.5l-13.4-7.4
			c-0.3-0.2-0.8-0.1-1.1,0l-4.3,2.7c-0.3,0.2-0.4,0.6-0.2,0.9l2.3,4.5c0.2,0.3,0.6,0.6,0.9,0.6l16.6,0.5l-11.7,0.2
			c-0.2,0-0.5,0.2-0.7,0.4l-1.7,3.3c-0.1,0.2,0,0.5,0.2,0.6l3.1,2c0.2,0.1,0.6,0.1,0.8,0l9.1-4.9l-13.1,7.8
			c-0.3,0.2-0.5,0.6-0.5,0.9l0.2,5c0,0.3,0.3,0.6,0.6,0.6l5,0.3c0.3,0,0.8-0.2,0.9-0.5l8.7-13.9l-5.6,10.1c-0.1,0.2-0.1,0.6,0,0.8
			l2,3.1c0.1,0.2,0.4,0.3,0.6,0.2l3.3-1.7c0.2-0.1,0.4-0.4,0.4-0.7l0.3-10.7l0.3,15.5c0,0.3,0.3,0.7,0.6,0.9l4.5,2.3
			c0.3,0.2,0.7,0.1,0.9-0.2l2.8-4.2c0.2-0.3,0.2-0.7,0-1l-7.5-14l5.7,9.4c0.1,0.2,0.4,0.4,0.7,0.4l3.7-0.2c0.2,0,0.5-0.2,0.5-0.5
			l0.2-3.7c0-0.2-0.1-0.6-0.4-0.7l-9.5-5.9l14.1,7.8c0.3,0.2,0.8,0.2,1.1,0l4.3-2.7C283.6,123.6,283.7,123.2,283.6,122.9z
			 M275.2,122.1l-10.1-4.1l-2.9-0.8l9.1,10l-9.3-9.7l0.5,2.3l4.1,11.1l-0.5,3.5l-2.1-2.8l-1.6-11l-0.8-3l-3.9,13l3.6-13.1l-1.7,1.6
			l-7.3,9.2l-3.2,1.3l1.3-3.3l8.5-6.9l2.2-2.2l-13,3.1l12.9-3.4l-2.2-0.7l-11.4-1.9l-2.7-2.2l3.4-0.5l10.1,4.1l2.9,0.8l-9.1-10
			l9.3,9.7l-0.5-2.3l-4.1-11.1l0.5-3.5l2.1,2.8l1.6,11l0.8,3l3.9-13l-3.5,13.1l1.7-1.6l7.3-9.2l3.2-1.3l-1.3,3.3l-8.5,6.9l-2.2,2.2
			l13-3.1l-12.9,3.4l2.2,0.7l11.4,1.9l2.7,2.2L275.2,122.1z"/>
	</g>
</g>
</svg>
