<?xml version="1.0" encoding="UTF-8"?>
<svg width="80px" height="50px" viewBox="0 0 80 50" version="1.1" xmlns="http://www.w3.org/2000/svg" xmlns:xlink="http://www.w3.org/1999/xlink">
    <!-- Generator: Sketch 52.6 (67491) - http://www.bohemiancoding.com/sketch -->
    <title>Group</title>
    <desc>Created with Sketch.</desc>
    <g id="Page-1" stroke="none" stroke-width="1" fill="none" fill-rule="evenodd">
        <g id="Group">
            <polygon id="Star" fill="#FD1D53" points="13.5 14.25 7.9160401 17.1856614 8.98248155 10.9678307 4.4649631 6.56433855 10.7080201 5.65716928 13.5 0 16.2919799 5.65716928 22.5350369 6.56433855 18.0175185 10.9678307 19.0839599 17.1856614"></polygon>
            <polygon id="Star" fill="#FD1D53" points="23.5 46.25 17.9160401 49.1856614 18.9824815 42.9678307 14.4649631 38.5643386 20.7080201 37.6571693 23.5 32 26.2919799 37.6571693 32.5350369 38.5643386 28.0175185 42.9678307 29.0839599 49.1856614"></polygon>
            <polygon id="Star" fill="#FD1D53" points="40.5 25.25 34.9160401 28.1856614 35.9824815 21.9678307 31.4649631 17.5643386 37.7080201 16.6571693 40.5 11 43.2919799 16.6571693 49.5350369 17.5643386 45.0175185 21.9678307 46.0839599 28.1856614"></polygon>
            <polygon id="Star" fill="#F9C80E" points="40.5 25.25 34.9160401 28.1856614 35.9824815 21.9678307 31.4649631 17.5643386 37.7080201 16.6571693 40.5 11 43.2919799 16.6571693 49.5350369 17.5643386 45.0175185 21.9678307 46.0839599 28.1856614"></polygon>
            <polygon id="Star" fill="#F706CF" points="70.5 14.25 64.9160401 17.1856614 65.9824815 10.9678307 61.4649631 6.56433855 67.7080201 5.65716928 70.5 0 73.2919799 5.65716928 79.5350369 6.56433855 75.0175185 10.9678307 76.0839599 17.1856614"></polygon>
            <polygon id="Star" fill="#FF6C11" points="57.5 48.25 54.2671811 49.9495935 54.8845946 46.3497967 52.2691892 43.8004065 55.8835906 43.2752033 57.5 40 59.1164094 43.2752033 62.7308108 43.8004065 60.1154054 46.3497967 60.7328189 49.9495935"></polygon>
            <polygon id="Star" fill="#261447" points="32.5 8.25 29.2671811 9.94959347 29.8845946 6.34979673 27.2691892 3.80040653 30.8835906 3.27520327 32.5 0 34.1164094 3.27520327 37.7308108 3.80040653 35.1154054 6.34979673 35.7328189 9.94959347"></polygon>
            <polygon id="Star" fill="#F9C80E" points="5.5 32.25 2.26718111 33.9495935 2.88459458 30.3497967 0.26918916 27.8004065 3.88359056 27.2752033 5.5 24 7.11640944 27.2752033 10.7308108 27.8004065 8.11540542 30.3497967 8.73281889 33.9495935"></polygon>
            <polygon id="Star" fill="#FD3777" points="59.5 27.25 56.2671811 28.9495935 56.8845946 25.3497967 54.2691892 22.8004065 57.8835906 22.2752033 59.5 19 61.1164094 22.2752033 64.7308108 22.8004065 62.1154054 25.3497967 62.7328189 28.9495935"></polygon>
            <polygon id="Star" fill="#023788" points="42.5 40.75 39.8549664 42.1405765 40.3601228 39.1952882 38.2202457 37.1094235 41.1774832 36.6797118 42.5 34 43.8225168 36.6797118 46.7797543 37.1094235 44.6398772 39.1952882 45.1450336 42.1405765"></polygon>
            <polygon id="Star" fill="#2DE2E6" points="73 38.5 68.8855032 40.663119 69.6713022 36.0815595 66.3426044 32.836881 70.9427516 32.1684405 73 28 75.0572484 32.1684405 79.6573956 32.836881 76.3286978 36.0815595 77.1144968 40.663119"></polygon>
            <polygon id="Star" fill="#791E94" points="50.5 9.75 47.8549664 11.1405765 48.3601228 8.19528824 46.2202457 6.10942353 49.1774832 5.67971176 50.5 3 51.8225168 5.67971176 54.7797543 6.10942353 52.6398772 8.19528824 53.1450336 11.1405765"></polygon>
            <polygon id="Star" fill="#920075" points="24.5 25.75 21.8549664 27.1405765 22.3601228 24.1952882 20.2202457 22.1094235 23.1774832 21.6797118 24.5 19 25.8225168 21.6797118 28.7797543 22.1094235 26.6398772 24.1952882 27.1450336 27.1405765"></polygon>
            <polygon id="Star" fill="#D40078" points="13.5 14.25 7.9160401 17.1856614 8.98248155 10.9678307 4.4649631 6.56433855 10.7080201 5.65716928 13.5 0 16.2919799 5.65716928 22.5350369 6.56433855 18.0175185 10.9678307 19.0839599 17.1856614"></polygon>
        </g>
    </g>
</svg>