<svg id="bcb3fb2b-3df4-43dd-8bf9-d799a9fd695e" data-name="Layer 1" xmlns="http://www.w3.org/2000/svg" xmlns:xlink="http://www.w3.org/1999/xlink" viewBox="0 0 738.6 178.8"><defs><style>.e8959147-6b3a-4efd-8194-11f6cef2f2e8{fill:#fff;}.b390b379-deda-4ee0-a555-2ca581f20963{fill:url(#a3579921-a1db-4f03-a016-1e2842475d11);}.bb3476f8-3e26-432b-b8b9-f0816ab7d48f{opacity:0.5;isolation:isolate;fill:url(#efc5984c-f6cd-40fa-8add-75ca1a8421fa);}</style><linearGradient id="a3579921-a1db-4f03-a016-1e2842475d11" x1="86.22" y1="900.97" x2="143.08" y2="1075.95" gradientTransform="translate(0 -899.1)" gradientUnits="userSpaceOnUse"><stop offset="0" stop-color="#2483c5"/><stop offset="0.9" stop-color="#26d07c"/></linearGradient><linearGradient id="efc5984c-f6cd-40fa-8add-75ca1a8421fa" x1="63.71" y1="896.01" x2="165.55" y2="1041.46" gradientTransform="translate(0 -899.1)" gradientUnits="userSpaceOnUse"><stop offset="0" stop-color="#2483c5"/><stop offset="1" stop-color="#26d07c"/></linearGradient></defs><path class="e8959147-6b3a-4efd-8194-11f6cef2f2e8" d="M286.2,133.8c-1.3,4.2-4.8,6.9-10.1,6.9s-11.3-4.8-11.3-11.8,5-11.8,11.4-11.8c4.8,0,8.1,2.3,9.6,6l-2.6,1.7a6.8,6.8,0,0,0-7-5c-4.8,0-8.1,3.5-8.1,9.1s3.4,9.1,8,9.1,6.5-2.1,7.3-5.7Z"/><path class="e8959147-6b3a-4efd-8194-11f6cef2f2e8" d="M303,119.8c-4.9,0-8.3,3.5-8.3,9.1S298,138,303,138s8.3-3.5,8.3-9.1-3.4-9.1-8.3-9.1m0,20.9c-6.6,0-11.5-4.8-11.5-11.8s4.9-11.8,11.5-11.8,11.6,4.8,11.6,11.8-5,11.8-11.6,11.8"/><polygon class="e8959147-6b3a-4efd-8194-11f6cef2f2e8" points="345.7 117.5 340.6 136.4 340.4 136.4 335.3 117.5 332.3 117.5 327.2 136.3 327.1 136.3 321.9 117.5 318.8 117.5 325.1 140.3 328.8 140.3 333.7 122.1 333.8 122.1 338.7 140.3 342.4 140.3 348.7 117.5 345.7 117.5"/><path class="e8959147-6b3a-4efd-8194-11f6cef2f2e8" d="M364.5,119.8c-4.9,0-8.2,3.5-8.2,9.1s3.3,9.1,8.2,9.1,8.3-3.5,8.3-9.1-3.4-9.1-8.3-9.1m0,20.9c-6.6,0-11.5-4.8-11.5-11.8s4.9-11.8,11.5-11.8,11.6,4.8,11.6,11.8-4.9,11.8-11.6,11.8"/><path class="e8959147-6b3a-4efd-8194-11f6cef2f2e8" d="M386.1,127.7h6.5c3.8,0,5.6-1.2,5.6-3.8s-1.6-3.8-5.4-3.8h-6.7ZM399,140.3c-.8-.4-1.3-2.4-1.5-4.6s-1.4-5.4-4.6-5.4h-6.8v10H383V117.5h10.1c5.8,0,8.4,2.5,8.4,6.3s-2.6,5-5.6,5.2c2.6.4,4,2.5,4.4,5.2s1.3,5.1,2.5,5.8v.3Z"/><polygon class="e8959147-6b3a-4efd-8194-11f6cef2f2e8" points="424.2 117.5 412.3 129.4 412.3 117.5 409.1 117.5 409.1 140.3 412.3 140.3 412.3 132.9 416.3 128.9 425.3 140.3 429.2 140.3 418.6 126.9 428 117.5 424.2 117.5"/><rect class="e8959147-6b3a-4efd-8194-11f6cef2f2e8" x="434.8" y="117.5" width="3.2" height="22.8"/><polygon class="e8959147-6b3a-4efd-8194-11f6cef2f2e8" points="462.2 117.5 462.2 135.1 449.5 117.5 446 117.5 446 140.3 448.9 140.3 448.9 121.6 462.5 140.3 465.2 140.3 465.2 117.5 462.2 117.5"/><path class="e8959147-6b3a-4efd-8194-11f6cef2f2e8" d="M490.2,124.7c-.8-3-3.3-5-7.2-5s-8,3.5-8,9.2,3.4,9.1,8.2,9.1a7.1,7.1,0,0,0,7.5-6.6h-8.8V129h11.7v11.3h-2.3l-.5-4.1c-1,2.9-4.3,4.6-7.9,4.6-6.4,0-11.2-4.7-11.2-11.8s5-11.8,11.3-11.8,8.4,2.2,9.8,5.9Z"/><path class="e8959147-6b3a-4efd-8194-11f6cef2f2e8" d="M371.6,80c3.5,5.8,9.9,8.8,16.5,8.8s10.5-2.2,10.5-6.3-2.9-4.6-6.9-5.5L381,74.8c-7.2-1.5-13-5.2-13-13.1s7.4-14.5,18.5-14.5c9.2,0,15.9,3.8,20,9l-6.4,6.2c-2.5-4.3-6.9-7.5-13.6-7.5s-9,2.3-9,6.2,2.8,4.4,6.6,5.3l9.9,2.1c8.9,1.9,14.2,5.7,14.2,13.6s-8.9,14.4-20,14.4-18-3.6-22.4-9.6Z"/><path class="e8959147-6b3a-4efd-8194-11f6cef2f2e8" d="M445.2,80c3.5,5.8,9.9,8.8,16.5,8.8s10.5-2.2,10.5-6.3-2.9-4.6-6.9-5.5l-10.7-2.2c-7.2-1.5-13-5.2-13-13.1s7.4-14.5,18.5-14.5c9.2,0,15.9,3.8,20,9l-6.4,6.2c-2.5-4.3-6.9-7.5-13.6-7.5s-9,2.3-9,6.2,2.8,4.4,6.6,5.3l9.9,2.1c8.9,1.9,14.2,5.7,14.2,13.6s-8.9,14.4-20,14.4-18-3.6-22.4-9.6Z"/><path class="e8959147-6b3a-4efd-8194-11f6cef2f2e8" d="M274,75V88h12c5.9,0,8.8-2.5,8.8-6.4s-2.9-6.5-8.8-6.5H274Zm0-7.2h11.3c5.6,0,8.1-2.5,8.1-6s-2.4-6.1-8.1-6.1H274Zm13,27.8H264.7V48.1h21.1c12,0,17.1,5.1,17.1,12.9,0,5.4-3.6,9.1-8.8,9.9,5.7,1.1,10.2,4.8,10.2,11.6S298.1,95.6,287,95.6"/><path class="e8959147-6b3a-4efd-8194-11f6cef2f2e8" d="M328,76.6h14.5l-7.1-17.8H335Zm12.8-28.5,19.4,47.5h-10l-4.7-11.8H325.3l-4.6,11.8h-9.5l19.2-47.5Z"/><rect class="e8959147-6b3a-4efd-8194-11f6cef2f2e8" x="419.7" y="48.1" width="9.4" height="47.5"/><polygon class="e8959147-6b3a-4efd-8194-11f6cef2f2e8" points="502.6 48.1 502.6 87.3 527.7 87.3 527.7 95.6 493.2 95.6 493.2 48.1 502.6 48.1"/><polygon class="e8959147-6b3a-4efd-8194-11f6cef2f2e8" points="686.9 95.6 648.8 95.6 648.8 48.1 686.4 48.1 686.4 55.9 658.1 55.9 658.1 67.5 681.5 67.5 681.5 75.2 658.1 75.2 658.1 87.7 686.9 87.7 686.9 95.6"/><path class="e8959147-6b3a-4efd-8194-11f6cef2f2e8" d="M718.6,70.6c6.9,0,10-2.3,10-7.4s-3.2-7.5-10-7.5H707.7V70.6Zm10.4,25c-1-1.3-1.6-4.5-2-9.8s-2.8-7.8-8.2-7.8H707.7V95.6h-9.3V48.1h21.5c12.1,0,18.1,5.7,18.1,14.5,0,7.2-4.7,11.3-10.5,12.1,5.4,1.1,8.2,4.2,8.7,9.8s.8,9.4,2.4,11.2Z"/><path class="e8959147-6b3a-4efd-8194-11f6cef2f2e8" d="M626.7,64.7c-1.4-5.4-5.7-9.3-13-9.3S599,61.8,599,71.7s6,16.6,15.1,16.6c7.4,0,11.8-4.1,13.1-10.2H612.6V70.5H636v25h-6.6l-1.3-7.3c-2.3,5.2-8.4,8.2-15.5,8.2-13.3,0-23.3-9.9-23.3-24.6s11.1-24.6,24.5-24.6c10.8,0,18.2,4.8,21.2,13Z"/><path class="e8959147-6b3a-4efd-8194-11f6cef2f2e8" d="M552.4,76.6h14.5l-7.2-17.8h-.3Zm12.8-28.5,19.4,47.5h-10l-4.7-11.8H549.7L545,95.6h-9.5l19.2-47.5Z"/><polygon class="b390b379-deda-4ee0-a555-2ca581f20963" points="92.1 0 27.8 22.1 27.8 61.6 36.4 70.8 0 83.4 0 122.8 36.4 161.9 100.7 139.7 137.2 178.8 201.4 156.7 201.4 117.2 192.8 108 229.3 95.5 229.3 56 192.8 16.9 128.5 39.1 92.1 0"/><polygon class="bb3476f8-3e26-432b-b8b9-f0816ab7d48f" points="92.1 0 27.8 22.1 64.8 61 0 83.4 36.5 122.2 100.7 100.3 137.2 139.4 201.4 117.3 165.2 78.6 229.3 56 192.8 16.9 128.5 39.1 92.1 0"/></svg>