<svg viewBox="0 0 300 98" xmlns="http://www.w3.org/2000/svg"><g fill="#ed775d"><path d="m17.28 96.95c-2.792-.1-6.449-1.529-9.593-7.059a51.5 51.5 0 0 1 -4.667-13.013c-1.651-6.824-2.546-15.104-2.432-17.652.112-3.156.712-4.443 3.149-4.779 2.922-.412 4.01.561 4.146 3.562a127.594 127.594 0 0 0 2.678 17.163c2.687 11.328 5.839 14.149 7.132 14.049 3.9-.276 8.672-6.312 12.767-16.142 3.744-8.986 4.587-14.326 6.348-23.9.334-3.151 1.119-4.191 3.975-4.092 1.627.057 3.1.8 2.981 4.239a76.49 76.49 0 0 1 -6.164 26.725c-5.56 13.339-12.072 20.364-19.359 20.881a8.934 8.934 0 0 1 -.961.018"/><path d="m63.728 89.805a18.008 18.008 0 0 1 -10.62-3.932 14.989 14.989 0 0 1 -5.789-10.373c-.327-4.407 1.045-8.385 3.766-10.917a9.845 9.845 0 0 1 4.426-2.386c-.275-1.6.038-2.51 1.129-3.209a22.408 22.408 0 0 1 6.626-2.522 25.057 25.057 0 0 1 10.113.01 13.4 13.4 0 0 1 10.127 8.959 18.285 18.285 0 0 1 -1.8 15.084c-3.012 4.934-8.266 8.172-14.792 9.116a17.94 17.94 0 0 1 -3.187.174m-7.376-19.571a6.017 6.017 0 0 0 -1.322 4.687 7.274 7.274 0 0 0 2.919 4.92 10.249 10.249 0 0 0 7.86 2.136c4.269-.617 7.485-2.516 9.3-5.494a10.524 10.524 0 0 0 1.092-8.543 5.5 5.5 0 0 0 -3.315-3.544c-3.526-1.439-8.485-.415-10.6.257a3.852 3.852 0 0 1 .15 1.758c-.067 1.36-.837 1.988-3.29 2.651a6.162 6.162 0 0 0 -2.8 1.172"/><path d="m102.053 88.242a18.386 18.386 0 0 1 -8.081-1.324c-2.228-1.211-2.581-2.964-1.538-4.7 1.265-2.113 3.617-1.237 5.933-.929 3.853.513 6.637-.069 8.3-2.138a7.1 7.1 0 0 0 1.289-5.493c-.534-3.824-3.821-5.885-8.816-8.334a37.654 37.654 0 0 1 -3.989-2.15c-7.413-4.859-8.734-11.639-7.5-16.362a13.373 13.373 0 0 1 12.149-9.833 14.261 14.261 0 0 1 10.862 3.364 12.7 12.7 0 0 1 4.007 8.667c.317 3.3-.9 4.985-3.336 5.06s-3.354-1.528-3.59-3.774a6.623 6.623 0 0 0 -1.837-4.157 7.948 7.948 0 0 0 -5.575-1.449 5.584 5.584 0 0 0 -5.192 4.072c-.72 2.754.873 5.724 4.26 7.944a33.352 33.352 0 0 0 3.154 1.674c4.99 2.447 12.531 6.147 13.124 14.742.464 6.709-2.571 10.543-5.292 12.487a14.932 14.932 0 0 1 -8.328 2.633"/><path d="m208.577 94.092c-3.514-3.3-8.393-9.7-13.347-22.08-7.106 7.607-14.14 12.394-22.268 14.392-7.657 1.883-14.586 1.15-20.539-3.981a21.783 21.783 0 0 1 -6.429-10.273q-1.638.292-3.319.584c-1.75.307-3.545.62-5.373.955a19.578 19.578 0 0 0 -4.585 1.342 41.923 41.923 0 0 1 -.735 5.712 4.8 4.8 0 0 1 -5.2 3.772c-2.7-.343-4.724-3.018-4.816-6.361a9.832 9.832 0 0 1 3.377-7.467c1.054-15.242 2.24-47.014 1.557-54-.1-2.483.987-4.036 3.47-4.224 1.135-.087 3.886-.151 4.223 3.47.618 6.307-.22 33.511-1.271 50.726q1.209-.323 2.593-.578c1.848-.337 3.665-.656 5.433-.964 1.2-.21 2.393-.418 3.566-.629a24.447 24.447 0 0 1 .783-5.935c1.811-6.948 6.419-11.661 12.643-12.93 4.331-.883 8.521.181 11.208 2.849a10.144 10.144 0 0 1 2.646 9.344c-1.476 7.481-8.851 10.645-18.573 12.833a13.747 13.747 0 0 0 3.851 5.915c4.09 3.526 9.282 3.676 14.553 2.381 6.807-1.675 12.844-6.539 20.319-15.345a107.921 107.921 0 0 1 -2.886-39.846c3.107-23.949 17.958-24.484 24.03-21.97 11.075 4.586 9.827 20.257 4.856 33.191-4.992 12.99-9.78 20.085-17.376 30.282a70.087 70.087 0 0 0 13.424 24.725c2.006 2.431.986 4.23-.069 5.215-1 .929-2.749 1.7-5.742-1.108m-47.029-41.036a7.156 7.156 0 0 0 -1.672.147c-4.412.9-6.1 4.964-6.707 7.307a16.663 16.663 0 0 0 -.44 2.42c7.016-1.371 11.678-2.93 12.307-6.117a3.244 3.244 0 0 0 -.944-2.85 3.769 3.769 0 0 0 -2.544-.907m35.861-29.7c-1.431 8.363-.843 20.85.991 32.319a114.488 114.488 0 0 0 13.121-23.772c4.763-11.906 3.418-21.849-1.693-22.983-6.082-1.347-10.567 3.6-12.419 14.433"/><path d="m230.663 82.524c-1.5 2.532-4.9 2.612-6.673 2.094a5.619 5.619 0 0 1 -3.963-5.635 6.239 6.239 0 0 1 3.1-5.3c.618-.239 3.965-1.438 6.595.806 3.5 2.991 1.894 6.428.938 8.037"/><path d="m241.054 72.622c0-7.377 4.737-13.236 11.429-13.236a9.951 9.951 0 0 1 8.6 4.934v-14.557h6.545v28.137c0 1.366.489 1.9 1.758 1.953v5.568a17.513 17.513 0 0 1 -3.126.342c-2.393-.048-3.761-1.173-4.054-3.029l-.146-1.757a10.128 10.128 0 0 1 -8.889 4.934c-7.086-.002-12.117-5.864-12.117-13.289zm20.074 3.419v-6.106a7.7 7.7 0 0 0 -6.642-4.98c-3.956 0-6.692 3.71-6.692 7.815 0 4.248 3.029 7.57 7.082 7.57a7.079 7.079 0 0 0 6.252-4.299z"/><path d="m272.713 72.77c0-7.28 5.178-13.384 13.53-13.384s13.335 6.2 13.335 13.139a13.947 13.947 0 0 1 -.146 2.2h-19.783a6.708 6.708 0 0 0 6.79 6.4c2.588 0 5.226-1.367 6.056-3.468l5.617 1.563c-1.856 3.909-6.252 6.693-11.918 6.693-8.255-.004-13.481-6.062-13.481-13.143zm20.125-2.3a6.625 6.625 0 0 0 -6.692-6.349 6.539 6.539 0 0 0 -6.6 6.349z"/></g></svg>