<svg preserveAspectRatio="xMinYMin meet" width="500" height="412" version="1.1" viewBox="0 0 500 412" xmlns="http://www.w3.org/2000/svg"><style type="text/css">.logo-dog{fill:#fff}.logo-text{fill:#000}</style><path d="M 249.31055,1.00002 229.7461,38.722674 201.93555,5.55666 l -14.19141,40.523434 -34.14453,-26.10742 -4.1582,41.52539 -38.07227,-17.93164 3.02344,41.28516 -40.472658,-10.54688 10.574219,40.224606 -42.152344,-2.88476 18.939453,38.13672 -41.585937,5.65429 25.189453,33.4375 L 5.6191406,201.84181 35.748047,228.75588 1,250.95119 36.789063,272.09767 18.873047,288.334 H 482.61719 l -18.34766,-16.63672 35.5293,-20.58398 -36.94336,-20.71875 32.16992,-27.65039 -39.54492,-14.39454 25.50586,-32.1289 -41.81055,-6.2207 18.64258,-37.54493 -41.99023,2.52539 10.46484,-39.792956 -39.41016,10.70703 2.28321,-42.03125 -37.92578,18.16992 -4.4004,-41.69727 -33.49218,25.98828 L 299.47461,5.566426 271.1875,38.240254 Z" fill="#e6007e"/><g id="logo-dog-container"><path class="logo-dog" d="m 268.93344,211.57988 -3.98211,11.1498 25.08705,2.78746 c 0,0 -5.9731,-7.16774 -8.36231,-7.96415 -9.95521,-6.37132 -12.74263,-5.97311 -12.74263,-5.97311 z m -41.01537,9.15879 21.90137,1.59284 -0.79637,-11.94626 c 0,0 -6.37131,1.59284 -10.35342,3.98211 -5.9731,3.18563 -10.75158,6.37131 -10.75158,6.37131 z m -67.29704,16.72468 4.77847,-13.93725 15.53011,3.98209 3.18562,-9.15879 14.33547,5.1767 v -13.53905 l -15.92831,5.17673 -7.56589,-13.14085 -13.53905,7.16774 -5.17674,-17.52116 -18.31752,9.15879 -1.59285,-23.89246 101.14467,8.36235 25.48528,-29.06915 19.11399,31.85663 c 0,0 9.15874,1.19458 26.67989,3.18563 19.11395,2.38926 35.83863,8.36237 35.83863,8.36237 0,0 2.78747,-13.14084 -19.91037,-25.08705 -12.34441,-5.9731 -34.64405,-11.54805 -34.64405,-11.94626 0,-1.99101 3.5839,-17.52111 3.5839,-17.52111 0,0 25.48526,-0.39821 45.39563,7.96416 33.0512,11.94621 51.36878,39.02431 51.36878,72.87194 0,28.67095 -11.54805,62.51858 -11.54805,62.51858 h -54.15621 l 0.79642,-15.1319 27.87453,-3.98204 c 0,0 -1.59283,-17.12296 -21.50321,-22.29964 -23.89242,-5.57489 -46.59026,-1.99105 -55.35083,6.37132 -10.35338,8.76057 -16.32648,23.89242 -16.32648,23.89242 l -5.17669,11.14984 h -45.79389 l 0.39821,-19.11394 24.6889,-6.76953 1.19462,-13.93727 -95.56978,9.55696 1.59285,-29.06912 z"/><path class="logo-dog" d="m 87.350866,251.79883 -3.982109,-11.94621 30.662013,-8.36237 1.991,9.15879 z"/><path class="logo-dog" d="m 79.386701,221.13688 v -10.75163 l 33.051219,1.19463 -1.19463,10.35342 z"/><path class="logo-dog" d="m 96.509608,180.12151 -5.176696,9.95516 25.485278,15.5301 3.58389,-7.96415 z"/></g><g class="logo-text-container"><path class="logo-text" d="m 130.38672,308.27846 v 16.96393 h 10.81079 v 69.06616 H 130.38672 V 411 h 51.22138 c 31.86752,0 48.42041,-7.29786 48.42041,-51.4368 0,-44.13895 -16.55292,-51.28474 -48.42041,-51.28474 z m 32.55278,15.84231 h 18.52917 c 18.96051,0 25.84197,8.41025 25.84197,32.07752 v 6.73615 c 0,23.53389 -6.88146,32.50842 -25.84197,32.50842 H 162.9395 Z"/><path class="logo-text" d="M 482.38665,322.96351 V 306 h -43.9385 v 16.11738 h 15.44175 l -7.99677,34.66794 c -1.55019,6.58988 -5.05828,23.72474 -5.89563,29.61939 -0.84613,-5.76225 -5.90451,-23.15316 -7.86367,-29.76157 l -10.81066,-35.22002 h -19.09382 l -10.52551,34.9445 c -1.95903,6.45646 -7.01731,23.57185 -7.99702,30.03709 -0.83737,-6.58889 -4.63066,-23.43845 -6.17111,-30.18024 l -7.73105,-34.10709 h 15.30911 V 306 h -48.42705 v 16.96351 h 10.25978 l 21.74624,86.46197 h 23.57185 l 9.69874,-33.27072 c 1.53063,-5.04949 7.29317,-24.83667 7.71186,-27.50845 0.42744,2.67178 6.31307,22.60207 7.72001,27.50845 l 9.39518,33.27072 h 24.84533 l 21.06191,-86.46197 z"/><path class="logo-text" d="M 324.55563,322.96351 V 306 h -46.30244 v 16.96351 h 14.46317 v 46.88666 c 0,17.4104 -3.09059,22.87762 -17.27303,22.87762 -4.63004,0 -13.20234,-1.12166 -15.44666,-1.67277 v -19.10267 h -20.60995 v 32.84231 c 5.74378,1.68348 22.99654,4.7642 36.05661,4.7642 27.3661,0 39.01417,-6.17118 39.01417,-39.14688 v -47.44847 z"/><path class="logo-text" d="M 119.28245,342.64028 V 308.27612 H 18.386719 v 34.36416 H 37.74147 v -19.21657 h 20.224442 v 70.88694 H 44.905916 v 16.68699 H 92.767249 V 394.45283 H 79.707155 V 323.5571 h 20.362705 v 19.08318 z"/></g></svg>
