<?xml version="1.0" encoding="utf-8"?>
<!-- Generator: Adobe Illustrator 23.0.0, SVG Export Plug-In . SVG Version: 6.00 Build 0)  -->
<svg version="1.1" id="Layer_1" xmlns="http://www.w3.org/2000/svg" xmlns:xlink="http://www.w3.org/1999/xlink" x="0px" y="0px"
	 viewBox="0 0 738.6 178.8" style="enable-background:new 0 0 738.6 178.8;" xml:space="preserve">
<style type="text/css">
	.st0{fill:#101820;}
	.st1{fill:url(#SVGID_1_);}
	.st2{opacity:0.5;fill:url(#SVGID_2_);enable-background:new    ;}
</style>
<g>
	<g>
		<path class="st0" d="M286.2,133.8c-1.3,4.2-4.8,6.9-10.1,6.9c-6.3,0-11.3-4.8-11.3-11.8c0-7,5-11.8,11.4-11.8c4.8,0,8.1,2.3,9.6,6
			l-2.6,1.7c-0.9-3-3.3-5-7-5c-4.8,0-8.1,3.5-8.1,9.1c0,5.6,3.4,9.1,8,9.1c4.1,0,6.5-2.1,7.3-5.7L286.2,133.8z"/>
		<path class="st0" d="M303,119.8c-4.9,0-8.3,3.5-8.3,9.1c0,5.6,3.3,9.1,8.3,9.1c4.9,0,8.3-3.5,8.3-9.1
			C311.3,123.3,307.9,119.8,303,119.8 M303,140.7c-6.6,0-11.5-4.8-11.5-11.8c0-7,4.9-11.8,11.5-11.8c6.7,0,11.6,4.8,11.6,11.8
			C314.5,135.9,309.6,140.7,303,140.7"/>
		<polygon class="st0" points="345.7,117.5 340.6,136.4 340.4,136.4 335.3,117.5 332.3,117.5 327.2,136.3 327.1,136.3 321.9,117.5 
			318.8,117.5 325.1,140.3 328.8,140.3 333.7,122.1 333.8,122.1 338.7,140.3 342.4,140.3 348.7,117.5 		"/>
		<path class="st0" d="M364.5,119.8c-4.9,0-8.2,3.5-8.2,9.1c0,5.6,3.3,9.1,8.2,9.1c4.9,0,8.3-3.5,8.3-9.1
			C372.8,123.3,369.4,119.8,364.5,119.8 M364.5,140.7c-6.6,0-11.5-4.8-11.5-11.8c0-7,4.9-11.8,11.5-11.8c6.7,0,11.6,4.8,11.6,11.8
			C376.1,135.9,371.2,140.7,364.5,140.7"/>
		<path class="st0" d="M386.1,127.7h6.5c3.8,0,5.6-1.2,5.6-3.8c0-2.5-1.6-3.8-5.4-3.8h-6.7V127.7z M399,140.3
			c-0.8-0.4-1.3-2.4-1.5-4.6c-0.3-3.5-1.4-5.4-4.6-5.4h-6.8v10H383v-22.8h10.1c5.8,0,8.4,2.5,8.4,6.3c0,2.9-2.6,5-5.6,5.2
			c2.6,0.4,4,2.5,4.4,5.2c0.6,3.8,1.3,5.1,2.5,5.8v0.3L399,140.3L399,140.3z"/>
		<polygon class="st0" points="424.2,117.5 412.3,129.4 412.3,117.5 409.1,117.5 409.1,140.3 412.3,140.3 412.3,132.9 416.3,128.9 
			425.3,140.3 429.2,140.3 418.6,126.9 428,117.5 		"/>
		<rect x="434.8" y="117.5" class="st0" width="3.2" height="22.8"/>
		<polygon class="st0" points="462.2,117.5 462.2,135.1 449.5,117.5 446,117.5 446,140.3 448.9,140.3 448.9,121.6 462.5,140.3 
			465.2,140.3 465.2,117.5 		"/>
		<path class="st0" d="M490.2,124.7c-0.8-3-3.3-5-7.2-5c-4.7,0-8,3.5-8,9.2c0,5.6,3.4,9.1,8.2,9.1c4.4,0,7.1-2.8,7.5-6.6h-8.8V129
			h11.7v11.3h-2.3l-0.5-4.1c-1,2.9-4.3,4.6-7.9,4.6c-6.4,0-11.2-4.7-11.2-11.8c0-7,5-11.8,11.3-11.8c5,0,8.4,2.2,9.8,5.9
			L490.2,124.7z"/>
	</g>
	<g>
		<path class="st0" d="M371.6,80c3.5,5.8,9.9,8.8,16.5,8.8c6,0,10.5-2.2,10.5-6.3c0-3.5-2.9-4.6-6.9-5.5L381,74.8
			c-7.2-1.5-13-5.2-13-13.1c0-8.6,7.4-14.5,18.5-14.5c9.2,0,15.9,3.8,20,9l-6.4,6.2c-2.5-4.3-6.9-7.5-13.6-7.5c-5.3,0-9,2.3-9,6.2
			c0,3.4,2.8,4.4,6.6,5.3l9.9,2.1c8.9,1.9,14.2,5.7,14.2,13.6c0,9.2-8.9,14.4-20,14.4c-9.9,0-18-3.6-22.4-9.6L371.6,80z"/>
		<path class="st0" d="M445.2,80c3.5,5.8,9.9,8.8,16.5,8.8c6,0,10.5-2.2,10.5-6.3c0-3.5-2.9-4.6-6.9-5.5l-10.7-2.2
			c-7.2-1.5-13-5.2-13-13.1c0-8.6,7.4-14.5,18.5-14.5c9.2,0,15.9,3.8,20,9l-6.4,6.2c-2.5-4.3-6.9-7.5-13.6-7.5c-5.3,0-9,2.3-9,6.2
			c0,3.4,2.8,4.4,6.6,5.3l9.9,2.1c8.9,1.9,14.2,5.7,14.2,13.6c0,9.2-8.9,14.4-20,14.4c-9.9,0-18-3.6-22.4-9.6L445.2,80z"/>
		<path class="st0" d="M274,75v13h12c5.9,0,8.8-2.5,8.8-6.4c0-4-2.9-6.5-8.8-6.5H274z M274,67.8h11.3c5.6,0,8.1-2.5,8.1-6
			c0-3.5-2.4-6.1-8.1-6.1H274V67.8z M287,95.6h-22.3V48.1h21.1c12,0,17.1,5.1,17.1,12.9c0,5.4-3.6,9.1-8.8,9.9
			c5.7,1.1,10.2,4.8,10.2,11.6C304.4,90.7,298.1,95.6,287,95.6"/>
		<path class="st0" d="M328,76.6h14.5l-7.1-17.8H335L328,76.6z M340.8,48.1l19.4,47.5h-10l-4.7-11.8h-20.2l-4.6,11.8h-9.5l19.2-47.5
			H340.8z"/>
		<rect x="419.7" y="48.1" class="st0" width="9.4" height="47.5"/>
		<polygon class="st0" points="502.6,48.1 502.6,87.3 527.7,87.3 527.7,95.6 493.2,95.6 493.2,48.1 		"/>
		<polygon class="st0" points="686.9,95.6 648.8,95.6 648.8,48.1 686.4,48.1 686.4,55.9 658.1,55.9 658.1,67.5 681.5,67.5 
			681.5,75.2 658.1,75.2 658.1,87.7 686.9,87.7 		"/>
		<path class="st0" d="M718.6,70.6c6.9,0,10-2.3,10-7.4c0-4.7-3.2-7.5-10-7.5h-10.9v14.9H718.6z M729,95.6c-1-1.3-1.6-4.5-2-9.8
			c-0.4-5.4-2.8-7.8-8.2-7.8h-11.1v17.6h-9.3V48.1h21.5c12.1,0,18.1,5.7,18.1,14.5c0,7.2-4.7,11.3-10.5,12.1
			c5.4,1.1,8.2,4.2,8.7,9.8c0.6,7,0.8,9.4,2.4,11.2L729,95.6L729,95.6z"/>
		<path class="st0" d="M626.7,64.7c-1.4-5.4-5.7-9.3-13-9.3c-8.7,0-14.7,6.4-14.7,16.3c0,10.2,6,16.6,15.1,16.6
			c7.4,0,11.8-4.1,13.1-10.2h-14.6v-7.6H636v25h-6.6l-1.3-7.3c-2.3,5.2-8.4,8.2-15.5,8.2c-13.3,0-23.3-9.9-23.3-24.6
			c0-14.6,11.1-24.6,24.5-24.6c10.8,0,18.2,4.8,21.2,13L626.7,64.7z"/>
		<path class="st0" d="M552.4,76.6h14.5l-7.2-17.8h-0.3L552.4,76.6z M565.2,48.1l19.4,47.5h-10l-4.7-11.8h-20.2L545,95.6h-9.5
			l19.2-47.5H565.2z"/>
	</g>
	<g>
		
			<linearGradient id="SVGID_1_" gradientUnits="userSpaceOnUse" x1="86.1963" y1="179.0359" x2="143.0646" y2="4.0134" gradientTransform="matrix(1 0 0 -1 0 180.9438)">
			<stop  offset="0" style="stop-color:#2483C5"/>
			<stop  offset="0.9" style="stop-color:#26D07C"/>
		</linearGradient>
		<polygon class="st1" points="92.1,0 27.8,22.1 27.8,61.6 36.4,70.8 0,83.4 0,122.8 36.4,161.9 100.7,139.7 137.2,178.8 
			201.4,156.7 201.4,117.2 192.8,108 229.3,95.5 229.3,56 192.8,16.9 128.5,39.1 		"/>
		
			<linearGradient id="SVGID_2_" gradientUnits="userSpaceOnUse" x1="63.7272" y1="183.9615" x2="165.5439" y2="38.5521" gradientTransform="matrix(1 0 0 -1 0 180.9438)">
			<stop  offset="0" style="stop-color:#2483C5"/>
			<stop  offset="1" style="stop-color:#26D07C"/>
		</linearGradient>
		<polygon class="st2" points="92.1,0 27.8,22.1 64.8,61 0,83.4 36.5,122.2 100.7,100.3 137.2,139.4 201.4,117.3 165.2,78.6 
			229.3,56 192.8,16.9 128.5,39.1 		"/>
	</g>
</g>
</svg>
