<?xml version="1.0" encoding="UTF-8"?>
<svg width="126px" height="21px" viewBox="0 0 126 21" version="1.1" xmlns="http://www.w3.org/2000/svg" xmlns:xlink="http://www.w3.org/1999/xlink">
    <title>logo-white_long</title>
    <g id="Page-1" stroke="none" stroke-width="1" fill="none" fill-rule="evenodd">
        <g id="Desktop" transform="translate(-31.000000, -8.000000)" fill="#FFFFFF" fill-rule="nonzero">
            <g id="logo-white_long" transform="translate(31.000000, 8.000000)">
                <path d="M9,17 C4.02943725,17 0,13.1944204 0,8.5 C0,3.80557963 4.02943725,0 9,0 C13.9705627,0 18,3.80557963 18,8.5 C17.994337,13.1922032 13.9682152,16.9946516 9,17 Z M9,2.29287091 C5.37024416,2.29287091 2.42774566,5.07189726 2.42774566,8.5 C2.42774566,11.9281027 5.37024416,14.7071291 9,14.7071291 C12.6297558,14.7071291 15.5722543,11.9281027 15.5722543,8.5 C15.5683605,5.07342168 12.6281417,2.29654839 9,2.29287091 Z" id="Shape"></path>
                <path d="M13,18.6555146 L13,21 L5.77820513,21 L5.77820513,18.6555146 L8.24807692,18.6555146 L8.24807692,9.27884493 C8.1503758,9.82389098 7.90959334,10.3337498 7.55,10.7570284 C7.26970479,11.0740503 6.92114912,11.3244716 6.53012821,11.4897596 C6.2216031,11.6193542 5.8961592,11.7050089 5.56346154,11.7441801 C5.27692308,11.7708943 5.08910256,11.7836153 5,11.7836153 L5,8.81261926 L5.6974359,8.81261926 C6.10301441,8.8014661 6.50139386,8.70362037 6.86538462,8.52576008 C7.29980561,8.32462387 7.68119722,8.02610236 7.97948718,7.65373362 C8.3327017,7.17394082 8.5210342,6.59414992 8.51666667,6 L10.9326923,6 L10.9326923,18.6555146 L13,18.6555146 Z" id="Path"></path>
                <path d="M92.4102132,20.9920371 C91.3312528,21.0383799 90.263213,20.7688019 89.3490213,20.2193785 C88.5845433,19.7298797 87.9786067,19.0458819 87.5996787,18.2446726 C87.2202754,17.4448391 87.0174837,16.578892 87.0039567,15.7008612 C86.9676574,14.7334802 87.1815798,13.7724706 87.6267857,12.9029096 C88.0394205,12.1051425 88.683124,11.4373167 89.481404,10.9787909 C90.3453947,10.4996897 91.3314718,10.2587127 92.3301532,10.2826152 C93.2404063,10.2683698 94.1392473,10.4775969 94.9406136,10.8902634 C95.7044187,11.2912445 96.340795,11.8817111 96.7826241,12.5993866 C97.2574184,13.3886119 97.5043305,14.2841255 97.498121,15.1943874 L97.498121,15.7779464 L89.5740719,15.7779464 C89.5107914,16.6028247 89.7757784,17.4201233 90.3160453,18.0664131 C90.8461044,18.5953565 91.5912039,18.8772653 92.3566298,18.8384695 C92.9578506,18.8589016 93.5493778,18.6895839 94.039781,18.3566871 C94.4766823,18.0565025 94.7681194,17.6004389 94.8479457,17.0920081 L97.4716444,17.0920081 C97.3613988,18.1614437 96.8311713,19.1512785 95.9876976,19.8622573 C94.9885317,20.6589849 93.7095871,21.0628793 92.4102132,20.9920371 Z M89.6535015,14.6879136 L94.7949927,14.6879136 C94.7773417,14.5698769 94.7376268,14.3841899 94.6758483,14.1308526 C94.6029742,13.8547416 94.4867119,13.5907781 94.3310229,13.3479561 C94.1448016,13.0615931 93.884202,12.826122 93.5745504,12.6644273 C93.1748194,12.4641591 92.7269293,12.3679902 92.2759394,12.3855957 C91.7074387,12.347343 91.1421969,12.4947087 90.6728481,12.803542 C90.3321246,13.0542683 90.0669862,13.3867273 89.9043982,13.7671069 C89.7726596,14.0602063 89.6880712,14.3706511 89.6535015,14.6879136 L89.6535015,14.6879136 Z M99.3369794,20.7384991 L99.3369794,10.3332024 L102.040108,10.3332024 L102.040108,20.7384991 L99.3369794,20.7384991 Z M104.398411,20.7384991 L104.398411,10.3332024 L106.70376,10.3332024 L107.154492,12.5361527 L107.207445,12.5867399 C107.224256,12.5361527 107.290447,12.3968373 107.406019,12.1687936 C107.77702,11.4949833 108.374536,10.9600126 109.102409,10.6499744 C109.658339,10.4223383 110.259842,10.3141971 110.864359,10.3332024 C111.657932,10.2866594 112.446517,10.4816916 113.116756,10.8902634 C113.630428,11.2433368 114.025545,11.7314868 114.253986,12.2952615 C114.483323,12.8592349 114.62601,13.451949 114.677611,14.0549719 C114.730984,14.6628208 114.757671,15.2114506 114.757671,15.7008612 L114.757671,20.7384991 L112.110017,20.7384991 L112.110017,15.6755677 C112.114508,15.1609231 112.061251,14.6473008 111.951158,14.1434994 C111.859678,13.7042728 111.622752,13.3047991 111.275376,13.0040839 C110.842067,12.6815236 110.298998,12.5238224 109.751084,12.5614463 C109.168157,12.5229591 108.591342,12.6948916 108.134754,13.0432287 C107.762862,13.3658993 107.496085,13.7840406 107.366304,14.2476849 C107.222291,14.7466399 107.151015,15.2621886 107.154492,15.7797531 L107.154492,20.7415102 L104.398411,20.7384991 Z M121.332047,20.9920371 C120.815566,20.9835093 120.302809,20.9066983 119.808385,20.7637927 C119.246671,20.6099517 118.71103,20.3797535 118.217902,20.0802638 C117.717536,19.7795782 117.29232,19.3776778 116.972244,18.9029079 C116.636869,18.3917179 116.46651,17.7974908 116.482428,17.1943869 L118.973744,17.1943869 C118.973744,17.2281116 118.981939,17.342535 119.00022,17.5358502 C119.029781,17.7671418 119.106221,17.9907174 119.225271,18.1940855 C119.384142,18.4646807 119.617951,18.6882516 119.901053,18.8402762 C120.325901,19.0495845 120.801925,19.1456948 121.279094,19.1185056 C121.835932,19.155547 122.391163,19.0274628 122.868947,18.7517487 C123.183108,18.5714193 123.382076,18.2529647 123.399108,17.9032093 C123.409029,17.5497 123.222477,17.2175476 122.908661,17.0299786 C122.520204,16.7935656 122.09452,16.6182931 121.647874,16.510858 C121.135574,16.3759589 120.592385,16.2366435 120.018306,16.0929117 C119.460516,15.9558091 118.918748,15.7649266 118.401346,15.523204 C117.913542,15.2994841 117.490598,14.9649148 117.169557,14.5487989 C116.832833,14.0761398 116.66541,13.5120083 116.692349,12.94085 C116.65109,12.0533279 117.118111,11.2145385 117.91153,10.7511487 C118.848172,10.221799 119.925052,9.96246395 121.012437,10.0043859 C121.851504,9.99723508 122.685432,10.1301151 123.476646,10.3970386 C124.19852,10.6331621 124.83344,11.0638141 125.304788,11.6370262 C125.789666,12.2795128 126.033332,13.0595479 125.99633,13.8508166 L123.505014,13.8508166 C123.555012,13.4284331 123.426081,13.0044924 123.14695,12.6734607 C122.888106,12.4114102 122.557753,12.2236813 122.193165,12.1314554 C121.835624,12.0333476 121.465745,11.9822898 121.093758,11.979694 C120.590187,11.9484479 120.088022,12.0583334 119.648896,12.2958637 C119.345076,12.4685543 119.158953,12.7813752 119.15908,13.1191095 C119.144924,13.4802092 119.331079,13.8216936 119.648896,14.0176338 C120.040478,14.2557755 120.470195,14.4311303 120.92103,14.5367544 C121.442156,14.6716535 121.989968,14.8107681 122.564467,14.9540984 C123.129396,15.0948637 123.679373,15.28559 124.207273,15.5238062 C124.703047,15.7412631 125.138699,16.0664993 125.479407,16.4735199 C125.826245,16.9323174 125.999017,17.4903546 125.969223,18.055573 C126.018063,18.9676786 125.519796,19.8269634 124.684481,20.2711701 C123.653724,20.7913022 122.496676,21.0400999 121.332047,20.9920371 L121.332047,20.9920371 Z" id="Shape"></path>
                <path d="M20,21 L20,10.007086 L22.2253315,10.007086 L22.6578659,12.3338071 L22.708967,12.387251 C22.7260007,12.3338071 22.7898771,12.1868362 22.9005962,11.9463383 C23.0506659,11.6480055 23.2400931,11.3732188 23.4633167,11.1300454 C23.7690177,10.7965636 24.1339336,10.5285899 24.5376566,10.3411108 C25.0751384,10.1004181 25.6566814,9.98637964 26.2410269,10.007086 C27.0068291,9.95809103 27.7677828,10.1641233 28.414649,10.5956058 C28.911527,10.967962 29.2937671,11.4838089 29.5145395,12.0799482 C29.7353594,12.6759304 29.8730396,13.3020405 29.9233483,13.9390346 C29.9744494,14.5812105 30,15.1606109 30,15.6772359 L30,21 L27.4449446,21 L27.4449446,15.6505139 C27.4492817,15.1070162 27.3978868,14.5645986 27.2916413,14.0325616 C27.202454,13.5685196 26.9727121,13.1468672 26.6364521,12.8300724 C26.2188156,12.4886736 25.6947697,12.3217803 25.1660786,12.3618015 C24.6035394,12.3211408 24.0468971,12.5027829 23.6062781,12.8707916 C23.2468737,13.2113465 22.9891543,13.6532073 22.8640954,14.1432669 C22.7251871,14.6687192 22.6557982,15.2116044 22.6578659,15.7567656 L22.6578659,20.9993638 L20,21 Z" id="Path"></path>
                <path d="M36.7789738,20.9935138 C36.0209097,21.0386644 35.2673807,20.8472743 34.6194728,20.4450183 C34.1186428,20.0964642 33.7296738,19.6061396 33.5008868,19.0349564 C33.2686072,18.4558696 33.1256511,17.8438606 33.0770595,17.220511 C33.0256865,16.5852584 33,16.0054973 33,15.4812276 L33,10 L35.5447985,10 L35.5447985,15.4837123 C35.5424372,16.0013354 35.594306,16.5177447 35.6995291,17.0242205 C35.7838108,17.4791144 36.0144135,17.892711 36.3551465,18.2001003 C36.7957132,18.5298589 37.3385253,18.6873167 37.8841049,18.6436176 C38.921764,18.7629248 39.8788211,18.06191 40.0949789,17.0242205 C40.2160624,16.5459354 40.2849742,16.0555724 40.3004709,15.56198 L40.326769,10 L43,10 L43,20.7326213 L40.7640511,20.7326213 L40.3273806,18.7274759 L40.275396,18.6957961 C40.2042337,18.8768869 40.1183138,19.0516289 40.018531,19.2182023 C39.8493634,19.503383 39.6464373,19.7664417 39.4142866,20.001501 C39.1157615,20.3024508 38.7627039,20.5418647 38.3745948,20.706532 C37.8678347,20.9127072 37.3246249,21.0104067 36.7789738,20.9935138 L36.7789738,20.9935138 Z" id="Path"></path>
                <rect id="Rectangle" x="45" y="6" width="3" height="15"></rect>
                <rect id="Rectangle" x="50" y="6" width="3" height="15"></rect>
                <path d="M63.1076461,10.0150047 L63.1076461,12.1539551 L63.0519483,12.1800172 C62.9409545,11.889842 62.7831263,11.617716 62.5840867,11.3733344 C62.2762599,10.9822006 61.8811453,10.6601557 61.4268831,10.430136 C60.7783657,10.1232768 60.0574271,9.97946891 59.3333011,10.0125226 C58.0184438,9.90593676 56.7465835,10.4856777 56.0143675,11.5253631 C55.2883906,12.7400204 54.9397108,14.1242475 55.0085308,15.5184428 C54.9428442,16.9017828 55.2862006,18.2750261 55.9999516,19.483599 C56.6613357,20.492573 57.7724522,20.9968531 59.3333011,20.9964394 C60.04215,21.02456 60.7472984,20.885763 61.3856012,20.5924775 C61.8397716,20.3758238 62.2426354,20.0739146 62.5696708,19.7051265 C62.7672715,19.4901067 62.9298263,19.2483268 63.0519483,18.9877993 L63.1076461,18.9877993 L63.5755076,20.7358188 L66,20.7358188 L66,10.0150047 L63.1076461,10.0150047 Z M62.5716366,17.8274171 C62.1247187,18.4895315 61.3160736,18.8498512 60.4924706,18.7538613 C59.902061,18.7883474 59.3161852,18.6369358 58.8261235,18.3232168 C58.4263068,18.0303165 58.1364179,17.6235416 57.999175,17.1628346 C57.8375633,16.6374367 57.7587367,16.0923248 57.7652442,15.5451254 C57.7580754,15.0023699 57.8369299,14.4616669 57.999175,13.9410677 C58.1389343,13.4848865 58.4286042,13.0827662 58.8261235,12.7930961 C59.316372,12.4797624 59.9021069,12.3283873 60.4924706,12.3624516 C61.2986112,12.2714867 62.0923275,12.6073732 62.5585313,13.2367716 C62.9576631,13.9454427 63.1480147,14.7427831 63.1096119,15.5451254 C63.1370884,16.3367397 62.9519866,17.1220107 62.5716366,17.8274171 L62.5716366,17.8274171 Z" id="Shape"></path>
                <path d="M71.7792166,20.9935138 C71.0211076,21.0386644 70.267534,20.8472743 69.6195876,20.4450183 C69.1185794,20.0966272 68.7295475,19.6062523 68.5009353,19.0349564 C68.2683521,18.4559639 68.1253766,17.8439086 68.0770829,17.220511 C68.0248914,16.5848443 67.9992033,16.0050832 68,15.4812276 L68,10 L70.5449682,10 L70.5449682,15.4837123 C70.5426067,16.0013354 70.5944786,16.5177447 70.6997079,17.0242205 C70.7840059,17.4789678 71.0143713,17.8924999 71.3547526,18.2001003 C71.7954435,18.5296559 72.3382119,18.6870917 72.8838017,18.6436176 C73.9215222,18.7629248 74.8786361,18.06191 75.0948067,17.0242205 C75.2158974,16.5459354 75.2848133,16.0555724 75.3003109,15.56198 L75.3266105,10 L78,10 L78,20.7326213 L75.7639186,20.7326213 L75.3272222,18.7274759 L75.2752345,18.6957961 C75.204068,18.8768869 75.118143,19.0516289 75.0183542,19.2182023 C74.8491766,19.503383 74.6462385,19.7664417 74.414074,20.001501 C74.115748,20.3027201 73.7626144,20.5421712 73.3743206,20.706532 C72.8677253,20.9126401 72.3246966,21.0103387 71.7792166,20.9935138 Z" id="Path"></path>
                <path d="M80.4960959,21 L80.4960959,12.2521486 L79,12.2521486 L79,10.3940512 L80.4960959,10.3940512 L80.4960959,8.6648604 C80.4274896,7.93250286 80.6629705,7.20382496 81.1507173,6.63918433 C81.6905742,6.18224951 82.3982228,5.95457302 83.1139459,6.0075417 L86,6.0075417 L86,8.04549459 L83.2213546,8.04549459 L83.2213546,10.3940512 L85.9192845,10.3940512 L85.9192845,12.2521486 L83.2207191,12.2521486 L83.2207191,21 L80.4960959,21 Z" id="Path"></path>
            </g>
        </g>
    </g>
</svg>