<?xml version="1.0" encoding="utf-8"?>
<!-- Generator: Adobe Illustrator 23.0.6, SVG Export Plug-In . SVG Version: 6.00 Build 0)  -->
<svg version="1.1" id="Ebene_1" xmlns="http://www.w3.org/2000/svg" xmlns:xlink="http://www.w3.org/1999/xlink" x="0px" y="0px"
	 viewBox="0 0 751.9 126.4" style="enable-background:new 0 0 751.9 126.4;" xml:space="preserve">
<style type="text/css">
	.st0{fill:#2E3192;}
	.st1{fill:#2E2157;}
	.st2{fill:url(#SVGID_1_);}
	.st3{fill:url(#SVGID_2_);}
	.st4{fill:url(#SVGID_3_);}
	.st5{fill:url(#SVGID_4_);}
	.st6{fill:url(#SVGID_5_);}
	.st7{fill:url(#SVGID_6_);}
	.st8{fill:url(#SVGID_7_);}
	.st9{fill:url(#SVGID_8_);}
	.st10{fill:url(#SVGID_9_);}
	.st11{fill:url(#SVGID_10_);}
	.st12{fill:url(#SVGID_11_);}
	.st13{fill:url(#SVGID_12_);stroke:url(#SVGID_13_);stroke-width:7;stroke-miterlimit:10;}
	.st14{fill:url(#SVGID_14_);}
	.st15{fill:url(#SVGID_15_);}
	.st16{fill:url(#SVGID_16_);}
	.st17{fill:url(#SVGID_17_);}
	.st18{fill:url(#SVGID_18_);}
	.st19{fill:url(#SVGID_19_);}
	.st20{fill:url(#SVGID_20_);}
	.st21{fill:url(#SVGID_21_);}
	.st22{fill:url(#SVGID_22_);}
	.st23{fill:#241734;stroke:url(#SVGID_23_);stroke-width:7;stroke-miterlimit:10;}
	.st24{fill:url(#SVGID_24_);}
	.st25{fill:url(#SVGID_25_);}
	.st26{fill:url(#SVGID_26_);}
	.st27{fill:url(#SVGID_27_);}
	.st28{fill:url(#SVGID_28_);}
	.st29{fill:url(#SVGID_29_);}
	.st30{fill:url(#SVGID_30_);}
	.st31{fill:url(#SVGID_31_);}
	.st32{fill:url(#SVGID_32_);}
	.st33{fill:none;stroke:#FFFFFF;stroke-linecap:round;stroke-miterlimit:10;}
	.st34{fill:#241734;}
	.st35{fill:#FD3777;}
	.st36{fill:#F706CF;}
	.st37{fill:#FD1D53;}
	.st38{fill:#F9C80E;}
	.st39{fill:#023788;}
	.st40{fill:#650D89;}
	.st41{fill:#920075;}
	.st42{fill:#F6019D;}
	.st43{fill:#D40078;}
	.st44{fill:#241734;stroke:#F706CF;stroke-width:7;stroke-miterlimit:10;}
</style>
<g>
	<linearGradient id="SVGID_1_" gradientUnits="userSpaceOnUse" x1="378.2528" y1="114.9568" x2="378.2528" y2="11.7272">
		<stop  offset="0" style="stop-color:#241734"/>
		<stop  offset="0.472" style="stop-color:#2E223D"/>
		<stop  offset="1" style="stop-color:#3E334C"/>
	</linearGradient>
	<path class="st2" d="M665.4,11.7L665.4,11.7l-628.9,0L24.7,67.4h0L14.6,115H693c4.6,0,9.1-1.1,13.3-3.4c3.1-1.6,6.1-3.7,8.7-6.2
		c2.6-2.5,5-5.4,6.8-8.6c3.7-6.3,6.3-20.7,6.3-20.7l0.8-3.6c0.2-0.8,0.3-1.6,0.4-2.5l0.5-2.5h0.1l11.8-55.7
		C741.9,11.7,665.6,11.7,665.4,11.7z"/>
	<linearGradient id="SVGID_2_" gradientUnits="userSpaceOnUse" x1="378.252" y1="8.2262" x2="378.252" y2="118.4566">
		<stop  offset="0.2761" style="stop-color:#F9C80E"/>
		<stop  offset="0.2901" style="stop-color:#F9B814"/>
		<stop  offset="0.3271" style="stop-color:#FA9423"/>
		<stop  offset="0.3687" style="stop-color:#FB7430"/>
		<stop  offset="0.4147" style="stop-color:#FC583B"/>
		<stop  offset="0.4667" style="stop-color:#FC4244"/>
		<stop  offset="0.5274" style="stop-color:#FD314B"/>
		<stop  offset="0.6024" style="stop-color:#FD2650"/>
		<stop  offset="0.7077" style="stop-color:#FD1F52"/>
		<stop  offset="1" style="stop-color:#FD1D53"/>
	</linearGradient>
	<path class="st3" d="M693,118.5H10.3L33.7,8.2h635.9l0,0c11.5,0,44.1,0,72.3,0l4.3,0l-13.4,62.7c-0.1,0.8-0.3,1.5-0.4,2.3l-0.8,3.6
		c-0.2,1.3-2.8,15.2-6.7,21.8c-2,3.4-4.5,6.6-7.4,9.3c-2.9,2.7-6.1,5-9.5,6.8C703.2,117.2,698.2,118.5,693,118.5z M18.9,111.5H693
		c4,0,8-1,11.7-3c2.9-1.5,5.5-3.4,7.9-5.7c2.5-2.3,4.5-5,6.2-7.8c2.8-4.8,5.2-15.7,5.9-19.6l0-0.1l0.8-3.6c0.2-0.7,0.3-1.4,0.4-2.2
		l0-0.3l1.1-5.3h0.1l10.4-48.7c-16.1,0-71.5,0-72.2,0l-4.2,0l0,0H39.3L29,63.9h0l-0.9,4.2L18.9,111.5z"/>
</g>
<g>
	<linearGradient id="SVGID_3_" gradientUnits="userSpaceOnUse" x1="83.3324" y1="31.4331" x2="83.3324" y2="97.5083">
		<stop  offset="0.2761" style="stop-color:#F9C80E"/>
		<stop  offset="0.2901" style="stop-color:#F9B814"/>
		<stop  offset="0.3271" style="stop-color:#FA9423"/>
		<stop  offset="0.3687" style="stop-color:#FB7430"/>
		<stop  offset="0.4147" style="stop-color:#FC583B"/>
		<stop  offset="0.4667" style="stop-color:#FC4244"/>
		<stop  offset="0.5274" style="stop-color:#FD314B"/>
		<stop  offset="0.6024" style="stop-color:#FD2650"/>
		<stop  offset="0.7077" style="stop-color:#FD1F52"/>
		<stop  offset="1" style="stop-color:#FD1D53"/>
	</linearGradient>
	<path class="st4" d="M52.9,54.9h44.8l4.9-23.4h20.3l-14,66.1H88.5l5-23.6H69.1l-5,23.6H43.8L52.9,54.9z M57.8,31.4h20.3L74,51H53.7
		L57.8,31.4z"/>
	<linearGradient id="SVGID_4_" gradientUnits="userSpaceOnUse" x1="151.9321" y1="31.4331" x2="151.9321" y2="97.5083">
		<stop  offset="0.2761" style="stop-color:#F9C80E"/>
		<stop  offset="0.2901" style="stop-color:#F9B814"/>
		<stop  offset="0.3271" style="stop-color:#FA9423"/>
		<stop  offset="0.3687" style="stop-color:#FB7430"/>
		<stop  offset="0.4147" style="stop-color:#FC583B"/>
		<stop  offset="0.4667" style="stop-color:#FC4244"/>
		<stop  offset="0.5274" style="stop-color:#FD314B"/>
		<stop  offset="0.6024" style="stop-color:#FD2650"/>
		<stop  offset="0.7077" style="stop-color:#FD1F52"/>
		<stop  offset="1" style="stop-color:#FD1D53"/>
	</linearGradient>
	<path class="st5" d="M140.8,51l10.4-19.5h29.4l6.7,66.1H166l-2.2-23.6h-13.6l-12.2,23.6h-21.4l22.3-42.6h24l-0.1-3.9H140.8z"/>
	<linearGradient id="SVGID_5_" gradientUnits="userSpaceOnUse" x1="232.8277" y1="31.4331" x2="232.8277" y2="97.5083">
		<stop  offset="0.2761" style="stop-color:#F9C80E"/>
		<stop  offset="0.2901" style="stop-color:#F9B814"/>
		<stop  offset="0.3271" style="stop-color:#FA9423"/>
		<stop  offset="0.3687" style="stop-color:#FB7430"/>
		<stop  offset="0.4147" style="stop-color:#FC583B"/>
		<stop  offset="0.4667" style="stop-color:#FC4244"/>
		<stop  offset="0.5274" style="stop-color:#FD314B"/>
		<stop  offset="0.6024" style="stop-color:#FD2650"/>
		<stop  offset="0.7077" style="stop-color:#FD1F52"/>
		<stop  offset="1" style="stop-color:#FD1D53"/>
	</linearGradient>
	<path class="st6" d="M204.4,97.5c-1.6,0-3.1-0.4-4.4-1.3c-1.3-0.9-2.3-2-3.1-3.3c-0.8-1.3-1.4-2.9-1.7-4.7
		c-0.3-1.8-0.3-3.5,0.1-5.3l5.9-28h20.3l-4.9,23.3h44.1l-4.2,19.3H204.4z M202.1,51l1-4.7c0.4-1.8,1.1-3.6,2.1-5.3
		c1-1.8,2.3-3.3,3.7-4.8c1.4-1.4,3-2.6,4.6-3.4c1.6-0.9,3.3-1.3,4.9-1.3h52.2L266.5,51H202.1z"/>
	<linearGradient id="SVGID_6_" gradientUnits="userSpaceOnUse" x1="306.0131" y1="31.4331" x2="306.0131" y2="97.5083">
		<stop  offset="0.2761" style="stop-color:#F9C80E"/>
		<stop  offset="0.2901" style="stop-color:#F9B814"/>
		<stop  offset="0.3271" style="stop-color:#FA9423"/>
		<stop  offset="0.3687" style="stop-color:#FB7430"/>
		<stop  offset="0.4147" style="stop-color:#FC583B"/>
		<stop  offset="0.4667" style="stop-color:#FC4244"/>
		<stop  offset="0.5274" style="stop-color:#FD314B"/>
		<stop  offset="0.6024" style="stop-color:#FD2650"/>
		<stop  offset="0.7077" style="stop-color:#FD1F52"/>
		<stop  offset="1" style="stop-color:#FD1D53"/>
	</linearGradient>
	<path class="st7" d="M280.5,31.4h20.3l-14,66.1h-20.3L280.5,31.4z M296.8,68.9l1.9-8.8l24.7-28.7h22.2l-28.2,33.1l14.1,33h-22.2
		L296.8,68.9z"/>
	<linearGradient id="SVGID_7_" gradientUnits="userSpaceOnUse" x1="376.1273" y1="31.4331" x2="376.1273" y2="97.5083">
		<stop  offset="0.2761" style="stop-color:#F9C80E"/>
		<stop  offset="0.2901" style="stop-color:#F9B814"/>
		<stop  offset="0.3271" style="stop-color:#FA9423"/>
		<stop  offset="0.3687" style="stop-color:#FB7430"/>
		<stop  offset="0.4147" style="stop-color:#FC583B"/>
		<stop  offset="0.4667" style="stop-color:#FC4244"/>
		<stop  offset="0.5274" style="stop-color:#FD314B"/>
		<stop  offset="0.6024" style="stop-color:#FD2650"/>
		<stop  offset="0.7077" style="stop-color:#FD1F52"/>
		<stop  offset="1" style="stop-color:#FD1D53"/>
	</linearGradient>
	<path class="st8" d="M403.6,31.4c1.6,0,3.1,0.4,4.4,1.3c1.3,0.9,2.3,2,3.2,3.3c0.9,1.3,1.4,2.9,1.7,4.7c0.3,1.8,0.3,3.5-0.1,5.3
		l-7.9,36.7c-0.4,1.8-1.1,3.6-2.1,5.3c-1,1.8-2.3,3.3-3.7,4.8c-1.4,1.4-3,2.6-4.6,3.4c-1.6,0.9-3.3,1.3-4.9,1.3h-40.9
		c-1.6,0-3.1-0.4-4.4-1.3c-1.3-0.9-2.3-2-3.1-3.4c-0.8-1.4-1.4-3-1.7-4.8c-0.3-1.8-0.3-3.5,0.1-5.3l1-4.7h45.1l5.8-27.3h-24.8
		l-5,23.3h-20.3l6.1-28c0.4-1.8,1.1-3.6,2.1-5.3c1-1.8,2.2-3.3,3.6-4.7c1.4-1.3,2.9-2.4,4.5-3.3c1.6-0.9,3.3-1.3,5-1.3H403.6z"/>
	<linearGradient id="SVGID_8_" gradientUnits="userSpaceOnUse" x1="445.5683" y1="31.4331" x2="445.5683" y2="97.5083">
		<stop  offset="0.2761" style="stop-color:#F9C80E"/>
		<stop  offset="0.2901" style="stop-color:#F9B814"/>
		<stop  offset="0.3271" style="stop-color:#FA9423"/>
		<stop  offset="0.3687" style="stop-color:#FB7430"/>
		<stop  offset="0.4147" style="stop-color:#FC583B"/>
		<stop  offset="0.4667" style="stop-color:#FC4244"/>
		<stop  offset="0.5274" style="stop-color:#FD314B"/>
		<stop  offset="0.6024" style="stop-color:#FD2650"/>
		<stop  offset="0.7077" style="stop-color:#FD1F52"/>
		<stop  offset="1" style="stop-color:#FD1D53"/>
	</linearGradient>
	<path class="st9" d="M479.5,78l-4.2,19.5h-63.7l4.2-19.5H479.5z M416.6,74.1l9.1-42.6H446l-9.1,42.6H416.6z"/>
	<linearGradient id="SVGID_9_" gradientUnits="userSpaceOnUse" x1="518.4296" y1="31.4331" x2="518.4296" y2="97.5083">
		<stop  offset="0.2761" style="stop-color:#F9C80E"/>
		<stop  offset="0.2901" style="stop-color:#F9B814"/>
		<stop  offset="0.3271" style="stop-color:#FA9423"/>
		<stop  offset="0.3687" style="stop-color:#FB7430"/>
		<stop  offset="0.4147" style="stop-color:#FC583B"/>
		<stop  offset="0.4667" style="stop-color:#FC4244"/>
		<stop  offset="0.5274" style="stop-color:#FD314B"/>
		<stop  offset="0.6024" style="stop-color:#FD2650"/>
		<stop  offset="0.7077" style="stop-color:#FD1F52"/>
		<stop  offset="1" style="stop-color:#FD1D53"/>
	</linearGradient>
	<path class="st10" d="M507.3,51l10.4-19.5h29.4l6.7,66.1h-21.4l-2.2-23.6h-13.6l-12.2,23.6H483l22.3-42.6h24l-0.1-3.9H507.3z"/>
	<linearGradient id="SVGID_10_" gradientUnits="userSpaceOnUse" x1="599.6616" y1="31.4331" x2="599.6616" y2="97.5083">
		<stop  offset="0.2761" style="stop-color:#F9C80E"/>
		<stop  offset="0.2901" style="stop-color:#F9B814"/>
		<stop  offset="0.3271" style="stop-color:#FA9423"/>
		<stop  offset="0.3687" style="stop-color:#FB7430"/>
		<stop  offset="0.4147" style="stop-color:#FC583B"/>
		<stop  offset="0.4667" style="stop-color:#FC4244"/>
		<stop  offset="0.5274" style="stop-color:#FD314B"/>
		<stop  offset="0.6024" style="stop-color:#FD2650"/>
		<stop  offset="0.7077" style="stop-color:#FD1F52"/>
		<stop  offset="1" style="stop-color:#FD1D53"/>
	</linearGradient>
	<path class="st11" d="M617.5,31.4h20.3l-14,66.1h-52.8c-1.6,0-3.1-0.4-4.4-1.3c-1.3-0.9-2.3-2-3.1-3.4c-0.8-1.4-1.4-3-1.7-4.8
		c-0.3-1.8-0.3-3.5,0.1-5.3l1-4.7h44.8L617.5,31.4z M572.7,31.4H593l-9.1,42.6h-20.3L572.7,31.4z"/>
	<linearGradient id="SVGID_11_" gradientUnits="userSpaceOnUse" x1="673.185" y1="31.4331" x2="673.185" y2="97.5083">
		<stop  offset="0.2761" style="stop-color:#F9C80E"/>
		<stop  offset="0.2901" style="stop-color:#F9B814"/>
		<stop  offset="0.3271" style="stop-color:#FA9423"/>
		<stop  offset="0.3687" style="stop-color:#FB7430"/>
		<stop  offset="0.4147" style="stop-color:#FC583B"/>
		<stop  offset="0.4667" style="stop-color:#FC4244"/>
		<stop  offset="0.5274" style="stop-color:#FD314B"/>
		<stop  offset="0.6024" style="stop-color:#FD2650"/>
		<stop  offset="0.7077" style="stop-color:#FD1F52"/>
		<stop  offset="1" style="stop-color:#FD1D53"/>
	</linearGradient>
	<path class="st12" d="M637.8,78h65.1l-1,4.9c-0.4,1.8-1.1,3.6-2.1,5.3c-1,1.8-2.3,3.3-3.7,4.7c-1.4,1.3-3,2.5-4.6,3.3
		c-1.6,0.9-3.3,1.3-4.9,1.3h-52.8L637.8,78z M693.9,54.9c2.2,0,4,0.5,5.5,1.5c1.5,1,2.7,2.3,3.6,3.8c0.9,1.5,1.5,3.1,1.7,4.8
		c0.3,1.7,0.2,3.2-0.1,4.5l-1,4.5h-52.8c-1.6,0-3.1-0.5-4.4-1.5c-1.3-1-2.3-2.3-3.1-3.8c-0.8-1.5-1.3-3.1-1.6-4.8
		c-0.3-1.7-0.3-3.2,0-4.5l2.9-13.3c0.4-1.8,1.1-3.6,2.1-5.3c1-1.8,2.2-3.3,3.6-4.7c1.4-1.3,2.9-2.4,4.5-3.3c1.6-0.9,3.3-1.3,5-1.3
		h52.8L708.6,51h-44.8l-0.8,3.9H693.9z"/>
</g>
</svg>
